<?xml version="1.0" encoding="utf-8"?>
<!-- Generator: Adobe Illustrator 24.1.2, SVG Export Plug-In . SVG Version: 6.00 Build 0)  -->
<svg version="1.1" id="Layer_1" xmlns="http://www.w3.org/2000/svg" xmlns:xlink="http://www.w3.org/1999/xlink" x="0px" y="0px"
	 viewBox="0 0 400 150" style="enable-background:new 0 0 400 150;" xml:space="preserve">
<style type="text/css">
	.st0{fill:#80BEBF;}
	.st1{fill:#F8F9ED;}
	.st2{fill:#BEC75B;}
	.st3{fill:#F4F5E6;}
	.st4{fill:#AFDADB;}
	.st5{fill:#6AA5A5;}
	.st6{fill-rule:evenodd;clip-rule:evenodd;fill:#C7BF77;}
	.st7{fill:#E8E6A5;}
	.st8{fill:#97C5CC;}
	.st9{fill:#F7F7E1;}
	.st10{fill-rule:evenodd;clip-rule:evenodd;fill:#CCB43D;}
	.st11{fill-rule:evenodd;clip-rule:evenodd;fill:#ADA734;}
	.st12{fill-rule:evenodd;clip-rule:evenodd;fill:#EEF0D8;}
	.st13{fill:#56A8BA;}
	.st14{fill:#92943B;}
</style>
<g>
	<rect x="-8.9" y="-2.5" class="st6" width="411.8" height="424.5"/>
	<g>
		<path class="st7" d="M-8.9,9.3v1.9C-6.3,8.9-3.7,6.7-1,4.4C2.2,12.3,5.8,19.7,9.5,27c-4.5,2.5-9.2,5-13.9,7.3
			c-1.4,0.7-2.7,1.3-4.1,2c-0.1-0.3-0.2-0.6-0.4-1v4.2c0.3,0.7,0.5,1.4,0.8,2.1c0.9,2.6,1.9,5.3,2.9,8c-1.2,0.4-2.4,0.9-3.6,1.5v1.6
			c1.4-0.7,2.7-1.2,4.2-1.7c3.5,9.5,7.9,19.9,14.7,31.4c-6.4,0.5-12.7,2-18.8,4.6v1.6c6.3-2.8,13-4.4,19.7-4.8
			c2.9,4.9,6.3,10,10.3,15.4c2.2,3,4.4,5.7,6.5,8.4c-12.7,0.1-25.3,1.9-36.5,5.8v1.5c11.5-4.1,24.5-6,37.7-5.9
			c3.7,4.3,7.3,8.1,11,11.6c0.1,5.4-0.3,10.8-1.2,16.3c-13.4-5.9-28.8-9.6-47.5-11.5v1.5c18.6,1.9,33.9,5.6,47.3,11.5
			c-0.2,1.3-0.5,2.7-0.8,4c-1.2,5.6-2.6,10.8-4.1,15.8c-3.5,0.1-7,0.8-10.5,2.4c-6.7,3.1-10.3,9-11.9,15.6
			c-6.3-4.6-12.9-8.7-19.7-11.7c0-2.5-0.2-5.1-0.4-7.6v19.6c0.3-3.4,0.4-6.8,0.4-10.3c6.7,3.1,13.1,7.1,19.3,11.7
			c-0.9,4.8-0.8,9.9-0.1,14.5c0.5,2.8,1.1,5.5,1.8,8.2c-6.3,7.6-13.4,13.3-21.5,17.2v1.6c8.3-3.9,15.6-9.6,22-17.2
			c1.2,3.8,2.6,7.4,4.3,11.1c-3.6,5.2-6.5,10.2-8.4,16.4c-3.3,1.5-6.7,2.8-10.2,3.8c-2.5,0.7-5,1.2-7.7,1.7v1.5
			c2.8-0.5,5.5-1.1,8.1-1.8c3.2-0.9,6.3-2,9.3-3.3c-0.8,3-1.5,6.3-1.9,10.1h0c-0.2,2.1-0.4,4.4-0.5,6.8c-5.3,5.7-10.3,11.9-15,18.6
			v2.6c4.6-6.9,9.6-13.2,15-19.1c0,0.6,0,1.2,0,1.9c0,9.9,3.2,18.2,7.8,25.9c-0.5,0.5-1,1-1.4,1.5c-2.1,2.3-4.1,4.7-5.9,7.1
			c-5.2-1.7-10.1-5.3-15.4-9.5v1.9c4.8,3.8,9.5,7.1,14.5,8.9c-2.8,3.9-5.4,8-7.7,12.2c-2.3-0.2-4.5-0.4-6.8-0.5v1.5
			c2,0.1,4,0.2,6,0.4c-2.1,3.9-4.1,7.8-6,11.7v3.3c2.4-5,4.9-9.9,7.6-14.8c5.8,0.7,11.5,1.8,17.1,3.5C3.2,317.9-5,333.2-8.9,351.4
			v8.5c2.9-21.8,11.7-39.8,26.3-54c2.6,0.8,5.2,1.7,7.8,2.8c5.7,2.3,11.2,5.3,16.5,8.7c2.7,4.8,5,10,6.9,15.9
			c0.2,0.8,0.5,1.6,0.7,2.4c-3.7,3.6-7.1,7.4-10.2,11c-3.1,3.7-6.1,7.8-9.3,12.1c-0.8,1.1-1.6,2.2-2.5,3.3
			c-9.9,0.3-20.1,2.5-29.9,6.2c-2.1-1.5-4.2-3-6.3-4.5v1.8c1.5,1.1,3.1,2.2,4.6,3.3c-1.6,0.6-3.1,1.2-4.6,1.9v1.6c2-0.9,4-1.7,6-2.5
			c4.9,3.5,9.7,7.2,14.4,10.9c-6,5.8-12.6,10.7-20.4,13.4v8.9c1.3,6.7,3.2,13,5.3,18.9h1.5c-2.9-8.1-5.3-16.8-6.6-26.3
			c8.2-2.8,15.2-7.8,21.4-14c7.8,6.3,15.4,12.9,22.4,20.1c-9.3,5.4-18.5,11.5-27.7,18.5c-0.7,0.5-1.4,1.1-2.1,1.7h2.4
			c0.2-0.2,0.4-0.3,0.6-0.5c9.3-7.1,18.6-13.2,27.9-18.6c4.1,4.2,8,8.7,11.8,13.3c-0.2,1.9-0.4,3.9-0.6,5.8h1.4
			c0.1-1.4,0.3-2.8,0.5-4.2c1.1,1.4,2.1,2.8,3.2,4.2h1.8c-1.5-2.1-3.1-4.2-4.7-6.2c0.5-3.7,1-7.5,1.5-11.4c0.5-3.3,0.9-6.6,1.4-10
			c8.6-4.1,17.3-7.5,26.2-10.3c2.6,2.2,5.2,4.4,7.8,6.7c1.8,1.6,3.6,3.1,5.4,4.7c7.3,6.3,14.1,11.4,20.4,15.6
			c1.1,3.7,2.2,7.3,3.4,11h1.5c-1.1-3.3-2.1-6.5-3.1-9.8c6.9,4.4,13.4,7.6,19.8,9.8h4.8c0,0,0,0,0,0c-8.1-2.3-16.3-6.2-25.2-11.9
			c-3.1-10.7-5.6-21.5-7.2-32.6c0.6-0.1,1.3-0.2,1.9-0.3c6-1,12.2-1.9,18.7-2.8c0.2,1.3,0.5,2.6,1,3.8c4.6,12.8,15.6,18.7,35.5,18.7
			c3.6,5,6.7,10.4,8.4,16.5c0.8,2.8,1.3,5.7,1.6,8.7h1.4c-0.4-3.1-0.9-6.2-1.7-9.1c-1.6-6-4.5-11.2-8-16.1
			c4.9-0.1,10.4-0.5,16.4-1.2c0.6-0.1,1.1-0.2,1.7-0.2v0c0.8-0.1,1.7-0.2,2.5-0.4c2-0.3,4-0.6,6.1-0.8c0.7,9.4,2.1,18.7,4.2,27.8
			h1.5c-2.1-9.2-3.5-18.5-4.2-27.9c6-0.3,12,0.8,18,6.8c4.4,4.4,6.4,12.2,6.4,21.1h1.5c0-9.2-2.1-17.3-6.9-22.1
			c-6.4-6.4-12.8-7.6-19.1-7.2c-0.4-6-0.5-12.1-0.3-18.1c5.8,2.7,11.3,5.7,16.6,9.2c7.1,4.7,13.9,9.9,20.5,15.3
			c-0.9,7.1-1.3,14.4-1,21.6c-1.5,0.5-3,0.9-4.6,1.4h6c0-0.1,0-0.2,0-0.3c3.8-1.2,7.5-2.4,11.2-3.6c2.4-0.8,4.9-1.6,7.4-2.4
			c0,2-0.1,4.1-0.3,6.2h1.4c0.2-2.1,0.3-4.1,0.3-6.2c2.6,2.1,5.3,4.2,8,6.2h2.4c-3.1-2.3-6.2-4.6-9.2-7c4.8-1.5,9.6-2.9,14.4-4.2
			c0.2,0,0.4-0.1,0.6-0.1c-1.6,3.7-3.1,7.5-4.6,11.4h1.5c1.5-4,3.1-8,4.8-11.8c8-2,16.2-3.9,24.4-5.3c-0.2,5.6-0.2,11.4,0,17.1h1.4
			c-0.3-5.8-0.2-11.7,0-17.3c10.3-1.7,20.6-2.7,30.6-2.4c0.2,6.6,0.3,13.2,0.2,19.7h1.4c0.1-6.5,0.1-13.1-0.2-19.7
			c4.1,0.2,8.1,0.5,12.1,1.1c3.2,3.5,6.2,7.2,8.7,11.2c-2.5,2.6-5.1,5-7.8,7.4h2.2c2.2-2,4.3-4,6.4-6.1c1.2,2,2.3,4,3.3,6.1h1.6
			c-1.1-2.4-2.4-4.8-3.8-7.2c2.2-2.3,4.5-4.6,6.6-6.9c5.4,2.1,10.6,4.8,15.5,8.2c0.3,2,0.6,3.9,1,5.9h1.4c-0.3-1.6-0.5-3.1-0.8-4.7
			c1.9,1.5,3.9,3,5.7,4.7h2.1c-2.6-2.5-5.3-4.8-8.1-6.8c-1-6.7-2-13.4-2.6-20.2c6,2.1,12.9,3.1,20.8,2.9c4-0.1,7.8-0.7,11.3-1.8
			c0.3,2.4,0.8,4.7,1.2,7v-8.9c0,0,0,0,0,0c-0.3-2.3-0.5-4.5-0.7-6.9c-0.3-5-0.5-9.8-0.3-14.5c0.3-0.2,0.7-0.3,1-0.5v-1.6
			c-0.3,0.1-0.7,0.3-1,0.4c0.1-2.1,0.2-4.1,0.4-6.1c0.2,0.1,0.4,0.3,0.6,0.4v-1.8c-0.1-0.1-0.3-0.2-0.4-0.3c0.1-1.2,0.3-2.4,0.4-3.5
			v-8.5c-0.8,3.6-1.4,7.3-1.8,11.1c-5-3.5-10.1-7-15.1-10.5c-0.7-0.5-1.3-0.9-2-1.4c7.1-9.7,12.4-20.7,17.6-31.3
			c0.4-0.8,0.8-1.7,1.2-2.5v-3.3c-0.8,1.7-1.7,3.4-2.5,5.1c-5.2,10.6-10.5,21.5-17.5,31.1c-3.5-2.4-6.9-4.8-10.4-7.3
			c1.7-8.4,3.9-16.7,6.8-24.9c1.9-5.4,3.9-10.5,6.1-15.6c5.9-0.7,11.8-0.9,17.6-0.6v-1.5c-5.6-0.2-11.3-0.1-17,0.5
			c3.8-8.7,8.1-16.9,12.8-24.5c1.4,1.1,2.8,2.3,4.1,3.3v-1.9c-1.1-0.9-2.2-1.8-3.3-2.7c1.1-1.7,2.2-3.4,3.3-5.1v-2.6
			c-1.5,2.2-3,4.4-4.5,6.7c-6.9-5.7-14.3-11.8-23.7-16.3c2.7-5.3,5.4-10.5,8-15.9h0c0.5-1.1,1.1-2.2,1.6-3.3c3.2,0,6.4-0.1,9.6-0.4
			c3.1-0.3,6.1-0.7,9-1.2v-1.5c-2.9,0.5-6,0.9-9.1,1.2c-3,0.3-5.9,0.4-8.8,0.4c2-4.4,3.9-8.7,5.7-13.1c4.3-1,8.3-2.4,12.2-4.2v-1.6
			c-3.6,1.8-7.5,3.2-11.5,4.2c5.9-14.8,10.2-30,11.5-45.5v-19.6c-0.7-7.8-2.2-15.7-4.7-23.7c-0.7-2.2-1.5-4.5-2.4-6.8
			c2.4,0.2,4.8,0.4,7.1,0.6v-1.5c-2.5-0.3-5.1-0.5-7.7-0.7c-0.7-1.8-1.4-3.6-2.2-5.5c3.1-1.7,6.4-3.1,9.9-4.4v-1.5
			c-3.6,1.3-7.1,2.8-10.4,4.6c-2.3-5.8-4.7-11.7-6.4-17.7c3.8-3.8,8-7,12.8-9.6c1.3-0.7,2.7-1.3,4-1.9v-1.6
			c-1.6,0.7-3.1,1.4-4.7,2.2c-4.8,2.5-8.9,5.7-12.6,9.3c-3.4-12.5-4-24.9,4.4-35.5c3.7-4.7,8.1-8,12.9-10.4v-1.6
			c-5.2,2.4-10,6-14,11c-8.9,11.3-8.2,24.5-4.4,37.6c-6.6,6.8-11.8,14.9-16.6,23.3c-5-0.5-10-1.3-14.8-2.4
			c15.6-22.2,24.2-46.6,25.4-71.8c8.6-3.2,16.8-7,24.1-10.5c0.1,0.4,0.3,0.8,0.4,1.2v-4.2c-2.2-6.1-4.5-11.8-7.3-17.4
			c2.4-2.3,4.8-4.6,7.3-6.8V9.3c-2.8,2.4-5.4,4.9-8,7.4c-3.4-6.2-7.6-12.2-13.4-18c-0.4-0.4-0.8-0.8-1.2-1.2h-2.1
			c0.8,0.7,1.6,1.4,2.3,2.2c5.8,5.8,10,11.8,13.3,18c-5.5,5.4-10.7,10.8-15.5,16.3c-0.1-1.3-0.2-2.6-0.3-3.9
			c-0.9-9.7-2.6-19.5-4.1-28.9c-0.2-1.2-0.4-2.5-0.6-3.8h-1.4c0.2,1.3,0.4,2.7,0.7,4c1.6,9.4,3.2,19.1,4.1,28.8
			c0.2,1.8,0.3,3.5,0.4,5.2c-4.7,5.4-9.2,10.9-13.4,16.3c-6.2,1.5-12.3,2.5-18.1,2.6c3-2.2,5.6-5.1,7.4-8.6
			c3.6-6.8,5.5-15.3,5.5-23.7c0-3.9-0.4-7.8-1.3-11.5c-1-4.6-2.6-9-4.6-13.3H351c2.1,4.4,3.7,8.9,4.8,13.6c2.6,11.3,1,24.4-4.1,34.1
			c-2.1,4-5.2,7-8.8,9.3c-7.6-0.1-14.8-1.7-21.5-5.2c0.8-4.2,1.5-8.1,2.1-12c1.3-9.1,2.2-18.8,2.6-28.7c5.5-3,10.6-6.8,15.3-11.1
			h-2.2c-4.1,3.5-8.3,6.7-13,9.3c0.1-3.1,0.2-6.2,0.3-9.3h-1.4c-0.1,3.4-0.1,6.8-0.3,10.1c-4,2.1-8.4,3.8-13.1,4.8
			c-5.2,1.1-10.3,1.4-15.5,0.9c-1-5.1-1.6-10.5-1.8-15.8h-1.4c0.3,5.3,0.8,10.6,1.8,15.7c-9.7-1.4-19.7-5.7-30.4-13.2
			c-0.4-0.3-0.8-0.6-1.2-0.9c0.2-0.5,0.4-1,0.6-1.5H262c-0.1,0.2-0.2,0.4-0.3,0.7c-0.3-0.2-0.6-0.4-0.9-0.7h-2.4
			c0.9,0.7,1.8,1.4,2.8,2.1c-2.3,6.2-4.6,12.6-6.7,19.3c-0.2,0.6-0.4,1.2-0.6,1.8c-2.9-1.1-6-2.1-9.4-3c1.2-2.8,2.4-5.8,3.3-9
			c1.1-3.8,1.9-7.6,2.3-11.2h-1.4c-0.4,3.5-1.1,7.1-2.2,10.8c-1,3.2-2.1,6.2-3.4,9.1c-3.4-0.8-7-1.6-10.7-2.1
			c-1.1-5.9-1.7-11.8-2-17.7h-6c-1.7,0.5-3.5,1-5.2,1.5c0-0.5,0-0.9,0-1.4c0,0,0,0,0,0h-1.5c0,0.6,0,1.2,0,1.9
			c-5.4,1.4-10.9,2.7-16.5,3.5c-0.8,0.1-1.5,0.2-2.3,0.3c-0.5-1.9-1-3.8-1.4-5.7H196c0.5,2,0.9,3.9,1.4,5.9
			c-4.8,0.6-9.6,0.8-14.2,0.8v0c-2.7,0-5.3-0.1-8-0.3c0-2.2-0.2-4.3-0.4-6.5h-1.4c0.2,2.1,0.4,4.2,0.5,6.4
			c-12.7-0.9-24.6-3.6-35.2-6.4h-4.8c1.5,0.5,2.9,1,4.4,1.4c10.7,2.8,22.7,5.5,35.6,6.4c0,4.7-0.5,9.4-1.5,13.8
			c0,0.1-0.1,0.2-0.1,0.3c-14,5.1-26,13.3-35,24c-0.9,1.1-1.8,2.2-2.6,3.4c-1.7-5.6-3.7-11.3-5.9-17.1c-4.1-10.7-8.1-21.4-11.6-32.2
			h-1.5c3.6,11,7.6,21.8,11.8,32.7c2.4,6.1,4.4,12.2,6.2,18.1c-4.5,6.4-7.9,13.4-10.4,21c-1.8-3.8-3.5-7.8-5-12.1l-1-3
			c-4.8-13.8-9.7-28.1-22.7-36.7C84,10.5,72.4,7.2,61,7.6c-0.2-0.3-0.3-0.6-0.5-0.8c-2-3.2-4.1-6.3-6.3-9.3h-1.8
			c2.4,3.2,4.7,6.6,6.9,10.1c0,0,0,0.1,0.1,0.1C58,7.8,56.6,8,55.2,8.2c-2.5,0.4-4.9,0.9-7.2,1.5c0.1-4,0.4-8.1,0.8-12.2h-1.4
			c-0.4,4.3-0.7,8.5-0.8,12.6c-12.7,3.6-24.4,10-35.8,16.2c0,0,0,0,0,0C7.1,18.9,3.4,11.4,0.2,3.4c2.4-2,4.9-4,7.5-5.9H5.3
			C3.4-1,1.5,0.5-0.4,2c-0.6-1.5-1.1-3-1.7-4.5h-1.5c0.7,1.9,1.3,3.7,2,5.5C-4,5.1-6.5,7.2-8.9,9.3z M394.5,19.1
			c2.9,5.7,5.2,11.6,7.5,17.9c-7.7,3.7-15.6,7.3-23.5,10.2c0.1-3.7,0.1-7.4-0.1-11.1C383.5,30.4,388.8,24.7,394.5,19.1z M-3.3,50.7
			c7.5-2.3,15.6-2.6,23.2-1.5c5.5,12.6,10.4,24.6,13.9,36.2c-7.3-2.3-14.8-3.4-22.2-3C4.7,70.8,0.3,60.4-3.3,50.7z M86.1,92.4
			c-0.1-5.3-0.5-10.6-1.2-16c2.8,2.4,5.7,4.8,8.5,7.2c8.9,7.5,18,15.2,26.1,23.4c0.7,10,0.8,22.6-3.4,34c-2.7-2.1-5.4-4.2-7.9-6.3
			c-6.1-5-12.4-10.1-19.8-13.9c-1.3-0.7-2.7-1.3-4.2-2c1.3-7.5,1.9-15.3,1.9-23.5C86.1,94.4,86.1,93.4,86.1,92.4z M121.1,108.6
			c0.3,0.3,0.5,0.5,0.8,0.8c5.9,6.3,12,13.3,17.4,20.9c0,0,0,0.1,0,0.1c-0.6,0.5-1.2,1-1.8,1.5c-5.2,4.2-12.2,7.5-19.7,8.8
			C121.5,130.1,121.7,118.3,121.1,108.6z M350.1,220c-0.8,3.2-1.6,6.4-2.7,9.5c-5.1-2.1-10.1-4.6-15.1-7.5c-3.4-2-6.6-4.3-9.8-6.5
			c-2.1-1.5-4.3-3.1-6.5-4.5c2.4-6.5,5.4-12.5,8.9-18C330.8,205.4,339.4,214.6,350.1,220z M325.8,191.5c6.7-10,15.2-18.2,25.2-24.2
			c3.2-1.9,6.4-3.3,9.5-4.5c-2.7,10.1-4.3,20.5-5.8,30.8c-1.2,8.3-2.4,16.6-4.3,24.8C340,213.1,331.5,204,325.8,191.5z M367.9,392
			c0,0.3,0,0.6,0.1,0.9c-4.8-2-8.8-4.7-12.2-8.3c-4.7-5.1-8.1-11.8-10-20.1c1.8,0.8,3.7,1.5,5.6,1.9c5.7,1.4,11.4,0.8,16.6-1.5
			C367.3,373.8,367.3,382.9,367.9,392z M351.7,364.9c-2.1-0.5-4.2-1.3-6.3-2.3c-1.5-7.3-1.9-15.7-1.3-25.2c0.3-4.3,0.9-8.6,1.8-12.8
			c8.2,6.5,16.6,12.7,25.1,18.6c-1.3,6.6-2.2,13.3-2.8,20.1C361.9,366.2,356.1,366,351.7,364.9z M343.8,361.8
			c-10.1-5.7-18.6-17-21.9-30.1c-0.1-0.3-0.1-0.5-0.2-0.8c5.2-4.7,10.8-8.9,16.6-12.5c2,1.7,4.1,3.5,6.2,5.2c-1,4.6-1.7,9.2-2,13.7
			C342.1,346.5,342.5,354.6,343.8,361.8z M231.3,373.7c-5.1-1.6-10.6-3.2-17.2-4.4c-7.2-4.5-14.2-9.2-19.4-15.4
			c0.7-5.2,1.6-10.4,2.6-15.5c5.4-1.5,11.2-4,17.7-7.6c1.9-1.1,3.7-2.1,5.6-3c0,0,0,0,0,0c1.9,13.9,8.7,24.7,21,33.1
			c-1.3,2.7-2.6,5.4-3.7,8.1c-0.8,2-1.6,4-2.3,6C234.2,374.6,232.8,374.2,231.3,373.7z M235.1,376.4c-0.6,1.8-1.2,3.6-1.7,5.4
			c-4.6-3.5-9.8-6.7-14.9-9.8c-0.3-0.2-0.6-0.3-0.8-0.5c4.9,1.1,9.1,2.4,13.2,3.6C232.3,375.6,233.7,376,235.1,376.4z M185.9,338.9
			c-0.9,0-1.8,0.1-2.6,0v0c-3.2,0-6.2-0.4-9.2-1.1c2.8-6.6,0.6-12.5-3.5-18.6c3.8-7.2,5.2-13.4,5.2-19.4c0-7.5-2.2-14.7-4.7-22.8
			c-0.1-0.4-0.2-0.7-0.3-1.1c0.3-0.1,0.7-0.2,1-0.2c3.7-0.9,7.6-1.8,11.5-2.6l0,0c12.3-2.7,25.2-4.9,38-4.2
			c-6.1,10.8-11.3,22.6-15.7,34.8c-4.8,1-9,3.2-12.3,6.5c-5.4,5.4-8.3,13.6-8,22.5C185.2,334.9,185.5,337,185.9,338.9z M102.7,353.9
			c-3.3-1-6.6-2.1-9.8-3.6c-11.2-5.3-21.4-13-31.3-20.5c-0.6-0.5-1.2-0.9-1.9-1.4c8-6.2,17.1-11.4,27.3-14.3
			c4.2,6.9,9,13.2,15.4,18.1c0.2,0.2,0.5,0.4,0.7,0.5c-0.3,3.6-0.5,7.3-0.6,11C102.6,347.2,102.6,350.5,102.7,353.9z M42.5,267.3
			c1.2,0,2.4,0.1,3.6,0.2c9.2,1,17.3,5.9,23.1,13.9c-15.3,1.8-29.4,5.7-41.2,13.9c-0.3-0.4-0.6-0.8-0.9-1.2
			c-1.7-2.1-3.3-4.2-4.9-6.2C30.9,284.5,36,277.6,42.5,267.3z M21.5,286.5c-0.1,0-0.2,0-0.2,0.1c-2-2.6-3.9-5.3-5.6-8
			c7.2-6.8,16.1-10.8,25-11.2C34.6,277,29.7,283.5,21.5,286.5z M46.3,266c-0.9-0.1-1.9-0.2-2.8-0.2c0.6-0.9,1.2-1.8,1.8-2.8
			c1.5-2.4,3.1-5,4.9-7.8c2,1.4,4.1,2.8,6.3,4.1c8.8,5.1,19.6,7.4,30.4,6.4c8.2-0.8,16.7-2.7,24.7-10.2c0.7,0.3,1.5,0.7,2.2,1
			c3.3,1.5,6.4,3,9.3,4.6c-2.7,5-5.2,10.2-7.4,15.7c-0.3,0.9-0.7,1.8-1,2.7c-1.5,0-2.9,0-4.4,0c-13.6,0.1-26.9,0.2-39.4,1.6
			C64.7,272.5,56.1,267.2,46.3,266z M258.5,74.8c0.5,0.7,1.1,1.5,1.6,2.2c10.1,14.2,20.5,28.9,25.2,45.1c-2.7,4.5-6.2,8.5-9.9,12.8
			c-3.2,3.6-6.4,7.3-9.5,11.7c-2,2.9-3.7,5.9-5.1,8.9c-4.9,2.3-9.9,4.2-15,5.9c6.4-26.5,0.3-53-10.7-78.7c0,0,0,0,0,0
			C242.6,78.3,250,75,258.5,74.8z M236,80.6c3.4-8.6,6.4-17.5,9.1-26.2c3.8,6.4,8.1,12.7,12.4,18.9C249.7,73.8,242.8,76.6,236,80.6z
			 M308.1,241.6c-0.2,3-0.3,6.1-0.3,9.1c0,2.6,0,5.2,0.1,7.9c0,0.3,0,0.6,0,0.9c-2.4,1.3-4.6,2.7-6.7,4c-1.5,0.9-2.9,1.8-4.3,2.6
			c-4.2-8.2-7.1-16.5-8-24.5h0c-0.2-1.7-0.3-3.4-0.3-5.1c0-7.3,0.5-13.9,1.6-20.2c1.3,0.3,2.7,0.6,4,0.9c4.7,1.1,9.6,2.2,14.4,4.1
			c0.9,0.4,1.7,0.7,2.5,1.1C309.5,228.6,308.5,235,308.1,241.6L308.1,241.6z M220.4,326.2c-2,1-4,2.1-6.1,3.2
			c-6.1,3.4-11.6,5.8-16.6,7.3c2.3-10.9,5.3-21.5,8.9-31.8c2.3-0.4,4.7-0.6,7.3-0.4c3.3,0.2,6.3,1.1,9,2.3
			C220.8,312.6,219.7,318.9,220.4,326.2z M133.3,341.5c-9.7,0.2-19.6-3-28.5-9.5c0.6-6.9,1.4-13.6,2.6-20.2c1.2,0.1,2.4,0.2,3.6,0.3
			c8.5,1,15.7,3.6,22.4,6.8c-0.6,4.2-1,8.3-0.9,12.3C132.5,334.6,132.8,338.1,133.3,341.5z M111.1,310.7c-1.2-0.1-2.3-0.2-3.5-0.3
			c1.9-10.3,4.6-20.1,8-29.4c7.1-0.1,14.2-0.2,21.3-0.6c1.5,9.2-0.2,19.2-1.9,29c-0.5,2.6-0.9,5.3-1.3,8
			C126.9,314.2,119.6,311.6,111.1,310.7z M67.2,211.9c7.2-2.7,14.1-5.2,20.6-8.4c1.6-0.8,3.2-1.6,4.7-2.5c0.8,3.9-0.1,9.2-1.1,14.6
			c-0.2,0.9-0.3,1.8-0.5,2.8c-5.2,1.7-10.1,3.8-14.9,6.6c-1.9,1.1-3.8,2.4-5.5,3.7C64.2,226,58.8,221.7,54,217
			C58.4,215.2,62.9,213.5,67.2,211.9z M52.8,215.9c-2.9-2.9-5.5-5.9-8-8.7c4.2-3.1,8.5-6.1,12.9-8.7c5.8-3.4,25.4-13.6,33.7-0.4
			c0.3,0.5,0.6,1,0.8,1.6c-1.6,0.9-3.2,1.8-4.9,2.6c-6.5,3.2-13.3,5.7-20.5,8.3C62.2,212.2,57.5,213.9,52.8,215.9z M93.9,200.3
			c5.7-3.4,11-7.3,15.9-11.8c4.6,3.9,9.1,7.7,14,11.1c-2.7,5-5.5,10.2-8.7,15c-0.5,0-0.9,0-1.4,0c-7.6,0.3-14.6,1.5-21.2,3.4
			c0.1-0.7,0.2-1.4,0.4-2C93.9,210.1,94.9,204.6,93.9,200.3z M105.1,159.4c6.7,2.8,13.6,5.1,20.5,7.1c-4.5,7.5-9.8,14.2-15.8,20
			c-2.2-1.9-4.4-3.8-6.6-5.8c-4.7-4.1-9.5-8.5-14.9-12.9C94.5,166.2,100.4,163.3,105.1,159.4z M86.8,166.7
			c-4.6-3.7-9.6-7.5-15.1-11.3c1.7-3.1,3.2-6.3,4.7-9.6c4.9,2.6,10,5,15.2,7.5l2.2,1.1c3.2,1.6,6.5,3,9.8,4.4
			C98.9,162.5,93.1,165.2,86.8,166.7z M186.5,108c0.1,0.8,0.2,1.5,0.4,2.3c1,5.4,2.3,10.1,3.6,14.5c-2.5-0.4-4.9-0.7-7.3-1.3
			c-7.3-1.6-13.8-4.3-19-10.7c-1.6-2-3-4-4.2-6.1c7.2,2.2,15,2.9,23.1,1.8v0C184.3,108.3,185.4,108.2,186.5,108z M188.3,110
			c-0.1-0.8-0.3-1.6-0.4-2.3c1.9-0.4,3.9-0.9,5.9-1.5c9.5-2.9,16.2-6.7,27.7-14.3l2.8-1.9c3-2.1,6-4.1,8.9-6
			c-6.3,15.5-13.9,30-23.9,41.7c-4,0.1-8.8,0.2-14.5-0.4l-0.8-0.1c-0.6-0.1-1.2-0.2-1.8-0.2C190.7,120.5,189.4,115.6,188.3,110z
			 M287.3,241.6L287.3,241.6c0.9,8.2,3.9,16.8,8.2,25.2c-4.1,2.4-8,4.2-12.4,5c-9,1.7-17-1-22.2-7.2c-4.7-5.8-6.3-13.9-4.7-23h0
			c0.4-2.4,1.1-4.9,1.9-7.4c2.9-7.3,3.9-13.2,3-18.2c2.5-3.3,5-6.6,7.3-9.9c1.4,1.2,2.9,2.4,4.4,3.4c5,3.4,10.4,5.1,15.7,6.5
			c-1.1,6.4-1.6,13.2-1.6,20.6C287,238.2,287.1,239.9,287.3,241.6z M137,241.6c2.3-3.3,4.7-6.4,6.9-9.4c2.5-3.6,4.7-7.4,6.6-11.5
			c4.5,1.3,9.1,2.7,13.7,4.5c-0.8,4.2-1.3,8.8-1.3,14c0,0.8,0,1.6,0,2.4h0c0.1,4.4,0.5,8.6,1,12.4c-2.3,1-4.6,2.4-6.8,4.4
			c-5.9,5.4-9,12.2-9.2,19.8c-3.3,0.3-6.6,0.6-10,0.7c-0.6-3.1-1.7-6.2-3.2-9.1c-2-3.8-5.6-6.6-9.9-9.2
			C128.7,253.8,132.9,247.5,137,241.6L137,241.6z M152.5,212.4c-4.6-1.4-8.8-3.1-12.7-5c4.5-2.5,9.6-2.6,14.9-2.7
			C154.1,207.3,153.4,209.9,152.5,212.4z M156.3,204.7c4.4,0,8.9-0.1,13.4-1.4c-0.5,3-1.4,6.2-2.4,9.8c-0.2,0.9-0.5,1.8-0.8,2.7
			c-4.5-0.8-8.7-1.8-12.6-3C154.8,210.1,155.6,207.4,156.3,204.7z M153.4,214.2c4,1.2,8.2,2.2,12.8,3c-0.5,2.1-1.1,4.2-1.5,6.5
			c-4.5-1.7-8.9-3.1-13.4-4.4C152,217.7,152.7,215.9,153.4,214.2z M167.6,217.5c1.2,0.2,2.5,0.4,3.8,0.6c3.9,0.6,7.9,0.7,11.9,0.4v0
			c3.4-0.3,6.7-0.8,10-1.7c0.6,5.9,2.4,11.7,4.5,16.9c-4.8-0.3-9.6-1.3-14.6-2.8v0c-3.4-1-6.9-2.3-10.5-3.9c-2.3-1-4.5-1.9-6.8-2.7
			C166.4,221.9,167,219.6,167.6,217.5z M194.6,216.4c13.5-3.9,25.7-12.5,34.9-23.3c3.2,2.2,7.1,3.8,10.9,5.5
			c5.3,2.3,10.9,4.6,14.3,8.2c0.9,1,1.7,2,2.4,3c-3.2,2-6.4,4.2-9.6,6.3c-2.6,1.8-5.1,3.5-7.7,5.1c-14.3,9.1-27.2,13.2-40.5,12.7
			C197.1,228.4,195.3,222.4,194.6,216.4z M229.3,191.2c-1.5-1.2-2.8-2.5-3.7-4.1c-1.5-2.6-2.2-5.2-2.5-7.8c4.6-0.9,9.6-1.2,14.8-1
			C235.6,182.8,232.6,187.1,229.3,191.2z M224.4,187.8c1,1.7,2.3,3.2,4,4.5c-9,10.5-20.8,18.9-33.9,22.6c-0.4-5.6,0.4-11.2,3-16.5
			c5.5-11.1,13.8-16.6,24.2-18.9C222,182.3,222.8,185,224.4,187.8z M221.6,178.1c-10.8,2.3-19.6,8.1-25.3,19.7
			c-2.7,5.6-3.5,11.6-3.1,17.5c-3.2,0.8-6.5,1.4-9.9,1.7v0c-3.9,0.3-7.8,0.2-11.7-0.4c-1.2-0.2-2.4-0.4-3.6-0.6
			c0.2-0.9,0.5-1.7,0.7-2.6c1.1-3.8,2-7.3,2.5-10.7c1.7-0.6,3.4-1.4,5.1-2.4c2.5-1.6,4.8-3.4,7-5.3c7.5-6.5,13.1-14.4,16.3-22.8
			c8.1-0.6,15.7-1.5,23.3-3C221.9,172.1,221.4,175,221.6,178.1z M183.2,193.1L183.2,193.1c-2.4,2.2-5,4.2-7.7,6
			c-1.4,0.8-2.8,1.5-4.1,2c0.5-5-0.4-9.8-4-14.7c-2.3-3.2-5.3-5.5-8.6-6.9c-0.1-2.3-0.3-4.6-0.6-6.9c3.7,0.3,7.3,0.5,10.8,0.5
			c5,0,9.8,0,14.3-0.1c5.2-0.1,10-0.3,14.7-0.6C194.9,179.9,189.8,187.1,183.2,193.1z M158.8,183.4c0-0.7,0-1.5-0.1-2.2
			c2.9,1.3,5.4,3.4,7.4,6.1c3.5,4.8,4.2,9.3,3.7,14.3c-4.4,1.4-8.9,1.5-13.3,1.6C158.1,196.7,158.8,190,158.8,183.4z M155.1,203.2
			c-6,0-11.7,0.2-16.9,3.4c-4.5-2.3-8.7-4.8-12.7-7.5c1.2-2.2,2.3-4.3,3.4-6.3c4.2-7.4,12.5-12.7,20.7-13.2c2.7-0.2,5.2,0.2,7.6,1
			C157.6,188.2,156.8,195.9,155.1,203.2z M136.9,207.6c-0.5,0.3-0.9,0.7-1.3,1.1c-2.3,2.1-4.1,4.2-5.5,6.5c-1-0.1-1.9-0.2-2.9-0.3
			c-3.3-0.3-6.7-0.4-10.3-0.3c3-4.5,5.6-9.4,8.1-14.1C128.7,203,132.6,205.4,136.9,207.6z M136.5,209.8c0.6-0.6,1.2-1,1.9-1.5
			c4.2,2,8.7,3.9,13.6,5.4c-0.7,1.8-1.4,3.5-2.1,5.2c-6.2-1.7-12.3-2.9-18.3-3.6C132.9,213.4,134.5,211.6,136.5,209.8z M158.2,259.5
			c1.9-1.7,4-3,6-4c1.2,7.2,2.9,13.5,4.7,19.3c-6.3,1.5-12.8,2.5-19.4,3.2C149.8,270.9,152.7,264.5,158.2,259.5z M164.4,241.6
			L164.4,241.6c0-0.8,0-1.6,0-2.4c0-5,0.5-9.4,1.3-13.5c2.2,0.8,4.3,1.7,6.5,2.6c3.8,1.7,7.5,3.1,11.1,4.1l0,0
			c5.2,1.6,10.2,2.5,15.2,2.8c1,2.2,2,4.4,3.1,6.3h0c2.2,4.1,4.4,7.6,6.1,10.1c2.2,3,4.2,5.6,6.1,7.9c-6.5,0.9-14,0.6-22.8-3.7
			c-2.1-0.9-4.7-1.9-7.6-2.6v0c-5.4-1.4-11.7-1.9-17.8,0.2C164.9,249.8,164.5,245.8,164.4,241.6z M208.7,250.8
			c-1.6-2.3-3.6-5.5-5.6-9.2h0c-1.1-2-2.1-4.1-3.1-6.3c13.3,0.4,26.2-3.8,40.6-12.9c2.6-1.6,5.2-3.4,7.7-5.1
			c3.2-2.1,6.4-4.3,9.6-6.3c0.8,1.5,1.4,3,1.8,4.6c-3.2,4.2-6.6,8.5-9.9,12.7c-3.5,4.4-6.9,8.8-10.4,13.3h0
			c-3.7,4.8-7.2,9.7-10.6,14.7c-1.9,0.3-3.9,0.8-5.9,1.3c-2.4,0.6-4.9,1.2-7.6,1.7C213.2,256.9,211.1,254.1,208.7,250.8z
			 M259.1,210.3c2.5-1.5,5-2.9,7.6-4.1c-1.9,2.7-3.9,5.4-5.9,8C260.4,212.8,259.8,211.5,259.1,210.3z M229.7,257.7
			c4.9-0.8,8.8-0.2,12.4,4.4c2.7,3.4,3.1,6.6,2.2,10c-6.8-2.6-13.7-4-20.7-4.6c0.6-1,1.1-2,1.7-3
			C226.7,262.2,228.2,259.9,229.7,257.7z M243.9,273.5c-1,2.7-2.9,5.5-5.1,8.5c-2.9-3-5.6-5.4-8.5-7.8c-1.9-1.6-3.8-3.3-5.8-5.2
			C231,269.6,237.5,271,243.9,273.5z M238.9,284.3c11.3,11.9,20.3,21.8,28.2,31.2c0.8,1,1.7,2,2.5,3c-6.5-1-13.4-0.8-20.2-0.2
			c-3.1,0.2-6,0.6-8.9,1.2c-4.8-5.1-9.7-10.1-15.7-13.2c3.1-7.5,7.8-13.7,12.1-19.2C237.5,286.1,238.2,285.2,238.9,284.3z
			 M268.2,314.5c-7.9-9.4-17-19.4-28.4-31.4c2.3-3.1,4.3-6.1,5.4-9.1c15.9,6.5,29.9,16.7,41.7,29.7c-5.1,4.9-10.2,10-15.1,15.1
			c0,0,0,0,0,0C270.5,317.3,269.3,315.9,268.2,314.5z M245.6,272.6c1-3.8,0.6-7.5-2.4-11.4c-3.7-4.7-7.8-5.6-12.5-5.1
			c3.3-4.9,6.9-9.7,10.5-14.5h0c3.2-4.2,6.4-8.3,9.6-12.3c3.1-3.9,6.2-7.8,9.2-11.7c0.5,4.4-0.6,9.6-3.2,16.1
			c-0.9,2.7-1.6,5.4-2.1,7.9h0c-1.6,9.4,0.1,17.9,5.1,24c5.5,6.7,14.1,9.5,23.5,7.7c4.5-0.8,8.6-2.8,12.8-5.2
			c3,5.8,6.6,11.4,10.5,16.8c-3.6,3.5-7.2,6.9-10.8,10.2c-2.7,2.5-5.4,5-8,7.6C275.8,289.4,261.5,279.1,245.6,272.6z M273.7,208.2
			c-1.5-1-3-2.1-4.3-3.3c7.2-3.1,14.7-4.6,22.7-3.1c-1.4,4.1-2.4,8.3-3.2,12.7C283.6,213.2,278.6,211.5,273.7,208.2z M268.3,203.8
			c0,0-0.1,0-0.1,0.1c-5.4-5.2-9-11.8-10.4-19.2c-0.3-1.5-0.5-3-0.6-4.6c1.8,0.2,3.7,0.5,5.6,0.8c5.8,0.8,11.7,1.7,17.7,2.1
			C277.2,190.1,273,197,268.3,203.8z M266.8,204.5c-2.9,1.3-5.7,2.9-8.4,4.6c-0.7-1.1-1.6-2.2-2.6-3.3c-3.6-3.8-9.3-6.2-14.7-8.5
			c-3.9-1.6-7.6-3.2-10.5-5.2c3.5-4.3,6.6-8.9,9.1-13.7c5.2,0.2,10.6,0.7,16.3,1.5c0.1,1.7,0.3,3.4,0.6,5.1
			C257.8,192.4,261.4,199.1,266.8,204.5z M255.8,178.3c-5.4-0.7-10.5-1.2-15.5-1.4c1.9-3.9,3.5-7.9,4.6-12c0.1-0.5,0.3-1.1,0.4-1.6
			c4.9-1.6,9.8-3.5,14.6-5.6C257,164.4,255.6,171.5,255.8,178.3z M243.6,164.5c-1.2,4.2-2.8,8.3-4.8,12.3c-5.6-0.2-10.8,0.1-15.7,1
			c-0.1-3.1,0.5-6,1.4-8.9c6.3-1.3,12.6-3,19.3-5.1C243.7,164,243.6,164.2,243.6,164.5z M223.3,167.6c-7.6,1.5-15.2,2.5-23.3,3.1
			c0.5-1.5,0.9-3,1.3-4.5c2.2-9.7-0.5-17.6-4.2-27.3c4.5-3.5,8.6-7.4,12.4-11.8c0.5,0,0.9,0,1.4,0c7.8-0.3,12.5-0.4,16.9,4.3
			c3.8,4.1,4.9,10.1,3.1,17.9c-0.7,2.9-2.2,6.1-3.8,9.4C225.8,161.6,224.4,164.5,223.3,167.6z M193.7,126.7l0.8,0.1
			c5.2,0.5,9.6,0.5,13.3,0.5c-3.4,3.8-7.1,7.3-11.2,10.4c0-0.1-0.1-0.2-0.1-0.4c-1.3-3.3-2.6-6.9-3.9-10.8
			C193,126.6,193.4,126.6,193.7,126.7z M199.9,165.9c-0.4,1.7-0.9,3.3-1.4,4.9c-4.8,0.3-9.9,0.5-15.2,0.7v0
			c-4.5,0.1-9.3,0.1-14.3,0.1c-3.6,0-7.2-0.2-11-0.5c-0.3-2-0.6-4.1-1.1-6.1c-0.8-3.7-1.9-7.3-3.2-10.7c5-0.1,10.1-0.7,15.4-1.9
			c4.9-1.2,9.6-2.9,14.1-5v0c4.6-2.2,8.8-4.7,12.7-7.6C199.5,149.1,202,156.7,199.9,165.9z M157.3,179c-2.4-0.8-4.9-1.1-7.6-0.9
			c-8.7,0.5-17.5,6.1-21.9,13.9c-1.1,2-2.2,4.1-3.4,6.2c-4.7-3.3-9.2-7-13.6-10.8c6.2-6,11.6-12.8,16.2-20.5
			c10.1,2.8,20.1,4.7,29.7,5.6C157,174.7,157.2,176.8,157.3,179z M113.9,216c-5.4,7.5-12.1,13.6-21.4,15.3c-0.5,0.1-0.9,0.1-1.3,0.2
			c-0.2-3.9,0.4-7.9,1-11.9c6.7-2.1,13.8-3.3,21.5-3.6C113.8,216,113.8,216,113.9,216z M89.7,231.7c-6.6,0.7-12.4-0.2-17.6-2.2
			c1.5-1.1,3-2.1,4.7-3.1c4.4-2.6,9-4.6,13.9-6.3C90,223.9,89.6,227.9,89.7,231.7z M70.8,230.5c5.6,2.3,11.9,3.4,19.1,2.7
			c0.1,1.1,0.2,2.2,0.5,3.2c0.4,1.9,1,3.7,2,5.2h0c3.5,5.8,10.4,9.7,17.8,13.2c-7.6,6.9-15.7,8.7-23.5,9.4c-10.5,1-21-1.2-29.6-6.2
			c-2.2-1.3-4.2-2.6-6.2-4c1.2-1.9,2.4-3.8,3.8-5.8c1.7-2.4,3.4-4.6,5-6.7h0C63,237.5,66.7,233.7,70.8,230.5z M94,241.6L94,241.6
			c-1.1-1.6-1.9-3.5-2.3-5.5c-0.2-1-0.3-2.1-0.4-3.1c0.5-0.1,1-0.1,1.5-0.2c10.2-1.8,17.3-8.5,23-16.8c4-0.1,7.7,0,11.2,0.3
			c0.7,0.1,1.4,0.2,2.2,0.2c-2.7,4.6-4.1,9.5-5.6,14.4c-1,3.5-2.1,7.2-3.7,10.7h0c-0.7,1.5-1.4,3-2.3,4.4c-2.1,3.1-4.2,5.6-6.4,7.8
			C104.2,250.4,97.5,246.8,94,241.6z M118.8,246.8c1.1-1.7,1.9-3.4,2.7-5.2c1.5-3.4,2.5-6.9,3.5-10.3c1.5-5.1,2.9-10,5.8-14.6
			c6.1,0.7,12.3,1.9,18.6,3.6c-1.8,3.9-4,7.6-6.4,11c-2.5,3.2-5,6.7-7.6,10.3h0c-4,5.6-7.9,11.7-11.6,18.3c-2.9-1.6-6.1-3.1-9.4-4.7
			c-0.6-0.3-1.1-0.5-1.7-0.8C114.7,252.3,116.8,249.8,118.8,246.8z M124.3,261.9c4.2,2.4,7.5,5.1,9.4,8.6c1.4,2.7,2.4,5.6,3,8.5
			c-6.8,0.3-13.6,0.5-20.4,0.5c0.3-0.7,0.5-1.4,0.8-2.1C119.1,272,121.6,266.8,124.3,261.9z M134.7,319.6c4.6,2.3,9,4.9,13.3,7.5
			c3.2,2,6.5,3.9,9.7,5.6c-4.7,3.7-10.2,6.4-16.1,7.7c-2.2,0.5-4.5,0.8-6.8,0.9c-0.5-3.4-0.8-6.8-0.9-10.3
			C133.8,327.4,134.2,323.6,134.7,319.6z M148.7,325.8c-4.4-2.7-9-5.4-13.8-7.8c0.4-2.7,0.9-5.5,1.4-8.4c1.7-9.8,3.5-19.9,2-29.3
			c3.3-0.2,6.5-0.4,9.7-0.7c0.1,4.4,1.1,9.1,3.2,13.9c3,7,7.9,13.1,12.1,18.5c2,2.5,3.9,4.9,5.5,7.3c-2.7,4.9-6.1,9-10,12.4
			C155.5,329.9,152.1,327.9,148.7,325.8z M164.5,311.1c-4.4-5.6-9-11.4-11.9-18.2c-2-4.6-3-9.1-3.1-13.4c6.8-0.7,13.4-1.7,19.9-3.2
			c0.1,0.4,0.2,0.8,0.4,1.2c4.3,14.1,7.7,25.3-0.1,40.4C168.1,315.7,166.3,313.5,164.5,311.1z M165.6,255c6-2.2,12.3-1.6,17.6-0.2v0
			c2.7,0.7,5.1,1.6,7,2.5c9.5,4.7,17.5,4.8,24.5,3.7c2.1,2.4,4,4.5,5.8,6.4c-12.6-0.5-25.2,1.6-37.3,4.2c-4,0.9-7.9,1.8-11.8,2.7
			c-0.4,0.1-0.7,0.2-1.1,0.3C168.6,268.7,166.8,262.3,165.6,255z M216.4,260.7c2.4-0.5,4.7-1,6.9-1.6c1.6-0.4,3-0.8,4.5-1.1
			c-1.2,1.9-2.4,3.8-3.6,5.7c-0.6,1.1-1.2,2.1-1.9,3.2C220.4,265.2,218.5,263.1,216.4,260.7z M222.6,269.3c2.3,2.2,4.6,4.1,6.7,6
			c2.9,2.5,5.6,4.9,8.6,7.9c-0.7,0.9-1.4,1.9-2.2,2.9c-4.3,5.6-9.1,11.9-12.2,19.5c-2.9-1.3-6-2.2-9.5-2.4c-2.4-0.2-4.7-0.1-6.9,0.3
			C211.4,291.4,216.6,279.9,222.6,269.3z M224.2,307.6c5.5,2.9,10.2,7.5,14.6,12.2c-5.8,1.2-11.4,3.1-17,5.8
			C221.2,318.8,222.2,312.9,224.2,307.6z M240,321c0.3,0.3,0.5,0.6,0.8,0.9c5,5.3,10.1,10.8,16.3,14.2c-5.9,7.8-10.8,15.6-14.9,23.5
			c-11.9-8.1-18.5-18.6-20.3-32c0-0.2,0-0.3,0-0.5C227.9,324.3,233.8,322.2,240,321z M241.8,320.8c0,0-0.1-0.1-0.1-0.1
			c2.5-0.5,5.1-0.8,7.8-1c7.1-0.6,14.3-0.8,21,0.4c-1.6,1.8-3.2,3.5-4.8,5.3c-2.7,3.1-5.3,6.3-7.7,9.5
			C251.9,331.6,246.8,326.2,241.8,320.8z M266.8,326.4c1.6-1.8,3.2-3.6,4.8-5.3c3.6,4.7,7,9.8,9.3,15.5c-5.8,2.6-12.4,2.5-19.6-0.1
			c-0.7-0.2-1.3-0.5-2-0.8C261.7,332.5,264.2,329.4,266.8,326.4z M273.1,320.6c3.7,0.9,7.2,2.3,10.4,4.3c2.4,1.6,4.4,3.3,6,5.3
			c-2.3,2.4-4.7,4.3-7.3,5.6C280,330.3,276.7,325.3,273.1,320.6z M284.3,323.7c-3.4-2.2-7.1-3.6-10.9-4.5c4.7-4.9,9.5-9.7,14.4-14.4
			c3.6,4.1,7,8.4,10.1,13c-2.2,4.6-4.7,8.4-7.4,11.4C288.8,327.2,286.8,325.3,284.3,323.7z M298.9,319.1c4.4,6.6,8.3,13.6,11.7,21.1
			c-4.2,4.6-8.3,9.5-12.2,14.6c0-9.1-1.6-17.7-6.8-24.4C294.2,327.3,296.6,323.6,298.9,319.1z M298.6,316.3
			c-3.1-4.4-6.3-8.6-9.8-12.5c2.7-2.6,5.4-5.1,8-7.6c3.3-3.1,6.7-6.3,10-9.5c-0.8,7-2.3,14.2-5,21.6
			C300.8,311.2,299.8,313.9,298.6,316.3z M297.4,267.4c1.4-0.9,2.9-1.7,4.4-2.7c2-1.2,4-2.4,6-3.6c0.1,7,0.1,14.3-0.6,22
			C303.6,278.1,300.3,272.8,297.4,267.4z M308.7,283c0.7-7.9,0.7-15.5,0.6-22.6c5-2.8,10.5-5.3,17.1-6.9c-0.3,4.2-0.8,8.4-1.3,12.6
			C319.8,271.9,314.3,277.5,308.7,283z M324.6,268.6c-0.7,4.3-1.4,8.6-2.2,12.9c-1,5.8-2,11.5-2.7,17.1c-3.8-4.1-7.6-8.7-11.1-13.5
			C314.1,279.8,319.5,274.3,324.6,268.6z M309.2,258.7c0,0,0-0.1,0-0.1c0-2.7-0.1-5.3-0.1-7.9c0-3.1,0.1-6.1,0.4-9.1h0
			c0.5-6.4,1.4-12.6,2.8-18.5c8,4.2,12.4,10,13.8,18.5h0c0.3,2.1,0.5,4.3,0.5,6.7c0,1.2-0.1,2.4-0.2,3.7
			C319.8,253.5,314.2,256,309.2,258.7z M311.3,221c-0.8-0.4-1.6-0.7-2.4-1c-4.9-2-9.9-3.1-14.6-4.2c-1.4-0.3-2.7-0.6-4-0.9
			c0.8-4.4,1.9-8.6,3.2-12.7c0.6,0.1,1.2,0.3,1.9,0.5c5.4,1.6,11.2,4.3,17.2,7.9c0.5,0.3,1.1,0.7,1.6,1
			C313.1,214.6,312.2,217.8,311.3,221z M292.6,200.4c-7.7-1.6-14.9-0.3-21.8,2.3c4.3-6.4,8.2-12.9,11.3-19.7
			c6.1,0.4,12.4,0.2,19-0.8C297.6,188.3,294.8,194.3,292.6,200.4z M281.2,181.5c-6.2-0.4-12.2-1.3-18.1-2.2c-2-0.3-3.9-0.6-5.8-0.8
			c-0.2-7.1,1.4-14.6,4.7-21.7c9.3-4.3,18.2-9.5,26.8-15.7C289.8,155.9,286.7,169.1,281.2,181.5z M262.9,154.6
			c1.2-2.4,2.6-4.8,4.2-7.1c3-4.3,6.2-8,9.4-11.6c3.4-3.9,6.7-7.6,9.3-11.9c1.4,5.3,2.3,10.4,2.8,15.2
			C280.3,145.3,271.7,150.4,262.9,154.6z M261.3,76.2c-0.3-0.5-0.6-0.9-1-1.4c2.6,0.1,5.3,0.4,8.2,1.1c14.6,3.6,23.2,15.3,22,29.7
			c-0.5,5.9-2,10.6-4.3,14.8C281.3,104.4,271.1,90.1,261.3,76.2z M244.2,162.1C244.1,162.1,244.1,162.1,244.2,162.1
			c-6.8,2.2-13,3.8-19.2,5.2c1-2.7,2.3-5.3,3.5-7.8c1.7-3.4,3.2-6.7,3.9-9.7c1.9-8.3,0.7-14.8-3.5-19.3c-4.8-5.2-10.1-5-17.9-4.8
			c0,0,0,0,0,0c9.8-11.7,17.3-25.9,23.5-40.9C245,110,250.7,136.1,244.2,162.1z M223.4,88.8l-2.7,1.9c-11.3,7.5-17.9,11.3-27.3,14.2
			c-1.9,0.6-3.8,1-5.7,1.4c-1.8-14.9,1.9-29.2,7.2-42.1c2.3-1.5,4.7-3,7.2-4.5c4.8-3,9.9-6.1,14.8-9.6c6,10.6,11.6,21.4,16.3,32.3
			C230,84.3,226.8,86.5,223.4,88.8z M186.3,106.5c-1,0.2-2.1,0.3-3.1,0.5v0c-8.5,1.1-16.6,0.4-24.1-2.2c3.8-6.6,8.7-14.4,16.2-24.1
			c2.3-3,5-5.6,7.9-8.1c3-2.5,6.2-4.8,9.6-7.1C187.9,78.1,184.5,92,186.3,106.5z M163.1,113.7c5.5,6.9,12.5,9.7,20.1,11.3
			c2.5,0.5,5.2,0.9,7.8,1.3c1.4,4.2,2.8,8,4.2,11.5c0.1,0.2,0.2,0.5,0.3,0.7c-3.8,2.8-7.9,5.3-12.2,7.4v0c-4.6,2.2-9.4,3.9-14.4,5.1
			c-5.3,1.2-10.5,1.8-15.6,1.8c-3.1-8-7.3-15.4-12-22.2c6.7-6.1,10.2-12.4,14.9-20.7c0.7-1.2,1.3-2.4,2.1-3.6
			C159.6,108.8,161.2,111.2,163.1,113.7z M155.5,165.4c0.4,1.9,0.7,3.8,1,5.6c-9.3-0.9-19-2.7-28.8-5.4c2.5-4.3,4.7-8.9,6.6-13.8
			c5.6,1.6,11.6,2.4,17.8,2.5C153.5,157.9,154.6,161.6,155.5,165.4z M133.5,150.1c-5.7-1.8-10.9-4.4-15.7-7.8
			c7.8-1.3,15-4.8,20.4-9.1c0.1-0.1,0.3-0.2,0.4-0.4c-0.3,1.1-0.5,2.2-0.8,3.4C136.7,141,135.2,145.6,133.5,150.1z M133,151.4
			c-1.9,4.8-4.2,9.4-6.7,13.8c-6.7-1.9-13.4-4.2-20-6.8c4.8-4.4,8.1-9.6,10.4-15.1C121.6,146.9,127.1,149.6,133,151.4z M105.3,157.3
			c-0.2,0.1-0.3,0.3-0.5,0.4c-3.5-1.5-7-3-10.5-4.7l-2.2-1.1c-5.2-2.5-10.2-5-15.2-7.5c2-5,3.7-10.1,5.1-15.5
			c3.7,4,7.9,7.5,12.9,10.1c6.6,3.4,13.7,4.3,20.5,3.6C113.2,148,110,153.1,105.3,157.3z M95.6,137.8c-5.1-2.6-9.4-6.3-13.1-10.5
			c0.5-2.3,1-4.6,1.5-7c1.3,0.6,2.6,1.2,3.8,1.8c7.3,3.7,13.2,8.5,19.5,13.7c2.2,1.8,4.5,3.6,6.8,5.4
			C107.9,141.8,101.6,140.8,95.6,137.8z M81.4,126.1c-2.7-3-5.1-6.2-7.5-9.4c-0.1-0.1-0.2-0.3-0.3-0.4c3.2,1.1,6.3,2.2,9.2,3.5
			C82.4,121.9,81.9,124,81.4,126.1z M81,127.8c-1.4,5.5-3.1,10.8-5.3,16c-12-6.3-23.3-13.3-34.5-23.8c-0.1-3.5-0.3-6.9-0.7-10.4
			c10.7,0.9,21.2,3,30.6,5.9c0.5,0.7,1.1,1.4,1.6,2.1C75.4,121.1,78.1,124.6,81,127.8z M41.3,122.1c11,10.1,22.2,17,33.9,23.1
			c-1.4,3.2-2.9,6.3-4.6,9.4c-8.4-5.6-18-11.2-29.6-16.6c-0.3-0.2-0.7-0.3-1-0.4C40.9,132.4,41.3,127.2,41.3,122.1z M71,156.7
			c5.1,3.5,9.7,6.9,14,10.4c-6.8,1.3-13.9,1.3-20.4-0.3C66.9,163.6,69,160.2,71,156.7z M86.5,168.3c5.7,4.6,10.8,9.2,15.7,13.5
			c2.2,1.9,4.3,3.8,6.5,5.7c-4.7,4.3-9.8,8.1-15.2,11.3c-0.2-0.6-0.5-1.1-0.8-1.6c-8.9-14.2-29.5-3.6-35.6-0.1
			c-4.5,2.7-8.9,5.7-13.2,8.9c-2.3-2.6-4.5-5.1-6.7-7.2c-0.9-0.9-1.8-1.8-2.8-2.7c2.5-2.3,5.2-4.4,7.7-6.6
			c5.3-4.4,10.7-8.9,15.4-14.1c2.2-2.4,4.2-4.8,6.1-7.4C70.9,169.9,79,169.9,86.5,168.3z M36.2,199.9c2.1,2.1,4.2,4.5,6.5,7
			c-2,1.5-4.1,3.1-6.1,4.6c-4.3,3.3-8.7,6.7-13.2,9.8c-1.6-2.6-3-5.3-4.2-7.9c1.1-1.6,2.4-3.3,3.7-5c3.1-4.1,6.7-7.8,10.5-11.3
			C34.3,198,35.2,199,36.2,199.9z M37.5,212.7c2-1.6,4.1-3.1,6.2-4.7c2.4,2.8,5,5.6,7.8,8.5c-0.9,0.4-1.8,0.7-2.7,1.1
			c-7.4,3.3-14.2,7.2-20.4,11.5c-1.5-2.2-2.9-4.4-4.2-6.5C28.7,219.5,33.1,216.1,37.5,212.7z M49.3,219c1.1-0.5,2.1-0.9,3.2-1.4
			c4.9,4.8,10.3,9.3,16.7,12.2c-4.2,3.4-8,7.5-11.4,11.8h0c-1.4,1.8-2.9,3.7-4.4,5.8c-1.4,2-2.6,3.9-3.8,5.8
			c-4.6-3.4-8.6-7.3-12.2-11.6c-0.9-1.1-1.8-2.2-2.7-3.4c-2-2.7-3.8-5.3-5.6-7.9C35.3,226.1,42,222.2,49.3,219z M110.2,281.1
			c1.3,0,2.6,0,3.8,0c-3.4,9.3-6,19.1-7.9,29.3c-6.5-0.2-12.6,0.5-18.4,2.1c-2.8-4.7-5.3-9.6-7.7-14.4c-2.3-4.5-4.6-9.2-7.2-13.5
			c-0.4-0.6-0.7-1.2-1.1-1.8C84,281.3,96.9,281.2,110.2,281.1z M88.5,313.7c5.5-1.4,11.3-2.1,17.4-1.9c-1.1,6.3-1.9,12.7-2.5,19.3
			c0,0,0,0,0,0C97.3,326.4,92.6,320.3,88.5,313.7z M104.1,343.8c0.1-3.4,0.3-6.8,0.5-10.1c9.1,6.3,19.1,9.5,28.9,9.2
			c0.5,3.4,1.3,6.8,2.2,10.1c-2.3,1.5-4.1,3.3-5.5,5.3c-9.1-0.9-17.8-1.8-26.1-4C104,350.8,104,347.3,104.1,343.8z M136.2,354.5
			c0.5,1.5,1,3.1,1.6,4.6c-2-0.2-3.9-0.4-5.8-0.6C133.1,357,134.5,355.7,136.2,354.5z M135,342.9c2.3-0.1,4.6-0.4,6.9-1
			c6.4-1.4,12.2-4.3,17.2-8.4c4.2,2.2,8.4,4,12.9,5.3h0c-4.7,8.6-12.5,9.4-20.6,10.1c-4.9,0.5-10,0.9-14.3,3.4
			C136.2,349.2,135.5,346.1,135,342.9z M160.3,332.5c3.7-3.3,6.9-7.2,9.5-11.8c3.6,5.6,5.4,11,2.9,16.8
			C168.4,336.3,164.3,334.6,160.3,332.5z M194.2,311.3c2.9-3,6.6-4.9,10.8-6c-3.6,10.3-6.5,21.1-8.8,32c-3.1,0.8-6,1.3-8.8,1.6
			c-0.4-1.9-0.7-4-0.7-6.2C186.3,324.2,189,316.4,194.2,311.3z M195.8,338.8c-0.9,4.5-1.7,9-2.3,13.5c-2.7-3.5-4.7-7.5-5.9-12.2
			C190.3,340,193,339.5,195.8,338.8z M193.7,362.1c0.2-2.1,0.5-4.2,0.7-6.3c4.4,5,10,9.1,15.9,12.9c-4.6-0.7-9.8-1.1-15.7-1.1
			c-0.5,0-1,0-1.4,0C193.4,365.8,193.5,364,193.7,362.1z M239.2,369.6c1.1-2.6,2.3-5.2,3.6-7.9c6.9,4.5,15.6,8.2,26,11.4
			c-3,1.6-6.3,2.7-9.4,3.5c-8.5,2-15.1,0.9-22.4-1.2C237.7,373.4,238.4,371.5,239.2,369.6z M243.5,360.4c4-7.9,9-15.8,15-23.7
			c0.8,0.4,1.6,0.7,2.4,1c7.6,2.8,14.5,2.9,20.6,0.2c0.9,2.5,1.6,5,2,7.7c1.9,12.7-4.5,21.4-12.9,26.4
			C259.6,368.9,250.6,365.1,243.5,360.4z M285.3,349.9c0-1.5-0.1-3-0.3-4.5c-0.4-2.8-1.2-5.5-2.1-8.1c2.7-1.4,5.3-3.4,7.7-5.9
			c5.2,6.9,6.5,15.9,6.3,25.3c-4.4,5.9-8.5,12.1-12.5,18.7c-4.2-0.9-8.2-1.8-11.9-2.9C279.9,367.7,285.3,360,285.3,349.9z
			 M296.7,359.3c-0.3,6-1.1,12-1.9,17.9c0,0.1,0,0.2,0,0.3c-0.7-0.1-1.4-0.3-2.1-0.4c-2.4-0.4-4.7-0.9-6.9-1.3
			C289.3,370,292.9,364.6,296.7,359.3z M296.3,377.4c0.9-6.6,1.8-13.5,2-20.2c4.1-5.5,8.4-10.7,12.9-15.6
			c6.4,14.6,10.7,30.8,12.6,47.8c-8.3-5.4-17.6-9.4-27.5-11.6C296.3,377.7,296.3,377.6,296.3,377.4z M304,324.8
			c-1.4-2.4-2.9-4.7-4.4-7c1.3-2.7,2.5-5.7,3.7-8.9c2.7-7.5,4.2-14.8,5-21.8c3.6,4.8,7.4,9.3,11.2,13.4c-1.2,10.2-1.5,20.1,0.7,29.9
			c-0.9,0.8-1.8,1.7-2.7,2.6c-2,2-4,4.1-6,6.2C309.2,334.2,306.7,329.4,304,324.8z M320.7,301.8c0.6,0.7,1.2,1.3,1.9,1.9
			c4.7,4.8,9.6,9.3,14.6,13.7c-5.6,3.5-10.9,7.4-15.8,11.9C319.5,320.3,319.7,311.2,320.7,301.8z M344.9,321.9
			c-1.8-1.4-3.5-2.9-5.2-4.4c2.5-1.5,5-2.9,7.5-4.1C346.4,316.3,345.6,319.1,344.9,321.9z M338.5,316.6c-5.2-4.4-10.1-9-14.9-13.9
			c-0.9-0.9-1.8-1.8-2.6-2.8c0.7-6,1.8-12,2.9-18.2c0.9-5,1.8-10,2.5-15.1c4.2-4.8,8.2-9.7,11.8-14.9c5.4-0.3,11.5,0.1,18.3,1.3
			c6.1,1.1,11.5,2.9,16.4,5.1c-2.7,5.2-5.5,10.4-8.3,15.5l-1,1.9c-5.7,11.1-11.6,23.3-15.6,35.9C344.7,313,341.6,314.7,338.5,316.6z
			 M326.7,264c0.5-3.6,0.9-7.3,1.1-10.9c2.6-0.6,5.5-1,8.5-1.2C333.3,256.1,330.1,260.1,326.7,264z M338,249.3
			c-0.2,0.3-0.5,0.7-0.7,1c-3.4,0.2-6.5,0.6-9.4,1.3c0.1-1.1,0.1-2.2,0.1-3.3c0-2.4-0.2-4.6-0.5-6.7c-1.5-9.1-6.2-15.5-14.9-19.9
			c0.8-3.2,1.7-6.3,2.8-9.4c2.1,1.4,4.2,2.9,6.2,4.3c3.2,2.3,6.5,4.6,9.9,6.6c5.1,3,10.2,5.5,15.4,7.6c-1.3,3.7-2.7,7.2-4.5,10.7h0
			C341.2,244.3,339.7,246.8,338,249.3z M314.7,210.1c-0.5-0.3-0.9-0.6-1.4-0.9c-6.1-3.7-12-6.4-17.5-8.1c-0.6-0.2-1.2-0.3-1.8-0.5
			c2.2-6.3,5.2-12.5,8.9-18.8c5.2-0.9,10.6-2.5,16.2-4.8c1.4,4.9,2.9,9.5,4.7,13.7c0.1,0.2,0.2,0.4,0.2,0.5
			C320.4,197.1,317.2,203.4,314.7,210.1z M304,180.2c0.4-0.7,0.8-1.3,1.2-2c3.3-5.1,6.9-9.9,10.8-14.5c0.8,4.1,1.7,8.2,2.8,12
			C313.7,177.8,308.8,179.3,304,180.2z M312.7,135.4c-0.6-4.3-1.3-8.6-2-13c5-4.9,9.9-10.1,14.6-15.7c6.5,7.8,15.4,12.3,25.2,15
			c-0.8,1.1-1.6,2.3-2.5,3.4c-5.8,7.6-12.5,14.8-18.9,21.7c-4.1,4.5-8.3,9-12.4,13.7C315.3,152.3,314,143.8,312.7,135.4z
			 M311.3,135.6c1.3,8.8,2.7,17.8,4.3,26.3c-4.1,4.9-8.1,10-11.6,15.5c-0.7,1.1-1.3,2.1-2,3.2c-6.7,1.2-13.1,1.3-19.4,1
			c5.6-12.6,8.6-26.2,7.3-41.5c6.7-4.9,13.2-10.4,19.4-16.4C310.1,127.6,310.7,131.6,311.3,135.6z M289.9,138.3
			c-0.5-5.1-1.5-10.4-3.1-16c2.7-4.6,4.6-9.9,5.1-16.6c1.3-15-8-27.6-23.1-31.3c-3.4-0.8-6.6-1.2-9.6-1.2
			c-4.8-6.8-9.5-13.7-13.6-20.7c1.6-5.1,3.1-10.2,4.6-15.1c0.3-1,0.6-2.1,0.9-3.1c1.1,0.3,2.2,0.6,3.3,1c18,5.9,32.5,20,43,41.8
			c5.8,12.1,9.1,28.2,11.8,44.7C303,127.9,296.5,133.4,289.9,138.3z M248.9,37c-1.4,4.6-2.8,9.2-4.2,13.8c-2-3.5-3.7-7.1-5.2-10.8
			c-1.1-2.6-2-5.3-2.9-8c4.5,0.2,8.9,0.9,13.2,1.9C249.5,35,249.2,36,248.9,37z M238.2,40.6c1.6,4.1,3.7,8.1,5.9,12.1
			c-3,9.5-6.2,19.1-9.8,28.4c-4.7-10.8-10.3-21.5-16.2-32c6.2-4.5,12.1-9.7,17.3-16.3C236.2,35.5,237.2,38.1,238.2,40.6z
			 M217.4,47.8c-0.4-0.7-0.8-1.4-1.2-2.1c-2.1-3.7-4.1-7.5-5.9-11.3c8.1-1.7,16.1-2.6,24-2.4C229.2,38.3,223.4,43.4,217.4,47.8z
			 M214.9,46.5c0.4,0.7,0.8,1.5,1.2,2.2c-4.9,3.5-9.9,6.6-14.8,9.6c-1.8,1.1-3.7,2.3-5.5,3.4c3.5-8,7.5-15.5,11-22
			c0.8-1.4,1.5-2.8,2.2-4.2C211,39.3,212.9,42.9,214.9,46.5z M202.4,15c4.4-0.2,8.8-0.1,13.1,0.1c-1.4,6.1-3.6,12.1-6.2,17.3
			C206.7,26.7,204.4,20.9,202.4,15z M205.8,39c-3.9,7.1-8.3,15.3-11.9,24.1c-3.7,2.4-7.3,4.9-10.6,7.6c-3.4,2.7-6.4,5.7-9,9.1
			c-7.3,9.4-12.1,17-15.9,23.5c-7.5-16.5-2.5-33.9,4-51.1c6.8-3.4,13.8-6.5,20.9-9.3v0c8.2-3.2,16.5-6,24.7-7.9
			C207.3,36.2,206.5,37.6,205.8,39z M157.1,104c-4.8-1.9-9.4-4.6-13.7-8c-0.4-10.2-1.8-20.8-4.2-31.8c1.3-0.7,2.6-1.3,3.9-2
			c5.6-3.1,11.4-6.2,17.4-9.2C154.1,70.2,149.4,87.5,157.1,104z M143.5,98c4.2,3.2,8.7,5.8,13.5,7.6c-0.7,1.2-1.4,2.4-2,3.6
			c-4.4,7.9-7.9,13.9-13.9,19.7C142.9,118.9,143.8,108.6,143.5,98z M151.7,152.9c-5.8-0.1-11.5-0.9-16.8-2.4
			c1.7-4.5,3.2-9.1,4.4-13.9c0.4-1.5,0.7-3,1-4.6C144.8,138.4,148.7,145.3,151.7,152.9z M83,118.3c-3.5-1.5-7.1-2.8-11-4
			c-1.9-2.5-3.9-5-6-7.3c-8.8-10-19.4-17-30.6-21c-3.5-11.8-8.4-23.8-13.9-36.5c4.5,0.8,8.8,2,12.7,3.5c6.9,2.6,13,6.2,18.9,9.6
			c9,5.2,18.2,10.6,30.5,13C85.4,89.9,85.3,104.4,83,118.3z M22.2,98.5c-3.7-5.1-6.9-9.9-9.8-14.6c7.3-0.3,14.7,0.9,21.8,3.3
			c2.1,7,3.6,14,4.6,20.9c-3.1-0.2-6.2-0.4-9.3-0.4C27.1,104.9,24.7,101.8,22.2,98.5z M30.8,109.2c2.8,0.1,5.5,0.2,8.3,0.4
			c0.4,3,0.6,6.1,0.7,9.1C36.8,115.8,33.8,112.6,30.8,109.2z M36,87.8c10.6,3.9,20.6,10.7,29,20.2c1.6,1.8,3.1,3.7,4.6,5.6
			c-9.1-2.7-19.1-4.5-29.2-5.3C39.4,101.4,37.9,94.7,36,87.8z M39,142.8c0.3-1.2,0.5-2.5,0.7-3.7c0.2,0.1,0.4,0.2,0.7,0.3
			c11.5,5.3,21.1,10.9,29.5,16.5c-2,3.6-4.3,7.1-6.8,10.4c-1.4-0.4-2.7-0.8-4-1.3l-1.5-0.6c-7-2.9-14.7-5.9-22.5-6.1
			C36.5,153.4,37.8,148.3,39,142.8z M34.6,159.8c7.7,0.1,15.4,3.2,22.4,6l1.5,0.6c1.2,0.5,2.4,0.9,3.6,1.2c-1.8,2.3-3.6,4.6-5.6,6.8
			c-4.6,5.1-10,9.6-15.3,14c-2.6,2.2-5.3,4.4-7.9,6.7c-3.1-2.9-6.2-5.9-9.5-8.7C28,178.7,31.6,169.8,34.6,159.8z M23.7,162.1
			c3.1-1.5,6.3-2.1,9.4-2.3c-3,9.6-6.4,18.2-10.4,25.6c-3.3-2.9-6.7-5.6-10.2-8.2C13.9,170.8,17.3,165,23.7,162.1z M12.3,192.1
			c-0.7-4.3-0.8-8.9-0.1-13.3c3.4,2.5,6.6,5.2,9.8,7.9c-2.5,4.6-5.3,8.7-8.2,12.4C13.2,196.9,12.7,194.5,12.3,192.1z M14.3,200.9
			c3.2-3.9,6.1-8.3,8.8-13.2c3.1,2.7,6.2,5.6,9.1,8.4c-3.8,3.5-7.5,7.2-10.6,11.4c-1.1,1.5-2.2,3-3.2,4.4
			C16.8,208.3,15.4,204.7,14.3,200.9z M18.2,214.8c1.2,2.4,2.5,4.9,4,7.3c-3.6,2.5-7.4,4.7-11.3,6.7
			C12.7,223.7,15.2,219.3,18.2,214.8z M8.1,241.6c0.5-4.1,1.2-7.6,2.2-10.9c4.4-2.1,8.6-4.6,12.7-7.4c1.3,2.2,2.7,4.3,4.2,6.6
			c-5.1,3.6-9.8,7.5-14.2,11.7H13c-1.8,1.7-3.6,3.4-5.4,5.2C7.8,245,7.9,243.3,8.1,241.6L8.1,241.6z M7.5,252.5c0-1.2,0-2.3,0.1-3.4
			c2.5-2.6,5-5.1,7.6-7.5h-0.1c4-3.7,8.3-7.2,12.9-10.4c1.8,2.6,3.7,5.3,5.6,8c0.6,0.8,1.3,1.6,2,2.5c3.9,4.8,8.3,9.1,13.3,12.8
			c-1.8,2.8-3.4,5.4-4.9,7.8c-0.8,1.2-1.5,2.4-2.2,3.6c-9.5,0.2-19.1,4.3-26.8,11.5C10.5,269.9,7.5,262,7.5,252.5z M13.5,280.8
			c0.4-0.4,0.8-0.8,1.2-1.2c1.6,2.5,3.3,5,5.2,7.5c-4.3,1.3-8.1,1.3-11.8,0.3C9.7,285.1,11.6,282.9,13.5,280.8z M17,304.2
			c-5.7-1.7-11.6-2.9-17.5-3.7c2.3-4.1,4.8-8.1,7.6-11.9c4.2,1.2,8.7,1.3,13.6-0.3c1.7,2.2,3.4,4.5,5.2,6.7c0.3,0.4,0.6,0.7,0.8,1.1
			c-0.1,0.1-0.2,0.2-0.3,0.2C23.1,298.8,20,301.4,17,304.2z M25.8,307.3c-2.3-0.9-4.7-1.8-7.1-2.5c2.7-2.5,5.6-4.9,8.7-7.2
			c0.1-0.1,0.3-0.2,0.4-0.3c4.3,5.5,8.6,11.1,12.4,17.4C35.5,311.8,30.7,309.3,25.8,307.3z M28.9,296.4
			c11.8-8.1,25.9-11.9,41.3-13.6c0.5,0.8,1,1.6,1.5,2.4c2.5,4.3,4.8,9,7.1,13.5c2.4,4.7,4.8,9.6,7.5,14.2
			c-10.4,3-19.7,8.3-27.8,14.7c-5.1-3.9-10.4-7.7-15.8-11.2C38.6,309,33.8,302.6,28.9,296.4z M44.2,318.9c4.5,3,8.9,6.2,13.2,9.4
			c-2.4,2-4.8,4-7,6.1c-0.2-0.6-0.3-1.1-0.5-1.7C48.4,327.8,46.4,323.2,44.2,318.9z M30.9,359.6c3.2-4.3,6.2-8.4,9.2-12
			c2.8-3.4,6-7,9.5-10.4c2.6,9.8,3.5,19.4,3.5,28.9c-7.6-2.9-15.7-4.2-24-4.1C29.7,361.2,30.3,360.4,30.9,359.6z M12.6,379.8
			c-4.5-3.6-9.1-7.1-13.8-10.5c9-3.3,18.3-5.3,27.4-5.7C22,369.2,17.5,374.8,12.6,379.8z M49.6,404.2c-0.5,3.4-0.9,6.7-1.4,10
			c-3.4-4.2-7-8.2-10.7-12.1c4.4-2.5,8.9-4.9,13.3-7C50.5,398.2,50,401.2,49.6,404.2z M51.1,393.4c-4.9,2.3-9.8,4.9-14.6,7.7
			c-7.2-7.3-14.8-14-22.7-20.4c5.2-5.3,9.9-11.3,14.3-17.2c8.6-0.2,17.1,1.1,25.1,4.2C53,376.4,52.2,384.9,51.1,393.4z M52.6,392.7
			c1-7.9,1.8-16,1.9-24.4c1.8,0.7,3.5,1.5,5.2,2.5c6.3,3.4,12,7.7,17.5,12.2C68.9,385.6,60.7,388.9,52.6,392.7z M60.4,369.4
			c-1.9-1-3.9-1.9-5.9-2.8c0.1-10-0.9-20.3-3.7-30.6c2.4-2.3,5-4.6,7.7-6.8c0.7,0.6,1.5,1.1,2.2,1.7c9.9,7.5,20.2,15.3,31.5,20.6
			c3.4,1.6,6.9,2.8,10.4,3.8c0.2,7.1,0.9,14,1.8,20.8c-8.8,1.5-17.3,3.6-25.6,6.2C73.1,377.6,67.1,373.1,60.4,369.4z M111.5,408.8
			c-5.9-4-12.1-8.8-18.9-14.6c-1.8-1.5-3.6-3.1-5.4-4.6c-2.3-2-4.7-4.1-7-6.1c8-2.4,16.2-4.4,24.5-5.9
			C106.3,388.3,108.7,398.6,111.5,408.8z M126.6,372.8c-6.5,0.9-12.8,1.9-18.7,2.8c-0.6,0.1-1.3,0.2-1.9,0.3
			c-0.9-6.6-1.5-13.3-1.8-20.2c8.1,2.1,16.5,3,25.2,3.9C126.9,363.8,126.2,368.5,126.6,372.8z M130.9,359.8c2.4,0.2,4.9,0.5,7.4,0.8
			c1.1,2.8,2.3,5.5,3.7,8.1c0.4,0.7,0.8,1.4,1.2,2c-5.2,0.6-10.3,1.2-15.2,1.9C127.6,368.4,128.4,363.8,130.9,359.8z M140,360.8
			c6,0.7,12.2,1.5,18.7,3c6.1,1.2,11.8,2.7,17.2,4.4c-10.8,0.5-21.2,1.4-31.1,2.4c-0.5-0.8-1-1.7-1.5-2.6
			C142.1,365.7,141,363.2,140,360.8z M129.2,377.5c-0.4-1.1-0.7-2.3-0.9-3.5c5.1-0.7,10.4-1.4,15.8-2c3.2,5.1,7.2,9.9,11.1,14.5
			c2.4,2.8,4.8,5.7,7.1,8.7C143.7,395.1,133.5,389.4,129.2,377.5z M185.5,393.5c-0.8,0.1-1.5,0.2-2.3,0.3v0
			c-0.6,0.1-1.2,0.2-1.9,0.3c-6.4,0.8-12.1,1.2-17.3,1.2c-2.5-3.4-5.2-6.5-7.8-9.7c-3.7-4.4-7.5-8.9-10.6-13.7
			c10.9-1.2,22.3-2.1,34.3-2.5c1.1,0.4,2.2,0.8,3.2,1.2v0c2.8,1,5.6,2.1,8.2,3.3c-0.2,6.3-0.2,12.6,0.3,18.8
			C189.6,392.9,187.6,393.2,185.5,393.5z M184,369.3c2.6-0.1,5.1-0.1,7.7-0.1c-0.1,1.1-0.1,2.1-0.1,3.2
			C189.1,371.3,186.6,370.2,184,369.3z M192.3,361.9c-0.2,1.9-0.3,3.8-0.5,5.7c-2.8,0-5.7,0.1-8.6,0.2v0c-1,0-2,0-3,0.1
			c-6.6-2.2-13.6-4.1-21.2-5.6c-6.8-1.5-13.3-2.4-19.6-3.1c-0.7-1.8-1.3-3.7-1.9-5.5c0.1,0,0.1-0.1,0.2-0.1c4-2.3,8.8-2.7,13.8-3.2
			c8.2-0.8,16.6-1.6,21.7-10.9c0.1-0.1,0.1-0.2,0.2-0.4c3.1,0.7,6.4,1.2,9.8,1.2v0c1,0,1.9,0,2.9-0.1c1.3,5.5,3.8,10.1,7,14.1
			C192.9,356.9,192.6,359.4,192.3,361.9z M210.2,382.5c-5.5-3.6-11.2-6.8-17.3-9.5c0.1-1.3,0.1-2.5,0.2-3.8c0.5,0,1,0,1.6,0
			c7.3,0,13.5,0.6,18.9,1.6c1.4,0.9,2.9,1.7,4.3,2.6c5.2,3.2,10.6,6.4,15.2,10c-1.2,4.6-2.2,9.2-2.9,14
			C223.7,392.1,217.1,387,210.2,382.5z M241.2,416.7c-3.6,1.2-7.2,2.3-10.8,3.5c-0.2-6.8,0.1-13.5,0.9-20.1c2.5,2,4.9,4,7.3,6.1
			c3.3,2.7,6.6,5.5,10,8.2C246.1,415.2,243.6,415.9,241.2,416.7z M239.4,405c-2.6-2.2-5.3-4.4-8-6.6c0.7-4.7,1.6-9.4,2.8-14
			c0.2,0.2,0.4,0.3,0.6,0.5c8.3,7,13,16.7,13.9,27.8C245.6,410.1,242.5,407.5,239.4,405z M267.3,408.9c-0.6,0.1-1.1,0.3-1.7,0.4
			c-5.1,1.3-10.3,2.9-15.3,4.5c-0.7-12-5.6-22.6-14.5-30.1c-0.4-0.3-0.7-0.6-1.1-0.9c0.6-2,1.2-4,1.8-6c7.3,2,14.3,3.2,23.2,1.2
			c3.9-0.9,7.6-2.4,11-4.3c4,1.1,8.3,2.2,12.8,3.2C277.7,386.7,272.3,397.4,267.3,408.9z M293.2,392.4l-0.1,1.8
			c-0.1,3-0.3,6.1-0.4,9.2c-8,1.4-15.9,3.1-23.7,5.1c4.9-11.2,10.2-21.7,16-31.4c2.4,0.5,4.9,1,7.5,1.4c0.7,0.1,1.4,0.3,2.1,0.4
			C294,383.7,293.4,388.2,293.2,392.4z M294.2,403.2c0.1-3,0.3-6,0.4-8.9l0.1-1.8c0.2-4,0.8-8.5,1.4-13.2c10.1,2.2,19.6,6.4,27.9,12
			c0.3,3.1,0.5,6.3,0.7,9.5C314.6,400.5,304.4,401.5,294.2,403.2z M326.1,400.8c-0.1-2.8-0.3-5.7-0.6-8.5c4,2.8,7.7,5.9,11.1,9.4
			C333.1,401.2,329.6,400.9,326.1,400.8z M347.9,413.6c-2.2-3.4-4.7-6.7-7.4-9.8c4.6,0.8,9,2,13.3,3.5
			C351.9,409.4,349.9,411.5,347.9,413.6z M355,406.2c-5.2-1.9-10.6-3.3-16.1-4.1c-4.1-4.3-8.6-8.2-13.6-11.6
			c-1.8-17.3-6.4-34.3-13.2-49.8c2.1-2.3,4.2-4.5,6.4-6.6c0.7-0.7,1.4-1.3,2.1-2c3.5,14,12.7,26,23.6,31.6c2,9.1,5.5,16.4,10.6,21.9
			c3.4,3.6,7.5,6.5,12.2,8.5c-2.1,1.9-4.1,3.8-6,5.8C359,401.9,357,404.1,355,406.2z M370.6,414.1c-4.5-3-9.2-5.5-14.1-7.4
			c1.9-2,3.7-3.9,5.6-5.9c2-2,4-4,6.1-5.9C368.7,401.4,369.6,407.8,370.6,414.1z M401.6,394.6c-3.5,1.1-7.2,1.7-11.2,1.8
			c-7.8,0.2-14.7-0.8-20.6-2.9c9.1-8,19.6-14.9,30.7-20.1c-0.1,4.5,0,9.1,0.3,13.9C401,389.9,401.3,392.3,401.6,394.6z M383.2,351.8
			c0.7,0.5,1.4,1,2.1,1.5c5.2,3.6,10.5,7.2,15.7,10.9c-0.2,2.5-0.4,5.1-0.5,7.7c-11.2,5.2-21.9,12.2-31.2,20.2c0,0,0-0.1,0-0.1
			c-0.6-9.3-0.6-18.5,0.1-27.7c4.1-2.1,8-5.2,11.4-9.5C381.7,353.7,382.5,352.7,383.2,351.8z M382,350.9c-0.7,0.9-1.4,1.9-2.2,2.8
			c-3.4,4.1-6.8,6.9-10.2,8.7c0.5-6.2,1.4-12.3,2.6-18.4C375.5,346.4,378.7,348.7,382,350.9z M377.9,317.1c-2.8,8.1-5,16.3-6.7,24.5
			c-8.5-6-16.9-12.1-25-18.7c0.8-3.5,1.7-6.9,2.8-10.4c11-5.3,22.7-8.8,34.7-10.3C381.6,307,379.7,312,377.9,317.1z M397.7,275
			c-4.9,8-9.4,16.5-13.4,25.6c-11.9,1.5-23.7,4.9-34.7,10c4-12.1,9.6-23.8,15.1-34.4l1-1.9c2.8-5.2,5.6-10.4,8.3-15.6
			C383.4,263.3,390.9,269.4,397.7,275z M381.2,241.6L381.2,241.6c-2.5,5.1-5,10.2-7.7,15.3c-5-2.3-10.5-4.2-16.8-5.3
			c-6.5-1.1-12.3-1.5-17.5-1.3c0,0,0-0.1,0.1-0.1c1.8-2.8,3.5-5.6,4.9-8.6h0c1.6-3.3,3-6.7,4.2-10.2c11.2,4.4,22.7,6.7,34.5,6.9
			C382.3,239.4,381.7,240.5,381.2,241.6z M383.5,236.8c-11.9-0.1-23.4-2.4-34.7-6.8c1-3.1,1.9-6.2,2.6-9.4c9.5,4.5,20.5,6,32.6,4.3
			c1.7-0.2,3.4-0.6,5.1-0.9C387.3,228.3,385.5,232.6,383.5,236.8z M389.7,222.4c-1.9,0.4-3.9,0.8-5.9,1.1c-11.9,1.6-22.7,0.1-32-4.4
			c1.9-8.3,3.2-16.8,4.4-25.2c1.5-10.5,3.1-21.2,6-31.6c13.6-4.4,27-2.4,39.8,3.2C402.1,185.1,397.1,204,389.7,222.4z M396.9,133.6
			c3.3,10.3,4.8,20.4,5,30.3c-12.6-5.4-25.8-7.4-39.2-3.3c2.5-8.4,5.9-16.6,11-24.1c2.8-4.1,6.1-7.7,10-10.8c0.7,0,1.5,0.1,2.2,0.1
			l2.7,0.1c2,0.1,3.9,0.2,5.8,0.3C395.2,128.8,396.1,131.3,396.9,133.6z M393.7,124.8c-1.7-0.1-3.4-0.2-5.1-0.3l-2.7-0.1
			c-0.2,0-0.3,0-0.5,0c2-1.5,4.2-2.9,6.5-4.2C392.4,121.7,393.1,123.2,393.7,124.8z M385,101.5c1.8,5.8,4.1,11.6,6.3,17.2
			c-2.9,1.6-5.6,3.4-8.2,5.5c-4.4-0.2-9-0.5-13.7-0.9C374,115.5,378.9,107.9,385,101.5z M368.6,124.7c4.3,0.4,8.7,0.7,12.8,0.9
			c-3.4,3-6.5,6.3-9,10.1c-5.3,7.9-8.9,16.5-11.4,25.4c-3.6,1.2-7.1,2.8-10.7,4.9c-10,5.9-18.5,14-25.2,23.9
			c-1.8-4.1-3.3-8.6-4.6-13.3c4.1-1.8,8.3-3.9,12.7-6.6c14.9-9.1,23.7-24.5,32.1-39.5C366.4,128.6,367.5,126.7,368.6,124.7z
			 M367,124.6c-1,1.7-2,3.5-3,5.2c-8.4,14.8-17,30-31.6,39c-4.2,2.6-8.3,4.7-12.3,6.4c-1.1-4.1-2-8.4-2.9-12.9
			c4.2-5,8.7-9.8,13.1-14.5c6.4-6.9,13.1-14.1,18.9-21.8c1-1.3,1.9-2.6,2.9-3.9C357,123.3,362,124,367,124.6z M377.1,37.7
			c0.1,3.4,0.1,6.7,0,10.1c-3.7,1.4-7.5,2.6-11.2,3.6C369.4,46.8,373.1,42.2,377.1,37.7z M364.3,53.4c4.3-1.1,8.6-2.4,12.7-3.9
			c-1.3,24.9-10,49-25.5,70.9c-9.9-2.6-18.8-7-25.2-14.8c6.1-7.2,11.9-15.1,17.5-23.5C350,72.9,356.7,63.2,364.3,53.4z M343.2,56
			c6.2,0.1,12.5-0.7,18.8-2.1c-7.1,9.3-13.5,18.6-19.4,27.3c-5.5,8.3-11.3,16-17.2,23.1c-0.1-0.1-0.2-0.2-0.3-0.4
			c-9.2-12.5-8.4-27.8-5.9-43.2C327.4,61.7,336.2,60.3,343.2,56z M340.4,55.9c-6.3,3.2-13.8,4.2-20.9,3.5c0.5-2.9,1-5.8,1.6-8.6
			C327.1,53.9,333.7,55.5,340.4,55.9z M311.8,13.9c4.5-1,8.7-2.6,12.7-4.6c-0.5,9.6-1.3,18.9-2.6,27.7c-0.5,3.7-1.2,7.5-2,11.5
			c-5.1-2.9-9.8-6.9-14.1-12.4c-4.8-6.1-7.8-13.4-9.5-21.3C301.5,15.4,306.7,15.1,311.8,13.9z M255.8,19.3
			c2.1-6.5,4.3-12.8,6.6-18.9c0.3,0.2,0.6,0.5,0.9,0.7c11.1,7.8,21.4,12.2,31.5,13.6c1.8,8.3,4.8,16,9.9,22.4c4.6,5.8,9.6,10,15,13
			c-0.6,3-1.1,6.1-1.7,9.2c-2.2-0.3-4.3-0.7-6.3-1.3c-11.8-3.6-21.4-11.5-30.8-19.3c-8-6.6-16.2-13.4-25.8-17.4
			C255.4,20.6,255.6,20,255.8,19.3z M254.8,22.7c9.3,3.9,17.4,10.6,25.3,17.1c9.4,7.8,19.2,15.9,31.2,19.5c2.1,0.6,4.3,1.1,6.5,1.4
			c-2.5,15.3-3.2,31.4,6.2,44.2c0.2,0.2,0.3,0.4,0.5,0.6c-4.5,5.4-9.2,10.4-14,15.1c-2.7-16.3-5.9-32.2-11.7-44.2
			C288,54.3,273.3,40,254.9,33.9c-1.1-0.4-2.2-0.7-3.3-1C252.7,29.4,253.7,26,254.8,22.7z M243.9,19.1c3.4,0.9,6.6,1.9,9.6,3
			c-1.1,3.4-2.1,6.9-3.2,10.5c-4.3-1.1-8.7-1.7-13.1-2C239.6,27.1,241.9,23.3,243.9,19.1z M242.5,18.7c-1.9,4.1-4.1,7.7-6.6,11
			c-1.3-4.3-2.4-8.6-3.3-13C236,17.3,239.3,18,242.5,18.7z M234.6,30.5c-7.8-0.2-15.9,0.6-24,2.3c2.7-5.4,4.8-11.5,6.3-17.7
			c4.8,0.3,9.6,0.7,14.1,1.4C232,21.2,233.2,25.9,234.6,30.5z M219.1,0.5c3.3-0.9,6.6-1.8,9.8-2.8c0.3,5.8,0.9,11.6,1.9,17.3
			c-4.4-0.6-8.9-1.1-13.6-1.4C218.3,9.2,218.9,4.8,219.1,0.5z M201.4,4.4c5.5-0.9,10.9-2.1,16.2-3.5c-0.2,4.1-0.8,8.4-1.7,12.7
			c-4.6-0.2-9.3-0.2-13.9-0.1c-1-2.9-1.8-5.9-2.6-8.9C200,4.6,200.7,4.5,201.4,4.4z M175.3,5.5c2.6,0.2,5.3,0.2,8,0.3v0
			c4.8,0,9.6-0.2,14.6-0.9c0.8,2.9,1.7,5.8,2.6,8.7c-5.9,0.4-11.6,1.3-17.2,2.6v0c-3.2,0.8-6.4,1.7-9.4,2.7
			C174.8,14.6,175.2,10,175.3,5.5z M173.4,20.6c3.2-1.1,6.5-2.1,9.8-2.9v0c5.6-1.3,11.5-2.2,17.5-2.6c0.1,0,0.1,0,0.2,0
			c2.1,6.2,4.5,12.4,7.3,18.3c-8.3,1.9-16.7,4.6-25,7.9v0c-6.8,2.7-13.6,5.7-20.2,8.9c0.7-1.8,1.4-3.6,2.1-5.4
			C168.2,36.7,171.4,28.5,173.4,20.6z M138.3,44.4c8.6-10.3,20.1-18.2,33.5-23.3c-2,7.5-5,15.4-7.9,22.9c-0.9,2.3-1.8,4.6-2.7,6.9
			c-6.5,3.2-12.8,6.6-18.8,9.9c-1.2,0.6-2.4,1.3-3.6,1.9c-1.1-4.7-2.3-9.4-3.8-14.2C136.1,47.2,137.1,45.8,138.3,44.4z M134,50.1
			c1.3,4.5,2.5,9,3.5,13.4c-4.4,2.3-8.7,4.3-12.9,6.1C126.8,62.5,130,56,134,50.1z M137.9,64.9c2.3,10.3,3.6,20.2,4,29.8
			c-6.9-5.9-12.9-13.8-17.8-23.5C128.7,69.5,133.2,67.3,137.9,64.9z M123.5,73.3c5.1,9.8,11.4,17.7,18.5,23.5
			c0.4,10.9-0.4,21.4-2.4,31.6c-5.3-7.3-11.1-13.9-16.7-20c-0.7-0.7-1.3-1.4-2-2.1c0-0.2,0-0.5-0.1-0.7
			C119.9,94.1,120.8,83.2,123.5,73.3z M119.4,104.8c-7.8-7.9-16.5-15.2-25-22.3c-2.5-2.1-5-4.2-7.4-6.3c2.4,0.3,4.9,0.6,7.6,0.7
			c10.2,0.4,19.1-1.5,27.8-4.8C119.5,82.1,118.5,93.1,119.4,104.8z M93.6,18.6c12.6,8.4,17.2,21.8,22.1,36l1.1,3
			c1.6,4.6,3.4,8.8,5.3,12.8c-8.7,3.3-17.5,5.2-27.6,4.9c-3.5-0.1-6.7-0.5-9.8-1c0,0-0.1-0.1-0.1-0.1c-3.1-22.8-11-45.7-22.8-65.2
			C72.7,8.8,83.7,12.1,93.6,18.6z M55.4,9.7c1.6-0.3,3.2-0.4,4.9-0.5c11.4,18.7,19.6,40.9,22.9,63.8c-8.3-7.2-16.4-14.8-23.4-23.2
			c-9.4-11.4-12.1-24.2-11.9-38.4C50.3,10.6,52.8,10.1,55.4,9.7z M11.4,27.6c11.2-6.1,22.7-12.5,35.1-16c-0.1,14.3,2.7,27.5,12.2,39
			c6.9,8.3,14.9,15.9,23.2,23.1c-11.1-2.5-19.7-7.5-28.1-12.4c-5.9-3.5-12.1-7.1-19.1-9.7c-4.2-1.6-8.9-2.9-13.9-3.7
			c-0.6-1.3-1.1-2.6-1.7-3.9C16.7,38.6,14.1,33.3,11.4,27.6C11.4,27.7,11.4,27.7,11.4,27.6z M17.8,44.6c0.5,1,0.9,2.1,1.4,3.1
			c-7.6-1-15.6-0.7-23,1.7c-1-2.8-2-5.5-2.9-8.1c-0.4-1.2-0.8-2.3-1.2-3.5c1.4-0.7,2.8-1.4,4.2-2.1c4.7-2.3,9.4-4.9,13.9-7.4
			C12.8,33.9,15.4,39.2,17.8,44.6z"/>
	</g>
	<g>
		<path class="st1" d="M391.4,403.6c3.6-0.5,7.4-0.9,11.5-1v-1.5c-4.3,0.1-8.3,0.5-12.1,1.1c-1-2.4-2.3-4.8-4.2-7
			c-5.2-6.1-11.8-9.3-19.2-9.5c-0.3-3.4-0.5-6.8-0.7-10.3c3-0.7,6-1.7,8.9-3.3c3.6-2,6.4-5.7,8.9-10.2c6.6,3.9,12.7,8.2,18.4,12.5
			v-1.8c-5.5-4.1-11.4-8.2-17.7-11.9c1.6-3,3-6.3,4.5-9.7c0.3-0.6,0.5-1.1,0.8-1.7c2.1,2.2,4.5,4.3,7.4,6.4c1.7,1.1,3.3,2,5,2.8
			v-1.6c-1.4-0.7-2.9-1.5-4.3-2.4c-3-2.1-5.5-4.3-7.5-6.6c3.2-7.2,6.7-14.1,11.8-17.8v-1.8c-5.7,3.6-9.4,10.8-12.8,18.3
			c-6.7-7.8-8.4-16.2-9.1-24.2c-1-10.9,1.2-21.7,6-30.5c1.2-2.2,2.5-4.3,3.9-6.4c1.8,1.2,3.7,2.5,5.6,3.9c2.3,1.7,4.5,3.5,6.5,5.2
			v-1.9c-1.8-1.5-3.6-3-5.6-4.5c-1.9-1.4-3.8-2.7-5.6-3.9c3.3-4.7,7.1-8.9,11.2-12.6v-1.9c-4.6,4-8.8,8.5-12.4,13.7
			c-2.7-1.8-5.2-3.5-7.6-5.1c-1.2-0.8-2.4-1.6-3.5-2.3c-0.2-9.8-4.2-19.7-11.1-27.6c7.2-4.6,14.9-7.7,24.1-7.7c1.1,0,2.2,0,3.3,0.1
			c2.5,2.5,4.9,5.2,7.2,7.9v-2.2c-1.6-1.9-3.3-3.7-5.1-5.5c1.8,0.1,3.5,0.3,5.1,0.4V240c-2.1-0.2-4.3-0.4-6.6-0.5
			c-7.3-7.3-15.5-14-24.6-20.1c5.5-7.1,11.4-14.8,15.8-24.4c5.1,2.8,10.2,5.6,15.4,8.2v-1.6c-5-2.5-9.9-5.2-14.8-7.9
			c2.2-5.2,4-10.9,5.1-17.3c1.1-6.7,1.5-12.7,1.3-18.1c0,0,0.1,0,0.1,0.1c2.7,1.9,5.5,3.6,8.3,5v-1.7c-2.6-1.4-5.1-2.9-7.5-4.6
			c-0.3-0.2-0.7-0.5-1-0.7c-0.2-3.5-0.6-6.7-1.2-9.7c1.1,0.1,2.2,0.1,3.2,0.1c2.3,0,4.5-0.2,6.5-0.5v-1.5c-2,0.4-4.1,0.5-6.5,0.5
			c-1.2,0-2.4-0.1-3.6-0.2c-1.5-6.9-4-12.6-6.6-17.7c0,0,0.1,0,0.1,0c2.6,0,5.1-0.1,7.6-0.1c3,0,5.9,0.1,8.9,0.4v-1.5
			c-2.9-0.2-5.9-0.4-8.9-0.4c-2.5,0-5,0-7.6,0.1c-0.3,0-0.6,0-0.9,0c-1.3-2.4-2.6-4.7-3.9-6.9c-0.9-1.5-1.7-3-2.5-4.4
			c7.9-4.3,16-7.3,23.8-8.2v-1.5c-8,0.9-16.3,4-24.5,8.4c-2.3-4.2-4.1-8.3-4.9-12.8c-1.6-9.2,0.9-17.6,7-22.9
			c5.6-4.9,13.5-6.5,22.4-4.9v-1.5c-9.2-1.7-17.4,0.1-23.3,5.2c-6.5,5.7-9.2,14.5-7.5,24.3c0.8,4.6,2.7,8.9,5,13.2
			c-5.6,3.1-11.1,6.8-16.3,10.8c-3.4-3.7-6.7-7.4-9.9-11.1c-2.4-2.7-4.9-5.5-7.4-8.3c13-12.4,22.9-27.1,29.3-43.5
			c3.6,1.1,7.3,0.6,11-2.5c4.6-3.8,5.4-8.1,5-12.8c4.8,3.4,9.4,7.1,14,10.8v-1.9c-4.7-3.8-9.4-7.5-14.3-10.9c-0.3-2-0.8-4-1.3-6.1
			c-0.6-2.4-1.2-5.1-1.6-7.9c2.4-2.1,5.1-4.3,8.3-6.8c2.2-1.6,5.3-3.7,8.9-5.8v-1.7c-4,2.2-7.3,4.5-9.8,6.2
			c-2.9,2.2-5.5,4.3-7.7,6.2c-0.9-6.7-0.6-14.4,3.6-23.5c0.9-2.2,1.8-4.9,2.6-7.9h-1.5c-0.7,2.8-1.6,5.2-2.4,7.2
			c-4.5,9.8-4.6,18.1-3.6,25.2c-2.4,2.1-4.4,4.1-6.2,6c0.5-13-1.5-26-4.1-38.5h-1.5c2.6,12.7,4.7,25.9,4.1,39.1
			C366,30.4,354.7,25,342.8,20.5c-1-5-3.1-9.3-6.3-12.7c-5.3-5.6-13.2-8.6-21.8-8.2c-2.1,0.1-4.1,0.3-6,0.7c0-0.9-0.1-1.8,0-2.7
			h-1.3c0,1,0,2,0.1,3c-5.3,1.4-9.8,3.9-13.7,7.3c-2.4-0.4-4.9-0.7-7.3-0.9c-1.9-0.2-3.7-0.4-5.6-0.5c0-2.9-0.1-5.9-0.2-8.8h-2.7
			c-1,2.9-2.1,5.7-3.2,8.5c-6.1-0.2-12.2-0.2-18.3,0.3c-0.2-2.1-0.5-4.3-0.8-6.4c-0.1-0.8-0.2-1.6-0.3-2.4h-1.4
			c0.1,0.9,0.2,1.7,0.4,2.6c0.3,2.1,0.6,4.2,0.8,6.3c-11.1,0.9-22,2.8-32.7,5.8c-0.6-5-0.8-9.9-0.8-14.6H220c0,4.9,0.2,9.9,0.8,15
			c-2.8,0.8-5.7,1.7-8.5,2.7c-0.4-6.1-1.2-12-2.5-17.7h-1.5c1.3,5.8,2.2,11.8,2.6,18c0,0.1,0,0.1,0,0.2c-6.1,2.2-12,4.7-17.8,7.5
			c-1.8-8.6-4.5-17.2-7.6-25.7H184c3.1,8.4,5.8,17,7.6,25.5c-1.3-0.7-2.6-1.5-4-2.3c-6.9-4-14.8-8.5-23.4-12.3
			c-2.3-3.9-4.7-7.5-7.3-10.9h-1.8c2.4,3.1,4.7,6.4,6.9,9.9c-12.2-5.1-25.7-8.6-39.8-6.7c-0.2-1.1-0.3-2.1-0.5-3.2h-1.5
			c0.1,1.1,0.3,2.3,0.5,3.4c-0.7,0.1-1.5,0.2-2.2,0.4c-5.2,1-9.8,2.3-14,3.7c0.3-2.6,0.7-5.1,1.2-7.5h-1.5c-0.5,2.6-0.9,5.3-1.3,8.1
			C98.9,7,95.3,8.5,91.8,9.9c-0.2,0.1-0.5,0.2-0.7,0.3C88.4,6.2,86,2,84-2.5h-1.5c2.1,4.7,4.6,9.1,7.4,13.1
			c-9,3.6-16.4,6.2-25.3,4.1c-1.6-0.4-3.2-0.9-4.8-1.5c-0.3-5-0.5-10.2-0.6-15.7h-1.4c0.1,5.3,0.3,10.3,0.6,15.1
			C51,9.6,44,4.3,38.2-2.5h-1.9C42.6,5.2,50.2,11,58.4,14.3c0.6,8.4,1.5,16.1,2.9,24c-2.8-0.9-5.6-1.4-8.6-1.3
			c-2.3-11.1-7.8-20.2-19.1-26.1c-5.4-2.8-11.2-3.6-17-3.2C15.8,4.4,15.3,1,15-2.5h-1.4c0.2,3.5,0.8,7,1.6,10.3
			C9.5,8.5,3.9,10.3-1.2,12.5c0.3-4.9,1.2-9.9,2.7-15H0C-1.5,2.9-2.4,8.1-2.7,13.2c-2.2,1-4.2,2.1-6.2,3.2V18
			c1.9-1.1,3.9-2.2,6.1-3.2C-3.1,28.5,1,41.8,9.8,56.6c1.6,2.6,3.3,5.3,4.9,8c2.1,3.3,4.1,6.6,6.1,9.9c-1.4,0.9-2.9,1.5-4.5,1.8
			C12.3,73,8.1,69.6,4,66.1c-4.2-3.6-8.5-7.2-12.9-10.7v1.9c4,3.3,8,6.6,12,9.9c3.8,3.2,7.6,6.4,11.4,9.5c-4.3,0.5-9.3-0.6-15.6-3.3
			c-2.6-1-5.2-1.7-7.7-2.1v1.5c2.3,0.4,4.7,1.1,7.2,2c7.1,3,12.8,4.1,17.7,3.1c3.2,2.6,6.4,5.1,9.6,7.5c-1.2,1.4-2.3,2.9-3.3,4.6
			c-3.3,5.2-5,10.7-6.3,16.2c-6.2-1.1-12.8-1.6-20-1.6c-1.6,0-3.3,0.1-4.9,0.3v1.5c1.6-0.2,3.3-0.3,4.9-0.3c7.1,0,13.5,0.5,19.6,1.6
			c-0.3,1.4-0.6,2.8-0.9,4.1c-1,4.9-2.1,9.9-4,14.9c-0.4,0.9-0.7,1.8-1.1,2.6c-5.9-1.5-12.1-2.5-18.6-3v1.5
			c6.2,0.5,12.2,1.4,17.9,2.9c-4.1,8.2-9.7,12.7-17.9,14.2v1.5c8.8-1.5,15-6.4,19.3-15.3c3.1,0.8,6.1,1.8,9.1,2.9
			c-1.4,2.2-2.8,4.3-4.2,6.4c-2.2,3.3-4.5,6.7-6.4,10.2c-2.9,5.3-5.4,10.5-7.4,15.9c-3.6-1.3-7-2.8-10.4-4.6v1.7
			c3.2,1.7,6.5,3.1,9.9,4.3c-4.3,11.6-6.5,23.4-6.6,35.6c-1.1-0.5-2.2-1.1-3.2-1.7v1.6c1.1,0.6,2.2,1.1,3.2,1.7
			c0,3.3,0.1,6.6,0.4,9.9c0.5,6.2,1.5,12.2,2.9,17.6c0.8,3.3,1.9,6.5,3.2,9.6c-2.9-0.9-6.1-1.5-9.8-1.9v1.5
			c3.9,0.5,7.4,1.2,10.5,2.2c2,4.5,4.5,8.9,7.1,13.1c-2.1,1.4-4.2,2.8-6.4,4.3c-3.5-5.3-7.3-10.1-11.3-14.7v2.2
			c3.6,4.1,7,8.5,10.1,13.3c-2.5,1.8-5.1,3.8-7.7,5.8c-0.8,0.6-1.6,1.4-2.4,2v1.9c1.1-0.9,2.1-1.9,3.3-2.8c2.6-2,5.2-4,7.7-5.8
			c4.1,6.4,7.9,13.3,11,20.8c0.5,1.1,0.9,2.2,1.3,3.3c-4.7,5-9,10.7-11.9,17.2c-3.3-4.4-7.2-8.2-11.4-11.8v1.9
			c4,3.4,7.6,7.2,10.8,11.4c-2.3,5.8-3.3,12.3-2.6,19.7c-1.1,0.1-2.1,0.2-3.1,0.5c-1.9,0.4-3.5,1.1-5.1,2v1.8c1.6-1.1,3.4-2,5.3-2.3
			c1-0.2,2-0.4,3-0.5c0.1,0.5,0.1,1,0.2,1.5C1.5,339.2,8,346.5,16,352.4c0.1,4.1,0,7.9-0.3,11.6c-0.1,0.7-0.2,1.5-0.2,2.2
			c-4.5-2.8-9.3-4.3-13.9-5.7c-3.4-1.1-7-2.2-10.4-3.8v1.6c3.3,1.5,6.7,2.6,10,3.6c5,1.5,9.7,3,14.2,5.9c-0.7,6.3-1.9,12.6-3.5,19.1
			c-3.8-1.9-7.3-4.1-10.7-6.6c-3.2-2.6-6.5-5.2-10-7.8v1.8c3.2,2.4,6.2,4.8,9.1,7.2c3.5,2.6,7.2,4.9,11.1,6.9
			c-1.2,4.7-2.7,9.4-4.3,14.1c-4.1-0.8-8.6-1.4-13.6-1.4c-0.8,0-1.6,0-2.3,0v1.5c0.8,0,1.5,0,2.3,0c4.8,0,9.1,0.5,13.1,1.3
			c-0.8,2.2-1.7,4.5-2.6,6.7c-1.6,3.9-3,7.7-4,11.4h1.5c1-3.5,2.3-7.1,3.8-10.8c0.9-2.3,1.8-4.7,2.7-7c2.3,0.5,4.5,1.1,6.6,1.6
			c-0.2,1.3-0.4,2.6-0.6,3.9c-0.6,4-0.7,8.1-0.4,12.2H15c-0.3-4-0.2-8.1,0.4-12c0.2-1.3,0.4-2.5,0.6-3.7c0.8,0.2,1.7,0.5,2.5,0.7
			c3.7,1.1,7.1,2.1,10.4,2.6c0.6,1.7,1.3,3.5,2.3,5.2c1.6,2.6,3.3,5,5.1,7.2h1.9c-2.1-2.5-4.1-5.1-5.8-8c-0.8-1.4-1.4-2.8-2-4.3
			c4.9,0.5,9.5-0.4,14.3-4.1c3.1-2.4,5.3-5.4,6.6-8.9c2.3-0.1,4.5-0.3,6.7-0.6c-0.3,3.8-0.5,7.5-0.5,11.1c0,5.2,0,10.1,0.1,14.7h1.4
			c-0.1-4.7-0.1-9.6-0.1-14.7c0-3.7,0.2-7.5,0.5-11.3c2-0.3,4-0.6,5.9-1.1c3.6-0.8,7.1-2,10.4-3.3c0.1,5.2,0.7,10.5,1.8,15.8
			c1.2,5.1,2.8,9.9,4.8,14.6H84c-2.1-4.7-3.8-9.7-5-14.9c-1.1-5.5-1.7-10.8-1.8-16.1c7.8-3.2,14.9-7.5,21.5-12.3
			c5.9,6.9,12,10.6,20.1,15.4c1.1,0.7,2.3,1.4,3.5,2.1c-2.4,1.4-4.8,3-7.2,5c-6.7,5.7-9.4,12.9-11,20.7h1.5
			c1.5-7.5,4.2-14.3,10.4-19.6c1.9-1.7,3.9-3.1,5.9-4.3c-2.2,7.5-2.8,15.5-1.7,23.9h1.5c-1.1-8.8-0.4-17.1,2.1-24.9
			c6.4,3.9,14,9,23.4,16.7c2.9,2.4,5.5,5.1,7.9,8.1h1.8c-2.7-3.5-5.5-6.6-8.8-9.3c-9.1-7.5-16.5-12.5-22.8-16.4
			c16-7.7,32.9-2.6,49.6,4.1c3.3,7,6.3,14.3,9.1,21.6h1.5c-2.6-7.1-5.5-14-8.6-20.8c1.8,0.7,3.5,1.4,5.3,2.2
			c7.7,3.2,15.7,6.5,23.4,8.5c1.1,3.3,2,6.7,2.8,10.1h1.5c-0.7-3.3-1.6-6.6-2.6-9.7c4.2,1,8.6,1.5,13,1.5c-0.2,2.7-0.2,5.4-0.2,8.2
			h1.4c0-2.8,0.1-5.5,0.2-8.2c5.2-0.1,10.3-0.8,15.1-2.2c5.8-1.7,10.9-4.7,15.6-8.2c0.1,5.1,0.5,10.7,1.2,16.9
			c0.1,0.6,0.2,1.2,0.2,1.8h1.4c-0.1-0.6-0.2-1.3-0.3-1.9c-0.8-6.6-1.2-12.5-1.2-17.8c3.3-2.5,6.4-5.3,9.4-8.1
			c4.2-3.8,8.6-7.7,13.3-10.9c1.1,11.2,2,23,2.4,35.4c-0.4,1.1-0.7,2.2-1.1,3.3h2.6c0-1,0-2.1-0.1-3.1c2.2-6.8,4-14.1,5.5-21.9
			c1.4-7,2.3-13.7,3-20.2c1.8-0.7,3.6-1.3,5.4-1.9c0,0.1,0.1,0.1,0.1,0.2c2.2,4.2,2.7,9.1,3.1,14.2c0.7,8.4,1.5,17.1,10.5,22.4
			c0.1,0.1,0.2,0.1,0.4,0.2c-0.7,3.2-1.1,6.6-1.2,10.1h1.3c0-3.3,0.4-6.4,1.1-9.5c6.4,2.9,12.1,0.6,18-3.6c6.9,3.9,13,5.3,18.9,5.3
			c7.3,0,14.3-2.3,22.1-4.8c0.4-0.1,0.7-0.2,1.1-0.3c0.1,0.3,0.2,0.7,0.2,1c0.9,3.9,1.7,7.8,2.6,11.8h1.5c-0.8-4.1-1.8-8.2-2.6-12.2
			c-0.1-0.4-0.2-0.7-0.3-1.1c5.7-1.8,11.8-3.7,18.9-4.8c2.1,6.2,1.6,12.7,0.2,18.1h1.5C393,416.5,393.5,409.9,391.4,403.6z
			 M375,370.9c-2.7,1.5-5.4,2.5-8.3,3.1c-0.3-7-0.5-14.1-0.5-21.1c0.7,0.3,1.4,0.5,2,0.8c5.3,2.2,10.3,4.8,15.1,7.5
			C381,365.5,378.3,369,375,370.9z M379.4,277.9c0.9,0.6,1.8,1.2,2.7,1.8c2.3,1.5,4.9,3.2,7.5,5c-1.4,2.1-2.7,4.2-4,6.5
			c-5,9-7.2,20.2-6.2,31.3c0.8,8.5,2.6,17.3,9.9,25.5c-0.3,0.8-0.7,1.5-1,2.3c-1.5,3.4-2.9,6.6-4.5,9.6c-4.8-2.8-9.9-5.4-15.2-7.6
			c-0.9-0.4-1.7-0.7-2.6-1c0-1.5,0-3,0-4.5c-0.1-14-0.2-27.7-1.6-40.6c8.4-6.3,13.6-15.2,14.7-25.3
			C379.4,279.8,379.4,278.9,379.4,277.9z M316.1,369.7c-3.4,0.1-6.7,0.4-10,0.9c-0.2-10,3-20.2,9.2-29.4c6.7,0.6,13.2,1.5,19.6,2.7
			c-0.1,1.2-0.2,2.4-0.3,3.7c-0.9,8.7-3.5,16.2-6.6,23.1C323.9,370,319.9,369.6,316.1,369.7z M327.3,372c-2.3,4.8-4.8,9.2-7.3,13.7
			c-1.9,3.3-3.8,6.7-5.5,10c-3.6-4.9-6.2-10.5-7.5-16.6c-0.5-2.3-0.8-4.7-0.9-7c3.3-0.5,6.6-0.8,10-0.9
			C319.7,371.1,323.5,371.4,327.3,372z M328.6,65.7c-0.2-3.2-0.6-6.2-1.2-9.2c4.9-4.9,9.8-10,12.8-16.2c7.3,3.1,13.3,8.1,18.6,12.4
			c0.9,0.7,1.8,1.5,2.7,2.2c-11.5,11.7-21.2,21-30.3,29.1c-1,0.8-1.9,1.7-2.9,2.6C329.4,79.8,329.2,72.7,328.6,65.7z M357.8,239
			c-3.8-2.9-7.8-5.5-11.9-7.9c0.8-8.1,0.8-16.3-0.1-24.5c8.4,4,16.4,8.4,23.7,13.2C364.6,226.3,360,232.4,357.8,239z M358.5,241.4
			c2.2,1.8,4.3,3.6,6.4,5.6c0.4,0.4,0.8,0.8,1.2,1.2c-2.5,1.6-4.9,3.4-7.3,5.3C357.6,249.2,357.6,245.2,358.5,241.4z M357.3,240.5
			c-1.2,4.3-1.2,9,0.3,14.1c-2.2,1.7-4.3,3.5-6.5,5.4c-0.3,0.3-0.7,0.6-1,0.9c-0.1-0.1-0.2-0.2-0.2-0.4c-2.4-3.5-5-6.7-7.7-9.7
			c1.7-5.9,2.9-12,3.5-18.1C349.7,235,353.6,237.6,357.3,240.5z M334.3,323.6c4.5-2.9,9.3-5.4,14-7.9c4.4-2.3,8.9-4.8,13.1-7.4
			c0.6-0.4,1.2-0.8,1.8-1.1c1.2,12.6,1.4,25.9,1.5,39.6c0,1.3,0,2.6,0,4c-9-3.5-18.5-6.2-28.4-8.1
			C336.5,335.9,335.8,329.6,334.3,323.6z M334.9,342.3c-6.1-1.1-12.3-2-18.7-2.6c0,0,0,0,0,0c4.5-6.3,10.4-11.1,16.8-15.3
			C334.4,330.1,335.1,336.1,334.9,342.3z M360.7,307c-4.2,2.6-8.7,5-13.1,7.3c-4.6,2.5-9.3,5-13.7,7.7c-2.9-10.7-8.1-20.3-14.2-28.6
			c3.7-5.3,7.5-10.7,10.8-16.3c7.1-4.2,13.3-9.3,19.3-14.3c7.9,12.2,11.5,26.7,13.2,42.5C362.3,306,361.5,306.5,360.7,307z
			 M255.7,285.8c-2.3-5-4.8-10.1-7.5-15.1c7.1-7.4,13.6-15.2,19.8-23.4c5.1,5.4,10.9,10.2,16.7,14.7c0.2,8.9-1.1,17.7-4.1,25.9
			C272.2,287.8,263.9,286.9,255.7,285.8z M280.1,289.3c-0.7,1.8-1.5,3.6-2.4,5.4c-3.3,6.5-7.4,12.4-11.8,18.1
			c-2.6-8.6-5.7-17.1-9.4-25.4C264.1,288.4,272,289.2,280.1,289.3z M87.2,352.1c-5.2-2.3-10.1-5.6-14.3-10.5
			c-0.1-0.2-0.3-0.3-0.4-0.5c1.4-3.6,2.9-7.2,4.5-10.8l1-2.2c2.4-5.4,4.8-10.6,7.3-15.6c4.8,2.1,9.8,3.9,15,5.3
			c-3.8,3.8-7.3,8.1-9.8,13.3C87.3,337.9,86.4,345.2,87.2,352.1z M122.9,109.6c14.5,1.3,26.8-8.3,30.4-23.8c0.8-3.5,1.2-6.8,1.2-9.9
			c6.6-4.9,13.3-9.8,20.1-14c5,1.6,9.9,3.2,14.7,4.7c1,0.3,2,0.6,3,1c-0.3,1.1-0.6,2.3-0.9,3.4c-5.7,18.6-19.4,33.5-40.6,44.3
			c-11.7,6-27.3,9.4-43.4,12.1c-5.9-6.4-11.2-13.1-15.9-19.9c5-0.5,10.1-1.6,15.5-3.2C111.4,107,116.5,109,122.9,109.6z
			 M108.7,103.7c15.5-5.1,29.5-15.6,43-25.8c0.4-0.3,0.9-0.7,1.3-1c-0.1,2.7-0.4,5.5-1.1,8.5c-3.5,15-14.8,24-28.9,22.7
			C117.3,107.6,112.8,106,108.7,103.7z M147.3,51.9c8.4,3.5,17,6.6,25.4,9.4c-6.3,3.9-12.4,8.3-18.4,12.8
			C154,66.1,151.2,59,147.3,51.9z M341.1,249.4c-14.5-15.6-33-24.7-55.3-27.3c3.4-5.2,6.8-10.4,10.2-15.5c0.4-0.7,0.9-1.4,1.3-2.1
			c9.4,7.3,20,12.8,30.4,18.2c5.6,2.9,11.3,5.8,16.8,9.1C343.8,237.8,342.6,243.7,341.1,249.4z M341.7,252.4c2.5,2.8,4.8,5.8,7,8.9
			c0.1,0.1,0.2,0.3,0.3,0.4c-5.3,4.4-10.8,8.9-16.9,12.8c2.7-4.7,5.2-9.7,7.1-14.8C340.2,257.3,341,254.8,341.7,252.4z M176.4,293.7
			c-8.1,7.1-15.4,15.4-22.4,23.9c2.5-11.5,7.3-20.3,12-28.9c3.4-6.1,6.8-12.5,9.4-19.7c1.6-4.4,2.8-9.2,3.6-14.3
			c1.3-0.6,2.5-1.2,3.8-1.8c5.3-2.5,10.4-5.2,15.8-8c0,0,0,0,0,0.1c6,11.5,12.1,23.4,15.5,36.2C200.4,281,187.5,283.9,176.4,293.7z
			 M214.6,282.5c0.6,2.5,1.2,5.1,1.6,7.7c0.3,1.7,0.4,3.3,0.5,5c-18.1,11.7-39.7,20.2-61.9,23.6c7-8.6,14.4-17,22.5-24.1
			C188.4,285.1,200.8,282.3,214.6,282.5z M91.6,275.4c0.1-0.3,0.3-0.7,0.4-1c5.1,0.9,10.1,1.3,15.1,1.3
			c-9.8,11.4-16.5,22.8-22.4,34.9c-3.1-1.4-6.2-3-9.1-4.7C81,297.2,86.4,287.3,91.6,275.4z M74.3,305.2c-3.5-2.1-6.9-4.4-10.1-7
			c0.4-1.4,0.8-2.8,1.3-4.2l0.6-1.5c2.8-7.2,5.8-15.1,5.9-23.2c4.7,1.5,9.7,2.8,15,4.1c1.2,0.3,2.4,0.5,3.6,0.8
			c-0.1,0.2-0.2,0.5-0.3,0.7C85.1,286.6,79.7,296.5,74.3,305.2z M171.2,162.4c-0.1,6.4,0.7,12.9,2.1,19.4c-9.1-7.3-18-13.9-26.5-20
			c-8-5.7-15.5-11.6-22.4-17.8c0.1-0.1,0.2-0.2,0.3-0.3c12.1-9.4,26.9-8.7,41.9-6.1C165.7,146.2,167.1,155.2,171.2,162.4z
			 M212,130.1c1,4.7,2.5,9,4.4,13.1c-9.3-0.5-18.4-1.4-26.9-2.6c-3.6-0.5-7.3-1.3-11.1-2c2.8-5.2,6.7-10.1,12-14.6
			c5.9-5,13-8,20.7-9.8C210.6,119.4,210.9,124.7,212,130.1z M257.7,142.6c-3,0.3-6.1,0.5-9.2,0.7c0.2-10.3-0.7-20.9-2.3-31.4
			c3,0.1,5.8,0.3,8.6,0.4l1.7,0.1c3.9,0.2,8.2,0.8,12.8,1.4C267.2,124.2,263.2,134,257.7,142.6z M270.8,114c0.1,0,0.2,0,0.3,0
			c6.4,0.9,13.1,1.8,19.6,2c5.3,4.2,10.4,8.7,15.2,13.3c-14.2,6.6-29.8,11.1-46.4,13C264.8,133.8,268.7,124.2,270.8,114z
			 M256.7,144.1c-2.7,4.1-5.8,7.9-9.1,11.4c0.4-3.6,0.7-7.2,0.9-10.8C251.2,144.6,254,144.4,256.7,144.1z M247.1,143.3
			c-9.8,0.4-19.5,0.3-29-0.1c-2.1-4.2-3.7-8.6-4.7-13.5c-1.1-5.3-1.4-10.7-0.8-16c10.3-2.2,21.6-2.3,32.2-1.9
			C246.4,122.4,247.4,133,247.1,143.3z M283.4,188c-8.7-0.7-17.5-0.7-26.3-0.1c-0.3,0-0.6,0.1-0.8,0.1c1.9-4.9,4.6-9.1,8.1-12.5
			c4.9-4.9,11.5-8.3,19.5-10.3c-0.8,1.9-1.4,3.8-1.9,5.7C280.6,176.7,281.1,182.5,283.4,188z M177.6,229.2c2.7-1,5.3-2,7.8-3
			c1.1-0.4,2.3-0.9,3.4-1.3c0.7,1.5,1.4,2.9,2,4.3c2.2,4.8,4.7,9.6,7.1,14.3c-5.4,2.8-10.5,5.5-15.8,8c-1,0.5-2,0.9-3,1.4
			C180.2,245.1,179.9,236.8,177.6,229.2z M128.2,206.6c3.6,3.9,6.8,8.2,9.3,13.2c3.9,7.8,6,16,6.5,24.4c-4.8,3-9.7,6.5-14.9,10.6
			c-2.9,2.3-5.6,4.5-8.1,6.8c-0.1-17.4-3.1-34.5-10-48.3C116.6,210.9,122.4,208.5,128.2,206.6z M110.3,212c-1.6-3-3.3-5.8-5.3-8.4
			c0.2-4.6,0.4-9.3,0.9-14.1c7.6,4.7,15,9.8,21.1,16C121.4,207.3,115.7,209.7,110.3,212z M138.8,219.2c-2.5-4.9-5.5-9.2-9.1-13
			c12.1-3.5,24.2-4.1,34.4,4.5c5.8,4.9,9.6,11,11.7,17.6c-9.3,3.7-19.3,8.1-30.5,15.1C144.8,235.1,142.6,226.9,138.8,219.2z
			 M165,209.5c-10.9-9.2-23.7-8.4-36.4-4.6c-6.6-6.8-14.5-12.2-22.6-17.2c0.5-5.1,1.2-10.3,2.4-15.3c21.5,16,45.2,24.9,69.7,26.2
			c3.1,8.9,6.8,17.3,10.2,24.8c-1.1,0.4-2.2,0.8-3.3,1.2c-2.5,1-5.1,1.9-7.8,3C174.9,220.9,171.1,214.6,165,209.5z M175.8,185.8
			c4.4,3.7,8.8,7.5,13.2,11.5c-3.3,0.1-6.5,0.1-9.8,0C177.9,193.4,176.8,189.6,175.8,185.8z M179.7,198.8c3.6,0.1,7.2,0.1,10.8-0.1
			c5.6,5.2,11.1,10.7,16.5,16.6c-5.5,3-11.3,5.4-17.4,7.7C186,215.1,182.6,206.9,179.7,198.8z M192.5,198.6c1.3-0.1,2.5-0.2,3.8-0.3
			c9.4-1,18.9-2.6,28-4.3c2.7-0.5,5.5-1,8.2-1.4c-2,2.9-4.2,5.6-6.7,8.3c-5.6,6-11.4,10.3-17.5,13.7
			C203.1,208.9,197.8,203.6,192.5,198.6z M224,192.6c-9.1,1.6-18.6,3.3-27.9,4.2c-1.7,0.2-3.4,0.3-5.1,0.4
			c-5.3-4.9-10.6-9.5-15.8-13.8c-1.5-6.4-2.4-12.6-2.6-18.7c2.2,3.1,4.9,5.7,8.3,7.6c6.6,3.7,14.8,5.7,23,5.7
			c3.8,0,7.5-0.4,11.1-1.3c7-1.7,13.7-4.7,19.9-8.7c2.2,2.3,4.5,4.6,6.7,6.8c-2,5.6-4.6,10.9-8,16C230.4,191.5,227.2,192,224,192.6z
			 M242.8,176.1c1.9,1.9,3.8,3.8,5.7,5.8c1.9,2,3.8,4.1,5.7,6.3c-6.2,0.6-12.4,1.4-18.6,2.5C238.5,186,240.9,181.1,242.8,176.1z
			 M242.2,173.4c-2-2-4-4.1-6-6.1c3.3-2.3,6.5-4.8,9.5-7.6C244.8,164.4,243.7,168.9,242.2,173.4z M235.1,166.2
			c-6.2-6.5-12-13.5-16.2-21.5c9.2,0.4,18.7,0.5,28.2,0.1c-0.2,4.2-0.5,8.4-1.1,12.5C242.6,160.6,238.9,163.6,235.1,166.2z
			 M189.4,142c8.8,1.3,18.2,2.2,27.9,2.7c4.3,8.4,10.2,15.6,16.7,22.4c-6,3.8-12.4,6.7-19.2,8.3c-11,2.7-23.7,1-33.1-4.3
			c-3.9-2.2-6.8-5.3-9-9.1c0.1-7.8,1.7-15.3,5.1-22.2C181.7,140.6,185.6,141.4,189.4,142z M171.3,159.5c-3.1-6.5-4.1-14.2-3.4-21.6
			c2.8,0.5,5.6,1.1,8.4,1.6C173.2,145.9,171.7,152.6,171.3,159.5z M145.9,163c8.9,6.3,18.3,13.3,27.8,21.1c1,4.4,2.3,8.8,3.8,13.1
			c-24.1-1.4-47.5-10.3-68.8-26.2c2.5-10.2,6.8-19.4,14.4-26C130.2,151.2,137.7,157.3,145.9,163z M107.5,170
			c-1.1-0.9-2.2-1.7-3.3-2.6c-7.4-6-14.3-12.8-21-19.4c-4.3-4.3-8.7-8.6-13.3-12.8c7.9-1.6,16.2-2.9,24.4-4.2
			c4.2-0.7,8.4-1.3,12.6-2c4.7,5.2,9.8,10.2,15.3,15.1C114.4,150.7,110.1,159.9,107.5,170z M82.2,149.1c6.7,6.6,13.7,13.5,21.1,19.5
			c1.3,1,2.5,2,3.8,3c-1.2,5-1.9,10.2-2.5,15.4c-1.7-1-3.4-2-5.1-3.1c-14.3-8.6-29.1-17.6-37.8-32.6c-2.5-4.4-4.6-8.6-6.2-12.7
			c4-1.1,8.2-2.1,12.5-3C73,140,77.6,144.6,82.2,149.1z M104.8,209.1l0.1-2.8c0-0.2,0-0.4,0-0.5c1.5,2.1,2.9,4.3,4.1,6.7
			c-1.5,0.7-3,1.3-4.5,1.9C104.6,212.7,104.7,210.9,104.8,209.1z M109.7,213.8c7.1,13.9,10,31.4,10,49c-4.2,3.8-7.9,7.5-11.2,11.3
			c-5.2,0.1-10.5-0.3-15.8-1.2c6.5-15.7,10.3-34,11.8-56.9C106.1,215.3,107.9,214.6,109.7,213.8z M119.6,264.8
			c0,2.9-0.2,5.7-0.4,8.6c-2.9,0.4-5.9,0.6-8.9,0.7C113.2,271,116.3,267.9,119.6,264.8z M109.1,275.6c3.4-0.1,6.7-0.3,10.1-0.7
			c-0.9,11-2.9,21.8-5.7,31.6c-0.7,0.6-1.4,1.1-2,1.7c-3.3,2.7-6.7,5.5-9.9,8.5c-5.3-1.4-10.5-3.2-15.5-5.4
			C92.1,298.9,98.9,287.2,109.1,275.6z M120.6,274.7c6.6-0.9,13.2-2.5,19.8-4.5c-3.8,10.9-10.4,21.3-19.6,29.9
			c-1.7,1.6-3.6,3.2-5.4,4.7C118,295.5,119.7,285.2,120.6,274.7z M120.7,273.2c0.2-3.2,0.3-6.4,0.4-9.6c2.8-2.5,5.7-5,9-7.5
			c4.9-3.9,9.6-7.2,14.1-10.1c0.2,7.6-0.8,15.2-3.2,22.5C134.1,270.6,127.4,272.2,120.7,273.2z M145.5,245.1
			c11.3-7.1,21.5-11.7,30.8-15.4c2.3,7.7,2.5,16.1,1.4,23.9c-12.3,5.7-23.8,10.7-35.1,14.4C144.9,260.5,145.9,252.7,145.5,245.1z
			 M192.2,228.6c-0.6-1.4-1.3-2.8-1.9-4.2c6.2-2.4,12.1-4.8,17.8-7.9c4.5,4.9,8.9,10.2,13.2,15.7c-7.6,3.3-14.9,7-22,10.7
			C196.9,238.2,194.4,233.4,192.2,228.6z M209.3,215.7c6-3.5,11.8-7.8,17.5-13.8c2.9-3.1,5.4-6.3,7.7-9.6c6.5-1.1,13-2,19.6-2.6
			c-2,6.2-3,13.3-2.8,21.4c0.1,4.2,0.7,8,1.8,11.7c-11.2,1.7-21.1,4.9-30.4,8.8C218.3,226,213.9,220.7,209.3,215.7z M255.5,189.8
			c7.7,9.4,14.4,20.2,19.5,31.6c-4.4-0.1-8.9,0-13.5,0.4c-2.4,0.2-4.7,0.5-7,0.8c-1-3.6-1.7-7.4-1.8-11.5
			C252.6,203,253.5,195.9,255.5,189.8z M253.5,224.2c2.7,8.5,7.6,15.7,13.5,22.1c-6.1,8-12.5,15.8-19.5,23.1
			c-5.2-9.5-11.2-19-18-28.6c-2-2.8-4-5.4-6-8C232.7,228.9,242.5,225.8,253.5,224.2z M254.9,224c2.2-0.3,4.4-0.6,6.7-0.7
			c4.8-0.4,9.5-0.5,14-0.3c1,2.4,2,4.9,2.9,7.3c-3.4,5-7,10-10.6,14.8C262.3,238.9,257.6,232,254.9,224z M279.1,231.9
			c3.2,9.3,5.1,18.8,5.5,28.2c-5.4-4.3-10.9-8.9-15.7-14C272.4,241.5,275.8,236.7,279.1,231.9z M277.3,223c2,0.1,4,0.2,5.9,0.4
			c-1.2,1.8-2.4,3.6-3.6,5.4C278.8,226.8,278.1,224.9,277.3,223z M276.6,221.5c-5-11.6-11.8-22.5-19.6-32.1c0,0,0.1,0,0.1,0
			c9-0.7,18-0.6,26.9,0.1c2,4.2,5.1,8.2,9.2,11.8c0.9,0.8,1.9,1.6,2.9,2.4c-0.5,0.7-0.9,1.4-1.4,2.2c-3.5,5.4-7,10.8-10.6,16.2
			C281.6,221.8,279.2,221.6,276.6,221.5z M296.9,202.4c-0.9-0.7-1.8-1.5-2.7-2.3c-4-3.5-6.7-7.1-8.5-10.5c6,0.6,11.9,1.4,17.9,2.6
			C301.3,195.7,299.1,199.1,296.9,202.4z M284.9,188.1c-2.8-6.4-2.6-12.3-1.6-16.9c0.5-2.2,1.3-4.4,2.2-6.5c7.1-1.5,15.2-2,24.5-1.4
			c4.1,0.3,8.3,0.9,12.5,1.8c-6.3,8.4-12.3,17.1-18.1,25.8C298,189.6,291.5,188.7,284.9,188.1z M310.1,161.8
			c-8.9-0.6-16.8-0.2-23.8,1.2c5.5-10.4,16.5-19.1,29.2-22.5c0.2-0.1,0.5-0.1,0.7-0.2c4.6,5.3,8.6,11.1,12.1,17.1
			c-1.7,2.1-3.4,4.2-5,6.4C319,162.8,314.6,162.1,310.1,161.8z M284.6,163.4c-8.8,2-15.9,5.7-21.3,11c-3.5,3.5-6.3,7.7-8.2,12.6
			c-1.8-2.1-3.7-4.2-5.6-6.2c-2-2.1-4.1-4.2-6.2-6.2c1.9-5.4,3.2-10.9,4-16.6c4.2-4.2,8-8.9,11.3-14c16.8-1.9,33.3-6.6,48.3-13.6
			c2.2,2.1,4.3,4.3,6.4,6.6c0.7,0.7,1.3,1.4,1.9,2.2C301.7,142.7,290,152.2,284.6,163.4z M293.2,116.1c8.8,0,17.2-1.7,23.7-7
			c2.9,2.7,6.6,5.3,10.9,7.6c-6.4,4.5-13.2,8.5-20.4,12C302.9,124.4,298.1,120.1,293.2,116.1z M311.5,99.6
			c5.4-2.3,10.3-5.7,14.8-9.4c-0.9,3.8-2.2,7.4-4.2,10.7c-1.5,2.5-3.2,4.5-5.1,6.2C314.6,104.8,312.8,102.3,311.5,99.6z M320.7,83.7
			c1.7,1.6,3.5,3.3,5.2,4.9c-4.5,3.7-9.5,7.2-15,9.6c-2.5-6-2.4-12.7,0.1-20.2c0.2-0.7,0.5-1.4,0.8-2
			C314.8,78.4,317.8,81,320.7,83.7z M312.5,74.6c3.2-6.3,8.5-11.6,13.6-16.7c0,0,0.1-0.1,0.1-0.1c0.4,2.6,0.8,5.3,1,8.1
			c0.5,7.3,0.8,14.8-0.4,21.7c-1.7-1.7-3.4-3.3-5.1-4.9C318.6,79.8,315.5,77.1,312.5,74.6z M315.8,108.1c-6.7,5.3-15.4,6.7-24.6,6.5
			c-5.7-4.5-11.8-8.8-18.1-12.9c0.9-4.3,1.8-8.4,2.8-12.3c4.8,7.7,12.2,13.3,22,13.2c1.4,0,2.9-0.1,4.4-0.4c2.7-0.4,5.3-1.2,7.8-2.2
			C311.4,103,313.3,105.6,315.8,108.1z M288.7,114.5c-5.8-0.3-11.7-1.1-17.4-1.9c-0.1,0-0.2,0-0.2,0c0.1-0.7,0.3-1.4,0.4-2.2
			c0.4-2.4,0.8-4.8,1.3-7.1C278.4,106.9,283.7,110.6,288.7,114.5z M270.1,110.2c-0.1,0.7-0.3,1.5-0.4,2.2c-4.6-0.6-9-1.2-13-1.4
			l-1.7-0.1c-2.9-0.2-5.9-0.3-9-0.4c-1.3-8.2-3-16.4-4.9-24.4c10.9,5.1,21,10.5,30.4,16.5C271,105,270.5,107.5,270.1,110.2z
			 M244.6,110.3c-10.4-0.4-21.5-0.3-31.8,1.9c1.3-10,5.6-20.3,12.9-31.3c0.3-0.4,0.6-0.8,0.8-1.2c4.4,1.8,8.8,3.6,12.9,5.5
			C241.4,93.4,243.2,101.9,244.6,110.3z M227.3,78.4c2.4-3.5,4.9-7,7.5-10.4c1.4,4.9,2.8,9.9,4,14.8c0,0.2,0.1,0.4,0.1,0.6
			C235.2,81.7,231.3,80,227.3,78.4z M226,77.9c-6-2.4-12.3-4.7-18.7-6.9c-0.6-0.2-1.2-0.4-1.8-0.6c1.1-3,2-6.2,2.9-9.7
			c2.7,1.3,5.6,2.4,8.7,3.4c5.8,1.9,11.5,2.7,16.9,2.6C231.2,70.4,228.5,74.1,226,77.9z M206.8,72.3c6.3,2.1,12.4,4.4,18.3,6.8
			c-0.2,0.3-0.4,0.6-0.7,1c-7.6,11.4-11.9,22.1-13.1,32.5c-8,1.8-15.5,5-21.8,10.2c-5.6,4.7-9.7,9.9-12.6,15.4
			c-2.9-0.6-5.9-1.2-8.9-1.7c0.3-2.2,0.7-4.4,1.3-6.5c3.5-12.2,11.2-22.1,18.7-31.7c6.4-8.2,13-16.7,16.9-26.6
			C205.5,71.9,206.2,72.1,206.8,72.3z M186.9,97.3c-7.6,9.7-15.4,19.8-18.9,32.2c-0.6,2.1-1,4.4-1.3,6.7
			c-14.9-2.5-30.4-3.3-42.9,6.4c-0.2,0.2-0.4,0.3-0.6,0.5c-5.2-4.7-10.1-9.5-14.7-14.4c15.9-2.7,31.2-6.1,42.8-12.1
			c21.6-11,35.5-26.2,41.3-45.2c0.3-1.1,0.7-2.2,1-3.4c3.4,1.1,6.7,2.2,9.9,3.2C199.7,80.9,193.3,89.2,186.9,97.3z M90.4,106.1
			c-5.8-8.5-10.8-17.4-14.9-26.5c2.3,1.3,4.6,2.7,6.9,4.3c4.2,3.1,7.8,6.4,11.3,9.6c3.7,3.5,7.4,6.9,11.5,9.6
			C100.1,104.7,95.1,105.6,90.4,106.1z M105.6,127.7c-3.9,0.7-7.7,1.3-11.6,1.9c-8.6,1.4-17.2,2.7-25.5,4.5
			c-4.8-4.3-9.7-8.3-15-11.9c-1-0.7-2.1-1.4-3.1-2c-1.1-6.9-1.3-13.6-1-20c12.2,5.8,25.4,8.9,40.3,7.6
			C94.5,114.5,99.8,121.2,105.6,127.7z M52.7,123.3c4.9,3.4,9.6,7.1,14,11.1c-4,0.9-7.9,1.8-11.6,2.8c-2-5.3-3.4-10.3-4.4-15.2
			C51.4,122.4,52,122.9,52.7,123.3z M60.6,152.1c8.8,15.4,23.8,24.4,38.3,33.1c1.9,1.1,3.7,2.3,5.6,3.4c-0.4,4.5-0.7,8.9-0.9,13.2
			c-2.9-3.5-6.1-6.7-9.8-9.3c-7.7-5.5-16.1-9.1-24.7-11.8c-1.2-3.7-2.7-7.3-4.8-11c-5.7-10.3-13.6-19.1-23.2-26
			c3.9-1.8,8.3-3.4,12.9-4.7C55.9,143.2,58,147.6,60.6,152.1z M93.1,193.8c4,2.9,7.5,6.3,10.5,10.3c0,0.8-0.1,1.5-0.1,2.3l-0.1,2.8
			c-0.1,2-0.2,4-0.3,5.9c-2.4,1-4.8,1.9-7.1,2.7c-10,3.4-19.8,5-29.4,5.2c5.2-12.9,7.1-26.6,3.2-40.5
			C77.9,185,85.8,188.5,93.1,193.8z M96.3,219.1c2.1-0.7,4.3-1.6,6.6-2.5c-1.5,22.6-5.3,40.6-11.7,56.1c-1.3-0.2-2.6-0.5-3.9-0.8
			c-5.4-1.3-10.5-2.7-15.3-4.2c-0.1-3.6-0.8-7.2-2.3-10.8c-3-6.9-8.7-10.6-15.1-12.2c4.5-6.5,8.4-13.3,11.4-20.3
			C75.9,224.2,86,222.6,96.3,219.1z M68.3,257.6c1.4,3.2,2.1,6.5,2.2,9.7c-9.4-3-17.6-6.6-24.9-10.7c2.8-3.4,5.5-6.9,8-10.5
			C59.9,247.5,65.4,251,68.3,257.6z M44.4,255.8c-4.4-2.6-8.5-5.4-12.1-8.5c2.2-0.6,4.5-1.2,6.8-1.6c4.1-0.7,8.7-0.8,12.9-0.1
			C49.6,249.2,47.1,252.5,44.4,255.8z M44.7,257.7c7.5,4.3,16.1,8,25.8,11.1c-0.1,8-3.1,15.8-5.8,23.1l-0.6,1.5
			c-0.5,1.2-0.8,2.4-1.2,3.7c-2.3-1.8-4.5-3.7-6.6-5.8c-4.9-4.8-9.3-10.3-13.5-15.7c-2.1-2.7-4.3-5.5-6.5-8.1
			C39.1,264.3,41.9,261.1,44.7,257.7z M63.7,299.7c3.1,2.4,6.4,4.6,9.8,6.7c-3.4,5.2-6.7,10-10.1,14.4
			C62.2,313.8,62.2,306.4,63.7,299.7z M74.8,307.1c3,1.8,6.1,3.3,9.3,4.8c-2.5,5.1-4.8,10.3-7.3,15.6l-1,2.2
			c-1.5,3.3-2.9,6.7-4.3,10.1c-3.6-4.8-6.2-10.8-7.6-17.2C67.4,317.9,71.1,312.8,74.8,307.1z M91.9,331.7c2.5-5.3,6.1-9.6,10.1-13.5
			c2.2,0.6,4.5,1.1,6.8,1.5c-0.6,1.3-1.1,2.7-1.7,3.9c-3.5,7.5-8.3,13.6-13.3,20.1c-1.8,2.3-3.5,4.6-5.3,7
			C88,344.4,88.9,337.9,91.9,331.7z M103.2,317.1c2.9-2.7,6-5.3,9.1-7.8c0.1-0.1,0.3-0.2,0.4-0.3c-1,3.3-2.2,6.5-3.4,9.5
			C107.2,318,105.2,317.6,103.2,317.1z M114.7,307.3c2.4-2,4.8-4,7.1-6.1c9.7-9.1,16.5-20,20.3-31.5c11.4-3.6,23.1-8.6,35.4-14.3
			c-0.7,4.6-1.9,9.1-3.4,13.1c-2.6,7.1-6,13.4-9.4,19.5c-5.1,9.2-10.3,18.7-12.6,31.4c-13.9,1.9-27.9,1.8-41.5-0.6
			C112.2,315.1,113.5,311.3,114.7,307.3z M155.7,359.2c-9.8-2.9-20.5-3.9-31.8-3.1c7.6-8.1,14.7-17.1,21.7-25.8
			c2-2.5,4.1-5.1,6.1-7.7c-0.3,2.5-0.6,5.1-0.7,7.8C150.6,341,152.5,350.2,155.7,359.2z M152.4,330.6c0.1-3.6,0.5-6.9,1-10.1
			c0,0,0.1-0.1,0.1-0.1c22.1-3.2,44.3-11.4,63.2-23.5c0.2,11.1-2.9,22.5-9.3,32.7c-8.1,13-21.1,17.8-34.9,22.8l-3,1.1
			c-4.4,1.6-8.6,3.5-12.4,5.5C153.9,350,152.1,341,152.4,330.6z M216.1,282.5c5.1,0.1,10.5,0.7,16,1.4c-4.4,3.7-9,7.2-13.9,10.4
			c0,0-0.1,0-0.1,0.1c-0.1-1.5-0.2-2.9-0.5-4.4C217.2,287.5,216.7,285,216.1,282.5z M215.7,281.1c-3.4-13.1-9.7-25.2-15.7-36.9
			c0,0,0,0,0,0c7.2-3.8,14.5-7.5,22.2-10.8c2.1,2.7,4.2,5.5,6.2,8.3c6.9,9.6,12.9,19.2,18.1,28.8c-4.1,4.2-8.4,8.3-12.9,12.1
			C227.5,281.8,221.5,281.2,215.7,281.1z M247.2,271.8c2.4,4.6,4.7,9.1,6.8,13.7c-3-0.4-5.9-0.9-8.8-1.3c-3.3-0.5-6.5-1-9.7-1.4
			C239.6,279.3,243.5,275.6,247.2,271.8z M286.1,263.2c0.8,0.6,1.5,1.2,2.3,1.8c4.2,3.3,8.1,6.4,11.7,9.5c3.3,2.9,6.7,6.2,10.1,9.8
			c-9.5,2.7-18.9,3.6-28.1,3.6C285,280,286.2,271.7,286.1,263.2z M301.1,273.4c-3.6-3.2-7.6-6.3-11.7-9.6c-1.1-0.8-2.1-1.7-3.2-2.5
			c-0.3-10.2-2.4-20.7-6-30.8c1.6-2.3,3.1-4.6,4.7-6.9c22.7,2.5,41.3,11.7,55.8,27.5c-0.8,2.7-1.7,5.4-2.7,8
			c-2.2,5.9-5.2,11.5-8.4,17c-4.7,2.8-9.7,5.2-15.4,7.1c-0.8,0.3-1.6,0.5-2.3,0.7C308.2,280,304.6,276.5,301.1,273.4z M314.5,284.6
			c4.9-1.6,9.3-3.6,13.4-5.9c-2.9,4.6-6,9.1-9.2,13.6c-1.9-2.5-3.9-4.9-5.9-7.2C313.4,284.9,314,284.8,314.5,284.6z M344.6,230.2
			c-5.4-3.1-10.9-6-16.3-8.8c-10.3-5.3-20.9-10.8-30.2-18.1c2.3-3.6,4.7-7.2,7-10.7c8.2,1.7,16.2,4,24.2,7c5.2,1.9,10.2,4,15.1,6.2
			C345.3,213.9,345.3,222.1,344.6,230.2z M329.7,198.2c-7.8-2.9-15.8-5.2-23.8-6.9c5.8-8.7,11.8-17.4,18.1-25.8
			c3.4,0.8,6.7,1.8,10.1,2.9c5.1,11.3,8.5,23.4,10,35.7C339.5,202,334.7,200,329.7,198.2z M325,164.2c1.4-1.8,2.8-3.6,4.2-5.4
			c1.4,2.5,2.8,5.1,4,7.8C330.5,165.7,327.8,164.9,325,164.2z M317.9,139.9c8.7-1.9,17.6-1.8,26.6-0.7c-0.6,0.6-1.3,1.3-1.9,1.9
			c-4.6,4.8-9,9.9-13.2,15.1C326.1,150.5,322.2,145,317.9,139.9z M316.9,138.7c-0.8-0.9-1.7-1.9-2.5-2.8c-2-2.1-4-4.2-6-6.2
			c4.8-2.3,9.5-4.9,14-7.7c2.3-1.5,4.6-3,6.8-4.6c2.6,1.3,5.5,2.6,8.6,3.8c7.3,2.8,14.3,4.3,21.2,5.2c-4.6,3.7-9,7.6-13,11.5
			C336,136.7,326.4,136.4,316.9,138.7z M318,108.2c1.9-1.8,3.7-3.9,5.3-6.5c2.1-3.5,3.5-7.3,4.4-11.3c4.8,4.8,9.4,9.8,14,14.9
			c-3.9,3.7-8.1,7.2-12.6,10.4C324.7,113.4,321,110.9,318,108.2z M327.1,54.8c-1.2-6-3-11.7-5.6-17.6c6.6-0.6,12.3,0.5,17.5,2.5
			C336.2,45.5,331.7,50.2,327.1,54.8z M325.9,56c-0.3,0.3-0.6,0.5-0.8,0.8c-5.2,5.1-10.5,10.4-13.8,16.8
			c-7.6-6.1-15.2-11.2-22.8-15.3c7.9-12.3,18.1-19,31-20.9c0.2,0,0.3,0,0.5,0C322.8,43.6,324.7,49.7,325.9,56z M310.7,75
			c-0.4,0.8-0.7,1.6-1,2.5c-2.7,7.9-2.8,15-0.2,21.3c-2.4,0.9-4.9,1.6-7.4,2.1c-12.4,2-20.8-4.6-25.7-13.3
			c3.1-11.3,6.8-20.6,11.3-28C295.4,63.8,303.1,68.9,310.7,75z M275.4,85.7c-1.5-3.1-2.7-6.5-3.4-9.7c-1.9-8.8-0.8-15.6,1.1-23.1
			c1.9,0.7,3.8,1.5,5.6,2.3c2.5,1.1,5.1,2.4,7.6,3.7C282.1,66.1,278.4,75,275.4,85.7z M272.2,51c-1.7-0.6-3.5-1.2-5.3-1.7
			c3.4-4.7,6.5-10.1,9.5-15.3c0.2-0.3,0.3-0.6,0.5-0.9c-1,5-2.3,9.4-3.5,13.6C273,48.1,272.6,49.6,272.2,51z M271.8,52.4
			c-2,7.6-3.1,14.8-1.2,23.9c0.9,4,2.3,7.9,4.2,11.4c-1.1,4.1-2.1,8.5-3.1,13.2c-9.6-6.1-20-11.6-31.2-16.8
			c-0.1-0.6-0.3-1.1-0.4-1.7c-1.3-5.3-2.8-10.6-4.3-15.8c11.6-0.7,21.9-5.8,29.2-14.9c0.3-0.4,0.6-0.8,0.9-1.1
			C267.9,51.1,269.9,51.8,271.8,52.4z M264,50.8c-6.8,8.5-16.2,13.4-27,14.3c2.5-3.2,5-6.5,7.5-9.6c2.1-2.7,4.3-5.5,6.4-8.3
			c4.6,0.7,9.1,1.7,13.6,2.9C264.3,50.3,264.1,50.6,264,50.8z M243.3,54.5c-2.7,3.4-5.3,6.8-8,10.3c-0.8-2.6-1.5-5.1-2.3-7.6
			c-1.1-3.7-2.3-7.4-3.4-11.2c6.6-0.2,13.1,0.1,19.5,0.9C247.3,49.5,245.3,52.1,243.3,54.5z M231.7,57.7c0.8,2.5,1.5,5,2.3,7.6
			c-5.3,0.1-10.8-0.7-16.5-2.5c-3.1-1-6-2.2-8.8-3.5c0.8-3.5,1.5-7.2,2.1-11c5.8-1.1,11.6-1.8,17.4-2.1
			C229.4,50,230.5,53.8,231.7,57.7z M207.4,58.6c-3.9-2-7.5-4.3-10.7-6.8c4.2-1.3,8.4-2.5,12.6-3.4C208.8,52,208.1,55.3,207.4,58.6z
			 M207,60c-0.9,3.5-1.8,6.8-2.9,9.8c-3.3-1.1-6.7-2.2-10.2-3.3c1-4.4,1.7-8.9,1.9-13.5C199.2,55.6,202.9,58,207,60z M192.6,66.1
			c-1-0.3-1.9-0.6-2.9-0.9c-4.4-1.4-8.9-2.8-13.4-4.3c3.4-2,6.9-3.8,10.4-5.4c2.6-1.1,5.1-2.1,7.8-3
			C194.2,57.2,193.6,61.7,192.6,66.1z M186.1,54.2c-4,1.7-7.9,3.8-11.7,6.1c-9.3-3.1-18.5-6.3-27.5-10.1c10.5-4.9,20.9-10.7,31-16.7
			c4.4,6.4,9.5,12.5,15.8,17.8C191.1,52.2,188.6,53.1,186.1,54.2z M153,75.1c-0.7,0.5-1.5,1.1-2.2,1.6c-13.8,10.4-28,21.1-43.8,25.9
			c-4.4-2.8-8.3-6.4-12.4-10.2c-3.5-3.3-7.1-6.6-11.4-9.8c-2.8-2.1-5.7-3.8-8.7-5.3c-2.2-5.1-4.1-10.2-5.8-15.5
			c25.7,6.6,51.4,0.3,76.4-11c0,0,0,0,0,0C149.6,58.7,152.8,66.4,153,75.1z M88.7,106.2c-14.5,1.1-27.3-2-39.2-7.8
			c0.4-6.4,1.3-12.6,2.1-18.7c0.3-2,0.5-4,0.8-6c6.9-0.2,14.1,1.4,21.1,4.8C77.6,88.1,82.7,97.3,88.7,106.2z M50.2,79.6
			c-0.8,6-1.7,12-2.1,18.2c-7-3.5-13.7-7.8-20.2-12.6c0,0,0-0.1-0.1-0.1c5.1-5.6,11.4-9.3,18.7-10.7c1.5-0.3,3-0.5,4.5-0.6
			C50.7,75.7,50.4,77.6,50.2,79.6z M48,99.4c-0.3,6.3-0.2,12.8,0.8,19.6c-5.9-3.7-11.7-6.6-17.7-8.8c1.5-8,0.3-15.4-2.3-22.5
			C35.1,92.2,41.4,96.2,48,99.4z M30.8,111.7c6.1,2.3,12.1,5.3,18.3,9.2c0.9,5.3,2.4,10.9,4.6,16.7c-4.8,1.4-9.2,3-13.3,4.9
			c-0.2,0.1-0.3,0.2-0.5,0.3c-5.6-3.9-11.7-7.1-18.2-9.7c0.3-0.5,0.6-0.9,0.8-1.4c3.6-6.3,6.2-12.4,7.8-18.1
			C30.5,112.9,30.7,112.3,30.8,111.7z M63.2,170.5c1.8,3.3,3.2,6.6,4.3,9.8c-9.8-2.8-19.9-4.4-29.9-6c-8-1.2-16.1-2.5-24.1-4.4
			c5.2-10.8,14.1-19.5,26.2-25.4C49.5,151.3,57.5,160.1,63.2,170.5z M37.4,175.8c10.2,1.6,20.6,3.2,30.6,6.2c4.2,14,2.3,27.9-3.1,41
			c-19,0.2-37.3-4.9-55.1-12.6c-0.4-2-0.8-4-1.1-6.1c-1.6-12.2-0.1-23.4,4.2-33C21,173.2,29.3,174.5,37.4,175.8z M64.3,224.5
			c-3,6.9-6.9,13.5-11.3,19.9c-4.6-0.9-9.6-0.8-14.1-0.1c-2.7,0.5-5.4,1.1-7.9,1.9c-10.6-9.4-17.5-20.7-20.8-34.1
			C27.7,219.6,45.7,224.5,64.3,224.5z M43.4,257c-2.7,3.2-5.4,6.4-8.1,9.4c-3.4-3.9-7-7.7-11.1-10.9c-1.5-1.2-2.9-2.3-4.3-3.3
			c3.5-1.7,7-3.2,10.7-4.3C34.4,251.1,38.7,254.2,43.4,257z M23.4,256.7c4,3.2,7.6,6.9,11,10.8c-0.9,1-1.8,2-2.7,2.9
			c-2,2.1-4.3,4.4-6.8,6.7c-1.5-2.1-3-4.2-4.5-6.3c-3.2-4.4-6.5-8.9-9.5-13.6c2.6-1.6,5.1-3.1,7.7-4.4
			C20.1,254.1,21.7,255.3,23.4,256.7z M33,292.7c3.3,6,13.2,26.2,0.4,34.7c-0.5,0.3-1,0.6-1.5,0.8c-0.9-1.7-1.7-3.3-2.5-5.1
			c-3.1-6.7-5.5-13.7-8.1-21.1c-1.6-4.7-3.3-9.6-5.2-14.3c2.8-2.9,5.7-5.7,8.4-8.3C27.6,283.7,30.5,288.1,33,292.7z M34.2,328.6
			c13.8-9.2,3.5-30.4,0.1-36.7c-2.6-4.7-5.6-9.2-8.7-13.6c2.6-2.4,5-4.7,7-6.9c0.9-0.9,1.8-1.9,2.6-2.9c2.2,2.6,4.3,5.3,6.4,8
			c4.3,5.4,8.7,11,13.7,15.9c2.3,2.2,4.7,4.3,7.2,6.3c-1.8,7.5-1.8,15.8-0.2,23.6c-4.5,5.8-8.9,11.1-13.1,16.2
			c-1.9,2.2-3.7,4.5-5.5,6.7c-4.2-4.8-7.9-10.1-11-15.7C33.2,329.2,33.7,328.9,34.2,328.6z M50.3,339.4c4-4.8,8.2-9.8,12.5-15.3
			c1.6,6.5,4.3,12.5,8.1,17.3c-2.7,6.9-5,14-6.9,21.1c-7.2-4.6-13.7-10.1-19.4-16.3C46.5,343.9,48.3,341.7,50.3,339.4z M71.9,342.7
			c4.3,4.9,9.3,8.4,14.6,10.7c-3.5,5.1-6.1,10.7-7.9,16.7c-4.7-2-9.1-4.3-13.4-6.9C67.1,356.4,69.3,349.5,71.9,342.7z M87.5,354.6
			c1.3,8,4.6,15.5,8.8,21.1c0.1,0.1,0.2,0.3,0.3,0.4c-1.1-0.3-2.2-0.5-3.3-0.8c-4.7-1.3-9.2-2.8-13.5-4.6
			C81.7,364.9,84.2,359.5,87.5,354.6z M94.9,344.6c4.8-6.3,9.8-12.7,13.4-20.4c0.7-1.4,1.3-2.8,1.9-4.3c7.3,1.3,14.9,2,22.7,2
			c1,0,2,0,2.9,0c5.1-0.1,10.3-0.5,15.5-1.2c-2.4,2.9-4.7,5.8-7,8.8c-7.2,9.1-14.7,18.6-22.7,26.9c-9.7,0.8-21.9,0.8-32.9-3.5
			C90.8,350,92.8,347.3,94.9,344.6z M122.3,357.8c0.2,0,0.5,0,0.7-0.1c11.2-1,21.7,0,31.4,2.7c-9.5,5.3-17.2,11.7-22.8,19.1
			c-10.6,0.4-20.8-0.4-30.7-2.4c7.1-5.4,13.5-11.4,19.4-17.2C121,359.1,121.7,358.5,122.3,357.8z M156.4,361.1
			c1.8,4.7,3.9,9.4,6.2,14.2c-10,2.3-19.6,3.7-29,4.2C139.3,372.3,146.9,366.1,156.4,361.1z M158.1,361.6c6.8,2.3,13.1,5.6,18.9,9.7
			c-4.4,1.4-8.7,2.6-13,3.6C161.8,370.4,159.8,366,158.1,361.6z M158.3,360.1c3.7-1.9,7.6-3.6,11.8-5.2l3-1.1
			c13.4-4.9,27.3-10,35.7-23.4c6.7-10.7,9.9-22.7,9.5-34.4c0.3-0.2,0.5-0.3,0.8-0.5c5.3-3.5,10.3-7.4,15.1-11.4
			c3.6,0.5,7.3,1,11,1.6c3.2,0.5,6.4,1,9.7,1.4c4,8.9,7.3,17.9,10,27c-2.1,2.7-4.3,5.4-6.5,8c-1.5,1.8-3,3.7-4.5,5.5
			c-6.1,7.6-11.1,14.5-15.1,21.1c-14.3,4.4-28.3,9.9-42.4,15.6c-6,2.4-11.8,4.5-17.5,6.4C172.5,366.1,165.6,362.5,158.3,360.1z
			 M254.8,328.6c1.5-1.9,3-3.7,4.5-5.5c2-2.4,3.9-4.8,5.9-7.3c2.4,8.2,4.3,16.7,5.7,25.3c-10.3,1.6-20.3,4-30.2,7
			C244.6,342,249.2,335.6,254.8,328.6z M266.3,314.5c4.7-6,9.1-12.2,12.6-19.1c1-2,1.9-4,2.7-6c9.7,0.1,19.7-0.9,29.7-3.8
			c2.3,2.5,4.5,5.2,6.6,8c-0.5,0.8-1.1,1.5-1.6,2.3c-7.3,10.2-14.8,20.8-20,32.5c-1.6,3.5-2.8,7.1-3.7,10.7
			c-6.9,0.2-13.6,0.9-20.2,1.9C270.8,331.9,268.8,323.1,266.3,314.5z M297.6,328.9c5.1-11.6,12.6-22.1,19.9-32.3
			c0.5-0.6,0.9-1.3,1.4-1.9c6,8.2,11.1,17.7,13.8,28.2c-6.7,4.3-12.8,9.3-17.6,15.9c-0.2,0.3-0.3,0.5-0.5,0.8
			c-3.5-0.3-7.1-0.5-10.7-0.6c-3.3-0.1-6.6-0.1-9.8,0C295,335.6,296.1,332.2,297.6,328.9z M336,347.6c0.1-1.2,0.2-2.4,0.3-3.6
			c10,2,19.5,4.7,28.5,8.2c0.1,7.3,0.2,14.6,0.5,21.9c-9,1.6-18.6-0.2-28.1-2c-2.6-0.5-5.2-1-7.8-1.4
			C332.5,363.9,335,356.4,336,347.6z M377.8,280.7c-1,9.5-5.8,17.8-13.5,23.8c-1.8-15.8-5.5-30.3-13.4-42.5c0.4-0.3,0.7-0.6,1.1-0.9
			c2-1.7,4-3.4,6.1-5c3.2,9,9.9,14.2,19.9,20.9C378,278.2,378,279.4,377.8,280.7z M378,275.1c-9.4-6.3-15.7-11.4-18.6-19.8
			c0-0.1,0-0.2-0.1-0.2c2.6-2,5.2-4,7.8-5.7C373.7,256.8,377.5,266,378,275.1z M394.2,239.4c-0.6,0-1.2,0-1.8,0
			c-9.6,0-17.6,3.3-25.1,8c-0.5-0.5-0.9-1-1.4-1.5c-2.2-2.2-4.5-4.2-6.9-6.1c2-6.5,6.6-12.5,11.9-19.3
			C379.4,226.3,387.2,232.6,394.2,239.4z M370.5,218.6c-7.7-5.1-16-9.7-24.8-13.8c-1.4-12.3-4.7-24.4-9.7-35.8
			c11.7,4.1,23,9.9,33.3,15.6l1.9,1.1c5,2.9,10,5.7,15.1,8.6C381.9,203.9,376,211.6,370.5,218.6z M391.8,176.1
			c-1,6.3-2.8,11.8-5,16.9c-5-2.8-10.1-5.7-15-8.5l-1.9-1.1c-10.7-5.9-22.6-11.9-34.8-16.1c-1.5-3.3-3.2-6.5-5-9.6
			c4.3-5.3,8.8-10.5,13.5-15.4c0.9-0.9,1.8-1.8,2.7-2.7c5.8,0.8,11.6,1.9,17.6,3c4.8,0.9,9.7,1.8,14.6,2.6
			c4.6,4.3,9.4,8.4,14.5,12.1C393.4,162.7,393,169,391.8,176.1z M393,155.2c-4.1-3.1-8-6.4-11.8-9.8c3.5,0.5,7.1,0.9,10.6,1.1
			C392.4,149.2,392.8,152.1,393,155.2z M391.5,145c-4.1-0.3-8.2-0.8-12.2-1.4c-5.7-5.3-11.1-11-16.5-16.8c7.7,0.7,15,0.7,21.9,0.6
			C387.5,132.6,389.9,138.2,391.5,145z M377.9,115.2c0.8,1.5,1.7,3,2.6,4.5c1.2,2,2.3,4.1,3.5,6.2c-6.8,0.1-13.9,0.1-21.4-0.6
			C367.5,121.6,372.7,118.2,377.9,115.2z M376.7,143.2c-4.2-0.7-8.4-1.5-12.5-2.2c-5.6-1-11.1-2.1-16.5-2.8c4-3.9,8.4-7.8,13.1-11.4
			C365.9,132.4,371.2,138,376.7,143.2z M350,114.6c3,3.4,6.1,6.9,9.2,10.3c-6.8-0.9-13.8-2.4-20.9-5.1c-2.8-1.1-5.4-2.2-7.8-3.4
			c4.3-3.1,8.4-6.5,12.2-10.1C345.1,109.1,347.5,111.9,350,114.6z M342.7,104.3C338,99,333.1,93.8,328,88.8c0,0,0,0,0,0
			c1.5-1.2,2.9-2.5,4.2-3.7c9.2-8.2,18.9-17.5,30.5-29.3c3,2.4,5.9,4.4,8.8,5.6C365.2,77.7,355.3,92.2,342.7,104.3z M384.5,31.7
			c0.4,2.5,1,4.9,1.5,7.1c0.4,1.6,0.7,3.1,1,4.6c-1.8-1.3-3.7-2.5-5.5-3.7c-1-0.7-2.1-1.3-3.1-1.9C380.1,35.8,382.1,33.8,384.5,31.7
			z M377.8,39.1c1,0.6,1.9,1.2,2.9,1.8c2.2,1.4,4.4,2.9,6.6,4.5c0.7,5,0.2,9.1-4.3,12.8c-3.3,2.7-6.4,3.2-9.7,2.3
			C376,53.5,377.3,46.3,377.8,39.1z M372,60c-2.6-1-5.3-2.9-8.3-5.3c2.9-3,5.2-5.8,7.6-8.8c1.6-2,3.2-3.9,5-6
			C375.8,46.7,374.4,53.4,372,60z M343,22.1c11.6,4.4,22.8,9.8,33.1,15.9c-2.2,2.4-4,4.7-5.8,7c-2.4,3-4.7,5.8-7.6,8.8
			c-0.9-0.7-1.8-1.5-2.8-2.3c-5.4-4.4-11.5-9.4-18.9-12.6c1.3-3,2.1-6.2,2.4-9.7C343.4,26.7,343.3,24.4,343,22.1z M341.8,29.1
			c-0.2,3.4-1,6.4-2.3,9.3c-5.5-2.2-11.6-3.3-18.7-2.5c-1-2.1-2-4.2-3.2-6.3c-3.3-6.3-5.6-11.9-7.1-17.2c10.5,2.3,20.9,5.4,30.9,9.1
			C341.9,23.9,342,26.5,341.8,29.1z M314.6,1c8.2-0.3,15.8,2.5,20.8,7.8c2.9,3,4.8,6.8,5.8,11.1c-10-3.7-20.4-6.7-31-9.1
			c-0.8-3.2-1.3-6.2-1.5-9.1C310.5,1.3,312.5,1.1,314.6,1z M307.3,2.1c0.2,2.7,0.6,5.5,1.3,8.4c-4.4-0.9-8.7-1.7-13.1-2.4
			C298.9,5.4,302.8,3.3,307.3,2.1z M294,9.4c5,0.7,10.1,1.7,15,2.7c1.5,5.5,3.8,11.6,7.4,18.2c1.1,1.9,2,3.8,2.9,5.7c0,0,0,0,0,0
			c-13.4,1.9-24,8.9-32.1,21.7c-2.6-1.4-5.2-2.7-7.9-3.9c-1.9-0.8-3.8-1.6-5.8-2.3c0.4-1.4,0.8-2.9,1.2-4.4
			c1.5-5.3,3.1-10.9,4.3-17.7C283.4,21.9,288,14.7,294,9.4z M280.7,9.3c0-0.5,0-1,0-1.5c1.8,0.1,3.6,0.3,5.4,0.5
			c2,0.2,4,0.5,6.1,0.8c-4.9,4.6-8.8,10.3-12.5,16.4C280.3,20.7,280.7,15.4,280.7,9.3z M279.1-1.7c0.1,2.7,0.1,5.3,0.1,7.9
			c-1-0.1-2-0.1-3.1-0.1C277.2,3.6,278.2,1,279.1-1.7z M275.5,7.5c1.2,0.1,2.4,0.1,3.7,0.2c0,0.5,0,1.1,0,1.6
			c0,7.6-0.6,13.9-1.5,19.5c-0.9,1.5-1.7,2.9-2.5,4.4c-3.1,5.4-6.2,10.9-9.7,15.6c-4.4-1.3-8.9-2.3-13.5-3
			c5.1-6.6,10-13.4,14.4-20.5C269.8,19.7,272.9,13.8,275.5,7.5z M256.4,7.7c5.8-0.4,11.7-0.5,17.6-0.3c-2.6,6-5.5,11.7-8.9,17.1
			c-4.5,7.3-9.6,14.3-14.9,21.1c-6.9-1-13.9-1.3-21-1.1c-1-3.3-1.9-6.7-2.7-10c0.5,0,0.9,0,1.4,0c9,0,16.9-2.2,21.5-7.1
			C255.6,20.8,256.8,14.2,256.4,7.7z M255,7.9c0.3,6.2-0.8,12.4-6.6,18.6c-4.6,4.9-12.9,6.8-22.3,6.6c-1.4-5.6-2.6-11.3-3.4-17
			c-0.1-0.8-0.2-1.6-0.3-2.3C233,10.6,244,8.7,255,7.9z M212.4,16.8c2.8-1,5.7-1.9,8.6-2.7c0.1,0.7,0.2,1.4,0.3,2.2
			c0.8,5.6,2,11.2,3.3,16.7c-4-0.2-8.1-0.8-12.3-1.8C212.6,26.4,212.6,21.6,212.4,16.8z M225,34.5c0.9,3.4,1.8,6.8,2.8,10.1
			c-5.6,0.3-11.2,1-16.8,2c0.6-4.5,1.1-9.2,1.3-14C216.6,33.7,220.9,34.3,225,34.5z M211,17.3c0.2,4.5,0.1,9-0.1,13.5
			c-5.9-1.5-11.7-3.7-16.8-6.4C199.6,21.7,205.3,19.3,211,17.3z M210.9,32.3c-0.3,5-0.7,9.9-1.4,14.6c-4.6,0.9-9.1,2.1-13.5,3.6
			c0.2-8.1-0.6-16.4-2.3-24.7C198.9,28.6,204.8,30.8,210.9,32.3z M192.2,25.4c1.7,8.3,2.6,16.6,2.4,24.7
			c-6.2-5.2-11.1-11.2-15.4-17.4c0.7-0.4,1.4-0.8,2-1.2C184.8,29.3,188.4,27.3,192.2,25.4z M187,22c1.4,0.8,2.7,1.6,4,2.3
			c-3.6,1.8-7.1,3.8-10.6,5.9c-0.7,0.4-1.4,0.9-2.1,1.3c-3.4-5.1-6.4-10.2-9.3-15.2c-1.1-1.9-2.2-3.8-3.3-5.6
			C173.5,14.2,180.6,18.4,187,22z M163.4,9.6c1.5,2.4,2.9,4.9,4.4,7.4c2.9,5,5.9,10.2,9.3,15.2c-10.3,6.1-20.7,12-31.3,16.8
			c-2-3.3-4.1-6.7-6.3-10.2l-1.8-2.8c-7.3-11.6-11-18.5-13.7-28.1c-0.6-2-1-3.9-1.4-5.8C136.9,0.3,150.9,4.1,163.4,9.6z M104,9.4
			l0.1-0.8c0.1-0.6,0.2-1.2,0.2-1.8c4.3-1.5,9.1-2.8,14.5-3.9c0.8-0.2,1.5-0.3,2.3-0.4c0.4,2,0.8,4,1.4,6
			c2.8,9.8,6.5,16.7,13.9,28.5l1.8,2.8c2,3.1,4,6.2,5.8,9.2c-15.1-6.5-29.1-14.3-40.4-24.7C103.5,20.2,103.4,15.3,104,9.4z
			 M103.6,26C103.6,26,103.6,26,103.6,26c11.3,10.1,25.2,17.8,39.7,24.1c-24.6,11-49.9,16.9-75.1,10.1c0,0,0,0,0-0.1
			c-2.1-6.9-3.7-13.4-5-19.8c2.6,1,5.2,2.3,7.6,3.6c3.3,1.7,6.5,3.3,9.4,4c8,2,14.3,0.7,18.7-3.6C104,39.5,103.9,34.2,103.6,26z
			 M92.3,11.2c3.2-1.3,6.7-2.7,10.5-4c0,0.4-0.1,0.8-0.1,1.1l-0.1,0.9c-0.5,5.3-0.5,9.9-0.4,13.7C98.4,19.4,95,15.5,92,11.4
			C92.1,11.3,92.2,11.3,92.3,11.2z M59.9,14.8c1.4,0.5,2.9,1,4.4,1.3c9.4,2.3,17.1-0.5,26.5-4.3c3.4,4.6,7.2,8.9,11.4,12.8
			c0,0.5,0,1,0,1.4c0.2,8,0.4,12.8-4.2,17.4c-4,4-9.8,5-17.4,3.2c-2.8-0.7-5.9-2.3-9.1-3.9c-2.7-1.4-5.6-2.8-8.6-4
			C61.5,31,60.5,23.2,59.9,14.8z M61.7,39.9c1.3,6.4,2.9,13,5,19.9c-0.2-0.1-0.4-0.1-0.7-0.2c-4-1.2-8.1-2.9-12-5
			c0.2-5.7-0.1-11.2-1-16.2C56,38.4,58.9,39,61.7,39.9z M54,56.3c3.8,2,7.7,3.6,11.6,4.8c0.5,0.2,1,0.3,1.6,0.4
			c1.6,5.1,3.4,10.1,5.5,15c-6.6-3-13.5-4.4-20.1-4.3C53.2,66.8,53.8,61.4,54,56.3z M52.6,53.9c-4.4-2.5-8.6-5.5-12.5-8.9
			c1.2-1.6,2.5-2.9,4-3.8c2.6-1.5,5.1-2.3,7.5-2.6C52.4,43.4,52.7,48.5,52.6,53.9z M33,12.2c10.7,5.6,16.1,14.3,18.3,24.9
			c-2.6,0.3-5.2,1.2-7.9,2.8c-1.7,1-3.1,2.4-4.4,4.1C28.8,34.8,20.7,22.6,17,9.2C22.5,8.8,27.9,9.6,33,12.2z M15.9,63.8
			c-1.7-2.7-3.4-5.3-4.9-7.9C2.2,41.1-1.8,27.9-1.3,14.2c5.2-2.3,11-4.2,16.9-4.9c3.7,13.9,12.1,26.5,22.6,36
			c-2.1,3.3-3.7,7.3-5.3,11.3c-2.2,5.5-4.5,11.2-8,14.7c-1,1-1.9,1.8-2.9,2.5C20.1,70.3,18,67,15.9,63.8z M17.7,77.5
			c1.3-0.4,2.6-1,3.8-1.7c1.5,2.6,2.8,5.2,4,7.8C22.9,81.6,20.3,79.5,17.7,77.5z M22.7,74.9c1.1-0.8,2.1-1.6,3.2-2.7
			c3.7-3.7,6-9.5,8.3-15.2c1.6-4,3.1-7.8,5.1-10.9c4.2,3.6,8.6,6.8,13.3,9.4c-0.2,5.3-0.7,11-1.4,16.8c-1.7,0.1-3.3,0.3-4.9,0.6
			c-7.4,1.4-13.8,5.1-19,10.7C25.9,80.7,24.4,77.8,22.7,74.9z M23.5,90.8c1-1.6,2.1-3.1,3.2-4.5c3,7.4,4.5,15.2,3,23.4
			c-4-1.4-8.1-2.5-12.3-3.3C18.7,101,20.4,95.8,23.5,90.8z M11.1,129.6c0.4-0.8,0.7-1.6,1-2.4c1.9-5,3-10.2,4.1-15.1
			c0.3-1.4,0.6-2.8,0.9-4.2c4.2,0.8,8.3,1.9,12.3,3.3c-0.1,0.6-0.3,1.3-0.5,1.9c-1.6,5.6-4.1,11.5-7.7,17.8c-0.3,0.5-0.6,1.1-1,1.6
			C17.4,131.4,14.3,130.4,11.1,129.6z M10.2,151.1c1.9-3.5,4.2-6.8,6.3-10.1c1.5-2.2,3-4.4,4.4-6.7c6.3,2.5,12.1,5.5,17.5,9.1
			c-12.1,6.1-21,15-26.2,26c-3.1-0.8-6.2-1.7-9.3-2.7C4.9,161.5,7.3,156.3,10.2,151.1z M2.4,168.1c3,1,6.1,1.9,9.1,2.7
			c-4.3,9.8-5.8,21.2-4.2,33.6c0.2,1.8,0.5,3.5,0.9,5.2c-4.1-1.8-8.3-3.7-12.4-5.8C-4.1,191.7-1.9,179.8,2.4,168.1z M-1,232
			c-1.4-5.3-2.3-11.2-2.8-17.3c-0.3-3-0.4-6.1-0.4-9c4.2,2.1,8.5,4.1,12.8,5.9c3.1,13.9,10,25.6,20.8,35.3
			c-3.7,1.2-7.2,2.7-10.7,4.4c-5.1-3.7-9.9-6.7-15.9-8.7C1.2,239.1,0,235.6-1,232z M3.6,244.4c5,1.9,9.2,4.4,13.6,7.6
			c-2.4,1.2-4.7,2.6-7.1,4.1C7.7,252.3,5.5,248.4,3.6,244.4z M14.4,283.4c-3.2-7.6-7-14.6-11.2-21c2.1-1.5,4.3-3,6.3-4.3
			c3,4.7,6.3,9.2,9.5,13.7c1.5,2.1,3.1,4.2,4.6,6.4c-2.7,2.5-5.5,5.2-8.2,8C15.2,285.2,14.8,284.3,14.4,283.4z M15,288.8
			c1.8,4.6,3.4,9.2,4.9,13.7c2.6,7.5,5,14.5,8.1,21.3c0.8,1.6,1.6,3.3,2.4,4.8c-3.8,0.8-8.9-0.2-14.2-1.2c-0.9-0.2-1.8-0.3-2.7-0.5
			c-1.6-5.4-3.7-10.5-6.4-15.3c-1.1-2-2.3-3.9-3.6-5.7C6.3,299.3,10.5,293.8,15,288.8z M3,307.5c1.1,1.5,2.1,3.1,3,4.8
			c2.5,4.6,4.5,9.3,6.1,14.3c-3.7-0.6-7.5-1.1-11.2-0.9C0.1,318.9,1,312.9,3,307.5z M1.2,328.5C1.1,328,1,327.5,1,327.1
			c3.8-0.2,7.7,0.4,11.5,1.1c2,6.9,3.2,14.2,3.5,22.2c0,0.1,0,0.2,0,0.2C8.6,344.9,2.7,338,1.2,328.5z M14.1,328.4
			c0.7,0.1,1.3,0.2,2,0.4c5.7,1.1,11,2.1,15.2,1.1c3.3,5.9,7.1,11.4,11.5,16.4c-3.8,4.7-7.4,9.4-10.8,14.4c-4.9-2.7-9.9-5.6-14.5-9
			c0-0.5,0-0.9,0-1.4C17.1,342.5,16,335.2,14.1,328.4z M24.2,374.2c-0.3-0.5-0.7-0.9-1.1-1.4c-2-2.4-4.1-4.2-6.3-5.7
			c0.1-1,0.2-2,0.3-3c0.3-3.4,0.4-6.9,0.3-10.7c4.4,3.1,9.1,5.8,13.7,8.4C28.6,365.7,26.3,369.8,24.2,374.2z M24.3,377.3
			c2.4,4.7,2.6,9.9,2.6,15.4c-2.5-0.7-5-1.4-7.4-2.3C20.9,385.6,22.5,381.3,24.3,377.3z M16.6,368.8c1.9,1.4,3.7,3,5.4,5
			c0.5,0.6,1,1.3,1.4,1.9c-2,4.3-3.8,9-5.3,14.1c-1.7-0.7-3.4-1.4-5.1-2.2C14.7,381.2,15.9,374.9,16.6,368.8z M14.8,404.4
			c-2-0.6-4.1-1.1-6.3-1.6c1.6-4.6,3-9.2,4.2-13.8c1.6,0.8,3.3,1.5,5,2.2C16.6,395.3,15.6,399.7,14.8,404.4z M18.9,405.6
			c-0.9-0.3-1.8-0.5-2.7-0.8c0.8-4.7,1.8-9,2.9-13c2.6,0.9,5.2,1.8,7.8,2.4c0,4.5,0.1,9.2,1.4,13.8
			C25.4,407.5,22.3,406.6,18.9,405.6z M43.8,404.5c-4.6,3.6-9,4.4-13.9,3.8c-1.3-4.6-1.5-9.2-1.5-13.7c6.3,1.5,12.8,2.3,19.3,2.3
			c0.7,0,1.4,0,2.1-0.1C48.5,399.7,46.5,402.4,43.8,404.5z M50.3,395.3c-7.4,0.2-14.8-0.5-21.9-2.3c0-6.2-0.2-12.1-3.3-17.4
			c2.2-4.7,4.6-9,7.3-13.1c2.1,1.2,4.2,2.4,6.1,3.5c7.2,4.3,12.3,12.9,12.8,21.4C51.5,390.3,51.1,392.9,50.3,395.3z M58.2,394.6
			c-2.1,0.3-4.2,0.5-6.3,0.6c0.7-2.4,1-5.1,0.9-7.8c-0.5-8.9-6-18-13.5-22.5c-1.9-1.2-4-2.3-6.1-3.5c3.2-4.9,6.8-9.5,10.5-14
			c5.8,6.4,12.4,12,19.9,16.7C60.9,374.4,59,384.7,58.2,394.6z M75.8,390c-3.5,1.4-7,2.5-10.7,3.4c-1.8,0.4-3.6,0.7-5.5,1
			c0.9-9.6,2.6-19.6,5.2-29.7c4.2,2.6,8.7,4.9,13.3,6.9C76.6,377.4,75.8,383.6,75.8,390z M77.3,389.5c0.1-6,0.8-11.8,2.3-17.3
			c4.3,1.8,8.8,3.3,13.5,4.6c1.5,0.4,2.9,0.7,4.4,1.1C91.3,382.4,84.5,386.4,77.3,389.5z M99,376.7c-0.5-0.6-1-1.2-1.5-1.9
			c-4.1-5.4-7.3-12.6-8.6-20.3c10.4,4,21.8,4.1,31.2,3.5c-0.3,0.3-0.5,0.6-0.8,0.8C113.2,364.8,106.5,371.1,99,376.7
			C99,376.7,99,376.7,99,376.7z M123.1,394.9c-1.2-0.7-2.4-1.4-3.5-2.1c-7.6-4.6-13.5-8.1-19.1-14.4c9.7,2,19.7,2.8,30,2.5
			C127.3,385.4,124.9,390,123.1,394.9z M124.6,395.1c1.8-5,4.4-9.7,7.8-14.1c9.9-0.4,20.2-1.8,30.8-4.3c0.6,1.3,1.3,2.6,2,4
			c3,5.7,6,11.7,8.9,17.9C157.5,391.9,140.6,387.2,124.6,395.1z M182.7,402c-2.2-0.9-4.5-1.8-6.7-2.7c-3.1-6.7-6.4-13.2-9.6-19.3
			c-0.6-1.2-1.2-2.4-1.8-3.7c4.5-1.1,9.1-2.4,13.8-3.9c1.4,1,2.7,2.1,4,3.3c10,8.9,17.7,20.7,22.6,34.5
			C197.7,408.2,190.1,405,182.7,402z M220.3,412.3c-4.6,0-9.1-0.5-13.3-1.6c-0.1,0-0.2-0.1-0.3-0.1c-4.9-14.4-12.9-26.8-23.3-36.1
			c-1.1-0.9-2.2-1.8-3.3-2.7c5.4-1.8,11-3.8,16.6-6.1c13.5-5.5,27-10.8,40.8-15.1c-5.2,8.8-8.7,16.9-10.9,25
			C223.8,386.7,221.3,399,220.3,412.3z M252.4,401.5c-4.9,3.7-10.1,6.9-16,8.6c-4.6,1.3-9.6,2.1-14.6,2.2
			c0.9-13.1,3.5-25.4,6.2-36.3c2.2-8.4,6-16.8,11.6-26c10.4-3.2,20.9-5.7,31.6-7.4c0.1,0.7,0.2,1.3,0.3,2c0.9,6.1,1.9,12.6,2.7,19.3
			c-1.3,0.2-2.5,0.6-3.7,1C258.2,369.7,252.4,380.9,252.4,401.5z M262.3,393.1c-2.8,2.5-5.6,5-8.5,7.3c0.2-19.2,5.7-29.7,17.2-34.1
			c1.1-0.4,2.2-0.7,3.4-0.9c0.7,5.3,1.3,10.7,1.9,16.3C271.4,385,266.8,389.1,262.3,393.1z M284.5,396.7c-1.2,6.3-2.6,12.2-4.2,17.8
			c-0.5-11.2-1.3-21.9-2.4-32.1c0.8-0.5,1.7-1,2.5-1.5c2.3-1.3,4.6-2.4,7-3.4C286.7,383.6,285.8,390,284.5,396.7z M287.5,375.7
			c-2.7,1.1-5.3,2.4-7.8,3.8c-0.7,0.4-1.3,0.8-2,1.2c-0.6-5.4-1.2-10.6-1.8-15.7c4.1-0.5,8.6,0.4,12.4,3
			C288,370.6,287.8,373.2,287.5,375.7z M288.4,366.5c-4-2.5-8.5-3.3-12.7-2.8c-0.9-6.7-1.8-13.2-2.7-19.3c-0.1-0.7-0.2-1.3-0.3-2
			c6.4-1,12.9-1.6,19.6-1.8C290.1,348.8,289.2,357.5,288.4,366.5z M289,375.1c0.2-2,0.4-4,0.6-6c1.4,1.2,2.7,2.7,3.9,4.4
			C292,374,290.5,374.6,289,375.1z M289.8,367.4c0.9-9.4,1.7-18.4,3.9-26.9c3.4-0.1,6.7-0.1,10.1,0c3.3,0.1,6.6,0.3,9.8,0.5
			c-6.1,9.4-9.2,19.7-8.9,29.8c-3.3,0.6-6.6,1.3-9.8,2.3C293.4,370.7,291.7,368.8,289.8,367.4z M308.7,410.4L308.7,410.4
			c-8.4-4.9-9.1-12.8-9.8-21.3c-0.4-5.1-0.9-10.4-3.3-14.8c3-0.9,6-1.6,9.1-2.1c0.1,2.4,0.4,4.7,0.9,7.1c1.4,6.6,4.2,12.6,8.2,17.7
			C311.7,401.4,309.9,405.8,308.7,410.4z M310,411.1c1.1-4.4,2.8-8.6,4.8-12.7c3.2,3.8,7,7.1,11.4,9.8
			C320.8,411.8,315.6,413.7,310,411.1z M327.5,407.2c-4.7-2.8-8.8-6.2-12-10.3c1.8-3.5,3.7-7,5.7-10.5c2.6-4.6,5.2-9.2,7.5-14.2
			c2.7,0.4,5.4,0.9,8.1,1.5c9.5,1.8,19.3,3.6,28.4,2c0.2,3.4,0.4,6.7,0.7,10c-4.3,0.1-8.9,1.2-13.5,3.3c-6.8,3.1-12.7,8.1-18,12.5
			C332.2,403.6,329.8,405.5,327.5,407.2z M368.2,408.1c-13.7,4.4-24.5,7.9-39.2-0.1c2.1-1.6,4.3-3.4,6.6-5.3
			c5.4-4.5,11-9.2,17.7-12.3c4.5-2.1,8.9-3.1,13-3.2c0.7,7,1.7,13.9,3.1,20.5C368.9,407.8,368.6,408,368.2,408.1z M370.7,407.3
			c-1.4-6.5-2.4-13.2-3.1-20c6.9,0.3,13.1,3.3,18,9c1.7,2,2.9,4.1,3.8,6.2C382.4,403.6,376.3,405.5,370.7,407.3z"/>
	</g>
</g>
</svg>
