<?xml version="1.0" encoding="utf-8"?>
<!-- Generator: Adobe Illustrator 24.1.2, SVG Export Plug-In . SVG Version: 6.00 Build 0)  -->
<svg version="1.1" id="Layer_1" xmlns="http://www.w3.org/2000/svg" xmlns:xlink="http://www.w3.org/1999/xlink" x="0px" y="0px"
	 viewBox="0 0 400 150" style="enable-background:new 0 0 400 150;" xml:space="preserve">
<style type="text/css">
	.st0{fill:#80BEBF;}
	.st1{fill:#F8F9ED;}
	.st2{fill:#BEC75B;}
	.st3{fill:#F4F5E6;}
	.st4{fill:#AFDADB;}
	.st5{fill:#6AA5A5;}
	.st6{fill-rule:evenodd;clip-rule:evenodd;fill:#C7BF77;}
	.st7{fill:#E8E6A5;}
	.st8{fill:#97C5CC;}
	.st9{fill:#F7F7E1;}
	.st10{fill-rule:evenodd;clip-rule:evenodd;fill:#CCB43D;}
	.st11{fill-rule:evenodd;clip-rule:evenodd;fill:#ADA734;}
	.st12{fill-rule:evenodd;clip-rule:evenodd;fill:#EEF0D8;}
	.st13{fill:#56A8BA;}
	.st14{fill:#92943B;}
</style>
<g>
	<rect x="-1.2" y="-4.7" class="st12" width="403.2" height="403.2"/>
	<g>
		<path class="st13" d="M152.4,388.5c0-2.8,0-5.6,0-8.4c0-4.4-0.4-8.9-0.4-13.4c0-6.3,0.3-12.6,0.2-19.2c-0.1-6.6-0.2-13.6-0.1-20.1
			c0-2.9,0.4-5.6,0.3-8.5c-0.1-4.7-0.7-9.3-0.6-13.8c0-2.3,0.3-4.4,0.3-6.7c0-6.4,0-12.8,0-19.3c0-8.5-0.1-16.9-0.1-25.4
			c0-4.7,0.3-9.3,0.3-14.3c-0.1-4.9-0.4-10-0.3-14.7c0.1-3.6,0.7-7.1,0.7-10.7c0-2.4-0.4-5.1-0.4-7.6c-0.2-10.5,0-22.2,0-33.5
			c0-3.1-0.3-6.3-0.2-9.4c0.1-4.7,0.5-9.3,0.5-13.8c-0.1-4.9-0.5-9.4-0.5-14.3c0-7.7,0.2-16.8,0.2-24.5c0-9.9,0.1-20.4,0.1-30.8
			c0.1-10.8,0.1-21.5,0.2-31.2c0.1-8.5,0.2-15.2,0-22.8c-0.2-10.7,0.3-21,0.3-31h-1.4c0,5.8-0.4,12.6-0.4,16.7
			c0,7.1,0.2,12.6,0.3,19.6c0.2,13.7-0.5,26.8-0.5,39.3c0,3.2,0,6.3,0,9.4c0,9.9-0.1,19.6-0.3,29c-0.1,4.5,0.3,9.4,0.3,12.5
			c0,2.3-0.3,4.6-0.3,7.1c-0.1,7.8,0.5,16,0.5,24.1c0,4.4-0.4,9-0.5,13.4c0,12,0.2,24.2,0.4,35.7c0.1,4,0.5,7.9,0.4,11.6
			c0,4-0.7,8.1-0.8,12c-0.3,11.9,0.2,24.6,0.2,37c0,5.5-0.2,11-0.2,16.4c0,0.3,0,0.6,0,1c0,6.1,0.2,12.1,0.1,17.8
			c0,3.5-0.4,6.9-0.3,10.3c0.1,3.3,0.5,6.6,0.6,9.8c0.2,5.4-0.2,10.9-0.3,16.5c-0.1,5.8,0.3,11.5,0.3,17c0,3.3-0.3,6.5-0.3,9.8
			c0,8.2,0.4,16.5,0.3,24.5c0,3.7,0.2,7.4,0.3,11.1c0,0.5,0,1.1,0,1.6h1.4c0-0.4,0-0.8,0-1.2C152.8,394.4,152.4,391.5,152.4,388.5z"
			/>
		<path class="st13" d="M163.8,379.2c0-4.6-0.5-9.2-0.6-13.8c-0.1-7.4,0.3-15.1,0.2-22.8c-0.1-17.1-0.1-37.4-0.1-54.9
			c0-2.9,0.2-5.7,0.3-8.5c0-0.6,0-1.1,0-1.7c0-5.3-0.1-10.8-0.1-16.1c0.1-5.7,0.3-11.3,0.3-16.9c0-4.3-0.3-8.6-0.2-12.9
			c0-3.3,0.3-6.5,0.3-9.8c0-7.7-0.3-15.4-0.3-23.2c0-7.5,0.6-15,0.8-22.3c0.2-8-0.5-16.2-0.3-24.1c0.4-22.4,0.2-45.2,0.2-65.6
			c0-2.1,0-4.1,0.1-6.2c0.1-5.1,0.3-10.1,0.3-15.2c0-6.7-0.5-13.5-0.6-20.1c-0.1-3.4-0.1-6.9-0.2-10.3c-0.1-3.1-0.5-6.2-0.6-9.4
			c-0.2-6.9,0-13.1,0.1-18.7c0.1-3.8,0.1-7.6,0.2-11.3H162c0,2.4-0.1,4.7-0.1,7.1c0,2.3,0,4.6-0.1,6.9c-0.1,3.9-0.3,7.6-0.3,11.2
			c0,5.9,0.6,12.1,0.8,18.3c0.2,6.8,0.5,13.7,0.6,19.6c0.1,6.9-0.1,14.3-0.2,21.9c0,2.2,0,4.4,0,6.7c0.1,10.1,0.5,20.7,0.3,30.3
			c-0.1,6.7-0.4,13.5-0.4,20.1c0,5.8,0.1,11.4-0.1,15.6c-0.2,5.2,0,10.1,0.1,15.6c0.1,10.7-0.5,19.2-0.6,28.1
			c-0.2,12.8,0.1,24.3,0,34.4c-0.1,5.8,0.3,11.6,0.3,17.4c-0.1,7.8-0.5,15.5-0.4,23.2c0,2.5,0,5,0,7.5c0,11.3-0.2,22.3-0.2,32.2
			c0.1,18.3-0.3,35.3-0.1,52.6c0.1,4.9,0.6,9.1,0.6,13.4c0.1,5.2-0.2,10.3-0.3,15.5c0,1.9,0,3.8-0.1,5.7h1.4c0-1.9,0.1-3.8,0.1-5.7
			C163.5,388.3,163.8,383.8,163.8,379.2z"/>
		<path class="st13" d="M186.9,365.8c0-2.4,0.1-4.7,0.1-7.1c0-4.8,0.2-10.3,0.1-16.1c0-7.1-0.1-14.2-0.2-21.4
			c-0.1-7.8,0-15.6-0.1-23.2c-0.1-5.5-0.4-12.8-0.4-18.8c0-1.4,0-2.7,0-3.9c0-1.5,0.4-2.9,0.3-4c-0.1-3-0.7-7.1-0.8-9.8
			c0-5,0.5-10.4,0.7-15.6c0.2-8.5-0.1-17.5-0.1-25.9c0-3.1,0.3-5.8,0.3-8.9c0-4.5-0.6-8.9-0.6-13.4c0-4.9,0.6-9.9,0.7-14.7
			c0.2-7.9-0.3-18.8-0.3-24.5c0-1.8,0-3.5,0-5.4c0-8,0.4-15.3,0.5-22.8c0.1-4.6-0.2-9.3,0-13.8c0.1-3.1,0.5-6.3,0.5-9.4
			c0-5-0.9-13-1-19.2c0-2.5,0-5,0-7.6c0.2-10.8,0.7-22.2,0.4-33.9c-0.4-14,0.1-28.2,0.1-41.9c0-3-0.1-6.1-0.2-9.1h-1.5
			c0.1,2.2,0.1,4.4,0.2,6.6c0,2.2,0.1,4.3,0.1,6.5c0.1,10.5-0.6,22.5-0.4,31.7c0.1,4.1,0.6,8.1,0.6,12c0,9.6-0.3,18.9-0.4,28.1
			c-0.1,4.3-0.1,8.6,0,12.9c0.1,6,0.9,12,0.8,17.8c0,3-0.4,5.8-0.5,8.9c-0.1,4.3,0,8.8-0.1,13.4c-0.1,4.6-0.2,9.5-0.3,14.3
			c-0.2,14.1,0.4,28.5,0.1,42.4c-0.1,3.1-0.5,6.3-0.5,9.4c-0.1,4.9,0.4,10.4,0.4,15.6c0,5.4-0.3,10.8-0.3,16.1
			c0,4.2,0.4,8.5,0.4,12.5c0,7.3-0.9,16.5-0.7,21.4c0.1,1.9,0.3,3.6,0.4,5.4c0.1,2.9,0.1,5.9,0,8.8c-0.1,4-0.3,7.9-0.3,11.2
			c0,2.3,0.5,6.6,0.6,9.8c0.1,7.7-0.2,16.7,0.1,26.3c0.1,4.6,0.2,8.8,0.2,13.4c0,4.4-0.3,8.8-0.3,13.4c0,10.9,0.1,21.2,0.1,30.3
			c0,3.5-0.2,7.1-0.1,10.6c0,1.4,0.1,2.9,0.1,4.3h1.5c-0.1-2.5-0.2-5.1-0.3-7.6C186.4,382.6,186.8,374.2,186.9,365.8z"/>
		<path class="st13" d="M210,381.5c0-1.8,0-3.6-0.1-5.4c-0.1-5.5-0.1-11-0.2-16.6c-0.1-11.7-0.6-23.7-0.4-34.8
			c0.1-3.9,0.4-7.7,0.3-11.6c0-4.1-0.3-7.9-0.2-12c0.1-4.2,0-8.3,0-12.5c0-3.1,0.3-6.3,0.3-9.4c0-0.1,0-0.2,0-0.4
			c0-9-1-17.7-0.8-26.8c0.2-7.8,0.6-15.6,0.7-23.6c0.1-7.8,0.7-15.8,0.7-23.6c0-2.5-0.3-5.1-0.4-7.6c-0.1-6.1,0.5-12.2,0.5-18.3
			c0-4.7-0.6-9.2-0.6-13.8c0-4.3,0.4-9.6,0.5-15.2c0.1-5.5,0.2-11.4,0.2-16.5c0-2.1-0.4-5.5-0.4-8c0-2,0.2-3.8,0.2-6.2
			c-0.1-13.3-0.7-25.8-0.9-38.8c-0.1-3-0.1-5.9-0.1-8.9c0-9.8,0.4-21.1,0.3-32.1c-0.1-10.7-0.5-21.4-0.2-31.2
			c0.1-3.4,0.2-7,0.3-10.7c0-0.7,0-1.3,0-2h-1.4c0,0.7,0,1.4,0,2c-0.2,8.5-0.4,17.3-0.4,25.8c0.1,5.8,0.3,11.3,0.4,16.5
			c0.1,5.3-0.3,10.8-0.3,16.1c0,5.6-0.1,11.1-0.2,16.5c0,2.7,0.1,5.4,0.2,8.1c0.1,2.6,0.2,5.3,0.2,8c0,5-0.1,10.2,0,15.2
			c0.2,10.3,0.8,20.8,0.8,31.2c0,10.9-0.7,21.7-0.5,33c0.1,7.4,0.2,12.5,0,19.6c-0.1,3.4,0,6.8,0,10.3c0.1,15.5-0.4,31.1-0.6,46.4
			c-0.1,7.8-0.5,16-0.3,23.2c0.1,3.7,0.7,8.2,0.7,11.2c0,0.3,0,0.6,0,0.8c0,5.4-0.5,11.3-0.5,17c-0.1,6.2,0.2,12.3,0.2,18.3
			c0,6.5-0.5,14.3-0.3,19.2c0.2,6.8,0.1,13.5,0.2,20.1c0.1,7.4,0.3,14.9,0.4,22.4c0,2.2,0,4.4,0.1,6.6c0,5.3,0,10.5-0.1,15.8h1.4
			C209.9,392.9,210.1,387.2,210,381.5z"/>
		<path class="st13" d="M221,393.4c0.2-2.8,0.2-5.6,0.3-8.4c0.1-3.1,0.4-5.8,0.5-8.9c0.1-3.1,0-6.5,0-9.8c-0.1-14.9,0.5-28.4,0.3-41
			c-0.1-3.4-0.1-6.5,0-9.8c0-3,0.2-6.4,0.2-9.4c-0.1-6.5-0.7-12.8-0.6-19.2c0-2.5,0.3-4.7,0.3-7.1c0-0.2,0-0.3,0-0.5
			c0-6.9-0.4-13.9-0.4-20.9c-0.1-11.1,0.2-22.2-0.1-33.5c-0.1-5.7-0.4-11.7-0.4-17.4c0-5.7-0.2-10.9-0.4-16.5
			c-0.3-10.7,0.6-21.4,0.3-32.1c-0.1-1.9-0.3-3.8-0.4-5.8c-0.2-7.1,0.6-14.1,0.5-21c-0.1-6.2-0.7-12.1-0.6-18.3c0-2,0.3-3.9,0.3-5.8
			c0.2-7-0.6-13.9-0.4-20.5c0.1-2.5,0.5-4.9,0.6-7.1c0-0.3,0.1-0.6,0.1-0.9c0.1-3.9-0.4-7.8-0.4-11.6c0-6.6,0-12.8,0.1-19.2
			c0.1-4-0.2-7.9,0-11.6c0.1-2.5,0.5-5,0.5-7.6c0.1-7.6-0.1-15.9-0.4-21.4c-0.2-3.1,0-6,0-9.1c0-1.2,0-2.4,0-3.6h-1.5
			c-0.1,9.9,1,20.6,0.8,31.4c0,1.8-0.3,3.6-0.3,5.4c-0.1,3.9,0,8.1-0.2,12c-0.1,4.4-0.3,8.8-0.3,12.9c0,5.7,0.4,11.3,0.4,17
			c0,2-0.1,4.1-0.1,6.3c-0.2,7-0.5,14.6-0.4,21.8c0,1.2,0.4,2.4,0.4,3.6c0,6-0.5,12.2-0.5,18.3c0,4.3,0.4,8.6,0.4,12.9
			c0,6.2-0.4,12.3-0.3,18.3c0,3.3,0.5,6.6,0.6,9.8c0.3,9.6-0.6,18.9-0.5,28.1c0.1,3.7,0.7,7.5,0.8,11.2c0.2,7.2-0.2,14.6-0.1,21.9
			c0.1,9,0.1,18,0.1,27.2c0,8.6,0.6,17.2,0.6,25.8c0,0.2,0,0.3,0,0.5c0,3.6-0.3,7.1-0.3,10.7c0,18.8,0.3,37.3,0,55.8
			c-0.2,9,0.3,17.7,0.2,26.3c0,2-0.1,4-0.2,6c-0.1,2-0.2,4-0.3,6.1c-0.1,4-0.5,8-0.6,12c0,0.7,0,1.4,0,2.1h1.5
			C220.9,396.9,220.9,395.1,221,393.4z"/>
		<path class="st13" d="M232.7,379.4c0-2.1-0.1-4.3-0.1-6.4c-0.1-6.4-0.1-12.8-0.1-19.2c0-11.7,0-23.6,0.4-35.2
			c0.4-13.4,0.3-26.3,0.2-39.3c-0.1-7.8-0.2-15.6-0.2-23.6c0-9.5-0.4-19.1-0.4-28.6c0-6.8,0.9-13.7,1.1-20.5
			c0.3-10.2-0.4-21.1-0.4-31.7c0.1-15.4-0.2-29.8-0.2-45.5c0-4.5-0.2-9-0.2-13.4c0-1.9,0.4-3.9,0.4-5.8c0-3.2-0.5-6.4-0.5-9.8
			c-0.1-3.6-0.1-7.4-0.2-11.2c-0.1-2.9-0.2-5.9-0.3-8.9c-0.2-4.2-0.3-8.5-0.3-12.5c0-3.8,0.6-7.8,0.5-11.6c0-2.4-0.3-4.8-0.4-7.1
			c0-3.8,0.2-7.7,0.4-11.6c0.1-4.3-0.1-8.4,0-12.5c0.1-2.9,0.4-5.6,0.4-8.5c-0.1-3.6-0.5-6.6-0.5-9.8c-0.1-3.8,0.2-7.6,0.4-11.3
			h-1.1c-0.1,2.3-0.2,4.6-0.3,7c0,1-0.1,2-0.1,3c0,4.4,0.3,9,0.4,13.4c0.1,4.8-0.1,9.5-0.2,14.3c-0.1,9.9,0.1,19.6-0.2,28.6
			c-0.1,4-0.6,8.3-0.4,11.2c0.2,2.4,0.3,5,0.3,7.6c0.1,6.5-0.1,13.4,0,20.1c0.1,4.3,0.5,8.9,0.5,13.4c0,3.6-0.2,7.4-0.2,11.2
			c0,21.7,0.2,39.8,0.2,59.8c0,8.7,0.6,17.1,0.4,25c-0.2,6.7-1,12.8-1.1,19.2c-0.1,6.9,0.4,13.7,0.4,21c0,2.7-0.4,5.3-0.4,8
			c0,4.3,0.4,8.8,0.4,13.4c0,2.6,0,5.3,0,8c0,2.1,0,4.3,0,6.3c0.2,11,0.1,22.5-0.2,33.9c-0.5,18.3-0.3,35.7,0.1,52.9
			c0.1,5.9,0.3,11.8,0.4,17.7c0.1,2.8,0,5.7-0.1,8.5h1.1c0.1-2.3,0.2-4.6,0.2-6.9C232.8,387.6,232.7,383.5,232.7,379.4z"/>
		<path class="st13" d="M140.4,376.8c0-1.4,0.1-2.9,0.1-4.3c0.2-9.6-0.2-19-0.1-28.6c0.1-9.8-0.4-20.2-0.3-28.6
			c0-2.3,0.3-4.5,0.3-6.7c0-2-0.5-4.3-0.6-6.2c-0.2-5.5,0.4-10.3,0.5-15.2c0-2.7,0-5.4,0-8.1c0-6.4,0-12.7,0-19.1
			c0.1-4.6,0.1-9.3,0.1-13.8c0-4.5-0.4-8.8-0.4-13.4c0-2.5,0.3-5,0.3-7.6c0-2.6-0.2-5.4-0.2-8c0-2.9,0.4-5.9,0.5-8.9
			c0.4-18.3,0.7-37.8,0.3-54.4c-0.3-15-0.3-30.1-0.4-43.7c0-3.1-0.3-6.3-0.2-9.4c0.1-5.5,0.5-11,0.5-16.5c0-1.3,0-2.7,0-4
			c0-4.2-0.1-8.4-0.1-12.5c0-5.1,0.5-10.1,0.5-15.2c0-11.2-0.5-22.7-0.5-33.9c0-6.4,0.5-12.5,0.3-18.7c0-1.5-0.1-3.1-0.2-4.6h-1.4
			c0.1,1.1,0.1,2.2,0.2,3.3c0.2,5.8-0.1,12.2-0.1,18.7c0,6.1,0,12.1,0.1,18.3c0.1,12.6,0,24.8-0.2,37c-0.1,2.6,0,5.1,0,7.6
			c0.1,4.1,0.2,8.1,0.1,12c-0.1,3.6-0.4,6.8-0.5,10.3c-0.1,6.6,0.4,13.8,0.3,21c-0.2,18.2,0.2,34.2,0.4,53.1
			c0.1,8.7-0.2,17.6-0.4,26.3c-0.5,17.8-0.1,35.9-0.1,53.5c0,7.6-0.2,15.2-0.4,22.7c0,1.2,0,2.4-0.1,3.6
			c-0.2,17.6,0.1,34.6,0.2,51.8c0,9.3,0.4,18.5,0.3,27.2c-0.1,7.9-0.2,15.8-0.2,23.7c0,4.4,0.4,8.7,0.6,13h1.4
			c-0.2-2.4-0.3-4.8-0.5-7.1C140.1,386.6,140.3,381.7,140.4,376.8z"/>
		<path class="st13" d="M175,379.8c0-1.4,0-2.8,0-4.1c0-5.2,0.8-10.8,0.8-16.5c0-5.9-0.7-11.8-0.7-17c0-3.2,0.4-6.5,0.5-9.8
			c0.1-6-0.3-12.5-0.3-18.3c0-4.7-0.2-9.8-0.3-15.2c-0.2-6.5,0-13.3,0.2-19.7c0.1-2.7,0.1-5.4,0.2-8c0.1-7.5,0-14.2-0.2-21.4
			c-0.1-6.2,0.3-12.1,0.2-17.8c0-4.4-0.6-8.9-0.6-13.4c0-5.1,0.6-10.1,0.6-15.2c0-11.6,0-23.8-0.2-33.9c0-1.7-0.4-3.4-0.4-4.9
			c0-1.6,0.5-3.4,0.5-4.9c0.3-9.7,0.1-17.6,0.2-26.8c0.1-16.5-0.3-32.9,0-49.5c0-1,0-2.1,0-3.1c-0.1-3-0.3-6-0.3-8.9
			c0-8.1,0.4-16.5,0.4-24.5c0-5,0.1-9.6,0.1-14.3c0-5.1-0.5-10.3-0.5-15.2c0-3.3,0.4-6.5,0.5-9.8c0.1-4-0.2-8.1-0.4-12.2h-1.3
			c0,5,0.1,10,0,15c0,2.8,0,5.6-0.1,8.3c0,3.2,0.2,6.4,0.3,9.8c0.1,4.5-0.3,9.5-0.3,14.3c0,4.9,0.2,9.9,0.1,14.7
			c-0.1,4.7-0.2,9.2-0.1,13.8c0,3,0,6,0,8.9c-0.1,5.1-0.2,9.8-0.2,13.8c0,9.8,1,19.7,0.8,29.4c-0.3,10.7-0.4,21.4-0.5,32.1
			c-0.2,23.9-0.6,46-0.2,68.3c0.2,10,0,19.9,0,29.9c0,8.5-0.1,16.9-0.2,25.4c-0.1,5.8-0.1,11.6-0.1,17.5c0.1,12.6,0.7,25.4,0.4,37.5
			c-0.1,3.5-0.3,6.8-0.3,10.3c0.1,8,0.7,14.9,0.5,22.3c-0.1,4.9-0.6,10-0.6,15.2c0,5.3,0.3,10.6,0.4,15.9c0,0.3,0,0.6,0,0.9h1.3
			c0-1.1-0.1-2.3-0.1-3.4C175,390.1,175,384.9,175,379.8z"/>
		<path class="st13" d="M199,386.2c-0.1-1.7-0.1-3.5-0.2-5.2c-0.4-10.5,0.3-24.7-0.1-35.2c-0.1-2.9-0.7-7.3-0.8-9.4
			c-0.1-4.2,0.4-8.2,0.4-12.5c0-3.7-0.4-7.4-0.5-11.2c-0.1-7.8,0.2-15.6,0.2-23.6c0-3.3-0.1-6.6-0.2-9.9c-0.1-7.1-0.3-14-0.1-20.5
			c0.2-6.2,0.3-11.8,0.2-16.5c-0.1-9,0.4-15.3,0.4-22.3c0-4.7-0.3-9.5-0.3-14.3c-0.1-9.9,0.4-19.6,0.1-29c-0.1-3.4-0.5-6.9-0.4-10.3
			c0-3.5,0.4-7.3,0.5-11.2c0.1-3.8,0.1-7.7,0.1-11.6c-0.1-11.5-0.7-24.2-0.5-35.7c0.1-5.3,0.6-10.5,0.6-15.6c0-4,0-8-0.1-12
			c-0.1-3.3-0.1-6.6-0.1-9.8c0-6.8,0.6-13.3,0.7-20.1c0.1-7.2-0.1-15.4-0.2-20.5c0-7.2,0.1-14.6,0-21.9c0-2.3-0.4-4.5-0.4-6.7
			c0-2,0-4,0.1-6h-1.5c0,4,0,8.1,0.1,12.2c0.1,4.6-0.1,9.2-0.1,13.8c0.1,9.5,0.6,19,0.4,28.6c-0.1,7.9-0.6,15.8-0.7,23.6
			c0,2.2,0,4.5,0,6.7c0,6.3,0.2,12.5,0,18.7c-0.1,5-0.6,9.9-0.6,14.7c0,8.1,0.5,17.5,0.6,24.5c0,16-0.3,29.7-0.2,45.1
			c0.1,12.8,0.3,26,0.3,38.8c0,10.1-0.4,21-0.5,30.3c0,3.4,0.1,6.6,0.1,9.8c-0.1,5-0.1,10-0.1,15c0,0.6,0,1.3,0,1.9
			c0,4.4,0,8.9,0,13.3c0,5.1,0.1,10.2,0.1,15.2c0,5,0,10.1,0,15.1c0,4.8-0.4,9.8,0,14.6c0.6,8.1,0.4,16.4,0.4,24.5
			c0,2.3,0,4.6,0.1,6.9c0.1,5.7,0.3,11.3,0.5,17c0.1,3.7-0.4,7.4-0.5,11.1c0,0.5,0,1.1,0,1.6h1.5c0.2-3.2,0.4-6.4,0.4-9.6
			C199,388,199,387.1,199,386.2z"/>
		<path class="st13" d="M128.8,380.9c-0.1-2.1-0.2-4.1-0.1-6.2c0.1-3.2,0.5-6.2,0.5-9.8c0-2.8-0.3-5.6-0.4-8.5
			c-0.1-4.1,0.1-8.2,0-12.5c-0.1-3.9-0.4-7.8-0.4-11.6c0-2.3,0.3-4.8,0.4-7.1c0-3.8-0.5-7.8-0.5-11.6c-0.1-6.9,0.4-14.3,0.5-21.4
			c0.1-3.7,0.1-7.5,0.2-11.2c0-0.6,0.1-1.2,0.1-1.9c0.2-2.7,0.4-5.4,0.5-8c0-1.9-0.3-3.9-0.4-5.8c-0.1-4.4,0.2-8.9,0.2-13.4
			c-0.1-15.7,0.3-30.1,0.2-45.5c-0.1-10.6,0.7-21.4,0.4-31.7c-0.2-6.8-1.1-13.7-1.1-20.5c0-9.4,0.4-19.1,0.4-28.6
			c0-15.3,0.3-30.2,0.3-45.5c0-5.8-0.1-11.5-0.3-17.4c-0.3-11.6-0.4-23.6-0.4-35.2c0-9.2,0.2-18.5,0.4-27.6c0-1.6,0-3.1,0-4.7h-1.4
			c0,1.5,0,3.1-0.1,4.6c-0.4,20.3-0.9,40.5-0.3,62c0.2,6.1,0.3,12.2,0.3,18.3c0,5.3,0,10.5-0.1,15.6c-0.1,4.7,0,9.6,0,14.3
			c0,4.6-0.4,9.1-0.4,13.4c0,2.8,0.4,5.3,0.4,8c0,7.3-0.5,14-0.4,21c0.1,6.3,0.9,12.5,1.1,19.2c0.2,7.8-0.4,16.3-0.4,25
			c0,20-0.1,38.1-0.2,59.8c0,3.8,0.2,7.5,0.2,11.2c0,3.8-0.4,7.7-0.5,11.5c0,0.6,0,1.2-0.1,1.9c-0.1,9.4,0.3,19.2-0.4,27.7
			c-0.2,2.9,0.2,7.1,0.4,11.2c0.3,9,0.1,18.7,0.2,28.6c0.1,4.7,0.3,9.4,0.2,14.3c-0.1,4.4-0.4,9-0.4,13.4c0,5.7,0.5,11.4,0.5,17.1
			c0,1.7-0.1,3.3-0.1,5c0,0.2,0,0.3,0,0.5h1.4C129.2,392.7,129,386.8,128.8,380.9z"/>
		<path class="st13" d="M394.4,388.5c0-2.8,0-5.6,0-8.4c0-4.4-0.4-8.9-0.5-13.4c0-6.3,0.3-12.6,0.2-19.2c-0.1-6.6-0.2-13.6-0.1-20.1
			c0-2.9,0.4-5.6,0.3-8.5c-0.1-4.7-0.7-9.3-0.6-13.8c0-2.3,0.3-4.4,0.3-6.7c0-6.4,0-12.8,0-19.3c0-8.5-0.1-16.9-0.1-25.4
			c0-4.7,0.3-9.3,0.3-14.3c-0.1-4.9-0.4-10-0.3-14.7c0.1-3.6,0.7-7.1,0.7-10.7c0-2.4-0.4-5.1-0.4-7.6c-0.2-10.5,0-22.2,0-33.5
			c0-3.1-0.3-6.3-0.2-9.4c0.1-4.7,0.5-9.3,0.5-13.8c-0.1-4.9-0.5-9.4-0.5-14.3c0-7.7,0.2-16.8,0.2-24.5c0-9.9,0.1-20.4,0.1-30.8
			c0.1-10.8,0.1-21.5,0.2-31.2c0.1-8.5,0.2-15.2,0-22.8c-0.2-10.7,0.3-21,0.3-31h-1.4c0,5.8-0.4,12.6-0.4,16.7
			c0,7.1,0.2,12.6,0.3,19.6c0.2,13.7-0.5,26.8-0.5,39.3c0,3.2,0,6.3,0,9.4c0,9.9-0.1,19.6-0.3,29c-0.1,4.5,0.3,9.4,0.3,12.5
			c0,2.3-0.3,4.6-0.3,7.1c-0.1,7.8,0.5,16,0.5,24.1c0,4.4-0.4,9-0.5,13.4c0,12,0.2,24.2,0.4,35.7c0.1,4,0.5,7.9,0.4,11.6
			c0,4-0.7,8.1-0.8,12c-0.3,11.9,0.2,24.6,0.2,37c0,5.5-0.2,11-0.2,16.4c0,0.3,0,0.6,0,1c0,6.1,0.2,12.1,0.1,17.8
			c0,3.5-0.4,6.9-0.3,10.3c0.1,3.3,0.5,6.6,0.6,9.8c0.2,5.4-0.2,10.9-0.3,16.5c-0.1,5.8,0.3,11.5,0.3,17c0,3.3-0.3,6.5-0.3,9.8
			c0,8.2,0.4,16.5,0.3,24.5c0,3.7,0.2,7.4,0.3,11.1c0,0.5,0,1.1,0,1.6h1.4c0-0.4,0-0.8,0-1.2C394.7,394.4,394.4,391.5,394.4,388.5z"
			/>
		<path class="st13" d="M382.4,376.8c0-1.4,0.1-2.9,0.1-4.3c0.2-9.6-0.2-19-0.1-28.6c0.1-9.8-0.4-20.2-0.3-28.6
			c0-2.3,0.3-4.5,0.3-6.7c0-2-0.5-4.3-0.6-6.2c-0.2-5.5,0.4-10.3,0.5-15.2c0-2.7,0-5.4,0-8.1c0-6.4,0-12.7,0-19.1
			c0.1-4.6,0.1-9.3,0.1-13.8c0-4.5-0.4-8.8-0.4-13.4c0-2.5,0.3-5,0.3-7.6c0-2.6-0.2-5.4-0.2-8c0-2.9,0.4-5.9,0.5-8.9
			c0.4-18.3,0.7-37.8,0.3-54.4c-0.3-15-0.3-30.1-0.4-43.7c0-3.1-0.2-6.3-0.2-9.4c0.1-5.5,0.5-11,0.5-16.5c0-1.3,0-2.7,0-4
			c0-4.2-0.1-8.4-0.1-12.5c0.1-5.1,0.5-10.1,0.5-15.2c0-11.2-0.5-22.7-0.5-33.9c0-6.4,0.5-12.5,0.3-18.7c0-1.5-0.1-3.1-0.2-4.6h-1.4
			c0.1,1.1,0.1,2.2,0.2,3.3c0.2,5.8-0.1,12.2-0.1,18.7c0,6.1,0,12.1,0.1,18.3c0,12.6,0,24.8-0.2,37c-0.1,2.6,0,5.1,0,7.6
			c0.1,4.1,0.2,8.1,0.1,12c-0.1,3.6-0.4,6.8-0.5,10.3c-0.1,6.6,0.4,13.8,0.3,21c-0.2,18.2,0.2,34.2,0.4,53.1
			c0.1,8.7-0.2,17.6-0.4,26.3c-0.5,17.8-0.1,35.9-0.1,53.5c0,7.6-0.2,15.2-0.4,22.7c0,1.2,0,2.4-0.1,3.6
			c-0.2,17.6,0.1,34.6,0.2,51.8c0,9.3,0.4,18.5,0.3,27.2c-0.1,7.9-0.2,15.8-0.2,23.7c0,4.4,0.4,8.7,0.6,13h1.4
			c-0.2-2.4-0.3-4.8-0.5-7.1C382,386.6,382.3,381.7,382.4,376.8z"/>
		<path class="st13" d="M370.7,380.9c-0.1-2.1-0.2-4.1-0.1-6.2c0.1-3.2,0.5-6.2,0.5-9.8c0-2.8-0.3-5.6-0.4-8.5
			c-0.1-4.1,0.1-8.2,0-12.5c-0.1-3.9-0.4-7.8-0.4-11.6c0-2.3,0.3-4.8,0.4-7.1c0-3.8-0.5-7.8-0.5-11.6c-0.1-6.9,0.4-14.3,0.5-21.4
			c0.1-3.7,0.1-7.5,0.2-11.2c0-0.6,0.1-1.2,0.1-1.9c0.2-2.7,0.4-5.4,0.5-8c0-1.9-0.3-3.9-0.4-5.8c-0.1-4.4,0.2-8.9,0.2-13.4
			c-0.1-15.7,0.3-30.1,0.2-45.5c-0.1-10.6,0.7-21.4,0.4-31.7c-0.2-6.8-1.1-13.7-1.1-20.5c0-9.4,0.4-19.1,0.4-28.6
			c0-15.3,0.3-30.2,0.2-45.5c0-5.8-0.1-11.5-0.2-17.4c-0.3-11.6-0.4-23.6-0.4-35.2c0-9.2,0.2-18.5,0.4-27.6c0-1.6,0-3.1,0-4.7h-1.4
			c0,1.5-0.1,3.1-0.1,4.6c-0.4,20.3-0.9,40.5-0.3,62c0.2,6.1,0.3,12.2,0.3,18.3c0,5.3,0,10.5-0.1,15.6c-0.1,4.7,0,9.6,0,14.3
			c0,4.6-0.4,9.1-0.4,13.4c0,2.8,0.4,5.3,0.4,8c0,7.3-0.5,14-0.4,21c0.1,6.3,0.9,12.5,1.1,19.2c0.2,7.8-0.4,16.3-0.4,25
			c0,20-0.1,38.1-0.2,59.8c0,3.8,0.2,7.5,0.2,11.2c0,3.8-0.4,7.7-0.5,11.5c0,0.6-0.1,1.2-0.1,1.9c-0.1,9.4,0.3,19.2-0.4,27.7
			c-0.2,2.9,0.2,7.1,0.4,11.2c0.3,9,0.1,18.7,0.2,28.6c0.1,4.7,0.3,9.4,0.2,14.3c-0.1,4.4-0.4,9-0.4,13.4c0,5.7,0.5,11.4,0.5,17.1
			c0,1.7-0.1,3.3-0.1,5c0,0.2,0,0.3,0,0.5h1.4C371.2,392.7,370.9,386.8,370.7,380.9z"/>
		<path class="st13" d="M83.7,385.9c-0.1-4.8-0.7-9.2-0.8-13.8c-0.2-19.7,0.6-38.9,0.3-58c-0.2-9.4,0-18.7,0-28.1c0-2.2,0-4.5,0-6.7
			c0-7.3-0.2-14.6-0.1-21.8c0-4.9,0.4-9.5,0.5-14.3c0.1-4.6-0.3-9.2-0.4-13.8c-0.1-5.6-0.1-11.5-0.1-17c0-6.3,0.7-12.8,0.6-19.2
			c0-5.2-0.2-10.3-0.3-15.5c-0.1-4.9,0-9.8,0-14.7c0-1.2,0-2.4,0-3.6c-0.1-7.9,0.2-9.1,0.1-15.2c-0.1-3.6-0.4-3.2-0.4-7.6
			c0-5.4,0.5-10.3,0.3-15.6c-0.1-3.2-0.5-6.4-0.6-9.8c-0.2-7.9,0.5-15.8,0.4-23.6c0-2.4-0.1-4.8-0.3-7.2h0c-0.1-1.6-0.1-3.3-0.2-4.9
			c-0.1-12.1,0.5-22.3,0.6-32.6c0-6.2-0.4-12.4-0.3-18.7c0.1-9.5,0.5-19.2,0.7-28.8h-1.7C81.9-1,82,2.5,82,6.3
			c0,7.7-0.6,15.4-0.6,23.2c0,6.7,0.3,13.3,0.3,20.1c0,6.5-0.5,13.2-0.4,19.6c0,3.6,0.2,7.4,0.4,11.1c0,1.5,0.1,3,0.1,4.5
			c0,8.8-0.6,17.6-0.4,26.3c0.1,4.9,0.8,10,0.8,14.7c0,2.3-0.5,7.7-0.5,11.2c0,2.5,0.4,9.4,0.4,11.2c0,6.9,0.1,13.9,0.1,20.8
			c0,7.2,0.1,14.4,0,21.6c0,7.2-0.1,14.4-0.2,21.6c0,3.8-0.1,7.6-0.1,11.3c0,6.4,0.3,12.7,0.3,18.7c0,8.7-0.4,18.7-0.4,28.1
			c0,3,0.3,6.2,0.2,8.9c0,0,0,0,0,0c0,2-0.5,4-0.5,5.8c0,1.6,0.5,3.2,0.6,4.9c0,1.2-0.3,2.7-0.3,4c-0.5,17.9,0.5,36,0.1,53.5
			c-0.1,6.2,0.3,12.1,0.3,17.8c0,2-0.3,3.9-0.3,5.8c-0.1,6.6,0.6,11.3,0.6,16.5c0,3.3-0.3,7-0.3,10.3c0,0.2,0,0.5,0,0.7h1.7
			C83.7,394.3,83.7,390.1,83.7,385.9z"/>
		<path class="st13" d="M71.6,357.3c-0.1-4.8,0.3-9.6,0.3-13.8c0-4.9-0.4-10.1-0.4-15.2c0-3.8,0.3-7.4,0.3-11.2
			c0-4.8-0.4-9.5-0.4-14.3c0-7.9,0.5-15.8,0.4-23.6c0,0,0,0,0,0c-0.3-19-0.4-36.8,0.1-54.8c0.2-7.3,0.5-17.1,0.4-22.3
			c0-5.2,0-10.6-0.1-16.5c0-3.9-0.3-7.8-0.3-11.7c0-3.7,0.1-7.4,0.1-11.1c0-1.9,0-3.8,0-5.7c-0.1-4.6-0.5-12.9-0.6-21
			c-0.2-8.6-0.1-16.3-0.1-21.9c-0.1-10-0.3-24.8-0.2-33.5c0-0.2,0-0.3,0-0.5l0,0c0.1-3,0.4-6,0.5-8.9c0.3-10.9-0.2-19.8-0.5-30.3
			C70.7,25.9,71.7,11,71.8-4c0-0.2,0-0.4,0-0.7h-1.5c0,1.6,0,3.1,0,4.7c0,4-0.4,7.9-0.5,12c-0.3,8.5-0.4,17.8-0.2,27.2
			c0.1,4.1,0.7,7.5,0.8,10.3c0.1,2.8-0.3,5.8-0.3,8.9c0,7.6-0.2,14.7-0.4,21.8c0,1.5,0,3-0.1,4.5c-0.1,12.6,0.3,25.4,0.2,37
			c0,2.1-0.3,4.2-0.3,6.2c0,2.9,0.3,6,0.4,9.8c0,2.6,0,5.4,0,8c0.1,2.9,0.3,5.3,0.4,8c0.2,5.7,0.3,11.4,0.2,17.1
			c0,4.1,0.2,8.2,0.2,12.3c0.1,10.9-0.1,25.7-0.2,36.1c0,4.9-0.4,9.1-0.5,12.9c-0.1,5.9,0.4,11.6,0.3,17c-0.1,2.8-0.5,5.4-0.5,8
			c0,4.7,0.4,9.5,0.4,14.3c0,2.5,0,5-0.1,7.5c-0.1,2.7-0.1,5.3-0.2,8.1c-0.3,19.7,0.4,39.4,0.3,57.1c0,4.6-0.4,8.9-0.3,13.4
			c0.1,3.1,0.5,6,0.6,8.9c0.2,5.8-0.1,12-0.3,17.8c-0.1,4.7,0,9.4,0,14.1h1.5C71.9,384,71.9,370.1,71.6,357.3z"/>
		<path class="st13" d="M60.1,369.8c0.3-11.3,0.3-22.7,0.3-33.9c-0.1-11.6,0.6-23.5,0.4-35.2c-0.1-6.9-0.1-14.4,0-21.5
			c0-5,0.1-9.7,0.1-13.8c-0.1-9.7-0.5-19.7-0.6-29.9c-0.2-13.6-0.3-27.8-0.3-40.2c0-4.7-0.4-9.3-0.4-13.8c0-3.7,0.3-7.4,0.4-11.1
			c0.2-11.5-0.4-23.9-0.1-37c0.1-2.9,0.4-5.6,0.5-7.6c0.3-9.2-0.7-21.1-0.5-31.2c0.1-2.3,0.4-4.7,0.3-6.7c0-2.5-0.4-5-0.5-7.6
			c0-0.6-0.1-1.2-0.1-1.8c0-3,0.3-6,0.3-8.9c0-4.9-0.4-9.5-0.4-14.3C59.4,45.8,59.8,35.7,60,25c0.1-5.1-0.2-10.5-0.1-15.6
			C60,4.8,60,0.1,60-4.7h-1.2c0.1,8.7,0.1,17.6-0.2,26.1c-0.2,6.4-0.2,13.6-0.3,21c-0.1,4.5-0.5,9-0.5,13.4c0,4,0.4,7.9,0.4,12
			c0,4.1-0.2,8.4-0.1,12.5c0,0,0,0,0,0c0,2.8,0.4,5.3,0.4,8c0.1,6.3-0.4,12.5-0.3,18.7c0.1,4.7,0.8,9.6,0.8,14.3
			c0,5.1-0.6,10.8-0.7,16.5c-0.1,8.5-0.1,17.8,0.1,25c0.1,3.2,0,6.2-0.1,9.5c-0.2,3.2-0.4,6.5-0.4,9.7c0,3.1,0.3,5.2,0.4,8.5
			c0.1,3.9-0.2,8-0.1,12c0,5.9,0.6,12.4,0.6,18.7c0,6.7-0.2,13.3,0.1,19.6c0.1,3.8,0.7,7.5,0.8,11.2c0,1.6-0.3,3.3-0.3,4.9
			c0,4.5,0.6,7.8,0.6,11.6c0,3.3-0.3,7.1-0.3,10.7c0,0.3,0,0.6,0,0.9c0,1.2-0.2,2-0.2,3.1c-0.3,14.3,0.1,26.4-0.2,39.3
			c-0.3,9.4,0.3,21-0.1,27.7c-0.4,6.3-0.2,15.5-0.3,22.3c-0.1,2.9-0.3,6.1-0.3,8.9c0,2.2,0.4,4.5,0.4,6.7c0,3.5,0.1,7,0.1,10.5H60
			C60,389.1,59.9,379.5,60.1,369.8z"/>
		<path class="st13" d="M49.2,368.5c0.1-4.4,0.6-9,0.7-13.4c0-3.9-0.5-7.7-0.6-11.6c-0.3-9.3,0-18.9-0.1-28.6
			c-0.2-9.9-0.3-19.9-0.3-29.9c0-1.9,0.1-3.9,0.1-5.8c0.1-3.5,0.3-7.1,0.3-10.7c0.1-5.5,0-12.8-0.1-17c0-4.8-0.1-9.6-0.1-14.4
			c-0.1-5-0.1-10.1-0.2-15.1c-0.1-5.2-0.1-10.3-0.2-15.5c-0.1-5.3-0.1-10.6-0.1-15.9c0-5.3-0.1-10.6-0.1-15.9c0-3.7,0-7.4-0.1-11.1
			c0-4.5-0.1-9-0.1-13.5c0-2.2-0.1-4.3-0.1-6.5c-0.1-3.5,0.1-6.8,0-10.3c-0.1-4.1-0.8-11-0.8-14.7c0.1-7.6,0.7-16,0.8-24.5
			c0.1-4.6,0.3-9.3,0.5-13.8c0.2-3.9,0.3-7.8,0.3-11.6c0.1-12.8-0.1-25.8-0.2-37.5c0-3.8,0.3-7.8,0.3-11.6c0-7.2-0.7-14.1-0.4-20.5
			c0.1-1.5,0.1-2.7,0.2-3.8h-1.3c-0.1,1.7-0.3,3.4-0.3,4.7c-0.2,6.1,0.4,11.3,0.2,15.6c-0.1,2.2-0.1,6.2-0.1,8.9
			c0,7,0.4,16.4,0.3,22.8c0,0.8-0.3,1.8-0.4,2.7c-0.1,7,0.3,14,0.3,20.5c0,3.3-0.3,6.5-0.5,9.8c-0.1,1-0.1,2.1-0.2,3.1
			c-0.3,6.3-0.3,13.3-0.5,20.1c-0.1,7.2-0.7,14.4-0.5,20.5c0.2,4.3,0.7,9.6,0.8,15.6c0.1,5.1,0.1,10.1,0.1,15.2c0,4.7,0,9.4,0,14.1
			c0,6.1,0.2,12.2,0.3,18.3c0,5.3-0.2,10.7-0.1,16.1c0.1,5.1,0.4,9.9,0.6,15.2c0.3,8.5-0.2,17-0.1,25c0.1,3.7,0.4,7.6,0.4,11.2
			c0,2.4-0.3,4.8-0.3,7.6c0,3.8,0.2,7.9,0,12c0,1.6-0.1,3.2-0.2,4.9c-0.1,2.7-0.3,5.5-0.3,8.1c0,4.1,0.4,8.4,0.4,12.5
			c0.1,4.3-0.2,8.4-0.1,12.5c0.1,5.8,0.6,11.4,0.6,17.4c0,1.8-0.4,3.9-0.3,5.8c0,2.8,0.4,5.5,0.4,8.5c0,1.4,0,2.9,0,4.5
			c0.1,1.3,0.4,2.7,0.4,4c0,1.8-0.3,3.8-0.3,5.8c-0.2,6.7-0.6,12.5-0.6,18.7c0,5,0.6,11.2,0.4,16.1c0,1.8-0.2,3.7-0.4,5.6H49
			c0.3-3.2,0.6-5.3,0.6-8.3C49.7,383.2,49,375.9,49.2,368.5z"/>
		<path class="st13" d="M37.5,386.7c-0.1-6.4-0.7-12.5-0.7-18.7c-0.1-8.8,0.4-17.9,0.4-26.8c0-6.3-0.4-13.4-0.4-21
			c0.1-7.4-0.2-14.3-0.2-21c0-7,0.3-13.6,0.4-20.1c0-0.3,0-0.6,0-0.8c0.1-15.5,0-32.7,0-49.5c0-9.3,0-20.1-0.2-31.7
			c0-3.1-0.1-6.1-0.1-9.2c0-4.4-0.1-25.9-0.1-28.4c0-2.8,0-5.6,0-8.3c0-7.4,0.5-15.1,0.4-22.8c-0.1-7.7-0.5-15.4-0.4-22.8
			c0.1-6.9,0.6-13.7,0.5-20.1c0-1.8-0.1-3.6-0.2-5.4l0,0c-0.1-2-0.2-3.9-0.2-5.8c0.1-5.2,0.8-15.9,0.7-20.1
			c-0.1-11.9-0.1-23.7-0.2-35.7c-0.1-7.8,0.1-15.7,0.2-23.4h-1.6c-0.1,1.6-0.2,3.1-0.2,4.7c-0.2,14.9,0.2,30.9,0.2,45.1
			c0,5.2,0.4,10.4,0.4,15.2c-0.1,4.4-0.9,11.2-0.9,15.6c0,1.4,0.1,2.9,0.3,4.4c0.1,1.3,0.2,2.7,0.3,4c0.3,9.3-0.8,20.2-0.5,29
			c0.1,1.6,0,3.3,0,4.9c0.1,7,0.4,13.9,0.4,20.5c0,3.6-0.4,7.4-0.4,11.2c0,3.2,0.1,6.4,0.1,9.6c0.1,4.1,0,8.1-0.1,12.2
			c-0.1,4-0.2,8-0.2,12c0.1,8.6,0.5,16.5,0.5,25c0.1,8.7,0.3,18.2,0.2,25.9c-0.1,3.3-0.3,6.4-0.4,9.8c-0.1,10.2,0.2,20.9,0.2,31.2
			c0,1.2,0,2.3,0,3.5c-0.1,6-0.5,12.2-0.5,18.8c0,7.4,0.2,15.5,0.2,23.6c0,7.9,0.4,15.7,0.4,23.2c-0.1,8.4-0.5,16.5-0.4,24.1
			c0.1,6.5,0.8,14.2,0.9,20.5c0,3-0.2,6.1-0.4,9.2h1.6C37.6,394.6,37.6,390.7,37.5,386.7z"/>
		<path class="st13" d="M24.6,392.6c0.2-6.9,0.8-13.7,0.9-20.5c0-9.2-0.4-18.3-0.3-27.2c0.2-9.6,0.8-19.1,0.8-28.6
			c0-2.6-0.2-5-0.2-7.6c0.1-5.2,0.7-10.4,0.9-15.6c0.1-4.6-0.3-9.3-0.4-13.9c0-0.6,0-1.2,0-1.7c0-4.2,0.2-8.6,0.2-11.2
			c-0.3-8.4-0.5-17.1-0.4-25.4c0.1-8,0.1-15.9,0.1-24.1c0-10.9-0.6-21.8-0.8-32.6c-0.1-5.2-0.2-10.3-0.3-15.5
			c-0.1-5.2-0.2-10.3-0.3-15.5c-0.1-3-0.1-6-0.1-9.1c0-6.5,0.2-13.4,0.1-18.3c-0.1-11.1,0.6-23.6,0.5-34.4
			c-0.1-3.8-0.4-7.5-0.5-11.2c0-0.7-0.1-1.5-0.1-2.2c-0.1-4.5,0.5-9.1,0.5-13.4c0-3.2-0.5-6.1-0.6-8.9c-0.2-15.4,0-30.8,0.1-45.5
			c0-5-0.1-10-0.1-14.9h-1.4c0,4,0.1,8.2,0.1,12.7c0,4-0.3,8.2-0.3,12c0,4.1,0.5,8.2,0.6,12.5c0,2.6-0.3,5.3-0.3,8
			c0,2.6,0.2,5.3,0.2,8c0.1,10,0,20.7,0.2,31.7h0c0,0.5,0,0.9,0,1.4c0.5,20.8-0.1,43-0.2,63.4c0,8.1,0.3,16.2,0.3,24.2
			c0,3.5,0.1,7,0.2,10.5c0.1,3.6-0.1,7.6,0,11.6c0.2,6.7,0.6,13.8,0.8,21c0.2,8.1-0.1,16.5-0.1,25c0,8.7,0.1,17.4,0.2,25.4
			c0.1,3.3,0.4,6.3,0.4,9.4c0,2.3-0.2,4.8-0.3,7.1c0,0.3,0,0.6,0,0.9c0,3.1,0.4,6.4,0.4,9.4c0,6.8-0.7,13.1-0.9,19.2
			c-0.1,3.8,0.4,7.2,0.4,9.8c0,0.7-0.3,1.7-0.4,2.7c-0.2,3.9-0.2,7-0.3,10.3c-0.2,8.1,0,15.8-0.1,22.3c0,2.5-0.4,5.2-0.3,7.6
			c0,3.2,0.5,6.1,0.6,8.9c0,4.3-0.4,9.3-0.7,13.8c-0.3,4.9-0.4,9.6-0.3,14.5h1.4C24.6,396.6,24.6,394.6,24.6,392.6z"/>
		<path class="st13" d="M94.3,383.6c0.4-16.5,0.7-32.8,0.5-49.1c-0.1-8.1,0.1-16.1-0.1-24.1c-0.2-8.2-0.3-16.4-0.3-24.5
			c0-2.3,0-4.5,0-6.7c0.1-14.4,0.1-28.6,0-42.8c-0.2-16.8,0.5-33.2,0.9-49.5c0.1-3.5-0.1-6.9-0.2-10.4c-0.2-4.3-0.5-8.5-0.7-12.8
			c-0.2-4.6-0.5-9.6-0.4-14.3c0.2-11.2,0.3-22.7,0.8-34.4c0.5-11.4,0.1-23,0.1-34.8c0-0.4,0-0.9,0-1.3c-0.1-11.7,0.3-23.4,0-35.2
			c-0.2-12.3,0.1-24.4,0-36.6c0-3.9-0.2-7.9-0.4-11.8h-1.3c0.1,1.3,0.2,2.6,0.2,3.8C93.6,11.9,93,24.8,93,37.5
			c0,6.1,0.3,12.2,0.4,18.3c0.1,8.1,0.1,16.3,0.1,24.5c0,4.3-0.1,8.7-0.1,13c-0.1,6.4,0.2,12.6,0.1,18.7
			c-0.3,14.7-1.2,29.3-0.9,43.7c0.1,5.3,0.6,10.5,0.9,15.8c0.3,5.8,0.3,11.7,0.3,17.5c0,1.7,0,3.3-0.1,5c-0.2,7.7-0.8,15.1-0.8,22.8
			c-0.1,15.3,0.3,30.9,0.4,46.4c0,5.3-0.2,10.7-0.3,16c-0.1,2.7-0.1,5.4-0.1,8.1c-0.1,26.1,1.3,54.9,0.5,80.3
			c-0.1,3.6-0.2,7.4-0.3,11.2c-0.1,3.7-0.3,7.7-0.3,11.2c0,2.9,0.3,5.8,0.6,8.7h1.3C94.4,393.6,94.2,388.6,94.3,383.6z"/>
		<path class="st13" d="M14,373.4c0.4-18.5-0.1-38.6,0.2-55.3c0.2-10.4,0.1-18.2,0-27.7c0-3.8-0.1-7.5-0.1-11.2
			c-0.1-14.5-0.2-28,0.1-41.9c0.2-8,0.7-16.8,0.2-22.8c-0.4-4.3,0-9.4-0.2-14.3c-0.1-3.4-0.5-6.6-0.5-9.8c-0.2-6.2,0-12.5,0-18.7
			c0-4.9,0-9.8-0.1-14.7c0-2.4,0-4.8-0.1-7.1c-0.2-5.7,0.3-11.7,0.4-17.4c0.2-8.8,0-18.2,0-27.7c0-8.1-0.2-16.3-0.2-24.6
			c0-1.3,0-2.7,0-4c0-8.8,0.4-17.8,0.4-26.8c0-13.2-0.5-26.4-0.4-39.7c0.1-4.9-0.1-9.7-0.1-14.5h-1.5c0.1,7.1,0.3,14.1,0.3,21.2
			c0,3.4-0.3,6.9-0.4,10.3C12,38,12.3,49.4,12.6,60.7c0.2,6.5,0.2,13.1,0.2,19.6c0,12.9-0.2,25.7-0.2,38.4c0,3.2,0.4,6.2,0.4,9.4
			c0,2.5-0.4,5.2-0.5,8c-0.3,6.8-0.5,8.8-0.1,14.4c0.2,3.5,0.2,7.7,0.2,11.4c-0.1,4.3-0.1,8.6-0.2,12.8c0,3-0.1,5.9-0.2,8.9
			c-0.1,2-0.1,4,0,6c0.1,3.4,0.4,6.9,0.5,10.3c0.1,3.1-0.1,6,0,8.9c0.1,4.1,0.5,7.8,0.5,11.6c0.3,15.6-0.8,32-0.5,49.1
			c0.1,3.8,0.3,7,0.3,9.8c0,0.3,0,0.6,0,0.9c0.1,3.5-0.4,7.2-0.4,10.7c0,3.4,0.5,6.8,0.5,10.3c0.1,6.5-0.4,13.6-0.5,20.5
			c-0.3,16.8,0.2,36.4-0.2,53.1c-0.1,3.6,0.1,6.9,0,10.3c-0.1,2.5-0.3,5.1-0.4,7.6c0,2,0,4,0,6h1.5c0-1.8,0-3.7,0-5.6
			C13.5,386.5,13.9,380,14,373.4z"/>
		<path class="st13" d="M3,328.3c0.3-7.5,0.4-17.2,0.2-22.8c-0.2-4.3-0.5-6.3-0.5-9.8c-0.1-5.1,0.4-10.9,0.5-16.6c0-1.2,0-2.4,0-3.5
			c0-2-0.3-4.3-0.4-6.7c-0.1-7.9-0.3-15.6-0.5-21.9c-0.2-5.9,0.3-12.3,0.4-19.2c0.2-14.7-0.4-26.8-0.2-41c0-2.5,0.1-5,0.1-7.6
			c0.1-4-0.3-8.1-0.3-12.1c-0.1-4.2-0.1-8.4-0.2-12.5c0-2.4-0.1-4.7-0.1-7.1c0-2.6-0.1-5.3-0.1-7.9c0-5.2,0.3-10.5,0.2-15.6
			c-0.1-5.2-0.4-10.3-0.4-15.2C1.8,99,2.4,89.6,2.5,80.3l0,0c0-1.2,0-2.4,0-3.5c-0.1-7.5-0.2-14.9-0.2-22.3c0-7,0.1-14.3,0-21.4
			c-0.1-2.7-0.4-5.3-0.4-8c0-4.3,0.3-8.5,0.2-12.9C2,9.7,1.7,7.8,1.7,5.4c0-2.6,0.3-5.4,0.4-8c0-0.7,0-1.3,0-2H0.4
			C0.3-1.4,0.2,1.8,0.3,4.9c0,1.9,0.3,3.9,0.4,5.8c0.1,5.7-0.3,11.3-0.2,17C0.5,30.6,1,33.6,1,36.6c0,7.2-0.4,14.5-0.2,20.1
			c0.1,2.1,0.3,4.2,0.4,6.2c0.1,5.9,0,11.8-0.2,17.4l0,0c-0.1,5.1-0.2,10-0.2,14.7c0,1.8,0.4,3.6,0.4,5.4c0,0.9-0.3,2.2-0.4,3.1
			c-0.7,9.7,0.1,20.7,0.2,30.8c0,3.8-0.2,7.5-0.2,11.2c0,1.4-0.1,4.2-0.1,6.2c0,2,0.1,3.2,0.1,6.3c0,4.5,0.1,9,0.1,13.5
			c0.1,6-0.1,12.1-0.1,18.1c0,4.9,0.4,9.9,0.4,15.2c0,12.6-0.7,25.7-0.5,38.4c0.2,12.6,1,25,0.9,36.1c0,0.5,0,0.9,0,1.4
			c-0.1,6.6-0.7,13-0.4,19.6c0.2,4,0.9,7.9,0.9,12.1c0.1,5.3-0.5,10.3-0.7,15.6c-0.3,5.4-0.1,11.2-0.2,17c-0.1,6-0.5,11.9-0.5,17.8
			c-0.1,6.7,0.3,13.7,0.2,20.5c-0.1,5.1-0.3,10.3-0.4,15.4h1.7c0.1-7.7,0.1-15.5,0.1-23.4C2.3,359.7,2.4,344,3,328.3z"/>
		<path class="st13" d="M117.7,372.9c-0.1-6.6-0.5-13.2-0.5-19.6c0-6.8,0.3-13.3,0.2-20.1c-0.1-13.3,0.3-26.5,0.4-39.7
			c0-4.8-0.1-9.6-0.2-14.3c-0.1-4.2-0.2-8.3-0.2-12.4c0-9.5,0.2-19.2,0.2-28.6c0-9.5,0.2-18.8,0-27.7c-0.1-5.7-0.5-11.7-0.4-17.4
			c0.1-3.4,0.1-7.1,0.2-10.9c0-2.4,0-13,0-15.9c0.1-4.6-0.1-9.3,0-13.8c0.1-3.2,0.5-6.4,0.5-9.8c0.1-4.9-0.2-10,0.2-14.3
			c0.5-5.9,0-14.8-0.2-22.8c-0.2-8.5-0.2-16.9-0.2-25.4c0-8.9,0.1-18,0.2-27.6c0.1-9.5,0.2-17.3,0-27.7c-0.2-9.2-0.1-19.3,0-29.7
			h-1.6c0,8.9-0.1,17.8,0,26.1c0.1,6.9,0.6,14,0.5,20.5c0,3.5-0.5,6.8-0.5,10.3c0,3.6,0.4,7.2,0.4,10.7c0,2.9-0.3,6.5-0.4,10.7
			c0,2.2,0,4.5,0,6.7c0.1,14.7,0.8,28.8,0.6,42.4c-0.1,3.8-0.4,7.5-0.5,11.6c-0.1,2.9,0.1,5.9,0,8.9c-0.1,3.4-0.4,6.8-0.5,10.3
			c-0.1,4.4,0,9.1,0,13.7c0,1.7,0.2,11.8,0.3,13.9c0.1,6.8-0.5,13.5-0.2,20.3c0.1,1.9,0.2,3.7,0.3,5.6c0.1,2.8,0.5,5.5,0.5,8
			c0,3.1-0.4,6.2-0.4,9.4c0,18.1,0.4,36.5,0.1,54.8c0,1.1,0,2.1-0.1,3.2c-0.3,11.2-0.6,22.7-0.5,33.9c0,3.4,0.4,6.9,0.4,10.3
			c0,9-0.4,18-0.4,27.2c0,2.5,0.3,5.1,0.4,7.6c0.1,3.4-0.1,6.7,0,10.3c0.2,8.5,0.2,17.7,0.1,27h1.6
			C117.9,390,117.9,381.3,117.7,372.9z"/>
		<path class="st13" d="M325.6,385.9c-0.1-4.8-0.7-9.2-0.8-13.8c-0.2-19.7,0.6-38.9,0.3-58c-0.2-9.4,0-18.7,0-28.1
			c0-2.2,0-4.5,0-6.7c0-7.3-0.2-14.6-0.1-21.8c0-4.9,0.4-9.5,0.5-14.3c0.1-4.6-0.3-9.2-0.4-13.8c-0.1-5.6-0.1-11.5-0.1-17
			c0-6.3,0.7-12.8,0.6-19.2c0-5.2-0.2-10.3-0.3-15.5c-0.1-4.9,0-9.8,0-14.7c0-1.2,0-2.4,0-3.6c-0.1-7.9,0.2-9.1,0.1-15.2
			c-0.1-3.6-0.4-3.2-0.4-7.6c0-5.4,0.5-10.3,0.3-15.6c-0.1-3.2-0.5-6.4-0.6-9.8c-0.2-7.9,0.5-15.8,0.4-23.6c0-2.4-0.1-4.8-0.3-7.2h0
			c-0.1-1.6-0.1-3.3-0.2-4.9c-0.1-12.1,0.6-22.3,0.6-32.6c0-6.2-0.4-12.4-0.3-18.7c0.1-9.5,0.5-19.2,0.7-28.8h-1.7
			c0,3.7,0.1,7.2,0.1,10.9c0,7.7-0.6,15.4-0.6,23.2c0,6.7,0.3,13.3,0.3,20.1c0,6.5-0.5,13.2-0.4,19.6c0,3.6,0.2,7.4,0.4,11.1
			c0,1.5,0.1,3,0.1,4.5c0,8.8-0.6,17.6-0.4,26.3c0.1,4.9,0.8,10,0.8,14.7c0,2.3-0.5,7.7-0.5,11.2c0,2.5,0.4,9.4,0.4,11.2
			c0,6.9,0.1,13.9,0.1,20.8c0,7.2,0.1,14.4,0,21.6c0,7.2-0.1,14.4-0.2,21.6c0,3.8-0.1,7.6-0.1,11.3c0,6.4,0.3,12.7,0.3,18.7
			c0,8.7-0.4,18.7-0.4,28.1c0,3,0.3,6.2,0.2,8.9c0,0,0,0,0,0c0,2-0.5,4-0.5,5.8c0,1.6,0.5,3.2,0.6,4.9c0,1.2-0.3,2.7-0.3,4
			c-0.5,17.9,0.5,36,0.1,53.5c-0.1,6.2,0.3,12.1,0.3,17.8c0,2-0.3,3.9-0.3,5.8c-0.1,6.6,0.6,11.3,0.6,16.5c0,3.3-0.3,7-0.3,10.3
			c0,0.2,0,0.5,0,0.7h1.7C325.7,394.3,325.7,390.1,325.6,385.9z"/>
		<path class="st13" d="M313.5,357.3c-0.1-4.8,0.3-9.6,0.3-13.8c0-4.9-0.4-10.1-0.4-15.2c0-3.8,0.3-7.4,0.3-11.2
			c0-4.8-0.4-9.5-0.4-14.3c0-7.9,0.5-15.8,0.4-23.6c0,0,0,0,0,0c-0.3-19-0.4-36.8,0.1-54.8c0.2-7.3,0.5-17.1,0.4-22.3
			c0-5.2,0-10.6-0.1-16.5c0-3.9-0.3-7.8-0.3-11.7c0-3.7,0.1-7.4,0.1-11.1c0-1.9,0-3.8,0-5.7c-0.1-4.6-0.5-12.9-0.6-21
			c-0.2-8.6-0.1-16.3-0.1-21.9c-0.1-10-0.3-24.8-0.2-33.5c0-0.2,0-0.3,0-0.5c0.1-3,0.4-6,0.5-8.9c0.3-10.9-0.2-19.8-0.5-30.3
			c-0.4-15.2,0.6-30.1,0.7-45.1c0-0.2,0-0.4,0-0.7h-1.5c0,1.6,0,3.1,0,4.7c0,4-0.4,7.9-0.5,12c-0.3,8.5-0.4,17.8-0.2,27.2
			c0.1,4.1,0.7,7.5,0.8,10.3c0.1,2.8-0.3,5.8-0.3,8.9c0,7.6-0.2,14.7-0.4,21.8c0,1.5,0,3-0.1,4.5c-0.1,12.6,0.4,25.4,0.2,37
			c0,2.1-0.3,4.2-0.3,6.2c0,2.9,0.3,6,0.4,9.8c0,2.6,0,5.4,0,8c0.1,2.9,0.3,5.3,0.4,8c0.2,5.7,0.3,11.4,0.2,17.1
			c0,4.1,0.2,8.2,0.2,12.3c0.1,10.9-0.1,25.7-0.2,36.1c0,4.9-0.4,9.1-0.5,12.9c-0.1,5.9,0.4,11.6,0.3,17c-0.1,2.8-0.5,5.4-0.5,8
			c0,4.7,0.4,9.5,0.4,14.3c0,2.5,0,5-0.1,7.5c-0.1,2.7-0.1,5.3-0.2,8.1c-0.3,19.7,0.4,39.4,0.3,57.1c0,4.6-0.4,8.9-0.3,13.4
			c0.1,3.1,0.5,6,0.6,8.9c0.2,5.8-0.1,12-0.3,17.8c-0.1,4.7,0,9.4,0,14.1h1.5C313.8,384,313.9,370.1,313.5,357.3z"/>
		<path class="st13" d="M302.1,369.8c0.3-11.3,0.3-22.7,0.3-33.9c-0.1-11.6,0.6-23.5,0.4-35.2c-0.1-6.9-0.1-14.4,0-21.5
			c0-5,0.1-9.7,0.1-13.8c-0.1-9.7-0.5-19.7-0.6-29.9c-0.2-13.6-0.3-27.8-0.3-40.2c0-4.7-0.4-9.3-0.4-13.8c0-3.7,0.3-7.4,0.4-11.1
			c0.2-11.5-0.4-23.9-0.1-37c0.1-2.9,0.4-5.6,0.5-7.6c0.3-9.2-0.7-21.1-0.5-31.2c0.1-2.3,0.4-4.7,0.3-6.7c0-2.5-0.4-5-0.5-7.6h0
			c0-0.6-0.1-1.2-0.1-1.8c0-3,0.3-6,0.3-8.9c0-4.9-0.4-9.5-0.4-14.3c-0.1-9.5,0.3-19.7,0.4-30.3c0.1-5.1-0.2-10.5-0.1-15.6
			c0.1-4.6,0.1-9.3,0.1-14h-1.2c0.1,8.7,0.1,17.6-0.2,26.1c-0.2,6.4-0.2,13.6-0.3,21c-0.1,4.5-0.5,9-0.5,13.4c0,4,0.4,7.9,0.4,12
			c0,4.1-0.2,8.4-0.1,12.5c0,0,0,0,0,0c0,2.8,0.4,5.3,0.4,8c0.1,6.3-0.4,12.5-0.3,18.7c0.1,4.7,0.8,9.6,0.8,14.3
			c0,5.1-0.6,10.8-0.7,16.5c-0.1,8.5-0.1,17.8,0.1,25c0.1,3.2,0,6.2-0.1,9.5c-0.2,3.2-0.4,6.5-0.4,9.7c0,3.1,0.3,5.2,0.4,8.5
			c0.1,3.9-0.2,8-0.1,12c0,5.9,0.6,12.4,0.6,18.7c0,6.7-0.2,13.3,0.1,19.6c0.1,3.8,0.7,7.5,0.8,11.2c0,1.6-0.3,3.3-0.3,4.9
			c0,4.5,0.6,7.8,0.6,11.6c0,3.3-0.3,7.1-0.3,10.7c0,0.3,0,0.6,0,0.9c0,1.2-0.1,2-0.2,3.1c-0.3,14.3,0.1,26.4-0.2,39.3
			c-0.3,9.4,0.3,21-0.1,27.7c-0.4,6.3-0.2,15.5-0.3,22.3c-0.1,2.9-0.3,6.1-0.3,8.9c0,2.2,0.4,4.5,0.4,6.7c0,3.5,0.1,7,0.1,10.5h1.2
			C301.9,389.1,301.8,379.5,302.1,369.8z"/>
		<path class="st13" d="M291.1,368.5c0.1-4.4,0.6-9,0.7-13.4c0-3.9-0.5-7.7-0.6-11.6c-0.3-9.3,0-18.9-0.1-28.6
			c-0.2-9.9-0.3-19.9-0.3-29.9c0-1.9,0.1-3.9,0.1-5.8c0.1-3.5,0.3-7.1,0.3-10.7c0.1-5.5,0-12.8-0.1-17c0-4.8-0.1-9.6-0.1-14.4
			c-0.1-5-0.1-10.1-0.2-15.1c-0.1-5.2-0.1-10.3-0.2-15.5c-0.1-5.3-0.1-10.6-0.1-15.9c0-5.3-0.1-10.6-0.1-15.9c0-3.7,0-7.4-0.1-11.1
			c0-4.5-0.1-9-0.1-13.5c0-2.2-0.1-4.3-0.1-6.5c-0.1-3.5,0.1-6.8,0-10.3c-0.1-4.1-0.8-11-0.8-14.7c0-7.6,0.7-16,0.8-24.5
			c0.1-4.6,0.3-9.3,0.5-13.8c0.2-3.9,0.3-7.8,0.3-11.6c0.1-12.8-0.1-25.8-0.2-37.5c0-3.8,0.3-7.8,0.3-11.6c0-7.2-0.7-14.1-0.4-20.5
			c0.1-1.5,0.1-2.7,0.2-3.8h-1.3c-0.1,1.7-0.3,3.4-0.3,4.7c-0.2,6.1,0.4,11.3,0.2,15.6c-0.1,2.2-0.1,6.2-0.1,8.9
			c0,7,0.4,16.4,0.3,22.8c0,0.8-0.3,1.8-0.4,2.7c-0.1,7,0.3,14,0.3,20.5c0,3.3-0.3,6.5-0.5,9.8c-0.1,1-0.1,2.1-0.2,3.1
			c-0.3,6.3-0.3,13.3-0.5,20.1c-0.1,7.2-0.7,14.4-0.5,20.5c0.2,4.3,0.7,9.6,0.8,15.6c0.1,5.1,0.1,10.1,0.1,15.2c0,4.7,0,9.4,0,14.1
			c0,6.1,0.2,12.2,0.3,18.3c0,5.3-0.2,10.7-0.1,16.1c0.1,5.1,0.4,9.9,0.6,15.2c0.3,8.5-0.2,17-0.1,25c0.1,3.7,0.4,7.6,0.4,11.2
			c0,2.4-0.3,4.8-0.3,7.6c0,3.8,0.1,7.9,0,12c0,1.6-0.1,3.2-0.2,4.9c-0.1,2.7-0.3,5.5-0.3,8.1c0,4.1,0.4,8.4,0.4,12.5
			c0.1,4.3-0.2,8.4-0.1,12.5c0.1,5.8,0.6,11.4,0.6,17.4c0,1.8-0.4,3.9-0.3,5.8c0,2.8,0.4,5.5,0.4,8.5c0,1.4,0,2.9,0,4.5
			c0.1,1.3,0.4,2.7,0.4,4c0,1.8-0.3,3.8-0.3,5.8c-0.2,6.7-0.6,12.5-0.6,18.7c0,5,0.6,11.2,0.4,16.1c0,1.8-0.2,3.7-0.4,5.6h1.3
			c0.3-3.2,0.6-5.3,0.6-8.3C291.6,383.2,290.9,375.9,291.1,368.5z"/>
		<path class="st13" d="M279.5,386.7c-0.1-6.4-0.7-12.5-0.7-18.7c-0.1-8.8,0.4-17.9,0.4-26.8c0-6.3-0.4-13.4-0.4-21
			c0.1-7.4-0.2-14.3-0.2-21c0-7,0.3-13.6,0.4-20.1c0-0.3,0-0.6,0-0.8c0.1-15.5,0-32.7,0-49.5c0-9.3,0-20.1-0.2-31.7
			c0-3.1-0.1-6.1-0.1-9.2c0-4.4-0.1-25.9-0.1-28.4c0-2.8,0-5.6,0-8.3c0-7.4,0.5-15.1,0.4-22.8c-0.1-7.7-0.5-15.4-0.4-22.8
			c0.1-6.9,0.6-13.7,0.5-20.1c0-1.8-0.1-3.6-0.2-5.4c-0.1-2-0.2-3.9-0.2-5.8c0.1-5.2,0.8-15.9,0.7-20.1c-0.1-11.9-0.1-23.7-0.2-35.7
			c-0.1-7.8,0.1-15.7,0.2-23.4h-1.6c-0.1,1.6-0.2,3.1-0.2,4.7c-0.2,14.9,0.1,30.9,0.2,45.1c0,5.2,0.5,10.4,0.4,15.2
			c-0.1,4.4-0.9,11.2-0.9,15.6c0,1.4,0.1,2.9,0.3,4.4l0,0c0.1,1.3,0.2,2.7,0.3,4c0.3,9.3-0.8,20.2-0.5,29c0.1,1.6,0,3.3,0,4.9
			c0.1,7,0.4,13.9,0.4,20.5c0,3.6-0.4,7.4-0.4,11.2c0,3.2,0.1,6.4,0.1,9.6c0.1,4.1,0,8.1-0.1,12.2c-0.1,4-0.2,8-0.2,12
			c0.1,8.6,0.5,16.5,0.5,25c0.1,8.7,0.3,18.2,0.2,25.9c-0.1,3.3-0.3,6.4-0.4,9.8c-0.1,10.2,0.2,20.9,0.2,31.2c0,1.2,0,2.3,0,3.5
			c-0.1,6-0.5,12.2-0.5,18.8c0,7.4,0.2,15.5,0.2,23.6c0,7.9,0.4,15.7,0.4,23.2c-0.1,8.4-0.5,16.5-0.4,24.1
			c0.1,6.5,0.8,14.2,0.9,20.5c0,3-0.2,6.1-0.4,9.2h1.6C279.5,394.6,279.5,390.7,279.5,386.7z"/>
		<path class="st13" d="M266.6,392.6c0.2-6.9,0.8-13.7,0.9-20.5c0-9.2-0.4-18.3-0.3-27.2c0.2-9.6,0.8-19.1,0.8-28.6
			c0-2.6-0.2-5-0.2-7.6c0.1-5.2,0.7-10.4,0.9-15.6c0.1-4.6-0.3-9.3-0.4-13.9c0-0.6,0-1.2,0-1.7c0-4.2,0.2-8.6,0.2-11.2
			c-0.3-8.4-0.5-17.1-0.4-25.4c0.1-8,0.1-15.9,0.1-24.1c0-10.9-0.6-21.8-0.8-32.6c-0.1-5.2-0.2-10.3-0.3-15.5
			c-0.1-5.2-0.2-10.3-0.3-15.5c-0.1-3-0.1-6-0.1-9.1c0-6.5,0.2-13.4,0.1-18.3c-0.1-11.1,0.6-23.6,0.5-34.4
			c-0.1-3.8-0.4-7.5-0.5-11.2h0c0-0.7-0.1-1.5-0.1-2.2c-0.1-4.5,0.5-9.1,0.5-13.4c0-3.2-0.5-6.1-0.6-8.9c-0.2-15.4,0-30.8,0.1-45.5
			c0-5-0.1-10-0.1-14.9h-1.4c0,4,0.1,8.2,0.1,12.7c0,4-0.3,8.2-0.3,12c0,4.1,0.5,8.2,0.6,12.5c0,2.6-0.3,5.3-0.3,8
			c0,2.6,0.2,5.3,0.2,8c0.1,10,0,20.7,0.2,31.7c0,0.5,0,0.9,0,1.4c0.4,20.8-0.1,43-0.2,63.4c0,8.1,0.3,16.2,0.3,24.2
			c0,3.5,0.1,7,0.2,10.5c0.1,3.6-0.1,7.6,0,11.6c0.2,6.7,0.6,13.8,0.8,21c0.2,8.1-0.1,16.5-0.1,25c0,8.7,0.1,17.4,0.2,25.4
			c0.1,3.3,0.4,6.3,0.4,9.4c0,2.3-0.2,4.8-0.3,7.1c0,0.3,0,0.6,0,0.9c0,3.1,0.4,6.4,0.4,9.4c0,6.8-0.7,13.1-0.9,19.2
			c-0.1,3.8,0.4,7.2,0.4,9.8c0,0.7-0.3,1.7-0.4,2.7c-0.2,3.9-0.2,7-0.3,10.3c-0.2,8.1,0,15.8-0.1,22.3c0,2.5-0.4,5.2-0.3,7.6
			c0,3.2,0.5,6.1,0.6,8.9c0,4.3-0.4,9.3-0.7,13.8c-0.3,4.9-0.4,9.6-0.3,14.5h1.4C266.5,396.6,266.5,394.6,266.6,392.6z"/>
		<path class="st13" d="M336.2,383.6c0.4-16.5,0.7-32.8,0.5-49.1c-0.1-8.1,0.1-16.1-0.1-24.1c-0.2-8.2-0.3-16.4-0.3-24.5
			c0-2.3,0-4.5,0-6.7c0.1-14.4,0.1-28.6,0-42.8c-0.2-16.8,0.5-33.2,0.9-49.5c0.1-3.5-0.1-6.9-0.2-10.4c-0.2-4.3-0.5-8.5-0.7-12.8
			c-0.2-4.6-0.5-9.6-0.4-14.3c0.2-11.2,0.3-22.7,0.8-34.4c0.5-11.4,0.1-23,0.1-34.8c0-0.4,0-0.9,0-1.3c-0.1-11.7,0.3-23.4,0-35.2
			c-0.2-12.3,0.1-24.4,0-36.6c0-3.9-0.2-7.9-0.3-11.8h-1.3c0.1,1.3,0.2,2.6,0.2,3.8c0.2,12.8-0.5,25.6-0.4,38.4
			c0,6.1,0.3,12.2,0.4,18.3c0.1,8.1,0.1,16.3,0.1,24.5c0,4.3-0.1,8.7-0.1,13c-0.1,6.4,0.2,12.6,0.1,18.7
			c-0.3,14.7-1.2,29.3-0.9,43.7c0.1,5.3,0.6,10.5,0.9,15.8c0.3,5.8,0.3,11.7,0.3,17.5c0,1.7,0,3.3-0.1,5c-0.2,7.7-0.8,15.1-0.8,22.8
			c-0.1,15.3,0.3,30.9,0.4,46.4c0,5.3-0.2,10.7-0.3,16c-0.1,2.7-0.1,5.4-0.1,8.1c-0.1,26.1,1.3,54.9,0.5,80.3
			c-0.1,3.6-0.2,7.4-0.3,11.2c-0.1,3.7-0.3,7.7-0.3,11.2c0,2.9,0.3,5.8,0.6,8.7h1.3C336.3,393.6,336.1,388.6,336.2,383.6z"/>
		<path class="st13" d="M256,373.4c0.4-18.5-0.1-38.6,0.2-55.3c0.2-10.4,0.1-18.2,0-27.7c0-3.8-0.1-7.5-0.1-11.2
			c-0.1-14.5-0.2-28,0.1-41.9c0.2-8,0.7-16.8,0.2-22.8c-0.4-4.3,0-9.4-0.2-14.3c-0.1-3.4-0.5-6.6-0.5-9.8c-0.1-6.2,0-12.5,0-18.7
			c0-4.9,0-9.8-0.1-14.7c0-2.4,0-4.8-0.1-7.1c-0.2-5.7,0.3-11.7,0.4-17.4c0.2-8.8,0-18.2,0-27.7c0-8.1-0.2-16.3-0.2-24.6
			c0-1.3,0-2.7,0-4c0-8.8,0.4-17.8,0.4-26.8c0-13.2-0.5-26.4-0.4-39.7c0.1-4.9-0.1-9.7-0.1-14.5H254c0.1,7.1,0.3,14.1,0.3,21.2
			c0,3.4-0.3,6.9-0.4,10.3c-0.1,11.2,0.3,22.7,0.5,33.9c0.2,6.5,0.2,13.1,0.2,19.6c0,12.9-0.2,25.7-0.2,38.4c0,3.2,0.4,6.2,0.4,9.4
			c0,2.5-0.4,5.2-0.5,8c-0.3,6.8-0.5,8.8-0.1,14.4c0.2,3.5,0.2,7.7,0.2,11.4c-0.1,4.3-0.1,8.6-0.2,12.8c0,3-0.1,5.9-0.2,8.9
			c-0.1,2-0.1,4,0,6c0.1,3.4,0.5,6.9,0.5,10.3c0.1,3.1-0.1,6,0,8.9c0.1,4.1,0.5,7.8,0.5,11.6c0.3,15.6-0.8,32-0.5,49.1
			c0.1,3.8,0.3,7,0.3,9.8c0,0.3,0,0.6,0,0.9c0.1,3.5-0.4,7.2-0.4,10.7c0,3.4,0.5,6.8,0.5,10.3c0.1,6.5-0.4,13.6-0.5,20.5
			c-0.3,16.8,0.2,36.4-0.2,53.1c-0.1,3.6,0.1,6.9,0,10.3c-0.1,2.5-0.3,5.1-0.4,7.6c0,2,0,4,0,6h1.5c0-1.8,0-3.7,0-5.6
			C255.4,386.5,255.8,380,256,373.4z"/>
		<path class="st13" d="M244.9,328.3c0.3-7.5,0.4-17.2,0.2-22.8c-0.2-4.3-0.5-6.3-0.5-9.8c-0.1-5.1,0.4-10.9,0.5-16.6
			c0-1.2,0-2.4,0-3.5c0-2-0.3-4.3-0.4-6.7c-0.1-7.9-0.3-15.6-0.5-21.9c-0.2-5.9,0.3-12.3,0.4-19.2c0.2-14.7-0.4-26.8-0.2-41
			c0-2.5,0.1-5,0.1-7.6c0-4-0.3-8.1-0.3-12.1c-0.1-4.2-0.1-8.4-0.2-12.5c0-2.4-0.1-4.7-0.1-7.1c0-2.6-0.1-5.3-0.1-7.9
			c0-5.2,0.3-10.5,0.2-15.6c-0.1-5.2-0.4-10.3-0.4-15.2c0.1-9.8,0.7-19.3,0.7-28.6c0-1.2,0-2.4,0-3.5c-0.1-7.5-0.2-14.9-0.2-22.3
			c0-7,0.1-14.3,0-21.4c-0.1-2.7-0.4-5.3-0.4-8c0-4.3,0.3-8.5,0.2-12.9c-0.1-2.4-0.3-4.2-0.4-6.7c0-2.6,0.3-5.4,0.4-8
			c0-0.7,0-1.3,0-2h-1.7c-0.1,3.2-0.2,6.5-0.1,9.6c0,1.9,0.3,3.9,0.4,5.8c0.1,5.7-0.3,11.3-0.2,17c0,2.9,0.5,5.9,0.5,8.9
			c0,7.2-0.4,14.5-0.2,20.1c0.1,2.1,0.3,4.2,0.4,6.2c0.1,5.9,0,11.8-0.2,17.4c-0.1,5.1-0.2,10-0.2,14.7c0,1.8,0.4,3.6,0.4,5.4
			c0,0.9-0.3,2.2-0.4,3.1c-0.7,9.7,0.1,20.7,0.2,30.8c0,3.8-0.2,7.5-0.2,11.2c0,1.4-0.1,4.2-0.1,6.2c0,2,0.1,3.2,0.1,6.3
			c0,4.5,0.1,9,0.1,13.5c0.1,6-0.1,12.1-0.1,18.1c0,4.9,0.4,9.9,0.4,15.2c0,12.6-0.7,25.7-0.5,38.4c0.2,12.6,1,25,0.9,36.1
			c0,0.5,0,0.9,0,1.4c-0.1,6.6-0.7,13-0.4,19.6c0.2,4,0.9,7.9,0.9,12.1c0.1,5.3-0.5,10.3-0.7,15.6c-0.3,5.4-0.1,11.2-0.2,17
			c-0.1,6-0.5,11.9-0.5,17.8c-0.1,6.7,0.3,13.7,0.2,20.5c-0.1,5.1-0.3,10.3-0.4,15.4h1.7c0.1-7.7,0.1-15.5,0.1-23.4
			C244.2,359.7,244.4,344,244.9,328.3z"/>
		<path class="st13" d="M359.7,372.9c-0.1-6.6-0.5-13.2-0.5-19.6c0-6.8,0.3-13.3,0.2-20.1c-0.1-13.3,0.3-26.5,0.4-39.7
			c0-4.8-0.1-9.6-0.2-14.3c-0.1-4.2-0.2-8.3-0.2-12.4c0-9.5,0.2-19.2,0.2-28.6c0-9.5,0.2-18.8,0-27.7c-0.1-5.7-0.5-11.7-0.4-17.4
			c0.1-3.4,0.1-7.1,0.2-10.9c0-2.4,0-13,0-15.9c0.1-4.6-0.1-9.3,0-13.8c0.1-3.2,0.4-6.4,0.5-9.8c0.1-4.9-0.2-10,0.2-14.3
			c0.5-5.9,0-14.8-0.2-22.8c-0.2-8.5-0.2-16.9-0.2-25.4h0c0-8.9,0.1-18,0.2-27.6c0.1-9.5,0.2-17.3,0-27.7
			c-0.2-9.2-0.1-19.3-0.1-29.7h-1.6c0,8.9-0.1,17.8,0,26.1c0.1,6.9,0.6,14,0.5,20.5c0,3.5-0.5,6.8-0.5,10.3c0,3.6,0.4,7.2,0.4,10.7
			c0,2.9-0.3,6.5-0.4,10.7c0,2.2,0,4.5,0,6.7c0.1,14.7,0.8,28.8,0.6,42.4c-0.1,3.8-0.4,7.5-0.5,11.6c-0.1,2.9,0.1,5.9,0,8.9
			c-0.1,3.4-0.4,6.8-0.5,10.3c-0.1,4.4,0,9.1,0,13.7c0,1.7,0.2,11.8,0.3,13.9c0.1,6.8-0.5,13.5-0.2,20.3c0.1,1.9,0.2,3.7,0.3,5.6
			c0.1,2.8,0.5,5.5,0.5,8c0,3.1-0.4,6.2-0.4,9.4c0,18.1,0.4,36.5,0.1,54.8c0,1.1,0,2.1-0.1,3.2c-0.3,11.2-0.6,22.7-0.5,33.9
			c0,3.4,0.4,6.9,0.4,10.3c0,9-0.4,18-0.4,27.2c0,2.5,0.3,5.1,0.4,7.6c0.1,3.4-0.1,6.7,0,10.3c0.2,8.5,0.2,17.7,0.1,27h1.6
			C359.9,390,359.9,381.3,359.7,372.9z"/>
		<path class="st13" d="M347.8,345.7c0-2.6-0.4-5.4-0.4-8c0-2.5,0.3-4.3,0.4-6.7c0.1-4.4-0.2-8.6-0.2-12.9c0-2.7,0.3-5.4,0.4-8
			c0.2-7.1,0.1-14.4,0-21.4c0-3.1,0-6.3,0-9.4c0-4.3,0.1-8.6,0.2-12.9c0.1-10.4-0.6-21-0.7-32.1c0-4.9,0.3-9.9,0.4-15.2
			c0.1-5.1-0.2-10.4-0.2-15.6c0-6.2,0.1-12.3,0.3-18.3c0.1-3.4,0.1-10.2,0.1-10.2c0-3.2-0.1-6.3-0.1-9.3c0-3.4-0.1-6.5-0.1-9.4
			c-0.2-14.2,0.3-26.4,0.2-41c-0.1-6.9-0.6-13.3-0.4-19.2c0.1-4.6,0.4-10,0.5-15.6c0-2,0.1-4.1,0.1-6.2c0-2.4,0.3-4.7,0.4-6.7
			c0.1-6.6-0.6-13.9-0.5-20.1c0.1-3.5,0.4-5.5,0.6-9.8c0.3-5.6,0.1-15.2-0.2-22.8c-0.2-6.5-0.4-12.9-0.5-19.4h-1.4
			c0,1,0.1,1.9,0.1,2.9c0.1,5.7-0.1,11.5,0.2,17c0.2,5.3,0.8,10.3,0.7,15.6c-0.1,4.1-0.7,8-0.9,12c-0.3,6.6,0.3,13,0.3,19.6
			c0.1,5.6-0.1,11.6-0.3,17.8c-0.2,6.4-0.6,13-0.7,19.7c-0.2,12.6,0.5,25.7,0.5,38.4c0,5.2-0.4,10.2-0.4,15.2
			c0,3.7,0.1,7.8,0.1,12.1c0.1,3,0.3,9.3,0.3,9.3c-0.1,3.9-0.1,7.4-0.1,10.2c0,3.2,0.4,4.3,0.4,6.2c0,2-0.4,4.8-0.4,6.2
			c0,3.7,0.2,7.3,0.2,11.2c-0.1,10.1-0.9,21.1-0.2,30.8c0.1,1,0.3,2.2,0.4,3.1c0,1.7-0.4,3.5-0.4,5.4c-0.1,9.6,0.5,20.2,0.3,31.2
			c0,0.3,0,0.6,0,0.9c0,2.1-0.3,4.2-0.4,6.2c-0.2,5.6,0.2,12.9,0.2,20.1c0,3-0.5,6-0.6,8.9c-0.1,5.6,0.3,11.3,0.2,17
			c0,1.9-0.3,3.9-0.4,5.8c-0.1,8,0.4,16.6,0.5,25c0.1,6.9-0.3,13.8-0.2,20.5c0,5,0.3,9.9,0.5,15h1.4c-0.1-9.2-0.2-18.4-0.2-27.4
			C347.9,362.6,347.9,354,347.8,345.7z"/>
		<path class="st13" d="M105.8,345.7c0-2.6-0.4-5.4-0.4-8c0-2.5,0.3-4.3,0.4-6.7c0.1-4.4-0.2-8.6-0.2-12.9c0-2.7,0.3-5.4,0.4-8
			c0.2-7.1,0.1-14.4,0-21.4c0-3.1,0-6.3,0-9.4c0-4.3,0.1-8.6,0.2-12.9c0.1-10.4-0.6-21-0.7-32.1c0-4.9,0.3-9.9,0.4-15.2
			c0.1-5.1-0.2-10.4-0.2-15.6c0-6.2,0.1-12.3,0.3-18.3c0.1-3.4,0.1-10.2,0.1-10.2c0-3.2-0.1-6.3-0.1-9.3c0-3.4-0.1-6.5-0.1-9.4
			c-0.2-14.2,0.3-26.4,0.2-41c-0.1-6.9-0.6-13.3-0.4-19.2c0.2-4.6,0.4-10,0.5-15.6c0-2,0.1-4.1,0.1-6.2c0-2.4,0.3-4.7,0.4-6.7
			c0.1-6.6-0.6-13.9-0.5-20.1c0.1-3.5,0.4-5.5,0.5-9.8c0.3-5.6,0.1-15.2-0.2-22.8c-0.2-6.5-0.4-12.9-0.5-19.4h-1.4
			c0,1,0.1,1.9,0.1,2.9c0.1,5.7-0.1,11.5,0.2,17c0.2,5.3,0.8,10.3,0.7,15.6c-0.1,4.1-0.7,8-0.9,12c-0.3,6.6,0.3,13,0.3,19.6
			c0.1,5.6-0.1,11.6-0.3,17.8c-0.2,6.4-0.6,13-0.7,19.7c-0.2,12.6,0.5,25.7,0.5,38.4c0,5.2-0.4,10.2-0.4,15.2
			c0,3.7,0.1,7.8,0.1,12.1c0.1,3,0.3,9.3,0.3,9.3c-0.1,3.9-0.1,7.4-0.1,10.2c0,3.2,0.4,4.3,0.4,6.2c0,2-0.4,4.8-0.4,6.2
			c0,3.7,0.2,7.3,0.2,11.2c-0.1,10.1-0.9,21.1-0.2,30.8c0.1,1,0.3,2.2,0.4,3.1c0,1.7-0.4,3.5-0.4,5.4c-0.1,9.6,0.5,20.2,0.3,31.2
			c0,0.3,0,0.6,0,0.9c0,2.1-0.3,4.2-0.4,6.2c-0.2,5.6,0.2,12.9,0.2,20.1c0,3-0.5,6-0.6,8.9c-0.1,5.6,0.3,11.3,0.2,17
			c0,1.9-0.3,3.9-0.4,5.8c-0.1,8,0.4,16.6,0.5,25c0.1,6.9-0.3,13.8-0.2,20.5c0,5,0.3,9.9,0.5,15h1.4c-0.1-9.2-0.2-18.4-0.2-27.4
			C106,362.6,106,354,105.8,345.7z"/>
	</g>
	<g>
		<path class="st14" d="M157.7,373.3c0-7.2,0.1-14.4,0.2-21.6c0-3.8,0.1-7.6,0.1-11.3c0-6.4-0.3-12.7-0.3-18.7
			c0-8.7,0.4-18.7,0.4-28.1c0-3-0.3-6.2-0.2-8.9c0-1.8,0.5-3.7,0.5-5.4c0-0.1,0-0.3,0-0.4c0-1.6-0.5-3.2-0.6-4.9
			c0-1.2,0.3-2.6,0.3-4c0.5-17.9-0.5-36-0.1-53.5c0.1-6.2-0.3-12.1-0.3-17.8c0-2,0.3-3.9,0.3-5.8c0.1-6.6-0.6-11.3-0.6-16.5
			c0-3.3,0.3-7,0.3-10.3c0.1-4-0.1-7.6-0.1-11.6c0-7.7,0.6-15.4,0.6-23.2c0-6.7-0.3-13.3-0.3-20.1c0-6.5,0.5-13.2,0.4-19.6
			c0-3.6-0.2-7.4-0.4-11.1c0-1.5-0.1-3-0.1-4.5c0-8.8,0.6-17.6,0.4-26.3c-0.1-4.9-0.8-10-0.8-14.7c0-2.3,0.5-7.7,0.5-11.2
			c0-2.5-0.4-9.4-0.4-11.2c0-5.7-0.1-11.4-0.1-17.1h-1.2c0,0.8,0,1.6,0,2.3c0,1.2,0,2.4,0,3.6c0.1,7.9-0.2,9.1-0.1,15.2
			c0.1,3.6,0.4,3.2,0.4,7.6c0,5.4-0.5,10.3-0.3,15.6c0.1,3.2,0.5,6.4,0.6,9.8c0.2,7.9-0.5,15.8-0.4,23.6c0,2.4,0.1,4.8,0.3,7.2
			c0.1,1.6,0.1,3.3,0.2,4.9c0.1,12.1-0.6,22.3-0.6,32.6c0,6.2,0.4,12.4,0.3,18.7c-0.2,13.8-0.9,27.9-0.7,41.5
			c0.1,4.8,0.7,9.2,0.8,13.8c0.2,19.7-0.6,38.9-0.3,58c0.2,9.4,0,18.7,0,28.1c0,0.4,0,0.8,0,1.3c-0.1,9.1,0.2,18.3,0.1,27.3
			c0,4.9-0.4,9.5-0.5,14.3c-0.1,4.6,0.3,9.2,0.4,13.8c0.1,5.6,0.1,11.5,0.1,17c0,6.3-0.7,12.8-0.6,19.2c0,5.2,0.2,10.3,0.3,15.5
			c0.1,4.1,0,8.2,0,12.3h1.2c0-1.2,0-2.4,0-3.7C157.7,387.7,157.6,380.5,157.7,373.3z"/>
		<path class="st14" d="M169,380.5c-0.1-10.9,0.1-25.7,0.2-36.1c0-4.9,0.4-9.1,0.5-12.9c0.1-5.9-0.4-11.6-0.3-17
			c0.1-2.8,0.5-5.4,0.5-8c0-4.7-0.4-9.5-0.4-14.3c0-4.3,0.1-8.6,0.2-13c0-0.9,0-1.7,0.1-2.6c0.3-19.7-0.4-39.4-0.3-57.1
			c0-4.6,0.4-8.9,0.3-13.4c-0.1-3.1-0.5-6-0.6-8.9c-0.2-5.8,0.1-12,0.3-17.8c0.2-6.3-0.1-12.5-0.1-18.7c0-4,0.4-7.9,0.5-12
			c0.3-8.5,0.4-17.8,0.2-27.2c-0.1-4.1-0.7-7.5-0.8-10.3c-0.1-2.8,0.3-5.8,0.3-8.9c0-7.6,0.2-14.7,0.4-21.8c0-1.5,0-3,0.1-4.5
			c0.1-12.6-0.4-25.4-0.2-37c0-2.1,0.3-4.2,0.3-6.2c0-2.9-0.3-6-0.4-9.8c0-2.6,0-5.4,0-8c-0.1-2.9-0.3-5.3-0.4-8
			c-0.1-3.8-0.2-7.6-0.2-11.3h-1.5c0,0.8,0,1.7,0,2.5c0,1.9,0,3.8,0.1,5.7c0.1,4.6,0.5,12.9,0.6,21c0.2,8.6,0.1,16.3,0.1,21.9
			c0.1,10,0.3,24.8,0.2,33.5c0,0.2,0,0.3,0,0.5c-0.1,3-0.4,6-0.5,8.9c-0.3,10.9,0.2,19.8,0.5,30.3c0.4,15.2-0.6,30.1-0.7,45.1
			c-0.1,14.8-0.1,28.9,0.2,41.9c0.1,4.8-0.3,9.6-0.3,13.8c0,4.9,0.4,10.1,0.4,15.2c0,3.8-0.3,7.4-0.3,11.2c0,4.8,0.4,9.5,0.4,14.3
			c0,6.1-0.3,12.2-0.4,18.2c0,1.8,0,3.6,0,5.4c0.3,19,0.4,36.8-0.1,54.9c-0.2,7.3-0.5,17.1-0.4,22.3c0,5.2,0,10.6,0.1,16.5
			c0,3.9,0.3,7.8,0.3,11.7c0,2.9-0.1,5.7-0.1,8.6h1.5c0-1.9,0-3.8,0-5.8C169.2,388.7,169,384.6,169,380.5z"/>
		<path class="st14" d="M181.9,381.9c0-3.1-0.3-5.2-0.4-8.5c-0.1-3.9,0.2-8,0.1-12c0-5.9-0.6-12.4-0.6-18.7c0-6.7,0.2-13.3-0.1-19.6
			c-0.1-3.8-0.7-7.5-0.8-11.2c0-1.6,0.3-3.3,0.3-4.9c0-4.5-0.5-7.8-0.6-11.6c0-3.6,0.3-7.8,0.3-11.6c0-1.2,0.1-2,0.2-3.1
			c0-0.5,0-0.9,0-1.4c0.2-13.7-0.1-25.5,0.2-37.8c0.3-9.4-0.3-21,0.1-27.7c0.4-6.3,0.2-15.5,0.3-22.3c0.1-2.9,0.3-6.1,0.3-8.9
			c0-2.2-0.4-4.5-0.4-6.7c-0.1-12-0.2-24.6,0.1-36.6c0.2-6.4,0.2-13.6,0.3-21c0.1-4.5,0.5-9,0.5-13.4c0-4-0.4-7.9-0.4-12
			c0-4.1,0.2-8.4,0.1-12.5c0,0,0,0,0,0c0-2.8-0.4-5.3-0.4-8c-0.1-6.3,0.4-12.5,0.3-18.7c-0.1-4.7-0.8-9.6-0.8-14.3
			c0-5.1,0.6-10.8,0.7-16.5c0.1-8.5,0.1-17.8-0.1-25c0-0.8,0-1.6,0-2.4h-1.5c0,10,0.4,20.7,0.2,31.9c-0.1,2.9-0.4,5.6-0.5,7.6
			c-0.3,9.2,0.7,21.1,0.5,31.2c-0.1,2.3-0.4,4.7-0.3,6.7c0,2.5,0.4,5,0.5,7.6c0,0.6,0.1,1.2,0.1,1.8c0,3-0.3,6-0.3,8.9
			c0,4.9,0.4,9.5,0.4,14.3c0.1,9.5-0.3,19.7-0.4,30.3c-0.1,5.1,0.2,10.5,0.1,15.6c-0.3,13.7,0.2,28.3-0.2,42.8
			c-0.3,11.3-0.3,22.7-0.3,33.9c0.1,11.6-0.6,23.5-0.4,35.2c0.1,5.1,0.1,10.6,0,16c-0.1,7-0.1,13.7-0.1,19.3
			c0.1,9.7,0.5,19.7,0.6,29.9c0.2,13.6,0.3,27.8,0.3,40.2c0,4.7,0.4,9.3,0.4,13.8c0,3.7-0.3,7.4-0.4,11.1c0,1.7,0,3.4,0,5.2h1.5
			c0-2.4,0-4.6,0.2-7.1C181.6,388.4,181.8,385,181.9,381.9z"/>
		<path class="st14" d="M192.6,376.5c0-5.3,0.2-10.7,0.1-16.1c-0.1-5.1-0.4-9.9-0.6-15.2c-0.3-8.5,0.2-17,0.1-25
			c-0.1-3.7-0.4-7.6-0.4-11.2c0-2.5,0.3-4.8,0.3-7.6c0-3.8-0.1-7.9,0-12c0.1-3.5,0.3-7,0.4-10.3c0-0.9,0.1-1.8,0-2.6
			c0-4.1-0.4-8.4-0.4-12.5c-0.1-4.3,0.2-8.4,0.1-12.5c-0.1-5.8-0.6-11.4-0.6-17.4c0-1.8,0.4-3.9,0.3-5.8c0-2.8-0.4-5.5-0.4-8.5
			c0-1.4,0-2.9,0-4.5c-0.1-1.3-0.4-2.7-0.4-4c0-1.8,0.3-3.8,0.3-5.8c0.2-6.7,0.6-12.5,0.7-18.7c0-5-0.6-11.2-0.4-16.1
			c0.1-3.5,0.6-7.5,0.7-10.3c0.2-6.1-0.4-11.3-0.2-15.6c0.1-2.2,0.1-6.2,0.1-8.9c0-7-0.4-16.4-0.3-22.8c0-0.8,0.3-1.8,0.4-2.7
			c0.1-7-0.3-14-0.3-20.5c0-3.3,0.3-6.5,0.5-9.8c0.1-1,0.1-2.1,0.2-3.1c0.3-6.2,0.3-13.3,0.5-20.1c0.1-7.2,0.7-14.4,0.5-20.5
			c-0.2-4.3-0.7-9.6-0.8-15.6c-0.1-5.1-0.1-10.1-0.1-15.2c0-3.5,0-6.9,0-10.4h-1.6c0,0.5,0,1,0,1.6c0,4.5,0.1,9,0.1,13.5
			c0,2.2,0.1,4.3,0.1,6.5c0.1,3.5-0.1,6.8,0,10.3c0.1,4.1,0.8,11,0.8,14.7c-0.1,7.6-0.7,16-0.8,24.5c-0.1,4.6-0.3,9.3-0.5,13.9
			c-0.2,3.9-0.3,7.8-0.3,11.6c-0.1,12.8,0.1,25.8,0.2,37.5c0,3.8-0.3,7.8-0.3,11.6c0,7.2,0.7,14.1,0.4,20.5c-0.2,5.7-0.8,8-0.9,12
			c-0.1,7.1,0.6,14.4,0.4,21.9c-0.1,4.4-0.6,9-0.7,13.4c0,3.9,0.5,7.7,0.6,11.6c0.3,9.3,0,18.9,0.1,28.5c0.2,9.9,0.3,19.9,0.3,29.9
			c0,0.1,0,0.3,0,0.4c0,5.3-0.4,10.7-0.5,16.1c-0.1,5.5,0,12.8,0.1,17c0,4.8,0.1,9.6,0.1,14.4c0.1,5,0.1,10.1,0.2,15.1
			c0.1,5.2,0.1,10.3,0.2,15.5c0.1,5.3,0.1,10.6,0.1,15.9c0,5.3,0.1,10.6,0.1,15.9c0,3.2,0,6.4,0.1,9.5h1.6c0-1.2,0-2.5,0-3.7
			C192.9,388.7,192.6,382.6,192.6,376.5z"/>
		<path class="st14" d="M204.6,380.1c-0.1-8.6-0.5-16.5-0.5-25c-0.1-8.7-0.3-18.2-0.2-25.9c0.1-3.3,0.3-6.4,0.4-9.8
			c0.1-10.2-0.2-20.9-0.2-31.2c0-2.9,0.1-5.9,0.2-9c0.2-4.3,0.3-8.7,0.3-13.3c0-7.4-0.2-15.5-0.2-23.6c0-7.9-0.4-15.7-0.4-23.2
			c0.1-8.4,0.5-16.5,0.4-24.1c-0.1-6.5-0.8-14.2-0.9-20.5c-0.1-4.5,0.5-9.2,0.5-13.8c0.2-14.9-0.2-30.9-0.2-45.1
			c0-5.2-0.5-10.4-0.4-15.2c0.1-4.4,0.9-11.2,0.9-15.6c0-1.4-0.1-2.9-0.3-4.4c-0.1-1.3-0.2-2.7-0.3-4c-0.3-9.3,0.8-20.2,0.5-29
			c-0.1-1.6,0-3.3,0-4.9c-0.1-7-0.4-13.9-0.4-20.5c0-3.6,0.4-7.4,0.4-11.2c0-3.2-0.1-6.4-0.1-9.6c0-1.9,0-3.8,0-5.7h-1.1
			c0,2.9,0,5,0,5.7c0,2.8,0,5.6,0,8.3c0,7.4-0.5,15.1-0.4,22.8c0.1,7.7,0.5,15.4,0.4,22.8c-0.1,6.9-0.6,13.7-0.5,20.1
			c0,1.8,0.1,3.6,0.2,5.4c0.1,2,0.2,3.9,0.2,5.8c-0.1,5.2-0.8,15.9-0.7,20.1c0.1,11.9,0.1,23.7,0.2,35.7c0.1,11.9-0.4,23.7-0.2,35.2
			c0.1,6.4,0.7,12.5,0.7,18.7c0.1,8.8-0.4,17.9-0.4,26.8c0,6.3,0.4,13.4,0.4,21c-0.1,7.4,0.2,14.3,0.2,21c0,5-0.2,9.9-0.3,14.7
			c0,2.1-0.1,4.2-0.1,6.3c-0.1,15.5,0,32.7,0,49.5c0,9.3,0,20.1,0.2,31.7c0,3.1,0.1,6.1,0.1,9.2c0,3.2,0.1,15.3,0.1,22.7h1.1
			c0-2.2,0.1-4.3,0.1-6.5C204.6,388.1,204.7,384.1,204.6,380.1z"/>
		<path class="st14" d="M215.9,384.1c-0.1-3.6,0.1-7.6,0-11.6c-0.2-6.7-0.6-13.8-0.8-21c-0.2-8.1,0.1-16.5,0.1-25
			c0-8.7-0.1-17.4-0.2-25.4c-0.1-3.3-0.4-6.3-0.4-9.4c0-2.7,0.3-5.4,0.3-8c0-1.5-0.1-3-0.2-4.5c-0.1-1.7-0.2-3.3-0.2-4.8
			c0-6.8,0.7-13.1,0.9-19.2c0.1-3.8-0.4-7.2-0.4-9.8c0-0.7,0.3-1.7,0.4-2.7c0.2-3.9,0.2-7,0.3-10.3c0.2-8.1,0-15.8,0.1-22.3
			c0-2.5,0.4-5.1,0.3-7.6c0-3.2-0.5-6.1-0.6-8.9c0-4.3,0.4-9.3,0.7-13.8c0.6-8.9,0.3-17.1,0.3-27.2c0-4,0.3-8.2,0.3-12
			c0-4.1-0.5-8.2-0.6-12.5c0-2.6,0.3-5.3,0.3-8c0-2.6-0.2-5.3-0.2-8c-0.1-10,0-20.7-0.2-31.7c0-0.5,0-0.9,0-1.4
			c-0.4-20.8,0.1-43,0.2-63.4c0-6.8-0.2-13.5-0.2-20.3h-1.4c0.1,4,0.2,8,0.2,12.1c0.1,3,0.1,6,0.1,9.1c0,6.5-0.2,13.4-0.1,18.3
			c0.1,11.1-0.6,23.6-0.5,34.4c0.1,3.8,0.4,7.5,0.5,11.2c0,0.7,0.1,1.5,0.1,2.2c0.1,4.5-0.5,9.1-0.5,13.4c0,3.2,0.5,6.1,0.6,8.9
			c0.2,15.4,0,30.8-0.1,45.5c0,7.1,0.2,14,0.1,21c-0.2,6.9-0.8,13.7-0.9,20.5c0,9.2,0.4,18.3,0.3,27.2c-0.2,9.6-0.8,19.1-0.8,28.6
			c0,2.6,0.2,5,0.2,7.6c-0.1,5.2-0.7,10.4-0.9,15.6c-0.1,2.8,0.1,5.6,0.2,8.4c0.1,2.4,0.2,4.9,0.2,7.2c0,4.2-0.2,8.6-0.2,11.2
			c0.3,8.4,0.5,17.1,0.4,25.4c-0.1,8-0.1,15.9-0.1,24.1c0,10.9,0.6,21.8,0.8,32.6c0.1,5.2,0.2,10.4,0.3,15.5c0,1.1,0,2.3,0.1,3.4
			h1.4c0-1.3,0-2.7,0-4C216.1,391.1,215.9,387.6,215.9,384.1z"/>
		<path class="st14" d="M145.9,374.8c0-1.7,0-3.3,0.1-5c0.2-7.7,0.8-15.1,0.8-22.8c0.1-15.3-0.3-30.9-0.4-46.4
			c0-7.1,0.3-14.3,0.4-21.5c0-0.9,0-1.7,0-2.6c0.1-26.1-1.3-54.9-0.5-80.3c0.1-3.6,0.2-7.4,0.3-11.2c0.1-3.7,0.3-7.7,0.3-11.2
			c0-4.1-0.7-8.5-0.8-12.5c-0.2-12.8,0.5-25.6,0.4-38.4c0-6.1-0.3-12.2-0.4-18.3c-0.1-8.1-0.1-16.3-0.1-24.5c0-4.3,0.1-8.7,0.1-13
			c0.1-6.4-0.2-12.6-0.1-18.7c0.3-14.7,1.2-29.3,0.9-43.7c-0.1-3.2-0.3-6.4-0.5-9.5h-1.4c0,0.5,0.1,1,0.1,1.5
			c0.2,4.6,0.5,9.6,0.4,14.3c-0.2,11.2-0.3,22.7-0.8,34.4c-0.5,11.4-0.1,23-0.1,34.8c0,0.4,0,0.9,0,1.3c0.1,11.7-0.3,23.4,0,35.2
			c0.2,12.3-0.1,24.4,0,36.6c0,9,0.9,18,0.6,26.8c-0.4,16.5-0.7,32.8-0.5,49.1c0.1,8.1-0.1,16.1,0.1,24.1c0.2,8.2,0.3,16.4,0.3,24.5
			c0,0.4,0,0.8,0,1.3c-0.1,16.3-0.2,32.3,0,48.3c0.2,16.8-0.5,33.2-0.9,49.5c-0.1,3.4,0.1,6.9,0.2,10.4c0.2,3.8,0.4,7.5,0.6,11.3
			h1.4c-0.2-2.1-0.3-4.2-0.4-6.2C145.9,386.5,145.9,380.6,145.9,374.8z"/>
		<path class="st14" d="M227.7,380.3c0.1-2,0.1-4,0-6c-0.1-3.4-0.4-6.9-0.5-10.3c-0.1-3.1,0.1-6,0-8.9c-0.1-4.1-0.5-7.8-0.5-11.6
			c-0.3-15.6,0.8-32,0.5-49.1c-0.1-4.2-0.3-7.8-0.4-10.7c0-1.5,0-3,0.1-4.5c0.1-2.1,0.2-4.1,0.2-6.2c0-3.4-0.5-6.8-0.5-10.3
			c-0.1-6.5,0.4-13.6,0.5-20.5c0.3-16.8-0.2-36.4,0.2-53.1c0.1-3.6-0.1-6.9,0-10.3c0.1-2.5,0.3-5.1,0.4-7.6
			c0.1-9.2-0.4-18.2-0.4-27.2c0-3.4,0.3-6.9,0.4-10.3c0.1-11.2-0.3-22.7-0.5-33.9c-0.2-6.5-0.2-13.1-0.2-19.6
			c0-12.9,0.2-25.7,0.2-38.4c0-3.2-0.4-6.2-0.4-9.4c0-2.5,0.4-5.3,0.5-8c0.3-6.8,0.5-8.8,0.1-14.4c-0.2-3.5-0.2-7.7-0.2-11.4
			c0-1.1,0-2.2,0-3.4h-1.2c0,2.7,0,5.5,0,8.2c0,2.4,0,4.8,0.1,7.1c0.2,5.7-0.3,11.7-0.4,17.4c-0.2,8.9,0,18.2,0,27.7
			c0,8.1,0.2,16.3,0.2,24.6c0,1.3,0,2.7,0,4c0,8.8-0.4,17.8-0.4,26.8c0,13.2,0.5,26.4,0.4,39.7c-0.1,6.7,0.2,13.3,0.2,20.1
			c0,6.4-0.4,13-0.5,19.6c-0.4,18.5,0.1,38.5-0.2,55.3c-0.2,10.4-0.1,18.2,0,27.7c0,1.9,0,3.8,0.1,5.7c0.2,16.6,0.3,31.7-0.1,47.4
			c-0.2,8-0.7,16.8-0.2,22.8c0.4,4.3,0,9.4,0.2,14.3c0.1,3.4,0.5,6.6,0.5,9.8c0.2,6.2,0,12.5,0,18.7c0,2.2,0,4.3,0,6.5h1.2
			c0-3.2,0.1-6.3,0.1-9.5C227.6,386.2,227.6,383.2,227.7,380.3z"/>
		<path class="st14" d="M238.9,374.3c0-4.9-0.4-9.9-0.4-15.2c0-12.6,0.7-25.7,0.5-38.4c-0.2-13.2-1.1-26.1-0.9-37.5
			c0-1.4,0.1-2.7,0.1-4.1c0.2-5.2,0.5-10.3,0.2-15.5c-0.2-4-0.9-7.9-0.9-12.1c-0.1-5.3,0.5-10.3,0.7-15.6c0.3-5.4,0.1-11.2,0.2-17
			c0.1-6,0.5-11.9,0.5-17.8c0.1-6.7-0.3-13.6-0.2-20.5c0.1-8.4,0.7-16.9,0.5-25c0-1.9-0.3-3.9-0.4-5.8c-0.1-5.7,0.3-11.3,0.2-17
			c0-2.9-0.5-5.9-0.5-8.9c0-7.2,0.4-14.5,0.2-20.1c-0.1-2.1-0.3-4.2-0.4-6.2c-0.1-5.9,0-11.8,0.2-17.4c0.1-5.1,0.2-10,0.2-14.7
			c0-1.8-0.4-3.6-0.4-5.4c0-0.9,0.3-2.2,0.4-3.1c0.7-9.7-0.1-20.7-0.2-30.8c0-3.8,0.2-7.5,0.2-11.2c0-1.4,0.1-4.2,0.1-6.2
			c0-2-0.1-3.2-0.1-6.3c0-2.4,0-4.9,0-7.3h-1.3c0.1,3.5,0.1,7,0.2,10.6c0,2.4,0.1,4.7,0.1,7.1c0,2.6,0.1,5.3,0.1,7.9
			c0,5.2-0.3,10.5-0.2,15.6c0.1,5.2,0.4,10.3,0.4,15.2c-0.1,9.8-0.7,19.3-0.7,28.6c0,1.2,0,2.4,0,3.5c0.1,7.5,0.2,14.9,0.2,22.3
			c0,7-0.1,14.3,0,21.4c0.1,2.7,0.4,5.3,0.4,8c0,4.3-0.3,8.5-0.2,12.9c0.1,2.4,0.3,4.2,0.4,6.7c0,2.6-0.3,5.4-0.4,8
			c-0.2,8.3-0.2,16.9-0.2,25.4c0,15.4-0.1,31.2-0.7,46.8c-0.3,7.5-0.4,17.2-0.2,22.8c0.2,4.3,0.5,6.3,0.5,9.8
			c0.1,3.4-0.2,7.2-0.3,11.1c-0.1,3-0.3,6.1-0.2,9c0,2,0.3,4.3,0.4,6.7c0.1,7.9,0.3,15.6,0.5,21.9c0.2,5.9-0.3,12.3-0.4,19.2
			c-0.2,14.7,0.4,26.8,0.2,41c0,2.5-0.1,5-0.1,7.6c-0.1,4,0.3,8.1,0.3,12.1c0,0.7,0,1.3,0,2h1.3c0-2.1-0.1-4.1-0.1-6.2
			C238.8,386.4,239,380.3,238.9,374.3z"/>
		<path class="st14" d="M123.8,382.8c-0.1-6.8,0.5-13.5,0.2-20.3c-0.1-1.9-0.2-3.8-0.3-5.6c-0.1-2.8-0.5-5.5-0.5-8
			c0-3.1,0.4-6.2,0.4-9.4c0-19.2-0.5-38.6,0-58c0-0.8,0-1.5,0.1-2.3c0.3-10.5,0.5-21.2,0.5-31.6c0-3.4-0.4-6.9-0.4-10.3
			c0-9,0.4-18,0.4-27.2c0-2.5-0.3-5.1-0.4-7.6c-0.1-3.4,0.1-6.7,0-10.3c-0.4-16.7,0.1-36.3-0.2-53.1c-0.1-6.9-0.6-14-0.5-20.5
			c0-3.5,0.5-6.8,0.5-10.3c0-3.6-0.4-7.2-0.4-10.7c0-2.9,0.3-6.5,0.4-10.7c0-2.2,0-4.5,0-6.7c-0.1-14.7-0.8-28.8-0.6-42.4
			c0.1-3.8,0.4-7.5,0.5-11.6c0.1-2.9-0.1-5.9,0-8.9c0.1-3.4,0.4-6.8,0.5-10.3c0.1-3.8,0.1-7.8,0-11.8h-1.7c0,4.2,0.1,8.5,0,12.7
			c-0.1,3.2-0.4,6.4-0.5,9.8c-0.1,4.9,0.2,10-0.2,14.3c-0.5,5.9,0,14.8,0.2,22.8c0.2,8.5,0.2,16.9,0.2,25.4c0,8.9-0.1,18-0.2,27.6
			c-0.1,9.5-0.2,17.3,0,27.7c0.3,16.8-0.2,36.8,0.2,55.3c0.1,6.6,0.5,13.2,0.5,19.6c0,6.8-0.3,13.3-0.2,20.1
			c0.1,13.3-0.3,26.5-0.4,39.7c0,3,0,5.9,0.1,8.9c0.1,6,0.3,12,0.3,17.9c0,9.5-0.2,19.2-0.2,28.6c0,9.5-0.2,18.8,0,27.7
			c0.1,5.7,0.5,11.7,0.4,17.4c-0.1,3.4-0.1,7.1-0.2,10.9c0,2.4,0,13,0,15.9c0,0.4,0,0.8,0,1.2h1.7c0-0.6,0-1.3,0-1.9
			C124,395,123.8,384.9,123.8,382.8z"/>
		<path class="st14" d="M387.9,374.8c0-1.7,0-3.3,0.1-5c0.2-7.7,0.8-15.1,0.8-22.8c0.1-15.3-0.3-30.9-0.4-46.4
			c0-7.1,0.3-14.3,0.4-21.5c0-0.9,0-1.7,0-2.6c0.1-26.1-1.3-54.9-0.5-80.3c0.1-3.6,0.2-7.4,0.3-11.2c0.1-3.7,0.3-7.7,0.3-11.2
			c0-4.1-0.7-8.5-0.8-12.5c-0.2-12.8,0.5-25.6,0.4-38.4c0-6.1-0.3-12.2-0.4-18.3c-0.1-8.1-0.1-16.3-0.1-24.5c0-4.3,0.1-8.7,0.1-13
			c0.1-6.4-0.2-12.6-0.1-18.7c0.3-14.7,1.2-29.3,0.9-43.7c-0.1-3.2-0.3-6.4-0.5-9.5h-1.4c0,0.5,0.1,1,0.1,1.5
			c0.2,4.6,0.5,9.6,0.4,14.3c-0.2,11.2-0.3,22.7-0.8,34.4c-0.5,11.4-0.1,23-0.1,34.8c0,0.4,0,0.9,0,1.3c0.1,11.7-0.3,23.4-0.1,35.2
			c0.2,12.3-0.1,24.4,0,36.6c0,9,0.9,18,0.6,26.8c-0.4,16.5-0.7,32.8-0.5,49.1c0.1,8.1-0.1,16.1,0.1,24.1c0.2,8.2,0.3,16.4,0.3,24.5
			c0,0.4,0,0.8,0,1.3c-0.1,16.3-0.2,32.3,0,48.3c0.2,16.8-0.5,33.2-0.9,49.5c-0.1,3.4,0.1,6.9,0.2,10.4c0.2,3.8,0.4,7.5,0.6,11.3
			h1.4c-0.2-2.1-0.3-4.2-0.4-6.2C387.9,386.5,387.9,380.6,387.9,374.8z"/>
		<path class="st14" d="M365.7,382.8c-0.1-6.8,0.5-13.5,0.2-20.3c-0.1-1.9-0.2-3.8-0.3-5.6c-0.1-2.8-0.5-5.5-0.5-8
			c0-3.1,0.4-6.2,0.4-9.4c0-19.2-0.5-38.6,0-58c0-0.8,0-1.5,0.1-2.3c0.3-10.5,0.5-21.2,0.5-31.6c0-3.4-0.4-6.9-0.4-10.3
			c0-9,0.4-18,0.4-27.2c0-2.5-0.3-5.1-0.4-7.6c-0.1-3.4,0.1-6.7,0-10.3c-0.4-16.7,0.1-36.3-0.2-53.1c-0.1-6.9-0.6-14-0.5-20.5
			c0-3.5,0.5-6.8,0.5-10.3c0-3.6-0.4-7.2-0.4-10.7c0-2.9,0.3-6.5,0.4-10.7c0-2.2,0-4.5,0-6.7c-0.1-14.7-0.8-28.8-0.6-42.4
			c0.1-3.8,0.4-7.5,0.5-11.6c0.1-2.9-0.1-5.9,0-8.9c0.1-3.4,0.4-6.8,0.5-10.3c0.1-3.8,0.1-7.8,0-11.8h-1.7c0,4.2,0.1,8.5,0,12.7
			c-0.1,3.2-0.4,6.4-0.5,9.8c-0.1,4.9,0.2,10-0.2,14.3c-0.5,5.9,0,14.8,0.2,22.8c0.2,8.5,0.2,16.9,0.2,25.4c0,8.9-0.1,18-0.2,27.6
			c-0.1,9.5-0.2,17.3,0,27.7c0.3,16.8-0.2,36.8,0.2,55.3c0.1,6.6,0.5,13.2,0.5,19.6c0,6.8-0.3,13.3-0.2,20.1
			c0.1,13.3-0.3,26.5-0.4,39.7c0,3,0,5.9,0.1,8.9c0.1,6,0.3,12,0.3,17.9c0,9.5-0.2,19.2-0.2,28.6c0,9.5-0.2,18.8,0,27.7
			c0.1,5.7,0.5,11.7,0.4,17.4c-0.1,3.4-0.1,7.1-0.2,10.9c0,2.4,0,13,0,15.9c0,0.4,0,0.8,0,1.2h1.7c0-0.6,0-1.3,0-1.9
			C366,395,365.8,384.9,365.7,382.8z"/>
		<path class="st14" d="M376.9,389c0.1-3.9,0.1-7.4,0.1-10.2c0-3.2-0.4-4.3-0.4-6.2c0-2,0.4-4.8,0.4-6.2c0-3.7-0.2-7.4-0.2-11.2
			c0.1-10.1,0.9-21.1,0.2-30.8c-0.1-1-0.3-2.2-0.4-3.1c0-1.7,0.4-3.5,0.4-5.4c0.1-9.9-0.5-20.8-0.3-32.1c0-1.5,0.2-3,0.3-4.5
			c0-0.6,0.1-1.1,0.1-1.7c0.2-5.6-0.2-12.9-0.2-20.1c0-3,0.5-6,0.6-8.9c0.1-5.6-0.3-11.3-0.2-17c0-1.9,0.3-3.9,0.4-5.8
			c0.1-8-0.4-16.6-0.5-25c-0.1-6.9,0.3-13.8,0.2-20.5c-0.1-5.9-0.5-11.8-0.5-17.8c-0.1-5.7,0.1-11.5-0.2-17
			c-0.3-5.3-0.8-10.3-0.7-15.6c0.1-4.1,0.7-8,0.9-12.1c0.3-6.6-0.3-13-0.3-19.6c-0.1-5.6,0.2-11.6,0.4-17.8c0.2-6.4,0.5-13,0.6-19.7
			c0.2-12.6-0.5-25.7-0.5-38.4c0-5.2,0.4-10.2,0.4-15.2c0-3.6-0.1-7.6-0.1-11.8h-1.6c0,3.3,0.1,6.3,0.1,9.1
			c0.2,14.2-0.3,26.4-0.2,41c0.1,6.9,0.6,13.3,0.4,19.2c-0.2,4.6-0.3,10-0.4,15.6c0,2-0.2,4.1-0.2,6.2c0,2.4-0.3,4.7-0.4,6.7
			c-0.1,6.6,0.6,13.9,0.5,20.1c-0.1,3.5-0.4,5.5-0.6,9.8c-0.3,5.6-0.1,15.2,0.2,22.8c0.6,15.7,0.7,31.4,0.7,46.8
			c0,8.6,0,17.1,0.2,25.4c0,2.6,0.4,5.4,0.4,8c0,2.5-0.3,4.3-0.4,6.7c-0.1,4.4,0.2,8.6,0.2,12.9c0,2.7-0.3,5.4-0.4,8
			c-0.2,7.1-0.1,14.4,0,21.4c0,1.3,0,2.6,0,3.9c0,6.1-0.1,12.2-0.2,18.4c-0.1,10.4,0.6,21,0.7,32.1c0,4.9-0.3,9.9-0.4,15.2
			c-0.1,5.1,0.2,10.4,0.2,15.6c0,6.2-0.1,12.3-0.3,18.3c-0.1,3.4-0.1,10.2-0.1,10.2c0,3.2,0.1,6.3,0.1,9.3c0,0.1,0,0.2,0,0.3h1.6
			c0-0.1,0-0.2,0-0.3C377.2,395.2,376.9,389,376.9,389z"/>
		<path class="st14" d="M88.9,361.8c-0.1-4-0.5-7.9-0.4-11.6c0-4,0.7-8.1,0.8-12c0.3-11.9-0.2-24.6-0.2-37c0-5.8,0.2-11.7,0.2-17.4
			c0-1.5,0-3,0-4.5c0-4.5-0.1-9-0.1-13.3c0-3.5,0.4-6.9,0.3-10.3c-0.1-3.3-0.5-6.6-0.6-9.8c-0.2-5.4,0.2-10.9,0.3-16.5
			c0.1-5.8-0.3-11.5-0.3-17c0-3.3,0.3-6.5,0.3-9.8c0-8.2-0.4-16.5-0.3-24.5c0-3.7-0.2-7.4-0.3-11.1c-0.1-6.1,0.4-13.8,0.4-18.3
			c0-7.1-0.2-12.6-0.3-19.6c-0.2-13.7,0.5-26.8,0.5-39.3c0-3.2,0-6.3,0-9.4c0-9.9,0.1-19.6,0.3-29c0.1-4.5-0.3-9.4-0.3-12.5
			c0-2.3,0.3-4.6,0.3-7.1c0.1-7.8-0.5-16-0.5-24.1c0-4,0.4-8.2,0.4-12.3h-1.4c0,0.5,0,1,0,1.6c-0.1,4.7-0.5,9.3-0.5,13.8
			c0.1,4.9,0.5,9.4,0.5,14.3c0,7.7-0.2,16.8-0.2,24.5c0,9.9-0.1,20.4-0.1,30.8c-0.1,10.8-0.1,21.5-0.2,31.2
			c-0.1,8.5-0.2,15.2,0,22.8c0.3,11.1-0.4,21.8-0.3,32.1c0,3,0.4,6,0.4,8.9c0,2.8,0,5.6,0,8.4c0,4.4,0.4,8.9,0.5,13.4
			c0,6.3-0.3,12.6-0.2,19.2c0.1,6.6,0.2,13.6,0.1,20.1c0,2.9-0.4,5.6-0.3,8.5c0.1,4.7,0.7,9.3,0.6,13.8c0,2.3-0.3,4.4-0.3,6.7
			c0,4.6,0,9.2,0,13.8c0,10.3,0.1,20.6,0.1,30.8c0,4.7-0.3,9.3-0.3,14.3c0,4.9,0.4,10,0.3,14.7c-0.1,3.6-0.7,7.1-0.7,10.7
			c0,2.4,0.4,5.1,0.4,7.6c0.2,10.5,0,22.2,0,33.5c0,2.6,0.2,5.2,0.2,7.8h1.4c0-0.4,0-0.8,0-1.1C89.3,385.5,89.1,373.2,88.9,361.8z"
			/>
		<path class="st14" d="M77.7,367.1c0.2-12.8-0.1-24.3,0-34.4c0.1-5.8-0.3-11.6-0.3-17.4c0.1-7.8,0.5-15.5,0.4-23.2
			c0-4.4,0-8.7,0-13c0.1-9.4,0.2-18.4,0.1-26.7c-0.1-18.3,0.3-35.3,0.1-52.6c-0.1-4.9-0.6-9.1-0.6-13.4c-0.1-5.2,0.2-10.3,0.3-15.5
			c0.1-4.2,0.1-8.5,0.2-12.7c0-2.3,0-4.6,0.1-6.9c0.1-3.9,0.3-7.6,0.3-11.2c0-5.9-0.6-12.1-0.8-18.3c-0.2-6.8-0.5-13.7-0.6-19.6
			c-0.1-6.9,0.1-14.3,0.2-21.9c0-2.2,0-4.4,0-6.7c-0.1-10.1-0.5-20.7-0.3-30.3c0.1-6.7,0.4-13.5,0.4-20.1c0-5.8-0.1-11.4,0.1-15.6
			c0.2-4.1,0.1-8.1,0-12.3h-1.6c0.1,4.4,0.3,8.8,0.2,13.2c-0.4,22.4-0.2,45.2-0.2,65.6c0,2.1,0,4.1-0.1,6.2
			c-0.1,5-0.3,10.1-0.3,15.2c0,6.7,0.5,13.5,0.6,20.1c0.1,3.4,0.1,6.9,0.2,10.3c0.1,3.1,0.5,6.2,0.6,9.4c0.2,6.9,0,13.1-0.1,18.7
			c-0.1,5.7-0.2,11.4-0.2,17c0,4.6-0.3,9.1-0.3,13.7c0,4.6,0.5,9.2,0.6,13.8c0.1,7.4-0.3,15.1-0.2,22.7c0.1,17.1,0.1,37.4,0.1,54.9
			c0,1,0,2.1-0.1,3.1c-0.1,2.4-0.2,4.8-0.2,7.2c0,5.3,0.1,10.8,0.1,16.1c-0.1,5.7-0.3,11.3-0.3,16.9c0,4.3,0.3,8.6,0.3,12.9
			c0,3.3-0.3,6.5-0.3,9.8c0,7.7,0.3,15.4,0.3,23.2c0,7.4-0.6,15-0.8,22.3c-0.1,3.6,0,7.3,0.1,10.9h1.6c0-1.1,0-2.2-0.1-3.4
			C77,384.5,77.5,376,77.7,367.1z"/>
		<path class="st14" d="M54.4,373.8c0.1-3.1,0.5-6.3,0.5-9.4c0.1-4.9-0.4-10.4-0.4-15.6c0-5.4,0.3-10.8,0.3-16.1
			c0-4.2-0.4-8.5-0.4-12.5c0-7.3,0.9-16.5,0.7-21.4c-0.1-1.9-0.3-3.6-0.4-5.4c-0.2-4.6,0-9.7,0.2-14.3c0.1-2,0.1-4,0.1-5.8
			c0-2.3-0.5-6.6-0.6-9.8c-0.1-7.7,0.2-16.7-0.1-26.3c-0.1-4.6-0.2-8.8-0.2-13.4c0-4.4,0.3-8.8,0.3-13.4c0-10.9-0.1-21.2-0.1-30.3
			c0-3.6,0.2-7.1,0.1-10.6c-0.1-3.7-0.2-7.3-0.3-10.9c0-2.2-0.1-4.3-0.1-6.5c-0.1-10.5,0.6-22.5,0.4-31.7c-0.1-4.1-0.6-8.1-0.6-12
			c0-9.6,0.3-18.9,0.4-28.1c0.1-4.3,0.1-8.6,0-12.9c-0.1-6-0.9-12-0.8-17.8c0-3,0.4-5.8,0.5-8.9c0.1-4.3,0-8.8,0.1-13.4
			c0.1-4.6,0.2-9.5,0.3-14.3c0.1-5.8,0-11.7,0-17.6H53C53-2,53.1,0.4,53.1,2.2c0,1.8,0,3.5,0,5.4c0,8-0.4,15.3-0.5,22.8
			c-0.1,4.6,0.2,9.3,0,13.8c-0.1,3.1-0.5,6.3-0.5,9.4c0,5,0.9,13,1,19.2c0,2.5,0,5,0,7.6c-0.2,10.8-0.7,22.2-0.4,33.9
			c0.4,14-0.1,28.2-0.1,41.9c0,5.6,0.3,11.2,0.5,16.7c0.3,8.4-0.1,16.8-0.2,25.2c0,2.4-0.1,4.7-0.1,7.1c0,4.8-0.2,10.3-0.1,16.1
			c0,7.1,0.1,14.2,0.2,21.4c0.1,7.8,0,15.6,0.1,23.2c0.1,3.9,0.2,8.7,0.3,13.3c0.1,3.4,0.1,6.7,0.1,9.4c0,1.5-0.4,2.9-0.3,4
			c0.1,3,0.7,7.1,0.8,9.8c0,5-0.5,10.4-0.7,15.6c-0.2,8.5,0.1,17.5,0.1,25.9c0,3.1-0.3,5.8-0.3,8.9c0,4.5,0.6,8.9,0.6,13.4
			c0,4.9-0.6,9.9-0.7,14.7c-0.1,5.3,0,12.1,0.2,17.6h1.5C54.4,390.3,54.3,382,54.4,373.8z"/>
		<path class="st14" d="M31,376.5c0.1-3.4,0-6.8,0-10.3c-0.1-15.5,0.4-31.1,0.6-46.4c0.1-7.8,0.5-16,0.3-23.2
			c-0.1-3.7-0.7-8.2-0.7-11.2c0-2,0-4.1,0.1-6.3c0.1-3.8,0.4-7.7,0.4-11.6c0.1-6.2-0.2-12.3-0.2-18.3c0-6.5,0.5-14.3,0.3-19.2
			c-0.2-6.8-0.1-13.5-0.2-20.1c-0.1-7.4-0.3-14.9-0.4-22.4c0-2.2,0-4.4-0.1-6.6c0-6,0-11.9,0.1-17.9c0.2-8.5,0.4-17.3,0.4-25.8
			c-0.1-5.8-0.3-11.3-0.4-16.5c-0.1-5.3,0.3-10.8,0.3-16.1c0-5.6,0.1-11.1,0.2-16.5c0-2.7-0.1-5.4-0.2-8c-0.1-2.6-0.2-5.3-0.2-8
			c0-5,0.1-10.2,0-15.2c-0.2-10.3-0.8-20.8-0.8-31.2c0-10.1,0.6-20.1,0.5-30.6h-1.3c0,0.1,0,0.1,0,0.2c0,4.3-0.4,9.6-0.5,15.2
			c-0.1,5.5-0.2,11.4-0.1,16.5c0,2.1,0.4,5.5,0.4,8c0,2-0.2,3.8-0.2,6.2c0.1,13.3,0.7,25.8,0.9,38.8l0,0c0.1,3,0.1,5.9,0.1,8.9
			c0,9.8-0.4,21.1-0.3,32.1c0.1,10.7,0.5,21.4,0.2,31.2c-0.1,3.4-0.2,7-0.3,10.7c-0.1,6.4-0.4,12.7-0.3,19.1c0,1.8,0,3.6,0.1,5.4
			c0.1,5.5,0.1,11,0.2,16.6c0.1,11.7,0.6,23.7,0.4,34.8c-0.1,3.9-0.4,7.7-0.3,11.6c0,4.1,0.3,7.9,0.2,12c-0.1,4.2,0,8.3,0,12.5
			c0,1.3-0.1,2.6-0.1,4c-0.1,1.9-0.2,3.9-0.2,5.8c0,9,1,17.7,0.8,26.8c-0.2,7.8-0.6,15.6-0.7,23.6c-0.1,7.8-0.7,15.8-0.7,23.6
			c0,2.5,0.3,5.1,0.4,7.6c0.1,6.1-0.5,12.2-0.5,18.3c0,4.6,0.5,9.1,0.6,13.6h1.3c0-0.8,0-1.6,0-2.5C30.9,388.7,30.9,383.6,31,376.5z
			"/>
		<path class="st14" d="M20.4,370.7c-0.1-3.7-0.7-7.5-0.8-11.2c-0.2-7.2,0.2-14.6,0.1-21.9c-0.1-9-0.1-18-0.1-27.2
			c0-8.7-0.6-17.5-0.6-26.3c0-1.7,0.1-3.3,0.1-4.9c0.1-1.9,0.2-3.8,0.2-5.8c0-18.8-0.3-37.3,0-55.8c0.2-9-0.3-17.7-0.2-26.3
			c0-2,0.1-4,0.2-6c0.1-2,0.2-4,0.3-6.1c0.1-4,0.5-8,0.6-12c0.3-10.5-1-21.9-0.8-33.5c0-1.8,0.3-3.6,0.3-5.4c0.1-3.9,0-8.1,0.2-12
			c0.1-4.4,0.3-8.8,0.3-12.9c0-5.7-0.4-11.3-0.4-17c0-2,0.1-4.1,0.1-6.3c0.2-7,0.5-14.6,0.4-21.8c0-1.2-0.4-2.4-0.4-3.6
			c0-6,0.5-12.2,0.5-18.3c0-4.3-0.4-8.6-0.4-12.9c0-6.2,0.4-12.3,0.3-18.3c0-3.3-0.5-6.6-0.6-9.8c0-0.1,0-0.1,0-0.2h-1.1
			c0,2.2,0,4.3,0.1,6.5c0.1,1.9,0.3,3.8,0.4,5.8c0.2,7.1-0.6,14.1-0.5,21c0.1,6.2,0.7,12.1,0.6,18.3c0,2-0.3,3.9-0.4,5.8
			c-0.2,7,0.6,13.9,0.4,20.5c-0.1,2.5-0.5,4.9-0.6,7.1l0,0c0,0.3-0.1,0.6-0.1,0.9c-0.1,3.9,0.4,7.8,0.4,11.6c0,6.6,0,12.8-0.1,19.2
			c-0.1,4,0.2,7.9,0,11.6c-0.1,2.5-0.5,5-0.5,7.6c-0.1,7.6,0.1,15.9,0.4,21.4c0.2,3.1,0,6,0,9.1c0,2.9,0,5.8-0.2,8.7
			c-0.2,2.8-0.2,5.6-0.3,8.4c-0.1,3.1-0.4,5.8-0.5,8.9c-0.1,3.1,0,6.5,0,9.8c0.1,14.9-0.5,28.4-0.3,41c0.1,3.4,0.1,6.5,0,9.8
			c0,3-0.2,6.4-0.2,9.4c0.1,6.5,0.7,12.8,0.6,19.2c0,0.7,0,1.5-0.1,2.2c-0.1,1.7-0.3,3.3-0.3,4.9c0,7,0.4,14.3,0.4,21.4
			c0.1,11.1-0.2,22.2,0.1,33.5c0.1,5.7,0.4,11.7,0.4,17.4c0,5.7,0.2,10.9,0.4,16.5c0.2,8.6-0.3,17.1-0.3,25.7h1.1
			C19.7,389,20.6,379.9,20.4,370.7z"/>
		<path class="st14" d="M7.7,354.2c0.2-6.7,1-12.8,1.1-19.2c0.1-6.9-0.4-13.7-0.4-21c0-2.7,0.4-5.3,0.4-8c0-4.3-0.4-8.8-0.4-13.4
			c0-4.4,0.1-9,0-13.4c0-0.3,0-0.6,0-0.8c-0.2-11-0.1-22.5,0.2-33.9c0.5-18.3,0.3-35.7-0.1-52.9c-0.1-5.9-0.3-11.8-0.4-17.7
			c-0.1-5.2,0.2-10.3,0.4-15.5c0-1,0.1-2,0.1-3c0-4.4-0.3-9-0.4-13.4c-0.1-4.8,0.1-9.5,0.2-14.3c0.1-9.9-0.1-19.6,0.2-28.6
			c0.1-4,0.6-8.3,0.4-11.2c-0.2-2.4-0.3-5-0.3-7.6c-0.1-6.5,0.1-13.4,0-20.1C8.5,55.9,8.1,51.3,8,46.9c0-3.6,0.2-7.4,0.2-11.2
			c0-14.5-0.1-27.4-0.1-40.4H6.6c0,11.9,0.2,23.5,0.2,35.9c0,4.5,0.2,9,0.2,13.4c0,1.9-0.4,3.9-0.4,5.8c0,3.2,0.5,6.4,0.5,9.8
			c0.1,3.6,0.1,7.4,0.2,11.2c0.1,2.9,0.2,5.9,0.3,8.9l0,0c0.2,4.2,0.3,8.5,0.3,12.5c0,3.8-0.6,7.8-0.5,11.6c0,2.4,0.3,4.8,0.4,7.1
			c0,3.8-0.2,7.7-0.4,11.6c-0.1,4.3,0.1,8.4,0,12.5c-0.1,2.9-0.4,5.6-0.4,8.5c0.1,3.6,0.5,6.6,0.5,9.8c0.1,6.1-0.6,12.1-0.5,18.2
			c0,4.1,0.1,8.2,0.2,12.2c0,2.1,0.1,4.3,0.1,6.4c0.1,6.4,0.1,12.8,0.1,19.2c0,11.7,0,23.6-0.4,35.2c-0.3,11.5-0.3,22.7-0.2,33.9
			c0.1,9.6,0.2,19.3,0.2,29c0,9.5,0.4,19.1,0.4,28.6c0,6.8-0.9,13.7-1.1,20.5c-0.3,10.2,0.4,21.1,0.4,31.7c0,3.2,0,6.4,0,9.6h1.5
			c0-6.4,0-12.8,0-19.4C8,370.5,7.4,362,7.7,354.2z"/>
		<path class="st14" d="M43.1,380.5c-0.1-12.8-0.3-26-0.3-38.8c0-10.1,0.4-21,0.5-30.3c0-3.4-0.1-6.6-0.1-9.8c0.1-5,0.1-10,0.1-15
			c0-2.4,0-4.9,0-7.4c0-2.6,0-5.3,0-7.9c0-5.1-0.1-10.2-0.1-15.2c0-5,0-10.1,0-15.1c0-4.8,0.4-9.8,0-14.6
			c-0.6-8.1-0.4-16.4-0.4-24.5c0-2.3,0-4.6-0.1-6.9c-0.1-5.7-0.3-11.3-0.5-17c-0.1-3.7,0.4-7.4,0.5-11.1c0.1-4.5,0-9.2-0.1-13.8
			c-0.1-4.6,0.1-9.2,0.1-13.8c-0.1-9.5-0.6-19-0.4-28.6c0.1-7.9,0.6-15.8,0.7-23.6c0-2.2,0-4.5,0-6.7c0-6.3-0.2-12.5,0-18.7
			c0.1-5,0.6-9.9,0.6-14.7c0-8.1-0.5-17.5-0.6-24.5c0-9.5,0.1-18.2,0.2-27H42c-0.1,3.2-0.4,6.6-0.4,10C41.5,9.2,41.4,13,41.5,17
			c0.1,11.5,0.7,24.2,0.5,35.7c-0.1,5.3-0.6,10.5-0.6,15.6c0,4,0,8,0.1,12h0c0,3.3,0.1,6.6,0.1,9.8c0,6.8-0.6,13.3-0.7,20.1
			c-0.1,7.2,0.1,15.4,0.2,20.5c0,7.2-0.1,14.6,0,21.9c0,2.3,0.4,4.5,0.4,6.7c0.1,5.2-0.5,10.4-0.6,15.6c0,0.9,0,1.8,0,2.8
			c0.1,1.7,0.1,3.5,0.2,5.2c0.4,10.5-0.3,24.7,0.1,35.2c0.1,2.9,0.7,7.3,0.8,9.4c0.1,4.2-0.4,8.2-0.4,12.5c0,3.7,0.4,7.4,0.4,11.2
			c0.1,7.8-0.2,15.6-0.2,23.6c0,1.5,0,2.9,0.1,4.4c0.1,8.9,0.4,17.8,0.2,25.9c-0.2,6.2-0.3,11.8-0.2,16.5c0.1,9-0.4,15.4-0.4,22.3
			c0,4.7,0.3,9.5,0.3,14.3c0.1,9.9-0.4,19.6-0.1,29c0.1,3.4,0.5,6.9,0.4,10.3c0,0.4,0,0.8,0,1.1h1.1
			C43.1,392.7,43.2,386.7,43.1,380.5z"/>
		<path class="st14" d="M111.7,367.1c0-20,0.1-38.1,0.2-59.8c0-3.8-0.2-7.5-0.2-11.2c0-4.5,0.5-9,0.5-13.4c0-1.2,0-2.4,0-3.6
			c0-8.2-0.2-16.7,0.3-24c0.2-2.9-0.2-7.1-0.4-11.2c-0.3-9-0.1-18.7-0.2-28.6c-0.1-4.7-0.3-9.4-0.2-14.3c0.1-4.4,0.4-9,0.4-13.4
			c0-5.7-0.5-11.4-0.5-17.1c0-1.7,0.1-3.3,0.1-5c0-1.7,0.1-3.4,0.1-5.1c0.4-20.3,0.9-40.5,0.3-62c-0.2-6.1-0.3-12.2-0.3-18.3l0,0
			c0-5.3,0-10.5,0.1-15.6c0.1-4.7,0-9.6,0-14.3c0-4.6,0.4-9.1,0.4-13.4c0-2.8-0.4-5.3-0.4-8c0-7.3,0.5-14,0.4-21
			c-0.1-4.2-0.4-8.4-0.7-12.7h-1.2C110.7-1,111,2.6,111,6.3c0,9.4-0.4,19.1-0.4,28.6c0,15.3-0.3,30.2-0.3,45.5h0
			c0,5.8,0.1,11.5,0.2,17.4c0.3,11.6,0.4,23.6,0.4,35.2c0,9.2-0.2,18.5-0.4,27.6c-0.2,7.4,0.2,14.9,0.5,22.3
			c0.1,2.1,0.2,4.1,0.1,6.2c-0.1,3.2-0.5,6.2-0.5,9.8c0,2.8,0.3,5.6,0.4,8.5c0.1,4.1-0.1,8.2,0,12.5c0.1,3.9,0.4,7.8,0.4,11.6
			c0,2.3-0.3,4.8-0.4,7.1c0,3.8,0.5,7.8,0.5,11.6c0.1,6.9-0.4,14.3-0.5,21.4c0,2.5-0.1,5-0.1,7.5c0,1.2,0,2.4-0.1,3.6
			c-0.1,3.4-0.5,6.6-0.5,9.8c0,1.9,0.3,3.9,0.4,5.8c0.1,4.4-0.2,8.9-0.2,13.4c0.1,15.7-0.3,30.1-0.2,45.5
			c0.1,10.6-0.7,21.4-0.4,31.7c0.1,3.2,0.3,6.4,0.6,9.6h1.2c-0.1-2.1-0.3-4.3-0.4-6.5C111.1,384.3,111.7,375.8,111.7,367.1z"/>
		<path class="st14" d="M330.8,361.8c-0.1-4-0.5-7.9-0.4-11.6c0-4,0.7-8.1,0.8-12c0.3-11.9-0.2-24.6-0.2-37c0-5.8,0.2-11.7,0.2-17.4
			c0-1.5,0-3,0-4.5c0-4.5-0.1-9-0.1-13.3c0-3.5,0.4-6.9,0.3-10.3c-0.1-3.3-0.5-6.6-0.6-9.8c-0.2-5.4,0.2-10.9,0.3-16.5
			c0.1-5.8-0.3-11.5-0.3-17c0-3.3,0.3-6.5,0.3-9.8c0-8.2-0.4-16.5-0.3-24.5c0-3.7-0.2-7.4-0.3-11.1c-0.1-6.1,0.4-13.8,0.4-18.3
			c0-7.1-0.2-12.6-0.3-19.6c-0.2-13.7,0.5-26.8,0.5-39.3c0-3.2,0-6.3,0-9.4c0-9.9,0.1-19.6,0.3-29c0.1-4.5-0.3-9.4-0.3-12.5
			c0-2.3,0.3-4.6,0.3-7.1c0.1-7.8-0.5-16-0.5-24.1c0-4,0.4-8.2,0.4-12.3h-1.4c0,0.5,0,1,0,1.6c-0.1,4.7-0.5,9.3-0.5,13.8
			c0.1,4.9,0.5,9.4,0.5,14.3c0,7.7-0.2,16.8-0.2,24.5c0,9.9-0.1,20.4-0.1,30.8h0c-0.1,10.8-0.1,21.5-0.2,31.2
			c-0.1,8.5-0.2,15.2,0,22.8c0.3,11.1-0.4,21.8-0.3,32.1c0,3,0.4,6,0.4,8.9c0,2.8,0,5.6,0,8.4c0,4.4,0.4,8.9,0.5,13.4
			c0,6.3-0.3,12.6-0.2,19.2c0.1,6.6,0.2,13.6,0.1,20.1c0,2.9-0.4,5.6-0.3,8.5c0.1,4.7,0.7,9.3,0.6,13.8c0,2.3-0.3,4.4-0.3,6.7
			c0,4.6,0,9.2,0,13.8c0,10.3,0.1,20.6,0.1,30.8c0,4.7-0.3,9.3-0.3,14.3c0.1,4.9,0.4,10,0.3,14.7c-0.1,3.6-0.7,7.1-0.7,10.7
			c0,2.4,0.4,5.1,0.4,7.6c0.2,10.5,0,22.2,0,33.5c0,2.6,0.2,5.2,0.2,7.8h1.4c0-0.4,0-0.8,0-1.1C331.3,385.5,331,373.2,330.8,361.8z"
			/>
		<path class="st14" d="M319.6,367.1c0.2-12.8-0.1-24.3,0-34.4c0.1-5.8-0.3-11.6-0.3-17.4c0.1-7.8,0.5-15.5,0.4-23.2
			c0-4.4,0-8.7,0-13c0.1-9.4,0.2-18.4,0.1-26.7c-0.1-18.3,0.3-35.3,0.1-52.6c-0.1-4.9-0.6-9.1-0.6-13.4c-0.1-5.2,0.2-10.3,0.3-15.5
			c0-4.2,0.1-8.5,0.2-12.7c0-2.3,0-4.6,0.1-6.9c0.1-3.9,0.3-7.6,0.3-11.2c0-5.9-0.6-12.1-0.8-18.3c-0.2-6.8-0.5-13.7-0.6-19.6
			c-0.1-6.9,0.1-14.3,0.2-21.9c0-2.2,0-4.4,0-6.7c-0.1-10.1-0.5-20.7-0.3-30.3c0.1-6.7,0.4-13.5,0.4-20.1c0-5.8-0.1-11.4,0.1-15.6
			c0.2-4.1,0.1-8.1,0-12.3h-1.6c0.1,4.4,0.3,8.8,0.2,13.2c-0.4,22.4-0.2,45.2-0.2,65.6c0,2.1,0,4.1-0.1,6.2
			c-0.1,5-0.3,10.1-0.3,15.2c0,6.7,0.5,13.5,0.7,20.1c0.1,3.4,0.1,6.9,0.2,10.3c0.1,3.1,0.5,6.2,0.6,9.4c0.2,6.9,0,13.1-0.1,18.7
			c-0.1,5.7-0.2,11.4-0.2,17c0,4.6-0.3,9.1-0.3,13.7c0,4.6,0.5,9.2,0.6,13.8c0.1,7.4-0.3,15.1-0.2,22.7c0.1,17.1,0.1,37.4,0.1,54.9
			c0,1,0,2.1-0.1,3.1c-0.1,2.4-0.2,4.8-0.2,7.2c0,5.3,0.1,10.8,0.1,16.1c-0.1,5.7-0.3,11.3-0.3,16.9c0,4.3,0.3,8.6,0.2,12.9
			c0,3.3-0.3,6.5-0.3,9.8c0,7.7,0.3,15.4,0.3,23.2c0,7.4-0.6,15-0.8,22.3c-0.1,3.6,0,7.3,0.1,10.9h1.6c0-1.1,0-2.2-0.1-3.4
			C318.9,384.5,319.5,376,319.6,367.1z"/>
		<path class="st14" d="M296.4,373.8c0.1-3.1,0.5-6.3,0.5-9.4c0.1-4.9-0.4-10.4-0.4-15.6c0-5.4,0.3-10.8,0.3-16.1
			c0-4.2-0.4-8.5-0.4-12.5c0-7.3,0.9-16.5,0.7-21.4c-0.1-1.9-0.3-3.6-0.4-5.4c-0.2-4.6,0-9.7,0.2-14.3c0.1-2,0.1-4,0.1-5.8
			c0-2.3-0.5-6.6-0.6-9.8c-0.1-7.7,0.2-16.7-0.1-26.3c-0.1-4.6-0.2-8.8-0.2-13.4c0-4.4,0.3-8.8,0.3-13.4c0-10.9-0.1-21.2-0.1-30.3
			c0-3.6,0.2-7.1,0.1-10.6c-0.1-3.7-0.2-7.3-0.3-10.9c0-2.2-0.1-4.3-0.1-6.5c-0.1-10.5,0.6-22.5,0.4-31.7c-0.1-4.1-0.6-8.1-0.6-12
			c0-9.6,0.3-18.9,0.4-28.1h0c0.1-4.3,0.1-8.6,0-12.9c-0.1-6-0.9-12-0.8-17.8c0-3,0.4-5.8,0.5-8.9c0.1-4.3,0-8.8,0.1-13.4
			c0.1-4.6,0.2-9.5,0.3-14.3c0.1-5.8,0-11.7,0-17.6h-1.5C295-2,295,0.4,295,2.2c0,1.8,0,3.5,0,5.4c0,8-0.4,15.3-0.5,22.8
			c-0.1,4.6,0.2,9.3,0,13.8c-0.1,3.1-0.5,6.3-0.5,9.4c0,5,0.9,13,1,19.2c0,2.5,0,5,0,7.6c-0.2,10.8-0.7,22.2-0.4,33.9
			c0.4,14-0.1,28.2-0.1,41.9c0,5.6,0.3,11.2,0.5,16.7c0.3,8.4-0.1,16.8-0.2,25.2c0,2.4-0.1,4.7-0.1,7.1c0,4.8-0.1,10.3-0.1,16.1
			c0,7.1,0.1,14.2,0.3,21.4c0.1,7.8,0,15.6,0.1,23.2c0.1,3.9,0.2,8.7,0.3,13.3c0.1,3.4,0.1,6.7,0.1,9.4c0,1.5-0.4,2.9-0.3,4
			c0.1,3,0.7,7.1,0.8,9.8c0,5-0.5,10.4-0.7,15.6c-0.2,8.5,0.1,17.5,0.1,25.9c0,3.1-0.3,5.8-0.3,8.9c0,4.5,0.6,8.9,0.6,13.4
			c0,4.9-0.6,9.9-0.7,14.7c-0.1,5.3,0,12.1,0.2,17.6h1.5C296.4,390.3,296.2,382,296.4,373.8z"/>
		<path class="st14" d="M273,376.5c0.1-3.4,0-6.8,0-10.3c-0.1-15.5,0.4-31.1,0.6-46.4c0.1-7.8,0.5-16,0.3-23.2
			c-0.1-3.7-0.7-8.2-0.7-11.2c0-2,0-4.1,0.1-6.3c0.1-3.8,0.4-7.7,0.4-11.6c0.1-6.2-0.2-12.3-0.2-18.3c0-6.5,0.5-14.3,0.3-19.2
			c-0.2-6.8-0.1-13.5-0.2-20.1c-0.1-7.4-0.3-14.9-0.4-22.4c0-2.2,0-4.4-0.1-6.6c0-6,0-11.9,0.1-17.9c0.2-8.5,0.4-17.3,0.4-25.8
			c-0.1-5.8-0.3-11.3-0.4-16.5c-0.1-5.3,0.3-10.8,0.3-16.1c0-5.6,0.1-11.1,0.2-16.5c0-2.7-0.1-5.4-0.2-8c-0.1-2.6-0.2-5.3-0.2-8
			c0-5,0.1-10.2,0-15.2c-0.2-10.3-0.8-20.8-0.8-31.2c0-10.1,0.6-20.1,0.5-30.6h-1.3c0,0.1,0,0.1,0,0.2c0,4.3-0.4,9.6-0.5,15.2
			c-0.1,5.5-0.2,11.4-0.1,16.5c0,2.1,0.4,5.5,0.4,8c0,2-0.2,3.8-0.2,6.2c0.1,13.3,0.7,25.8,0.9,38.8c0.1,3,0.1,5.9,0.1,8.9
			c0,9.8-0.4,21.1-0.3,32.1c0.1,10.7,0.5,21.4,0.2,31.2c-0.1,3.4-0.2,7-0.3,10.7c-0.1,6.4-0.4,12.7-0.3,19.1c0,1.8,0,3.6,0.1,5.4
			c0.1,5.5,0.1,11,0.2,16.6c0.1,11.7,0.6,23.7,0.4,34.8c-0.1,3.9-0.4,7.7-0.3,11.6c0,4.1,0.3,7.9,0.2,12c-0.1,4.2,0,8.3,0,12.5
			c0,1.3-0.1,2.6-0.1,4c-0.1,1.9-0.2,3.9-0.2,5.8c0,9,1,17.7,0.8,26.8c-0.2,7.8-0.6,15.6-0.7,23.6c-0.1,7.8-0.7,15.8-0.7,23.6
			c0,2.5,0.3,5.1,0.4,7.6c0.1,6.1-0.5,12.2-0.5,18.3c0,4.6,0.5,9.1,0.6,13.6h1.3c0-0.8,0-1.6,0-2.5
			C272.9,388.7,272.9,383.6,273,376.5z"/>
		<path class="st14" d="M262.3,370.7c-0.1-3.7-0.7-7.5-0.8-11.2c-0.2-7.2,0.2-14.6,0.1-21.9c-0.1-9-0.1-18-0.1-27.2
			c0-8.7-0.6-17.5-0.6-26.3c0-1.7,0.1-3.3,0.1-4.9c0.1-1.9,0.2-3.8,0.2-5.8c0-18.8-0.3-37.3,0-55.8c0.2-9-0.3-17.7-0.2-26.3
			c0-2,0.1-4,0.2-6c0.1-2,0.2-4,0.3-6.1c0.1-4,0.5-8,0.6-12c0.3-10.5-1-21.9-0.8-33.5c0-1.8,0.3-3.6,0.3-5.4c0.1-3.9,0-8.1,0.2-12
			c0.1-4.4,0.3-8.8,0.3-12.9c0-5.7-0.4-11.3-0.4-17c0-2,0.1-4.1,0.1-6.3h0c0.2-7,0.5-14.6,0.4-21.8c0-1.2-0.4-2.4-0.4-3.6
			c0-6,0.5-12.2,0.5-18.3c0-4.3-0.4-8.6-0.4-12.9c0-6.2,0.4-12.3,0.3-18.3c0-3.3-0.5-6.6-0.6-9.8c0-0.1,0-0.1,0-0.2h-1.1
			c0,2.2,0,4.3,0.1,6.5c0.1,1.9,0.3,3.8,0.4,5.8c0.2,7.1-0.6,14.1-0.5,21c0.1,6.2,0.7,12.1,0.6,18.3c0,2-0.3,3.9-0.3,5.8
			c-0.2,7,0.6,13.9,0.4,20.5c-0.1,2.5-0.5,4.9-0.6,7.1c0,0.3-0.1,0.6-0.1,0.9c-0.1,3.9,0.4,7.8,0.4,11.6c0,6.6,0,12.8-0.1,19.2
			c-0.1,4,0.2,7.9,0,11.6c-0.1,2.5-0.5,5-0.5,7.6c-0.1,7.6,0.1,15.9,0.4,21.4c0.2,3.1,0,6,0,9.1c0,2.9,0,5.8-0.2,8.7
			c-0.2,2.8-0.2,5.6-0.3,8.4c-0.1,3.1-0.4,5.8-0.5,8.9c-0.1,3.1,0,6.5,0,9.8c0.1,14.9-0.5,28.4-0.3,41c0.1,3.4,0.1,6.5,0,9.8
			c0,3-0.2,6.4-0.2,9.4c0.1,6.5,0.7,12.8,0.6,19.2c0,0.7,0,1.5-0.1,2.2c-0.1,1.7-0.3,3.3-0.3,4.9c0,7,0.4,14.3,0.4,21.4
			c0.1,11.1-0.2,22.2,0.1,33.5c0.1,5.7,0.4,11.7,0.4,17.4c0,5.7,0.2,10.9,0.4,16.5c0.2,8.6-0.3,17.1-0.3,25.7h1.1
			C261.6,389,262.5,379.9,262.3,370.7z"/>
		<path class="st14" d="M249.6,354.2c0.2-6.7,1-12.8,1.1-19.2c0.1-6.9-0.4-13.7-0.4-21c0-2.7,0.4-5.3,0.4-8c0-4.3-0.4-8.8-0.4-13.4
			c0-4.4,0.1-9,0-13.4c0-0.3,0-0.6,0-0.8c-0.2-11-0.1-22.5,0.2-33.9c0.5-18.3,0.3-35.7-0.1-52.9c-0.1-5.9-0.3-11.8-0.4-17.7
			c-0.1-5.2,0.2-10.3,0.4-15.5c0-1,0.1-2,0.1-3c0-4.4-0.3-9-0.4-13.4c-0.1-4.8,0.1-9.5,0.2-14.3c0.1-9.9-0.1-19.6,0.2-28.6
			c0.1-4,0.6-8.3,0.4-11.2c-0.2-2.4-0.3-5-0.3-7.6c-0.1-6.5,0.1-13.4,0-20.1c-0.1-4.3-0.5-8.9-0.5-13.4c0-3.6,0.2-7.4,0.2-11.2
			c0-14.5-0.1-27.4-0.1-40.4h-1.5c0,11.9,0.2,23.5,0.2,35.9c0,4.5,0.2,9,0.2,13.4c0,1.9-0.4,3.9-0.4,5.8c0,3.2,0.5,6.4,0.5,9.8
			c0.1,3.6,0.1,7.4,0.2,11.2c0.1,2.9,0.2,5.9,0.3,8.9c0.2,4.2,0.3,8.5,0.3,12.5c0,3.8-0.6,7.8-0.5,11.6c0,2.4,0.3,4.8,0.4,7.1
			c0,3.8-0.2,7.7-0.4,11.6c-0.1,4.3,0.1,8.4,0,12.5c-0.1,2.9-0.4,5.6-0.4,8.5c0.1,3.6,0.5,6.6,0.5,9.8c0.1,6.1-0.6,12.1-0.5,18.2
			c0,4.1,0.1,8.2,0.2,12.2c0,2.1,0.1,4.3,0.1,6.4c0.1,6.4,0.1,12.8,0.1,19.2c0,11.7,0,23.6-0.4,35.2c-0.3,11.5-0.3,22.7-0.2,33.9
			c0.1,9.6,0.2,19.3,0.2,29c0,9.5,0.4,19.1,0.4,28.6c0,6.8-0.9,13.7-1.1,20.5c-0.3,10.2,0.4,21.1,0.4,31.7c0,3.2,0,6.4,0,9.6h1.5
			c0-6.4,0-12.8,0-19.4C250,370.5,249.3,362,249.6,354.2z"/>
		<path class="st14" d="M285.1,380.5c-0.1-12.8-0.3-26-0.3-38.8c0-10.1,0.4-21,0.5-30.3c0-3.4-0.1-6.6-0.1-9.8c0.1-5,0.1-10,0.1-15
			c0-2.4,0-4.9,0-7.4c0-2.6,0-5.3,0-7.9c0-5.1-0.1-10.2-0.1-15.2c0-5,0-10.1,0-15.1c0-4.8,0.4-9.8,0-14.6
			c-0.6-8.1-0.4-16.4-0.4-24.5c0-2.3,0-4.6-0.1-6.9c-0.1-5.7-0.3-11.3-0.5-17c-0.1-3.7,0.4-7.4,0.5-11.1c0.1-4.5,0-9.2-0.1-13.8
			c-0.1-4.6,0.1-9.2,0.1-13.8c-0.1-9.5-0.6-19-0.4-28.6c0.1-7.9,0.6-15.8,0.7-23.6c0-2.2,0-4.5,0-6.7h0c0-6.3-0.2-12.5,0-18.7
			c0.1-5,0.6-9.9,0.6-14.7c0-8.1-0.5-17.5-0.6-24.5c0-9.5,0.1-18.2,0.2-27h-1.1c-0.1,3.2-0.4,6.6-0.4,10c-0.1,3.8-0.1,7.7-0.1,11.6
			c0.1,11.5,0.7,24.2,0.5,35.7c-0.1,5.3-0.6,10.5-0.6,15.6c0,4,0,8,0.1,12c0.1,3.3,0.1,6.6,0.1,9.8c0,6.8-0.6,13.3-0.7,20.1
			c-0.1,7.2,0.1,15.4,0.2,20.5c0,7.2-0.1,14.6,0,21.9c0,2.3,0.4,4.5,0.4,6.7c0.1,5.2-0.5,10.4-0.6,15.6c0,0.9,0,1.8,0,2.8
			c0.1,1.7,0.1,3.5,0.2,5.2c0.4,10.5-0.3,24.7,0.1,35.2c0.1,2.9,0.7,7.3,0.8,9.4c0.1,4.2-0.4,8.2-0.4,12.5c0,3.7,0.4,7.4,0.5,11.2
			c0.1,7.8-0.2,15.6-0.2,23.6c0,1.5,0,2.9,0.1,4.4c0.1,8.9,0.4,17.8,0.2,25.9c-0.2,6.2-0.3,11.8-0.2,16.5c0.1,9-0.4,15.4-0.4,22.3
			c0,4.7,0.3,9.5,0.3,14.3c0.1,9.9-0.4,19.6-0.1,29c0.1,3.4,0.5,6.9,0.4,10.3c0,0.4,0,0.8,0,1.1h1.1
			C285.1,392.7,285.1,386.7,285.1,380.5z"/>
		<path class="st14" d="M353.7,367.1c0-20,0.1-38.1,0.2-59.8c0-3.8-0.2-7.5-0.2-11.2c0-4.5,0.5-9,0.5-13.4c0-1.2,0-2.4,0-3.6
			c0-8.2-0.2-16.7,0.3-24c0.2-2.9-0.2-7.1-0.4-11.2c-0.3-9-0.1-18.7-0.2-28.6c-0.1-4.7-0.3-9.4-0.2-14.3c0.1-4.4,0.4-9,0.4-13.4
			c0-5.7-0.5-11.4-0.5-17.1c0-1.7,0.1-3.3,0.1-5c0-1.7,0.1-3.4,0.1-5.1c0.4-20.3,0.9-40.5,0.3-62c-0.2-6.1-0.3-12.2-0.3-18.3
			c0-5.3,0-10.5,0.1-15.6c0.1-4.7,0-9.6,0-14.3c0-4.6,0.4-9.1,0.4-13.4c0-2.8-0.4-5.3-0.4-8c0-7.3,0.5-14,0.4-21
			c-0.1-4.2-0.4-8.4-0.7-12.7h-1.2c0.3,3.6,0.5,7.3,0.5,10.9c0,9.4-0.4,19.1-0.4,28.6c0,15.3-0.3,30.2-0.2,45.5
			c0,5.8,0.1,11.5,0.2,17.4c0.3,11.6,0.4,23.6,0.4,35.2c0,9.2-0.2,18.5-0.4,27.6c-0.2,7.4,0.2,14.9,0.5,22.3
			c0.1,2.1,0.2,4.1,0.1,6.2c-0.1,3.2-0.5,6.2-0.5,9.8c0,2.8,0.3,5.6,0.4,8.5c0.1,4.1-0.1,8.2,0,12.5c0.1,3.9,0.4,7.8,0.4,11.6
			c0,2.3-0.3,4.8-0.4,7.1c0,3.8,0.5,7.8,0.5,11.6c0.1,6.9-0.4,14.3-0.5,21.4c0,2.5-0.1,5-0.1,7.5c0,1.2,0,2.4-0.1,3.6
			c-0.1,3.4-0.5,6.6-0.5,9.8c0,1.9,0.3,3.9,0.4,5.8c0.1,4.4-0.2,8.9-0.2,13.4c0.1,15.7-0.3,30.1-0.2,45.5
			c0.1,10.6-0.7,21.4-0.4,31.7c0.1,3.2,0.3,6.4,0.6,9.6h1.2c-0.1-2.1-0.3-4.3-0.4-6.5C353,384.3,353.6,375.8,353.7,367.1z"/>
		<path class="st14" d="M135,389c0-3.9,0.1-7.4,0.1-10.2c0-3.2-0.4-4.3-0.4-6.2c0-2,0.4-4.8,0.4-6.2c0-3.7-0.2-7.4-0.2-11.2
			c0.1-10.1,0.9-21.1,0.2-30.8c-0.1-1-0.3-2.2-0.4-3.1c0-1.7,0.4-3.5,0.4-5.4c0.1-9.9-0.5-20.8-0.3-32.1c0-1.5,0.2-3,0.3-4.5
			c0-0.6,0-1.2,0-1.7c0.2-5.6-0.2-12.9-0.2-20.1c0-3,0.5-6,0.6-8.9c0.1-5.6-0.3-11.3-0.2-17c0-1.9,0.3-3.9,0.4-5.8
			c0.1-8-0.4-16.6-0.5-25c-0.1-6.9,0.3-13.8,0.2-20.5c-0.1-5.9-0.5-11.8-0.5-17.8c-0.1-5.7,0.1-11.5-0.2-17
			c-0.2-5.3-0.8-10.3-0.7-15.6c0.1-4.1,0.7-8,0.9-12.1c0.3-6.6-0.3-13-0.3-19.6c-0.1-5.6,0.3-11.6,0.5-17.8c0.2-6.4,0.5-13,0.6-19.7
			c0.2-12.6-0.5-25.7-0.5-38.4c0-5.2,0.4-10.2,0.4-15.2c0-3.6-0.1-7.6-0.1-11.8h-1.6c0,3.3,0.1,6.3,0.1,9.1
			c0.2,14.2-0.3,26.4-0.2,41c0.1,6.9,0.6,13.3,0.4,19.2c-0.1,4.6-0.3,10-0.4,15.6c0,2-0.2,4.1-0.3,6.2c0,2.4-0.3,4.7-0.4,6.7
			c-0.1,6.6,0.6,13.9,0.5,20.1c-0.1,3.5-0.4,5.5-0.6,9.8c-0.3,5.6-0.1,15.2,0.2,22.8c0.6,15.7,0.7,31.4,0.7,46.8
			c0,8.6,0,17.1,0.2,25.4c0,2.6,0.4,5.4,0.4,8c0,2.5-0.3,4.3-0.4,6.7c-0.1,4.4,0.2,8.6,0.2,12.9c0,2.7-0.3,5.4-0.4,8
			c-0.2,7.1-0.1,14.4,0,21.4c0,1.3,0,2.6,0,4c0,6.1-0.1,12.2-0.2,18.4c-0.1,10.4,0.6,21,0.7,32.1c0,4.9-0.3,9.9-0.4,15.2
			c-0.1,5.1,0.2,10.4,0.2,15.6c0,6.2-0.1,12.3-0.3,18.3c-0.1,3.4-0.1,10.2-0.1,10.2c0,3.2,0.1,6.3,0.1,9.3c0,0.1,0,0.2,0,0.3h1.6
			c0-0.1,0-0.2,0-0.3C135.2,395.2,135,389,135,389z"/>
		<path class="st14" d="M100.5,360.9c0.5-17.8,0.1-35.9,0.1-53.5c0-8.8,0.3-17.7,0.4-26.3c0-0.6,0-1.2,0-1.8
			c0.2-17-0.2-33.4-0.2-49.9c0-9.3-0.4-18.5-0.3-27.2c0.1-7.9,0.2-15.8,0.2-23.7c0-5.5-0.6-10.9-0.8-16.3
			c-0.2-5.8,0.1-12.2,0.1-18.7c0-6.1,0-12.1-0.1-18.3c-0.1-12.6,0-24.8,0.2-37c0-2.6,0-5.1,0-7.6c-0.1-4.1-0.2-8.1-0.1-12
			c0.1-3.6,0.4-6.8,0.5-10.3c0.1-6.6-0.4-13.8-0.3-21c0.2-14.5,0-27.5-0.2-41.7h-1.7c0,3.9,0.1,7.7,0.2,11.4
			C99,21.7,99,36.8,99,50.4c0,3.1,0.2,6.3,0.2,9.4c-0.1,5.5-0.5,11-0.5,16.5c0,1.3,0,2.7,0,4h0c0,4.2,0.1,8.4,0.1,12.5
			c-0.1,5.1-0.5,10.1-0.5,15.2c0,11.2,0.5,22.7,0.5,33.9c0,6.4-0.5,12.5-0.3,18.7c0.1,3.9,0.5,7.9,0.8,11.8c0.4,4.9,0.1,9.8,0,14.6
			c0,1.4-0.1,2.9-0.1,4.3c-0.2,9.6,0.2,19,0.1,28.6c-0.1,9.8,0.4,20.2,0.3,28.6c0,2.3-0.3,4.5-0.3,6.7c0,2,0.5,4.3,0.6,6.2
			c0.2,5.5-0.4,10.3-0.5,15.2c0,0.9,0,1.8,0,2.6c0,8.2,0,16.3-0.1,24.6c-0.1,4.6-0.1,9.3-0.1,13.8c0,4.5,0.4,8.8,0.4,13.4
			c0,2.5-0.3,5-0.3,7.6c0,2.6,0.2,5.4,0.2,8c0,2.9-0.4,5.9-0.5,8.9c-0.3,14.3-0.6,29.3-0.5,43.1h1.7c-0.1-3.7-0.1-7.5-0.2-11.4
			C99.9,378.5,100.2,369.6,100.5,360.9z"/>
		<path class="st14" d="M66.1,339.9c-0.2-10,0-19.9,0-29.9c0-10.3,0.2-20.5,0.2-30.8c0-4,0-8,0-12c-0.1-12.6-0.7-25.4-0.4-37.5
			c0.1-3.5,0.3-6.8,0.3-10.3c-0.1-8-0.7-14.9-0.5-22.3c0.1-4.9,0.6-10,0.6-15.2c0-5.3-0.3-10.6-0.4-15.9c0-5.3-0.1-10.6,0-15.9
			c0-2.8,0-5.6,0.1-8.3c0-3.2-0.2-6.4-0.2-9.8c-0.1-4.5,0.3-9.5,0.3-14.3c0-4.9-0.2-9.9-0.1-14.7c0.1-4.7,0.2-9.2,0.1-13.8
			c0-3,0-6,0-8.9c0.1-5.1,0.2-9.8,0.2-13.8c0-9.8-1-19.7-0.7-29.4c0.3-10.7,0.4-21.4,0.5-32.1c0-3.2,0-6.4,0.1-9.6H65
			c0,0.2,0,0.4,0,0.7c0,1.6-0.5,3.4-0.5,4.9c-0.3,9.7-0.1,17.6-0.2,26.8c-0.2,16.5,0.3,32.9,0,49.5c0,1,0,2.1,0,3.1
			c0.1,3,0.2,6,0.3,8.9c0,8.1-0.4,16.5-0.4,24.5c0,5-0.1,9.6-0.1,14.3c0,5.1,0.5,10.3,0.5,15.2c0,3.3-0.4,6.5-0.5,9.8
			c-0.1,5.1,0.3,10.3,0.5,15.6c0.1,5.1,0.1,10.3,0.2,15.4c0,1.4,0,2.8,0,4.1c0,5.2-0.8,10.8-0.8,16.5c0,5.9,0.7,11.8,0.7,17
			c0,3.2-0.4,6.5-0.5,9.8c-0.1,6,0.3,12.5,0.3,18.3c0,4.7,0.2,9.8,0.3,15.2c0.1,4.7,0.1,9.5,0,14.2c-0.1,4.7-0.2,9.2-0.3,13.4
			c-0.1,7.5,0,14.2,0.2,21.4c0.1,6.2-0.3,12.1-0.2,17.8c0,4.4,0.6,8.9,0.6,13.4c0,5.1-0.6,10.1-0.6,15.2c0,11.6,0,23.8,0.2,33.9
			c0,1.5,0.3,2.9,0.4,4.2h0.9C66.1,378.3,66.4,359.2,66.1,339.9z"/>
		<path class="st14" d="M342.4,360.9c0.5-17.8,0.1-35.9,0.1-53.5c0-8.8,0.3-17.7,0.4-26.3c0-0.6,0-1.2,0-1.8
			c0.2-17-0.2-33.4-0.2-49.9c0-9.3-0.4-18.5-0.3-27.2c0.1-7.9,0.2-15.8,0.2-23.7c0-5.5-0.6-10.9-0.8-16.3
			c-0.2-5.8,0.1-12.2,0.1-18.7c0-6.1,0-12.1-0.1-18.3c-0.1-12.6,0-24.8,0.2-37c0-2.6,0-5.1,0-7.6c-0.1-4.1-0.2-8.1-0.1-12
			c0.1-3.6,0.4-6.8,0.5-10.3c0.1-6.6-0.4-13.8-0.3-21c0.2-14.5,0-27.5-0.2-41.7h-1.7c0,3.9,0.1,7.7,0.2,11.4
			c0.3,15,0.3,30.1,0.4,43.7c0,3.1,0.3,6.3,0.2,9.4c-0.1,5.5-0.5,11-0.5,16.5c0,1.3,0,2.7,0,4c0,4.2,0.1,8.4,0.1,12.5
			c-0.1,5.1-0.5,10.1-0.5,15.2c0,11.2,0.5,22.7,0.5,33.9c0,6.4-0.5,12.5-0.3,18.7c0.1,3.9,0.5,7.9,0.8,11.8c0.4,4.9,0.1,9.8,0,14.6
			c0,1.4-0.1,2.9-0.1,4.3c-0.2,9.6,0.2,19,0.1,28.6c-0.1,9.8,0.4,20.2,0.3,28.6c0,2.3-0.3,4.5-0.3,6.7c0,2,0.5,4.3,0.6,6.2
			c0.2,5.5-0.4,10.3-0.5,15.2c0,0.9,0,1.8,0,2.6c0,8.2,0.1,16.3-0.1,24.6c-0.1,4.6-0.1,9.3-0.1,13.8c0,4.5,0.4,8.8,0.4,13.4
			c0,2.5-0.3,5-0.3,7.6c0,2.6,0.2,5.4,0.2,8c0,2.9-0.4,5.9-0.5,8.9c-0.3,14.3-0.6,29.3-0.5,43.1h1.7c-0.1-3.7-0.1-7.5-0.2-11.4
			C341.9,378.5,342.1,369.6,342.4,360.9z"/>
		<path class="st14" d="M308,339.9c-0.2-10,0-19.9,0-29.9c0-10.3,0.2-20.5,0.2-30.8c0-4,0-8,0-12c-0.1-12.6-0.7-25.4-0.4-37.5
			c0.1-3.5,0.3-6.8,0.3-10.3c-0.1-8-0.7-14.9-0.5-22.3c0.1-4.9,0.6-10,0.6-15.2c0-5.3-0.3-10.6-0.4-15.9c0-5.3-0.1-10.6,0-15.9
			c0-2.8,0-5.6,0.1-8.3c0-3.2-0.2-6.4-0.3-9.8c-0.1-4.5,0.3-9.5,0.3-14.3c0-4.9-0.2-9.9-0.1-14.7c0.1-4.7,0.2-9.2,0.1-13.8
			c0-3,0-6,0-8.9h0c0.1-5.1,0.2-9.8,0.2-13.8c0-9.8-1-19.7-0.8-29.4c0.3-10.7,0.4-21.4,0.5-32.1c0-3.2,0-6.4,0.1-9.6H307
			c0,0.2,0,0.4,0,0.7c0,1.6-0.5,3.4-0.5,4.9c-0.3,9.7-0.1,17.6-0.2,26.8c-0.2,16.5,0.3,32.9,0,49.5c0,1,0,2.1,0,3.1h0
			c0.1,3,0.3,6,0.3,8.9c0,8.1-0.4,16.5-0.4,24.5c0,5-0.1,9.6-0.1,14.3c0,5.1,0.5,10.3,0.5,15.2c0,3.3-0.4,6.5-0.5,9.8
			c-0.1,5.1,0.3,10.3,0.5,15.6c0.1,5.1,0.1,10.3,0.2,15.4c0,1.4,0,2.8,0,4.1c0,5.2-0.8,10.8-0.8,16.5c0,5.9,0.7,11.8,0.7,17
			c0,3.2-0.4,6.5-0.5,9.8c-0.1,6,0.3,12.5,0.3,18.3c0,4.7,0.2,9.8,0.3,15.2c0.1,4.7,0.1,9.5,0,14.2c-0.1,4.7-0.2,9.2-0.3,13.4
			c-0.1,7.5,0,14.2,0.2,21.4c0.1,6.2-0.3,12.1-0.2,17.8c0,4.4,0.6,8.9,0.6,13.4c0,5.1-0.6,10.1-0.6,15.2c0,11.6,0.1,23.8,0.2,33.9
			c0,1.5,0.3,2.9,0.4,4.2h0.9C308,378.3,308.3,359.2,308,339.9z"/>
		<path class="st14" d="M399.6,373.3c0-7.2,0.1-14.4,0.2-21.6c0-3.8,0.1-7.6,0.1-11.3c0-6.4-0.3-12.7-0.3-18.7
			c0-8.7,0.4-18.7,0.4-28.1c0-3-0.3-6.2-0.2-8.9c0-1.8,0.5-3.7,0.5-5.4c0-0.1,0-0.3,0-0.4c0-1.6-0.5-3.2-0.6-4.9
			c0-1.2,0.3-2.6,0.3-4c0.5-17.9-0.5-36-0.1-53.5c0.1-6.2-0.3-12.1-0.3-17.8c0-2,0.3-3.9,0.3-5.8c0.1-6.6-0.6-11.3-0.6-16.5
			c0-3.3,0.3-7,0.3-10.3c0.1-4-0.1-7.6-0.1-11.6c0-7.7,0.6-15.4,0.6-23.2c0-6.7-0.3-13.3-0.3-20.1c0-6.5,0.5-13.2,0.4-19.6
			c0-3.6-0.3-7.4-0.4-11.1c0-1.5-0.1-3-0.1-4.5c0-8.8,0.6-17.6,0.4-26.3c-0.1-4.9-0.8-10-0.8-14.7c0-2.3,0.5-7.7,0.5-11.2
			c0-2.5-0.4-9.4-0.4-11.2c0-5.7-0.1-11.4-0.1-17.1h-1.2c0,0.8,0,1.6,0,2.3c0,1.2,0,2.4,0,3.6c0.1,7.9-0.2,9.1-0.1,15.2
			c0.1,3.6,0.4,3.2,0.4,7.6c0,5.4-0.5,10.3-0.3,15.6c0.1,3.2,0.5,6.4,0.6,9.8c0.2,7.9-0.5,15.8-0.4,23.6c0,2.4,0.1,4.8,0.3,7.2
			c0.1,1.6,0.1,3.3,0.2,4.9c0.1,12.1-0.6,22.3-0.6,32.6c0,6.2,0.4,12.4,0.3,18.7c-0.2,13.8-0.9,27.9-0.7,41.5
			c0.1,4.8,0.7,9.2,0.8,13.8c0.2,19.7-0.6,38.9-0.3,58c0.1,9.4,0,18.7,0,28.1c0,0.4,0,0.8,0,1.3c0,9.1,0.2,18.3,0.1,27.3
			c0,4.9-0.4,9.5-0.5,14.3c-0.1,4.6,0.3,9.2,0.4,13.8c0.1,5.6,0.1,11.5,0.1,17c0,6.3-0.7,12.8-0.6,19.2c0,5.2,0.2,10.3,0.3,15.5
			c0.1,4.1,0,8.2,0,12.3h1.2c0-1.2,0-2.4,0-3.7C399.6,387.7,399.6,380.5,399.6,373.3z"/>
	</g>
</g>
</svg>
