<?xml version="1.0" encoding="utf-8"?>
<!-- Generator: Adobe Illustrator 24.1.2, SVG Export Plug-In . SVG Version: 6.00 Build 0)  -->
<svg version="1.1" id="Layer_1" xmlns="http://www.w3.org/2000/svg" xmlns:xlink="http://www.w3.org/1999/xlink" x="0px" y="0px"
	 viewBox="0 0 400 150" style="enable-background:new 0 0 400 150;" xml:space="preserve">
<style type="text/css">
	.st0{fill:#80BEBF;}
	.st1{fill:#F8F9ED;}
	.st2{fill:#BEC75B;}
	.st3{fill:#F4F5E6;}
	.st4{fill:#AFDADB;}
	.st5{fill:#6AA5A5;}
	.st6{fill-rule:evenodd;clip-rule:evenodd;fill:#C7BF77;}
	.st7{fill:#E8E6A5;}
	.st8{fill:#97C5CC;}
	.st9{fill:#F7F7E1;}
	.st10{fill-rule:evenodd;clip-rule:evenodd;fill:#CCB43D;}
	.st11{fill-rule:evenodd;clip-rule:evenodd;fill:#ADA734;}
	.st12{fill-rule:evenodd;clip-rule:evenodd;fill:#EEF0D8;}
	.st13{fill:#56A8BA;}
	.st14{fill:#92943B;}
</style>
<g>
	<rect x="1.1" y="-3.2" class="st4" width="397.9" height="397.9"/>
	<g>
		<path class="st5" d="M390.9,342.7c-0.1-2.4-0.1-3.5-0.2-4c0.1-0.5,0.1-1.6,0.2-4.2c0.1-4.4,0.3-11.7,1.1-20.2
			c1.2-15.3,4.1-33.2,5.7-42.6c0.5-3.1,0.8-6.6,0.8-10.1c0-3.5-0.3-7-0.8-10.1c-1.6-9.3-4.6-27.3-5.7-42.6
			c-0.8-8.5-0.9-15.8-1.1-20.2c-0.1-2.5-0.1-3.6-0.2-4.1c0.1-0.4,0.1-1.1,0.2-2.7c0.1-2.8,0.3-7.4,1.1-12.8c1.2-9.7,4.1-21,5.7-26.9
			c0.6-2,0.8-4.3,0.8-6.5c0-2.3-0.3-4.5-0.8-6.5c-1.6-5.9-4.5-17.3-5.7-27c-0.7-5.3-0.9-10-1-12.7c-0.1-1.5-0.1-2.3-0.2-2.7
			c0.1-0.5,0.1-1.5,0.2-3.9c0.1-4.2,0.3-11.1,1.1-19.1c1.2-14.5,4.1-31.5,5.7-40.4c0.5-2.9,0.8-6.3,0.8-9.6c0-3.4-0.3-6.7-0.8-9.6
			c-0.4-2.1-0.8-4.6-1.3-7.5h-1.4c0.5,2.9,1,5.6,1.4,7.7c1.1,5.7,1.1,13,0,18.7c-1.6,8.9-4.6,25.9-5.8,40.5
			c-0.3,2.8-0.5,5.4-0.6,7.8c-0.1-2.4-0.3-5.1-0.6-7.8c-1.2-14.6-4.1-31.6-5.8-40.5c-1.1-5.8-1.1-12.9,0-18.7
			c0.4-2.1,0.9-4.8,1.4-7.7h-1.4c-0.5,2.8-0.9,5.4-1.3,7.5c-1.1,6-1.1,13.3,0,19.2c1.6,8.8,4.6,25.9,5.7,40.4c0.8,8,0.9,15,1.1,19.1
			c0.1,2.4,0.1,3.4,0.2,3.9c-0.1,0.4-0.1,1.1-0.2,2.6c-0.1,2.8-0.3,7.4-1,12.8c-1.2,9.7-4.1,21-5.7,26.9c-1.1,4-1.1,9,0,13.1
			c1.6,5.9,4.5,17.3,5.7,27c0.8,5.4,0.9,10,1,12.8c0.1,1.5,0.1,2.2,0.2,2.6c-0.1,0.5-0.1,1.6-0.2,4.1c-0.1,4.4-0.3,11.7-1.1,20.2
			c-1.2,15.3-4.1,33.2-5.7,42.6c-1.1,6.3-1.1,14,0,20.3c1.6,9.3,4.6,27.3,5.7,42.6c0.8,8.5,0.9,15.8,1.1,20.2
			c0.1,2.6,0.1,3.6,0.2,4.1c-0.1,0.5-0.1,1.5-0.2,3.9c-0.1,4.2-0.3,11.1-1.1,19.1c-0.9,11.1-2.8,23.7-4.4,32.9h1.4
			c1.6-9.3,3.5-21.7,4.4-32.8c0.3-2.8,0.5-5.4,0.6-7.8c0.1,2.4,0.3,5.1,0.6,7.8c0.9,11,2.8,23.5,4.4,32.8h1.4
			c-1.6-9.3-3.5-21.8-4.4-32.9C391.2,353.8,391,346.8,390.9,342.7z M389.4,169.1c-1.2-9.8-4.1-21.2-5.8-27.1
			c-1.1-3.8-1.1-8.5,0-12.3c1.6-5.9,4.6-17.4,5.8-27.1c0.3-1.9,0.5-3.6,0.6-5.3c0.1,1.6,0.3,3.4,0.6,5.3c1.2,9.8,4.1,21.2,5.8,27.1
			c1,3.8,1,8.6,0,12.3c-1.6,5.9-4.6,17.4-5.8,27.1c-0.3,1.9-0.5,3.6-0.6,5.3C389.8,172.7,389.6,171,389.4,169.1z M389.4,314.3
			c-1.2-15.4-4.1-33.4-5.8-42.7c-1.1-6.1-1.1-13.7,0-19.8c1.6-9.4,4.6-27.4,5.8-42.7c0.3-2.9,0.5-5.7,0.6-8.3
			c0.1,2.6,0.3,5.3,0.6,8.3c1.2,15.4,4.1,33.3,5.8,42.7c1.1,6,1.1,13.8,0,19.8c-1.6,9.4-4.6,27.4-5.8,42.7c-0.3,2.9-0.5,5.7-0.6,8.3
			C389.8,320,389.6,317.2,389.4,314.3z"/>
		<path class="st5" d="M379.6,344.5c0.5-3,0.8-6.5,0.8-9.9c0-3.5-0.3-6.9-0.8-9.9c-1.6-9.1-4.6-26.7-5.7-41.7
			c-0.8-8.3-0.9-15.4-1.1-19.7c-0.1-2.5-0.1-3.6-0.2-4.1c0.1-0.4,0.1-1.3,0.2-3.4c0.1-3.5,0.3-9.4,1.1-16.3
			c1.2-12.3,4.1-26.8,5.7-34.4c0.5-2.5,0.8-5.4,0.8-8.2c0-2.9-0.3-5.7-0.8-8.2c-1.6-7.5-4.6-22-5.7-34.4c-0.8-6.8-0.9-12.7-1.1-16.3
			c-0.1-2-0.1-2.9-0.2-3.4c0.1-0.4,0.1-1.3,0.2-3.3c0.1-3.5,0.3-9.3,1.1-16c1.2-12.2,4.1-26.5,5.7-33.9c0.5-2.5,0.8-5.3,0.8-8.1
			c0-2.8-0.3-5.6-0.8-8.1c-1.6-7.4-4.6-21.7-5.7-33.9c-0.8-6.7-0.9-12.6-1.1-16c-0.1-2-0.1-2.9-0.2-3.3c0.1-0.5,0.1-1.5,0.2-4.1
			c0.1-2.7,0.2-6.6,0.4-11.1h-2.7c0.3,4.6,0.4,8.4,0.4,11.1c0.1,2.5,0.1,3.5,0.2,4c-0.1,0.4-0.1,1.3-0.2,3.3
			c-0.1,3.5-0.3,9.3-1.1,16.1c-1.2,12.2-4.1,26.5-5.7,33.9c-1.1,5-1.1,11.2,0,16.2c1.6,7.4,4.6,21.7,5.7,33.9
			c0.8,6.7,0.9,12.6,1.1,16.1c0.1,2,0.1,2.8,0.2,3.3c-0.1,0.5-0.1,1.3-0.2,3.3c-0.1,3.5-0.3,9.4-1.1,16.3
			c-1.2,12.3-4.1,26.8-5.7,34.4c-1.1,5.1-1.1,11.4,0,16.5c1.6,7.5,4.6,22,5.7,34.4c0.8,6.8,0.9,12.7,1.1,16.3c0.1,2,0.1,2.9,0.2,3.3
			c-0.1,0.5-0.1,1.5-0.2,4c-0.1,4.3-0.3,11.5-1.1,19.7c-1.2,15-4.1,32.5-5.7,41.6c-1.1,6.1-1.1,13.7,0,19.8
			c1.6,9.1,4.6,26.7,5.7,41.7c0.3,3,0.5,5.9,0.6,8.6h2.7c0.1-2.7,0.3-5.6,0.6-8.6C375,371.1,377.9,353.6,379.6,344.5z M371.3,115.2
			c-1.2-12.2-4.1-26.6-5.8-34c-1.1-4.8-1.1-10.8,0-15.7c1.6-7.5,4.6-21.8,5.8-34c0.3-2.3,0.5-4.5,0.6-6.6c0.1,2.1,0.3,4.3,0.6,6.6
			c1.2,12.2,4.1,26.6,5.8,34c1.1,4.8,1,10.9,0,15.7c-1.6,7.5-4.6,21.8-5.8,34c-0.3,2.3-0.5,4.5-0.6,6.6
			C371.7,119.8,371.5,117.6,371.3,115.2z M371.3,239.4c-1.2-12.4-4.1-27-5.8-34.5c-1.1-4.9-1.1-11,0-15.9c1.6-7.6,4.6-22.1,5.8-34.5
			c0.3-2.4,0.5-4.6,0.6-6.7c0.1,2.1,0.3,4.3,0.6,6.7c1.2,12.4,4.1,27,5.8,34.5c1,4.8,1,11,0,15.9c-1.6,7.6-4.6,22.1-5.8,34.5
			c-0.3,2.4-0.5,4.6-0.6,6.7C371.7,244,371.5,241.8,371.3,239.4z M371.3,386c-1.2-15-4.1-32.6-5.8-41.8c-1.1-6-1.1-13.4,0-19.3
			c1.6-9.2,4.6-26.8,5.8-41.8c0.3-2.9,0.5-5.6,0.6-8.1c0.1,2.5,0.3,5.2,0.6,8.1c1.2,15,4.1,32.6,5.8,41.8c1.1,5.9,1.1,13.4,0,19.3
			c-1.6,9.2-4.6,26.8-5.8,41.8c-0.3,2.9-0.5,5.6-0.6,8.1C371.7,391.6,371.5,388.8,371.3,386z"/>
		<path class="st5" d="M354.7,342.7c-0.1-2.4-0.1-3.5-0.2-4c0.1-0.5,0.1-1.6,0.2-4.2c0.1-4.4,0.3-11.7,1.1-20.2
			c1.2-15.3,4.1-33.2,5.7-42.6c0.5-3.1,0.8-6.6,0.8-10.1c0-3.5-0.3-7-0.8-10.1c-1.6-9.3-4.6-27.3-5.7-42.6
			c-0.8-8.5-0.9-15.8-1.1-20.2c-0.1-2.5-0.1-3.6-0.2-4.1c0.1-0.4,0.1-1.1,0.2-2.7c0.1-2.8,0.3-7.4,1.1-12.8c1.2-9.7,4.1-21,5.7-26.9
			c0.6-2,0.8-4.3,0.8-6.5c0-2.3-0.3-4.5-0.8-6.5c-1.6-5.9-4.5-17.3-5.7-27c-0.7-5.3-0.9-10-1-12.7c-0.1-1.5-0.1-2.3-0.2-2.7
			c0.1-0.5,0.1-1.5,0.2-3.9c0.1-4.1,0.3-11.1,1.1-19.1c1.2-14.5,4.1-31.5,5.7-40.4c0.5-2.9,0.8-6.3,0.8-9.6c0-3.4-0.3-6.7-0.8-9.6
			c-0.4-2.1-0.8-4.6-1.3-7.5h-1.4c0.5,2.9,1,5.6,1.4,7.7c1.1,5.7,1.1,13,0,18.7c-1.6,8.9-4.6,25.9-5.8,40.5
			c-0.3,2.8-0.5,5.4-0.6,7.8c-0.1-2.4-0.3-5.1-0.6-7.8c-1.2-14.6-4.1-31.6-5.8-40.5c-1.1-5.8-1.1-13,0-18.7c0.4-2.1,0.9-4.8,1.4-7.7
			h-1.4c-0.5,2.8-0.9,5.4-1.3,7.5c-1.1,5.9-1.1,13.3,0,19.2c1.6,8.8,4.6,25.9,5.7,40.4c0.8,8,0.9,15,1.1,19.1
			c0.1,2.4,0.1,3.4,0.2,3.9c-0.1,0.4-0.1,1.1-0.2,2.6c-0.1,2.8-0.3,7.4-1,12.8c-1.2,9.7-4.1,21-5.7,26.9c-1.1,4-1.1,9,0,13.1
			c1.6,5.9,4.5,17.3,5.7,27c0.8,5.4,0.9,10,1,12.8c0.1,1.5,0.1,2.2,0.2,2.6c-0.1,0.5-0.1,1.6-0.2,4.1c-0.1,4.4-0.3,11.7-1.1,20.2
			c-1.2,15.3-4.1,33.2-5.7,42.6c-1.1,6.3-1.1,14,0,20.3c1.6,9.3,4.6,27.3,5.7,42.6c0.8,8.5,0.9,15.8,1.1,20.2
			c0.1,2.6,0.1,3.6,0.2,4.1c-0.1,0.5-0.1,1.5-0.2,3.9c-0.1,4.2-0.3,11.1-1.1,19.1c-0.9,11.1-2.8,23.7-4.4,32.9h1.4
			c1.6-9.3,3.5-21.7,4.4-32.8c0.3-2.8,0.5-5.4,0.6-7.8c0.1,2.4,0.3,5.1,0.6,7.8c0.9,11,2.8,23.5,4.4,32.8h1.4
			c-1.6-9.3-3.5-21.8-4.4-32.9C355,353.8,354.8,346.8,354.7,342.7z M353.2,169.1c-1.2-9.8-4.1-21.2-5.8-27.1
			c-1.1-3.8-1.1-8.5,0-12.3c1.6-5.9,4.6-17.4,5.8-27.1c0.3-1.9,0.5-3.6,0.6-5.3c0.1,1.6,0.3,3.4,0.6,5.3c1.2,9.8,4.1,21.2,5.8,27.1
			c1,3.8,1,8.6,0,12.3c-1.6,5.9-4.6,17.4-5.8,27.1c-0.3,1.9-0.5,3.6-0.6,5.3C353.6,172.7,353.4,171,353.2,169.1z M353.2,314.3
			c-1.2-15.4-4.1-33.4-5.8-42.7c-1.1-6.1-1.1-13.7,0-19.8c1.6-9.4,4.6-27.4,5.8-42.7c0.3-2.9,0.5-5.7,0.6-8.3
			c0.1,2.6,0.3,5.3,0.6,8.3c1.2,15.4,4.1,33.3,5.8,42.7c1.1,6,1.1,13.8,0,19.8c-1.6,9.4-4.6,27.4-5.8,42.7c-0.3,2.9-0.5,5.7-0.6,8.3
			C353.6,320,353.4,317.2,353.2,314.3z"/>
		<path class="st5" d="M343.4,344.5c0.5-3,0.8-6.5,0.8-9.9c0-3.5-0.3-6.9-0.8-9.9c-1.6-9.1-4.6-26.7-5.7-41.7
			c-0.8-8.3-0.9-15.4-1.1-19.7c-0.1-2.5-0.1-3.6-0.2-4.1c0.1-0.4,0.1-1.3,0.2-3.4c0.1-3.5,0.3-9.4,1.1-16.3
			c1.2-12.3,4.1-26.8,5.7-34.4c0.5-2.5,0.8-5.4,0.8-8.2c0-2.9-0.3-5.7-0.8-8.2c-1.6-7.5-4.6-22-5.7-34.4c-0.8-6.8-0.9-12.7-1.1-16.3
			c-0.1-2-0.1-2.9-0.2-3.4c0.1-0.4,0.1-1.3,0.2-3.3c0.1-3.5,0.3-9.3,1.1-16c1.2-12.2,4.1-26.5,5.7-33.9c0.5-2.5,0.8-5.3,0.8-8.1
			c0-2.8-0.3-5.6-0.8-8.1c-1.6-7.4-4.6-21.7-5.7-33.9c-0.8-6.7-0.9-12.6-1.1-16c-0.1-2-0.1-2.9-0.2-3.3c0.1-0.5,0.1-1.5,0.2-4.1
			c0.1-2.7,0.2-6.6,0.4-11.1h-2.7c0.3,4.6,0.4,8.4,0.4,11.1c0.1,2.5,0.1,3.5,0.2,4c-0.1,0.4-0.1,1.3-0.2,3.3
			c-0.1,3.5-0.3,9.3-1.1,16.1c-1.2,12.2-4.1,26.5-5.7,33.9c-1.1,5-1.1,11.2,0,16.2c1.6,7.4,4.6,21.7,5.7,33.9
			c0.8,6.7,0.9,12.6,1.1,16.1c0.1,2,0.1,2.8,0.2,3.3c-0.1,0.5-0.1,1.3-0.2,3.3c-0.1,3.5-0.3,9.4-1.1,16.3
			c-1.2,12.3-4.1,26.8-5.7,34.4c-1.1,5.1-1.1,11.4,0,16.5c1.6,7.5,4.6,22,5.7,34.4c0.8,6.8,0.9,12.7,1.1,16.3c0.1,2,0.1,2.9,0.2,3.3
			c-0.1,0.5-0.1,1.5-0.2,4c-0.1,4.3-0.3,11.5-1.1,19.7c-1.2,15-4.1,32.5-5.7,41.6c-1.1,6.1-1.1,13.7,0,19.8
			c1.6,9.1,4.6,26.7,5.7,41.7c0.3,3,0.5,5.9,0.6,8.6h2.7c0.1-2.7,0.3-5.6,0.6-8.6C338.8,371.1,341.8,353.6,343.4,344.5z
			 M335.1,115.2c-1.2-12.2-4.1-26.6-5.8-34c-1.1-4.8-1.1-10.8,0-15.7c1.6-7.5,4.6-21.8,5.8-34c0.3-2.3,0.5-4.5,0.6-6.6
			c0.1,2.1,0.3,4.3,0.6,6.6c1.2,12.2,4.1,26.6,5.8,34c1,4.8,1,10.9,0,15.7c-1.6,7.5-4.6,21.8-5.8,34c-0.3,2.3-0.5,4.5-0.6,6.6
			C335.6,119.8,335.4,117.6,335.1,115.2z M335.1,239.4c-1.2-12.4-4.1-27-5.8-34.5c-1.1-4.9-1.1-11,0-15.9c1.6-7.6,4.6-22.1,5.8-34.5
			c0.3-2.4,0.5-4.6,0.6-6.7c0.1,2.1,0.3,4.3,0.6,6.7c1.2,12.4,4.1,27,5.8,34.5c1,4.8,1,11,0,15.9c-1.6,7.6-4.6,22.1-5.8,34.5
			c-0.3,2.4-0.5,4.6-0.6,6.7C335.6,244,335.4,241.8,335.1,239.4z M335.1,386c-1.2-15-4.1-32.6-5.8-41.8c-1.1-6-1.1-13.4,0-19.3
			c1.6-9.2,4.6-26.8,5.8-41.8c0.3-2.9,0.5-5.6,0.6-8.1c0.1,2.5,0.3,5.2,0.6,8.1c1.2,15,4.1,32.6,5.8,41.8c1.1,5.9,1.1,13.4,0,19.3
			c-1.6,9.2-4.6,26.8-5.8,41.8c-0.3,2.9-0.5,5.6-0.6,8.1C335.6,391.6,335.4,388.8,335.1,386z"/>
		<path class="st5" d="M318.5,342.7c-0.1-2.4-0.1-3.5-0.2-3.9c0.1-0.5,0.1-1.6,0.2-4.1c0.1-4.4,0.3-11.7,1.1-20.2
			c1.2-15.3,4.1-33.2,5.7-42.6c0.5-3.1,0.8-6.6,0.8-10.1c0-3.5-0.3-7-0.8-10.1c-1.6-9.3-4.6-27.3-5.7-42.6
			c-0.8-8.5-0.9-15.8-1.1-20.2c-0.1-2.5-0.1-3.6-0.2-4.1c0.1-0.4,0.1-1.1,0.2-2.6c0.1-2.8,0.3-7.4,1.1-12.8c1.2-9.7,4.1-21,5.7-26.9
			c0.6-2,0.8-4.3,0.8-6.5c0-2.3-0.3-4.5-0.8-6.5c-1.6-5.9-4.5-17.3-5.7-27c-0.8-5.3-0.9-10-1-12.8c-0.1-1.5-0.1-2.2-0.2-2.6
			c0.1-0.5,0.1-1.5,0.2-3.9c0.1-4.2,0.3-11.1,1.1-19.1c1.2-14.5,4.1-31.5,5.7-40.4c0.5-2.9,0.8-6.3,0.8-9.6c0-3.4-0.3-6.7-0.8-9.6
			c-0.4-2.1-0.8-4.6-1.3-7.5h-1.4c0.5,2.9,1,5.6,1.4,7.7c1.1,5.7,1.1,13,0,18.7c-1.6,8.9-4.6,25.9-5.8,40.5
			c-0.3,2.8-0.5,5.4-0.6,7.9c-0.1-2.4-0.3-5.1-0.6-7.8c-1.2-14.6-4.1-31.6-5.8-40.5c-1.1-5.8-1.1-13,0-18.7c0.4-2.1,0.9-4.8,1.4-7.7
			h-1.4c-0.5,2.8-0.9,5.4-1.3,7.5c-1.1,5.9-1.1,13.3,0,19.2c1.6,8.8,4.6,25.9,5.7,40.4c0.8,8,0.9,15,1.1,19.1
			c0.1,2.4,0.1,3.4,0.2,3.9c-0.1,0.4-0.1,1.1-0.2,2.6c-0.1,2.8-0.3,7.4-1.1,12.8c-1.2,9.7-4.1,21-5.7,26.9c-1.1,4-1.1,9,0,13.1
			c1.6,5.9,4.5,17.3,5.7,27c0.8,5.4,0.9,10,1.1,12.8c0.1,1.5,0.1,2.3,0.2,2.6c-0.1,0.5-0.1,1.6-0.2,4.1c-0.1,4.4-0.3,11.7-1.1,20.2
			c-1.2,15.3-4.1,33.2-5.7,42.6c-1.1,6.3-1.1,14,0,20.3c1.6,9.3,4.6,27.3,5.7,42.6c0.8,8.5,0.9,15.8,1.1,20.2
			c0.1,2.6,0.1,3.6,0.2,4.1c-0.1,0.5-0.1,1.5-0.2,3.9c-0.1,4.2-0.3,11.1-1.1,19.1c-0.9,11.1-2.8,23.7-4.4,32.9h1.4
			c1.6-9.3,3.5-21.7,4.4-32.8c0.3-2.8,0.5-5.4,0.6-7.9c0.1,2.4,0.3,5.1,0.6,7.8c0.9,11,2.8,23.5,4.4,32.8h1.4
			c-1.6-9.3-3.5-21.8-4.4-32.9C318.8,353.8,318.6,346.8,318.5,342.7z M317,169.1c-1.2-9.8-4.1-21.2-5.8-27.1
			c-1.1-3.8-1.1-8.5,0-12.3c1.6-5.9,4.6-17.4,5.8-27.1c0.3-1.9,0.5-3.6,0.6-5.3c0.1,1.6,0.3,3.4,0.6,5.3c1.2,9.8,4.1,21.2,5.8,27.1
			c1,3.8,1,8.6,0,12.3c-1.6,5.9-4.6,17.4-5.8,27.1c-0.3,1.9-0.5,3.6-0.6,5.3C317.5,172.7,317.3,171,317,169.1z M317,314.3
			c-1.2-15.4-4.1-33.3-5.8-42.7c-1.1-6.1-1.1-13.7,0-19.8c1.6-9.4,4.6-27.4,5.8-42.7c0.3-2.9,0.5-5.7,0.6-8.3
			c0.1,2.6,0.3,5.4,0.6,8.3c1.2,15.4,4.1,33.3,5.8,42.7c1.1,6,1.1,13.8,0,19.8c-1.6,9.4-4.6,27.4-5.8,42.7c-0.3,2.9-0.5,5.7-0.6,8.3
			C317.5,320,317.3,317.2,317,314.3z"/>
		<path class="st5" d="M307.2,344.5c0.5-3,0.8-6.5,0.8-9.9c0-3.5-0.3-6.9-0.8-9.9c-1.6-9.1-4.6-26.7-5.7-41.7
			c-0.8-8.3-0.9-15.4-1.1-19.7c-0.1-2.5-0.1-3.6-0.2-4.1c0.1-0.4,0.1-1.3,0.2-3.4c0.1-3.5,0.3-9.4,1.1-16.3
			c1.2-12.3,4.1-26.8,5.7-34.4c0.5-2.5,0.8-5.4,0.8-8.2c0-2.9-0.3-5.7-0.8-8.2c-1.6-7.5-4.6-22-5.7-34.4c-0.8-6.8-0.9-12.7-1.1-16.3
			c-0.1-2-0.1-2.9-0.2-3.4c0.1-0.4,0.1-1.3,0.2-3.3c0.1-3.5,0.3-9.3,1.1-16c1.2-12.2,4.1-26.5,5.7-33.9c0.5-2.5,0.8-5.3,0.8-8.1
			c0-2.8-0.3-5.6-0.8-8.1c-1.6-7.4-4.6-21.7-5.7-33.9c-0.8-6.7-0.9-12.6-1.1-16c-0.1-2-0.1-2.9-0.2-3.3c0.1-0.5,0.1-1.5,0.2-4.1
			c0.1-2.7,0.2-6.6,0.4-11.1h-2.7c0.3,4.6,0.4,8.4,0.4,11.1c0.1,2.5,0.1,3.5,0.2,4c-0.1,0.4-0.1,1.3-0.2,3.3
			c-0.1,3.5-0.3,9.3-1.1,16.1c-1.2,12.2-4.1,26.5-5.7,33.9c-1.1,5-1.1,11.2,0,16.2c1.6,7.4,4.6,21.7,5.7,33.9
			c0.8,6.7,0.9,12.6,1.1,16.1c0.1,2,0.1,2.8,0.2,3.3c-0.1,0.5-0.1,1.3-0.2,3.3c-0.1,3.5-0.3,9.4-1.1,16.3
			c-1.2,12.3-4.1,26.8-5.7,34.4c-1.1,5.1-1.1,11.4,0,16.5c1.6,7.5,4.6,22,5.7,34.4c0.8,6.8,0.9,12.7,1.1,16.3c0.1,2,0.1,2.9,0.2,3.3
			c-0.1,0.5-0.1,1.5-0.2,4c-0.1,4.3-0.3,11.5-1.1,19.7c-1.2,15-4.1,32.5-5.7,41.6c-1.1,6.1-1.1,13.7,0,19.8
			c1.6,9.1,4.6,26.7,5.7,41.7c0.3,3,0.5,5.9,0.6,8.6h2.7c0.1-2.7,0.3-5.6,0.6-8.6C302.7,371.1,305.6,353.6,307.2,344.5z
			 M298.9,115.2c-1.2-12.2-4.1-26.6-5.8-34c-1.1-4.8-1.1-10.8,0-15.7c1.6-7.5,4.6-21.8,5.8-34c0.3-2.3,0.5-4.5,0.6-6.6
			c0.1,2.1,0.3,4.3,0.6,6.6c1.2,12.2,4.1,26.6,5.8,34c1.1,4.8,1.1,10.9,0,15.7c-1.6,7.5-4.6,21.8-5.8,34c-0.3,2.3-0.5,4.5-0.6,6.6
			C299.4,119.8,299.2,117.6,298.9,115.2z M298.9,239.4c-1.2-12.4-4.1-27-5.8-34.5c-1.1-4.9-1.1-11,0-15.9c1.6-7.6,4.6-22.1,5.8-34.5
			c0.3-2.4,0.5-4.6,0.6-6.7c0.1,2.1,0.3,4.3,0.6,6.7c1.2,12.4,4.1,27,5.8,34.5c1,4.8,1,11,0,15.9c-1.6,7.6-4.6,22.1-5.8,34.5
			c-0.3,2.4-0.5,4.6-0.6,6.7C299.4,244,299.2,241.8,298.9,239.4z M298.9,386c-1.2-15-4.1-32.6-5.8-41.8c-1.1-6-1.1-13.4,0-19.3
			c1.6-9.2,4.6-26.8,5.8-41.8c0.3-2.9,0.5-5.6,0.6-8.1c0.1,2.5,0.3,5.2,0.6,8.1c1.2,15,4.1,32.6,5.8,41.8c1.1,5.9,1.1,13.4,0,19.3
			c-1.6,9.2-4.6,26.8-5.8,41.8c-0.3,2.9-0.5,5.6-0.6,8.1C299.4,391.6,299.2,388.8,298.9,386z"/>
		<path class="st5" d="M282.4,342.7c-0.1-2.4-0.1-3.5-0.2-3.9c0.1-0.5,0.1-1.6,0.2-4.1c0.1-4.4,0.3-11.7,1.1-20.2
			c1.2-15.3,4.1-33.2,5.7-42.6c0.5-3.1,0.8-6.6,0.8-10.1c0-3.5-0.3-7-0.8-10.1c-1.6-9.3-4.6-27.3-5.7-42.6
			c-0.8-8.5-0.9-15.8-1.1-20.2c-0.1-2.5-0.1-3.6-0.2-4.1c0.1-0.4,0.1-1.1,0.2-2.6c0.1-2.8,0.3-7.4,1.1-12.8c1.2-9.7,4.1-21,5.7-26.9
			c0.6-2,0.8-4.3,0.8-6.5c0-2.3-0.3-4.5-0.8-6.5c-1.6-5.9-4.5-17.3-5.7-27c-0.8-5.3-0.9-10-1-12.8c-0.1-1.5-0.1-2.2-0.2-2.6
			c0.1-0.5,0.1-1.5,0.2-3.9c0.1-4.2,0.3-11.1,1.1-19.1c1.2-14.5,4.1-31.5,5.7-40.4c0.5-2.9,0.8-6.3,0.8-9.6c0-3.4-0.3-6.7-0.8-9.6
			c-0.4-2.1-0.8-4.6-1.3-7.5h-1.4c0.5,2.9,1,5.6,1.4,7.7c1.1,5.7,1.1,13,0,18.7c-1.6,8.9-4.6,25.9-5.8,40.5
			c-0.3,2.8-0.5,5.4-0.6,7.9c-0.1-2.4-0.3-5.1-0.6-7.8c-1.2-14.6-4.1-31.6-5.8-40.5c-1.1-5.8-1.1-13,0-18.7c0.4-2.1,0.9-4.8,1.4-7.7
			h-1.4c-0.5,2.8-0.9,5.4-1.3,7.5c-1.1,5.9-1.1,13.3,0,19.2c1.6,8.8,4.6,25.9,5.7,40.4c0.8,8,0.9,15,1.1,19.1
			c0.1,2.4,0.1,3.4,0.2,3.9c-0.1,0.4-0.1,1.1-0.2,2.6c-0.1,2.8-0.3,7.4-1.1,12.8c-1.2,9.7-4.1,21-5.7,26.9c-1.1,4-1.1,9,0,13.1
			c1.6,5.9,4.5,17.3,5.7,27c0.8,5.4,0.9,10,1.1,12.8c0.1,1.5,0.1,2.3,0.2,2.6c-0.1,0.5-0.1,1.6-0.2,4.1c-0.1,4.4-0.3,11.7-1.1,20.2
			c-1.2,15.3-4.1,33.2-5.7,42.6c-1.1,6.3-1.1,14,0,20.3c1.6,9.3,4.6,27.3,5.7,42.6c0.8,8.5,0.9,15.8,1.1,20.2
			c0.1,2.6,0.1,3.6,0.2,4.1c-0.1,0.5-0.1,1.5-0.2,3.9c-0.1,4.2-0.3,11.1-1.1,19.1c-0.9,11.1-2.8,23.7-4.4,32.9h1.4
			c1.6-9.3,3.5-21.7,4.4-32.8c0.3-2.8,0.5-5.4,0.6-7.9c0.1,2.4,0.3,5.1,0.6,7.8c0.9,11,2.8,23.5,4.4,32.8h1.4
			c-1.6-9.3-3.5-21.8-4.4-32.9C282.7,353.8,282.5,346.8,282.4,342.7z M280.8,169.1c-1.2-9.8-4.1-21.2-5.8-27.1
			c-1.1-3.8-1.1-8.5,0-12.3c1.6-5.9,4.6-17.4,5.8-27.1c0.3-1.9,0.5-3.6,0.6-5.3c0.1,1.6,0.3,3.4,0.6,5.3c1.2,9.8,4.1,21.2,5.8,27.1
			c1,3.8,1,8.6,0,12.3c-1.6,5.9-4.6,17.4-5.8,27.1c-0.3,1.9-0.5,3.6-0.6,5.3C281.3,172.7,281.1,171,280.8,169.1z M280.8,314.3
			c-1.2-15.4-4.1-33.3-5.8-42.7c-1.1-6.1-1.1-13.7,0-19.8c1.6-9.4,4.6-27.4,5.8-42.7c0.3-2.9,0.5-5.7,0.6-8.3
			c0.1,2.6,0.3,5.4,0.6,8.3c1.2,15.4,4.1,33.3,5.8,42.7c1.1,6,1.1,13.8,0,19.8c-1.6,9.4-4.6,27.4-5.8,42.7c-0.3,2.9-0.5,5.7-0.6,8.3
			C281.3,320,281.1,317.2,280.8,314.3z"/>
		<path class="st5" d="M271.1,344.5c0.5-3,0.8-6.5,0.8-9.9c0-3.5-0.3-6.9-0.8-9.9c-1.6-9.1-4.6-26.7-5.7-41.7
			c-0.8-8.3-0.9-15.5-1.1-19.7c-0.1-2.5-0.1-3.6-0.2-4.1c0.1-0.4,0.1-1.3,0.2-3.3c0.1-3.5,0.3-9.4,1.1-16.3
			c1.2-12.3,4.1-26.8,5.7-34.4c0.5-2.5,0.8-5.4,0.8-8.2c0-2.9-0.3-5.7-0.8-8.2c-1.6-7.5-4.6-22-5.7-34.4c-0.8-6.8-0.9-12.7-1.1-16.3
			c-0.1-2-0.1-2.9-0.2-3.3c0.1-0.4,0.1-1.3,0.2-3.3c0.1-3.5,0.3-9.3,1.1-16.1c1.2-12.2,4.1-26.5,5.7-33.9c0.5-2.5,0.8-5.3,0.8-8.1
			c0-2.8-0.3-5.6-0.8-8.1c-1.6-7.4-4.6-21.7-5.7-33.9c-0.8-6.7-0.9-12.6-1.1-16c-0.1-2-0.1-2.9-0.2-3.3c0.1-0.5,0.1-1.5,0.2-4.1
			c0.1-2.7,0.2-6.6,0.4-11.1H262c0.3,4.6,0.4,8.4,0.4,11.1c0.1,2.5,0.1,3.6,0.2,4.1c-0.1,0.4-0.1,1.3-0.2,3.3
			c-0.1,3.5-0.3,9.3-1.1,16.1c-1.2,12.2-4.1,26.5-5.7,33.9c-1.1,5-1.1,11.2,0,16.2c1.6,7.4,4.6,21.7,5.7,33.9
			c0.8,6.7,0.9,12.6,1.1,16c0.1,2,0.1,2.9,0.2,3.3c-0.1,0.5-0.1,1.3-0.2,3.3c-0.1,3.5-0.3,9.4-1.1,16.3c-1.2,12.3-4.1,26.8-5.7,34.4
			c-1.1,5.1-1.1,11.4,0,16.5c1.6,7.5,4.6,22,5.7,34.4c0.8,6.8,0.9,12.7,1.1,16.3c0.1,2,0.1,2.9,0.2,3.3c-0.1,0.5-0.1,1.5-0.2,4.1
			c-0.1,4.3-0.3,11.5-1.1,19.7c-1.2,15-4.1,32.5-5.7,41.6c-1.1,6.1-1.1,13.7,0,19.8c1.6,9.1,4.6,26.7,5.7,41.7
			c0.3,3,0.5,5.9,0.6,8.6h2.7c0.1-2.7,0.3-5.6,0.6-8.6C266.5,371.1,269.4,353.6,271.1,344.5z M262.8,115.2
			c-1.2-12.2-4.1-26.6-5.8-34c-1.1-4.8-1.1-10.8,0-15.7c1.6-7.5,4.6-21.8,5.8-34c0.3-2.3,0.5-4.6,0.6-6.6c0.1,2.1,0.3,4.3,0.6,6.6
			c1.2,12.2,4.1,26.6,5.8,34c1,4.8,1,10.9,0,15.7c-1.6,7.5-4.6,21.8-5.8,34c-0.3,2.3-0.5,4.6-0.6,6.6
			C263.2,119.8,263,117.6,262.8,115.2z M262.8,239.4c-1.2-12.4-4.1-27-5.8-34.5c-1.1-4.9-1.1-11,0-15.9c1.6-7.6,4.6-22.1,5.8-34.5
			c0.3-2.4,0.5-4.6,0.6-6.7c0.1,2.1,0.3,4.3,0.6,6.7c1.2,12.4,4.1,27,5.8,34.5c1,4.8,1,11,0,15.9c-1.6,7.6-4.6,22.1-5.8,34.5
			c-0.3,2.4-0.5,4.6-0.6,6.7C263.2,244,263,241.8,262.8,239.4z M262.8,386c-1.2-15-4.1-32.6-5.8-41.8c-1.1-6-1.1-13.4,0-19.3
			c1.6-9.2,4.6-26.8,5.8-41.8c0.3-2.9,0.5-5.6,0.6-8.1c0.1,2.5,0.3,5.2,0.6,8.1c1.2,15,4.1,32.6,5.8,41.8c1.1,5.9,1.1,13.4,0,19.3
			c-1.6,9.2-4.6,26.8-5.8,41.8c-0.3,2.9-0.5,5.6-0.6,8.1C263.2,391.6,263,388.8,262.8,386z"/>
		<path class="st5" d="M246.2,342.7c-0.1-2.4-0.1-3.5-0.2-3.9c0.1-0.5,0.1-1.6,0.2-4.1c0.1-4.4,0.3-11.7,1.1-20.2
			c1.2-15.3,4.1-33.2,5.7-42.6c0.5-3.1,0.8-6.6,0.8-10.1c0-3.5-0.3-7-0.8-10.1c-1.6-9.3-4.6-27.3-5.7-42.6
			c-0.8-8.5-0.9-15.8-1.1-20.2c-0.1-2.5-0.1-3.6-0.2-4.1c0.1-0.4,0.1-1.1,0.2-2.6c0.1-2.8,0.3-7.4,1.1-12.8c1.2-9.7,4.1-21,5.7-26.9
			c0.6-2,0.8-4.3,0.8-6.5c0-2.3-0.3-4.5-0.8-6.5c-1.6-5.9-4.5-17.3-5.7-27c-0.8-5.3-0.9-10-1-12.8c-0.1-1.5-0.1-2.2-0.2-2.6
			c0.1-0.5,0.1-1.5,0.2-3.9c0.1-4.2,0.3-11.1,1.1-19.1c1.2-14.5,4.1-31.5,5.7-40.4c0.5-2.9,0.8-6.3,0.8-9.6c0-3.4-0.3-6.7-0.8-9.6
			c-0.4-2.1-0.8-4.6-1.3-7.5h-1.4c0.5,2.9,1,5.6,1.4,7.7c1.1,5.7,1.1,13,0,18.7c-1.6,8.9-4.6,25.9-5.8,40.5
			c-0.3,2.8-0.5,5.4-0.6,7.9c-0.1-2.4-0.3-5.1-0.6-7.8c-1.2-14.6-4.1-31.6-5.8-40.5c-1.1-5.8-1.1-13,0-18.7c0.4-2.1,0.9-4.8,1.4-7.7
			h-1.4c-0.5,2.8-0.9,5.4-1.3,7.5c-1.1,5.9-1.1,13.3,0,19.2c1.6,8.8,4.6,25.9,5.7,40.4c0.8,8,0.9,15,1.1,19.1
			c0.1,2.4,0.1,3.4,0.2,3.9c-0.1,0.4-0.1,1.1-0.2,2.6c-0.1,2.8-0.3,7.4-1.1,12.8c-1.2,9.7-4.1,21-5.7,26.9c-1.1,4-1.1,9,0,13.1
			c1.6,5.9,4.5,17.3,5.7,27c0.8,5.4,0.9,10,1.1,12.8c0.1,1.5,0.1,2.3,0.2,2.6c-0.1,0.5-0.1,1.6-0.2,4.1c-0.1,4.4-0.3,11.7-1.1,20.2
			c-1.2,15.3-4.1,33.2-5.7,42.6c-1.1,6.3-1.1,14,0,20.3c1.6,9.3,4.6,27.3,5.7,42.6c0.8,8.5,0.9,15.8,1.1,20.2
			c0.1,2.6,0.1,3.6,0.2,4.1c-0.1,0.5-0.1,1.5-0.2,3.9c-0.1,4.2-0.3,11.1-1.1,19.1c-0.9,11.1-2.8,23.7-4.4,32.9h1.4
			c1.6-9.3,3.5-21.7,4.4-32.8c0.3-2.8,0.5-5.4,0.6-7.9c0.1,2.4,0.3,5.1,0.6,7.8c0.9,11,2.8,23.5,4.4,32.8h1.4
			c-1.6-9.3-3.5-21.8-4.4-32.9C246.5,353.8,246.3,346.8,246.2,342.7z M244.7,169.1c-1.2-9.8-4.1-21.2-5.8-27.1
			c-1.1-3.8-1.1-8.5,0-12.3c1.6-5.9,4.6-17.4,5.8-27.1c0.3-1.9,0.5-3.6,0.6-5.3c0.1,1.6,0.3,3.4,0.6,5.3c1.2,9.8,4.1,21.2,5.8,27.1
			c1,3.8,1,8.6,0,12.3c-1.6,5.9-4.6,17.4-5.8,27.1c-0.3,1.9-0.5,3.6-0.6,5.3C245.1,172.7,244.9,171,244.7,169.1z M244.7,314.3
			c-1.2-15.4-4.1-33.3-5.8-42.7c-1.1-6.1-1.1-13.7,0-19.8c1.6-9.4,4.6-27.4,5.8-42.7c0.3-2.9,0.5-5.7,0.6-8.3
			c0.1,2.6,0.3,5.4,0.6,8.3c1.2,15.4,4.1,33.3,5.8,42.7c1.1,6,1.1,13.8,0,19.8c-1.6,9.4-4.6,27.4-5.8,42.7c-0.3,2.9-0.5,5.7-0.6,8.3
			C245.1,320,244.9,317.2,244.7,314.3z"/>
		<path class="st5" d="M234.9,344.5c0.5-3,0.8-6.5,0.8-9.9c0-3.5-0.3-6.9-0.8-9.9c-1.6-9.1-4.6-26.7-5.7-41.7
			c-0.8-8.3-0.9-15.5-1.1-19.7c-0.1-2.5-0.1-3.6-0.2-4.1c0.1-0.4,0.1-1.3,0.2-3.3c0.1-3.5,0.3-9.4,1.1-16.3
			c1.2-12.3,4.1-26.8,5.7-34.4c0.5-2.5,0.8-5.4,0.8-8.2c0-2.9-0.3-5.7-0.8-8.2c-1.6-7.5-4.6-22-5.7-34.4c-0.8-6.8-0.9-12.7-1.1-16.3
			c-0.1-2-0.1-2.9-0.2-3.3c0.1-0.4,0.1-1.3,0.2-3.3c0.1-3.5,0.3-9.3,1.1-16.1c1.2-12.2,4.1-26.5,5.7-33.9c0.5-2.5,0.8-5.3,0.8-8.1
			c0-2.8-0.3-5.6-0.8-8.1c-1.6-7.4-4.6-21.7-5.7-33.9c-0.8-6.7-0.9-12.6-1.1-16c-0.1-2-0.1-2.9-0.2-3.3c0.1-0.5,0.1-1.5,0.2-4.1
			c0.1-2.7,0.2-6.6,0.4-11.1h-2.7c0.3,4.6,0.4,8.4,0.4,11.1c0.1,2.5,0.1,3.6,0.2,4.1c-0.1,0.4-0.1,1.3-0.2,3.3
			c-0.1,3.5-0.3,9.3-1.1,16.1c-1.2,12.2-4.1,26.5-5.7,33.9c-1.1,5-1.1,11.2,0,16.2c1.6,7.4,4.6,21.7,5.7,33.9
			c0.8,6.7,0.9,12.6,1.1,16c0.1,2,0.1,2.9,0.2,3.3c-0.1,0.5-0.1,1.3-0.2,3.3c-0.1,3.5-0.3,9.4-1.1,16.3c-1.2,12.3-4.1,26.8-5.7,34.4
			c-1.1,5.1-1.1,11.4,0,16.5c1.6,7.5,4.6,22,5.7,34.4c0.8,6.8,0.9,12.7,1.1,16.3c0.1,2,0.1,2.9,0.2,3.3c-0.1,0.5-0.1,1.5-0.2,4.1
			c-0.1,4.3-0.3,11.5-1.1,19.7c-1.2,15-4.1,32.5-5.7,41.6c-1.1,6.1-1.1,13.7,0,19.8c1.6,9.1,4.6,26.7,5.7,41.7
			c0.3,3,0.5,5.9,0.6,8.6h2.7c0.1-2.7,0.3-5.6,0.6-8.6C230.3,371.1,233.3,353.6,234.9,344.5z M226.6,115.2
			c-1.2-12.2-4.1-26.6-5.8-34c-1.1-4.8-1.1-10.8,0-15.7c1.6-7.5,4.6-21.8,5.8-34c0.3-2.3,0.5-4.6,0.6-6.6c0.1,2.1,0.3,4.3,0.6,6.6
			c1.2,12.2,4.1,26.6,5.8,34c1.1,4.8,1,10.9,0,15.7c-1.6,7.5-4.6,21.8-5.8,34c-0.3,2.3-0.5,4.6-0.6,6.6
			C227,119.8,226.8,117.6,226.6,115.2z M226.6,239.4c-1.2-12.4-4.1-27-5.8-34.5c-1.1-4.9-1.1-11,0-15.9c1.6-7.6,4.6-22.1,5.8-34.5
			c0.3-2.4,0.5-4.6,0.6-6.7c0.1,2.1,0.3,4.3,0.6,6.7c1.2,12.4,4.1,27,5.8,34.5c1,4.8,1,11,0,15.9c-1.6,7.6-4.6,22.1-5.8,34.5
			c-0.3,2.4-0.5,4.6-0.6,6.7C227,244,226.8,241.8,226.6,239.4z M226.6,386c-1.2-15-4.1-32.6-5.8-41.8c-1.1-6-1.1-13.4,0-19.3
			c1.6-9.2,4.6-26.8,5.8-41.8c0.3-2.9,0.5-5.6,0.6-8.1c0.1,2.5,0.3,5.2,0.6,8.1c1.2,15,4.1,32.6,5.8,41.8c1.1,5.9,1.1,13.4,0,19.3
			c-1.6,9.2-4.6,26.8-5.8,41.8c-0.3,2.9-0.5,5.6-0.6,8.1C227,391.6,226.8,388.8,226.6,386z"/>
		<path class="st5" d="M210,342.7c-0.1-2.4-0.1-3.5-0.2-3.9c0.1-0.5,0.1-1.6,0.2-4.1c0.1-4.4,0.3-11.7,1.1-20.2
			c1.2-15.3,4.1-33.2,5.7-42.6c0.5-3.1,0.8-6.6,0.8-10.1c0-3.5-0.3-7-0.8-10.1c-1.6-9.3-4.6-27.3-5.7-42.6
			c-0.8-8.5-0.9-15.8-1.1-20.2c-0.1-2.5-0.1-3.6-0.2-4.1c0.1-0.4,0.1-1.1,0.2-2.6c0.1-2.8,0.3-7.4,1.1-12.8c1.2-9.7,4.1-21,5.7-26.9
			c0.6-2,0.8-4.3,0.8-6.5c0-2.3-0.3-4.5-0.8-6.5c-1.6-5.9-4.5-17.3-5.7-27c-0.8-5.3-0.9-10-1-12.8c-0.1-1.5-0.1-2.2-0.2-2.6
			c0.1-0.5,0.1-1.5,0.2-3.9c0.1-4.2,0.3-11.1,1.1-19.1c1.2-14.5,4.1-31.5,5.7-40.4c0.5-2.9,0.8-6.3,0.8-9.6c0-3.4-0.3-6.7-0.8-9.6
			c-0.4-2.1-0.8-4.6-1.3-7.5h-1.4c0.5,2.9,1,5.6,1.4,7.7c1.1,5.7,1.1,13,0,18.7c-1.6,8.9-4.6,25.9-5.8,40.5
			c-0.3,2.8-0.5,5.4-0.6,7.9c-0.1-2.4-0.3-5.1-0.6-7.9c-1.2-14.6-4.1-31.6-5.8-40.5c-1.1-5.8-1.1-13,0-18.7c0.4-2.1,0.9-4.8,1.4-7.7
			h-1.4c-0.5,2.8-0.9,5.4-1.3,7.5c-1.1,5.9-1.1,13.3,0,19.2c1.6,8.8,4.6,25.9,5.7,40.4c0.8,8,0.9,15,1.1,19.1
			c0.1,2.4,0.1,3.4,0.2,3.9c-0.1,0.4-0.1,1.1-0.2,2.7c-0.1,2.8-0.3,7.4-1,12.8c-1.2,9.7-4.1,21-5.7,26.9c-1.1,4-1.1,9,0,13.1
			c1.6,5.9,4.5,17.3,5.7,27c0.8,5.3,0.9,10,1,12.7c0.1,1.5,0.1,2.3,0.2,2.7c-0.1,0.5-0.1,1.6-0.2,4.1c-0.1,4.4-0.3,11.7-1.1,20.2
			c-1.2,15.3-4.1,33.2-5.7,42.6c-1.1,6.3-1.1,14,0,20.3c1.6,9.3,4.6,27.3,5.7,42.6c0.8,8.5,0.9,15.8,1.1,20.2
			c0.1,2.6,0.1,3.7,0.2,4.2c-0.1,0.5-0.1,1.5-0.2,4c-0.1,4.2-0.3,11.1-1.1,19.1c-0.9,11.1-2.8,23.7-4.4,32.9h1.4
			c1.6-9.3,3.5-21.7,4.4-32.8c0.3-2.8,0.5-5.4,0.6-7.9c0.1,2.4,0.3,5.1,0.6,7.9c0.9,11,2.8,23.5,4.4,32.8h1.4
			c-1.6-9.3-3.5-21.8-4.4-32.9C210.3,353.8,210.1,346.8,210,342.7z M208.5,169.1c-1.2-9.8-4.1-21.2-5.8-27.1
			c-1.1-3.8-1.1-8.5,0-12.3c1.6-5.9,4.6-17.4,5.8-27.1c0.3-1.9,0.5-3.6,0.6-5.3c0.1,1.6,0.3,3.4,0.6,5.3c1.2,9.8,4.1,21.2,5.8,27.1
			c1,3.8,1,8.6,0,12.3c-1.6,5.9-4.6,17.4-5.8,27.1c-0.3,1.9-0.5,3.6-0.6,5.3C208.9,172.7,208.8,171,208.5,169.1z M208.5,314.3
			c-1.2-15.4-4.1-33.3-5.8-42.7c-1.1-6.1-1.1-13.7,0-19.8c1.6-9.4,4.6-27.4,5.8-42.7c0.3-2.9,0.5-5.7,0.6-8.3
			c0.1,2.6,0.3,5.4,0.6,8.3c1.2,15.4,4.1,33.3,5.8,42.7c1.1,6,1.1,13.8,0,19.8c-1.6,9.4-4.6,27.4-5.8,42.7c-0.3,2.9-0.5,5.7-0.6,8.3
			C208.9,320,208.8,317.2,208.5,314.3z"/>
		<path class="st5" d="M198.7,344.5c0.5-3,0.8-6.5,0.8-9.9c0-3.5-0.3-6.9-0.8-9.9c-1.6-9.1-4.6-26.7-5.7-41.7
			c-0.8-8.3-0.9-15.4-1.1-19.7c-0.1-2.5-0.1-3.6-0.2-4.1c0.1-0.5,0.1-1.3,0.2-3.4c0.1-3.5,0.3-9.4,1.1-16.3
			c1.2-12.3,4.1-26.8,5.7-34.4c0.5-2.5,0.8-5.4,0.8-8.2c0-2.9-0.3-5.7-0.8-8.2c-1.6-7.5-4.6-22-5.7-34.4c-0.8-6.8-0.9-12.7-1.1-16.3
			c-0.1-2-0.1-2.9-0.2-3.3c0.1-0.4,0.1-1.3,0.2-3.3c0.1-3.5,0.3-9.3,1.1-16.1c1.2-12.2,4.1-26.5,5.7-33.9c0.5-2.5,0.8-5.3,0.8-8.1
			c0-2.8-0.3-5.6-0.8-8.1c-1.6-7.4-4.6-21.7-5.7-33.9c-0.8-6.7-0.9-12.6-1.1-16c-0.1-2-0.1-2.9-0.2-3.3c0.1-0.5,0.1-1.5,0.2-4.1
			c0.1-2.7,0.2-6.6,0.4-11.1h-2.7c0.3,4.6,0.4,8.4,0.4,11.1c0.1,2.5,0.1,3.6,0.2,4.1c-0.1,0.4-0.1,1.3-0.2,3.3
			c-0.1,3.5-0.3,9.3-1.1,16.1c-1.2,12.2-4.1,26.5-5.7,33.9c-1.1,5-1.1,11.2,0,16.2c1.6,7.4,4.6,21.7,5.7,33.9
			c0.8,6.7,0.9,12.6,1.1,16c0.1,2,0.1,2.9,0.2,3.3c-0.1,0.5-0.1,1.3-0.2,3.3c-0.1,3.5-0.3,9.4-1.1,16.3c-1.2,12.3-4.1,26.8-5.7,34.4
			c-1.1,5.1-1.1,11.4,0,16.5c1.6,7.5,4.6,22,5.7,34.4c0.8,6.8,0.9,12.7,1.1,16.3c0.1,2,0.1,2.9,0.2,3.3c-0.1,0.5-0.1,1.5-0.2,4.1
			c-0.1,4.3-0.3,11.5-1.1,19.7c-1.2,15-4.1,32.5-5.7,41.6c-1.1,6.1-1.1,13.7,0,19.8c1.6,9.1,4.6,26.7,5.7,41.7
			c0.3,3,0.5,5.9,0.6,8.6h2.7c0.1-2.7,0.3-5.6,0.6-8.6C194.2,371.1,197.1,353.6,198.7,344.5z M190.4,115.2
			c-1.2-12.2-4.1-26.6-5.8-34c-1.1-4.8-1.1-10.8,0-15.7c1.6-7.5,4.6-21.8,5.8-34c0.3-2.3,0.5-4.6,0.6-6.6c0.1,2.1,0.3,4.3,0.6,6.6
			c1.2,12.2,4.1,26.6,5.8,34c1.1,4.8,1.1,10.9,0,15.7c-1.6,7.5-4.6,21.8-5.8,34c-0.3,2.3-0.5,4.6-0.6,6.6
			C190.9,119.8,190.7,117.6,190.4,115.2z M190.4,239.4c-1.2-12.4-4.1-27-5.8-34.5c-1.1-4.9-1.1-11,0-15.9c1.6-7.6,4.6-22.1,5.8-34.5
			c0.3-2.4,0.5-4.6,0.6-6.7c0.1,2.1,0.3,4.3,0.6,6.7c1.2,12.4,4.1,27,5.8,34.5c1,4.8,1,11,0,15.9c-1.6,7.6-4.6,22.1-5.8,34.5
			c-0.3,2.4-0.5,4.6-0.6,6.7C190.9,244,190.7,241.8,190.4,239.4z M190.4,386c-1.2-15-4.1-32.6-5.8-41.8c-1.1-6-1.1-13.4,0-19.3
			c1.6-9.2,4.6-26.8,5.8-41.8c0.3-2.9,0.5-5.6,0.6-8.1c0.1,2.5,0.3,5.2,0.6,8.1c1.2,15,4.1,32.6,5.8,41.8c1.1,5.9,1.1,13.4,0,19.3
			c-1.6,9.2-4.6,26.8-5.8,41.8c-0.3,2.9-0.5,5.6-0.6,8.1C190.9,391.6,190.7,388.8,190.4,386z"/>
		<path class="st5" d="M173.8,342.7c-0.1-2.4-0.1-3.4-0.2-3.9c0.1-0.5,0.1-1.6,0.2-4.2c0.1-4.4,0.3-11.7,1.1-20.2
			c1.2-15.3,4.1-33.2,5.7-42.6c0.5-3.1,0.8-6.6,0.8-10.1c0-3.5-0.3-7-0.8-10.1c-1.6-9.3-4.6-27.3-5.7-42.6
			c-0.8-8.5-0.9-15.8-1.1-20.2c-0.1-2.5-0.1-3.6-0.2-4.1c0.1-0.4,0.1-1.1,0.2-2.6c0.1-2.8,0.3-7.4,1.1-12.8c1.2-9.7,4.1-21,5.7-26.9
			c0.6-2,0.8-4.3,0.8-6.5c0-2.3-0.3-4.5-0.8-6.5c-1.6-5.9-4.5-17.3-5.7-27c-0.8-5.3-0.9-10-1-12.8c-0.1-1.5-0.1-2.3-0.2-2.6
			c0.1-0.5,0.1-1.5,0.2-3.9c0.1-4.2,0.3-11.1,1.1-19.1c1.2-14.5,4.1-31.5,5.7-40.4c0.5-2.9,0.8-6.3,0.8-9.6c0-3.4-0.3-6.7-0.8-9.6
			c-0.4-2.1-0.8-4.6-1.3-7.5h-1.4c0.5,2.9,1,5.6,1.4,7.7c1.1,5.7,1.1,13,0,18.7c-1.6,8.9-4.6,25.9-5.8,40.5
			c-0.3,2.8-0.5,5.4-0.6,7.8c-0.1-2.4-0.3-5.1-0.6-7.8c-1.2-14.6-4.1-31.6-5.8-40.5c-1.1-5.8-1.1-12.9,0-18.7
			c0.4-2.1,0.9-4.8,1.4-7.7h-1.4c-0.5,2.8-0.9,5.4-1.3,7.5c-1.1,6-1.1,13.3,0,19.2c1.6,8.8,4.6,25.9,5.7,40.4c0.8,8,0.9,15,1.1,19.1
			c0.1,2.4,0.1,3.4,0.2,3.9c-0.1,0.4-0.1,1.1-0.2,2.6c-0.1,2.8-0.3,7.4-1.1,12.8c-1.2,9.7-4.1,21-5.7,26.9c-1.1,4-1.1,9,0,13.1
			c1.6,5.9,4.5,17.3,5.7,27c0.8,5.3,0.9,10,1,12.7c0.1,1.5,0.1,2.3,0.2,2.6c-0.1,0.5-0.1,1.6-0.2,4.1c-0.1,4.4-0.3,11.7-1.1,20.2
			c-1.2,15.3-4.1,33.2-5.7,42.6c-1.1,6.3-1.1,14,0,20.3c1.6,9.3,4.6,27.3,5.7,42.6c0.8,8.5,0.9,15.8,1.1,20.2
			c0.1,2.6,0.1,3.7,0.2,4.2c-0.1,0.5-0.1,1.5-0.2,3.9c-0.1,4.2-0.3,11.1-1.1,19.1c-0.9,11.1-2.8,23.7-4.4,32.9h1.4
			c1.6-9.3,3.5-21.7,4.4-32.8c0.3-2.8,0.5-5.4,0.6-7.8c0.1,2.4,0.3,5.1,0.6,7.8c0.9,11.1,2.8,23.5,4.4,32.8h1.4
			c-1.6-9.2-3.5-21.8-4.4-32.9C174.1,353.8,174,346.8,173.8,342.7z M172.3,169.1c-1.2-9.8-4.1-21.2-5.8-27.1
			c-1.1-3.8-1.1-8.5,0-12.3c1.6-5.9,4.6-17.4,5.8-27.1c0.3-1.9,0.5-3.6,0.6-5.3c0.1,1.6,0.3,3.4,0.6,5.3c1.2,9.8,4.1,21.2,5.8,27.1
			c1,3.8,1,8.6,0,12.3c-1.6,5.9-4.6,17.4-5.8,27.1c-0.3,1.9-0.5,3.6-0.6,5.3C172.8,172.7,172.6,171,172.3,169.1z M172.3,314.3
			c-1.2-15.4-4.1-33.3-5.8-42.7c-1.1-6.1-1.1-13.7,0-19.8c1.6-9.4,4.6-27.4,5.8-42.7c0.3-2.9,0.5-5.7,0.6-8.3
			c0.1,2.6,0.3,5.4,0.6,8.3c1.2,15.4,4.1,33.4,5.8,42.7c1.1,6,1.1,13.8,0,19.8c-1.6,9.4-4.6,27.3-5.7,42.7c-0.3,2.9-0.5,5.7-0.6,8.3
			C172.8,320,172.6,317.2,172.3,314.3z"/>
		<path class="st5" d="M162.5,344.5c0.5-3,0.8-6.5,0.8-9.9l0,0c0-3.5-0.3-6.9-0.8-9.9c-1.6-9.1-4.6-26.7-5.7-41.7
			c-0.8-8.3-0.9-15.4-1.1-19.7c-0.1-2.5-0.1-3.6-0.2-4.1c0.1-0.4,0.1-1.3,0.2-3.3c0.1-3.5,0.3-9.4,1.1-16.3
			c1.2-12.3,4.1-26.8,5.7-34.4c0.5-2.5,0.8-5.4,0.8-8.2c0-2.9-0.3-5.7-0.8-8.2c-1.6-7.5-4.6-22-5.7-34.4c-0.8-6.8-0.9-12.7-1.1-16.3
			c-0.1-2-0.1-2.9-0.2-3.3c0.1-0.4,0.1-1.3,0.2-3.3c0.1-3.5,0.3-9.3,1.1-16.1c1.2-12.2,4.1-26.5,5.7-33.9c0.5-2.5,0.8-5.3,0.8-8.1
			c0-2.8-0.3-5.6-0.8-8.1c-1.6-7.4-4.6-21.7-5.7-33.9c-0.8-6.7-0.9-12.6-1.1-16c-0.1-2-0.1-2.9-0.2-3.3c0.1-0.5,0.1-1.5,0.2-4.1
			c0.1-2.7,0.2-6.6,0.4-11.1h-2.7c0.3,4.6,0.4,8.4,0.4,11.1c0.1,2.5,0.1,3.6,0.2,4.1c-0.1,0.4-0.1,1.3-0.2,3.3
			c-0.1,3.5-0.3,9.3-1.1,16.1c-1.2,12.2-4.1,26.5-5.7,33.9c-1.1,5-1.1,11.2,0,16.2c1.6,7.4,4.6,21.7,5.7,33.9
			c0.8,6.7,0.9,12.6,1.1,16c0.1,2,0.1,2.9,0.2,3.3c-0.1,0.5-0.1,1.3-0.2,3.3c-0.1,3.5-0.3,9.4-1.1,16.3c-1.2,12.3-4.1,26.8-5.7,34.4
			c-1.1,5.1-1.1,11.4,0,16.5c1.6,7.5,4.6,22,5.7,34.4c0.8,6.8,0.9,12.7,1.1,16.3c0.1,2,0.1,2.9,0.2,3.4c-0.1,0.5-0.1,1.5-0.2,4.1
			c-0.1,4.3-0.3,11.4-1.1,19.7c-1.2,15-4.1,32.5-5.7,41.6c-1.1,6.1-1.1,13.7,0,19.8c1.6,9.1,4.6,26.7,5.7,41.7
			c0.3,3,0.5,5.9,0.6,8.6h2.7c0.1-2.7,0.3-5.6,0.6-8.6C158,371.1,160.9,353.6,162.5,344.5z M154.2,115.2c-1.2-12.2-4.1-26.6-5.8-34
			c-1.1-4.8-1.1-10.8,0-15.7c1.6-7.5,4.6-21.8,5.8-34c0.3-2.3,0.5-4.6,0.6-6.6c0.1,2.1,0.3,4.3,0.6,6.6c1.2,12.3,4.1,26.6,5.8,34
			c0.5,2.4,0.8,5.1,0.8,7.8s-0.3,5.4-0.8,7.8c-1.6,7.5-4.6,21.8-5.8,34c-0.3,2.3-0.5,4.6-0.6,6.6
			C154.7,119.8,154.5,117.6,154.2,115.2z M154.2,239.4c-1.2-12.4-4.1-27-5.8-34.5c-1.1-4.9-1.1-11,0-15.9c1.6-7.6,4.6-22.1,5.8-34.5
			c0.3-2.4,0.5-4.6,0.6-6.7c0.1,2.1,0.3,4.3,0.6,6.7c1.2,12.4,4.1,27,5.8,34.5c0.5,2.4,0.8,5.2,0.8,7.9c0,2.8-0.3,5.5-0.8,7.9
			c-1.6,7.6-4.6,22.1-5.8,34.5c-0.3,2.4-0.5,4.6-0.6,6.7C154.7,244,154.5,241.8,154.2,239.4z M154.2,386c-1.2-15-4.1-32.6-5.8-41.8
			c-1.1-6-1.1-13.4,0-19.3c1.6-9.2,4.6-26.8,5.8-41.8c0.3-2.9,0.5-5.6,0.6-8.1c0.1,2.5,0.3,5.2,0.6,8.1c1.2,15,4.1,32.6,5.8,41.8
			c1.1,5.9,1.1,13.4,0,19.3c-1.6,9.2-4.6,26.8-5.8,41.8c-0.3,2.9-0.5,5.6-0.6,8.1C154.7,391.6,154.5,388.8,154.2,386z"/>
		<path class="st5" d="M137.7,342.7c-0.1-2.4-0.1-3.4-0.2-3.9c0.1-0.5,0.1-1.6,0.2-4.2c0.1-4.4,0.3-11.7,1.1-20.2
			c1.2-15.3,4.1-33.2,5.7-42.6c0.5-3.1,0.8-6.6,0.8-10.1l0,0c0-3.5-0.3-7-0.8-10.1c-1.6-9.3-4.6-27.3-5.7-42.6
			c-0.8-8.5-0.9-15.8-1.1-20.2c-0.1-2.5-0.1-3.6-0.2-4.1c0.1-0.4,0.1-1.1,0.2-2.6c0.1-2.8,0.3-7.4,1.1-12.8c1.2-9.7,4.1-21,5.7-26.9
			c0.6-2,0.8-4.3,0.8-6.5c0-2.3-0.3-4.5-0.8-6.5c-1.6-5.9-4.5-17.3-5.7-27c-0.8-5.3-0.9-10-1.1-12.8c-0.1-1.5-0.1-2.3-0.2-2.6
			c0.1-0.5,0.1-1.5,0.2-3.9c0.1-4.2,0.3-11.1,1.1-19.1c1.2-14.5,4.1-31.5,5.7-40.4c0.5-2.9,0.8-6.3,0.8-9.6l0,0
			c0-3.4-0.3-6.7-0.8-9.6c-0.4-2.1-0.8-4.6-1.3-7.5h-1.4c0.5,2.9,1,5.6,1.4,7.7c1.1,5.7,1.1,13,0,18.7c-1.6,8.9-4.6,25.9-5.8,40.5
			c-0.3,2.8-0.5,5.4-0.6,7.8c-0.1-2.4-0.3-5.1-0.6-7.8c-1.2-14.6-4.1-31.6-5.8-40.5c-1.1-5.8-1.1-12.9,0-18.7
			c0.4-2.1,0.9-4.8,1.4-7.7h-1.4c-0.5,2.8-0.9,5.4-1.3,7.5c-1.1,6-1.1,13.3,0,19.2c1.6,8.8,4.6,25.9,5.7,40.4c0.8,8,0.9,15,1.1,19.1
			c0.1,2.4,0.1,3.4,0.2,3.9c-0.1,0.4-0.1,1.1-0.2,2.6c-0.1,2.8-0.3,7.4-1.1,12.8c-1.2,9.7-4.1,21-5.7,26.9c-1.1,4-1.1,9,0,13.1
			c1.6,5.9,4.5,17.3,5.7,27c0.8,5.3,0.9,10,1,12.7c0.1,1.5,0.1,2.3,0.2,2.6c-0.1,0.5-0.1,1.6-0.2,4.1c-0.1,4.4-0.3,11.7-1.1,20.2
			c-1.2,15.3-4.1,33.2-5.7,42.6c-1.1,6.3-1.1,14,0,20.3c1.6,9.3,4.6,27.3,5.7,42.6c0.8,8.5,0.9,15.8,1.1,20.2
			c0.1,2.6,0.1,3.7,0.2,4.2c-0.1,0.5-0.1,1.5-0.2,3.9c-0.1,4.2-0.3,11.1-1.1,19.1c-0.9,11.1-2.8,23.7-4.4,32.9h1.4
			c1.6-9.3,3.5-21.7,4.4-32.8c0.3-2.8,0.5-5.4,0.6-7.8c0.1,2.4,0.3,5.1,0.6,7.8c0.9,11.1,2.8,23.5,4.4,32.8h1.4
			c-1.6-9.2-3.5-21.8-4.4-32.9C138,353.8,137.8,346.8,137.7,342.7z M136.2,169.1c-1.2-9.8-4.1-21.2-5.8-27.1
			c-1.1-3.8-1.1-8.5,0-12.3c1.6-5.9,4.6-17.4,5.8-27.1c0.3-1.9,0.5-3.6,0.6-5.3c0.1,1.6,0.3,3.4,0.6,5.3c1.2,9.8,4.1,21.2,5.8,27.1
			c1,3.8,1,8.6,0,12.3c-1.6,5.9-4.6,17.4-5.8,27.1c-0.3,1.9-0.5,3.6-0.6,5.3C136.6,172.7,136.4,171,136.2,169.1z M136.2,314.3
			c-1.2-15.4-4.1-33.3-5.8-42.7c-1.1-6.1-1.1-13.7,0-19.8c1.6-9.4,4.6-27.4,5.8-42.7c0.3-2.9,0.5-5.7,0.6-8.3
			c0.1,2.6,0.3,5.4,0.6,8.3c1.2,15.4,4.1,33.4,5.8,42.7c1.1,6,1.1,13.8,0,19.8c-1.6,9.4-4.6,27.3-5.8,42.7c-0.3,2.9-0.5,5.7-0.6,8.3
			C136.6,320,136.4,317.2,136.2,314.3z"/>
		<path class="st5" d="M126.4,344.5c0.5-3,0.8-6.5,0.8-9.9l0,0c0-3.5-0.3-6.9-0.8-9.9c-1.6-9.1-4.6-26.7-5.7-41.7
			c-0.8-8.3-0.9-15.4-1.1-19.7c-0.1-2.5-0.1-3.6-0.2-4.1c0.1-0.4,0.1-1.3,0.2-3.3c0.1-3.5,0.3-9.4,1.1-16.3
			c1.2-12.3,4.1-26.8,5.7-34.4c0.5-2.5,0.8-5.4,0.8-8.2c0-2.9-0.3-5.7-0.8-8.2c-1.6-7.5-4.6-22-5.7-34.4c-0.8-6.8-0.9-12.7-1.1-16.3
			c-0.1-2-0.1-2.9-0.2-3.3c0.1-0.4,0.1-1.3,0.2-3.3c0.1-3.5,0.3-9.3,1.1-16.1c1.2-12.2,4.1-26.5,5.7-33.9c0.5-2.5,0.8-5.3,0.8-8.1
			c0-2.8-0.3-5.6-0.8-8.1c-1.6-7.4-4.6-21.7-5.7-33.9c-0.8-6.7-0.9-12.6-1.1-16c-0.1-2-0.1-2.9-0.2-3.3c0.1-0.5,0.1-1.5,0.2-4.1
			c0.1-2.7,0.2-6.6,0.4-11.1h-2.7c0.3,4.6,0.4,8.4,0.4,11.1c0.1,2.5,0.1,3.6,0.2,4.1c-0.1,0.4-0.1,1.3-0.2,3.3
			c-0.1,3.5-0.3,9.3-1.1,16.1c-1.2,12.2-4.1,26.5-5.7,33.9c-1.1,5-1.1,11.2,0,16.2c1.6,7.4,4.6,21.7,5.7,33.9
			c0.8,6.7,0.9,12.6,1.1,16c0.1,2,0.1,2.9,0.2,3.3c-0.1,0.5-0.1,1.3-0.2,3.3c-0.1,3.5-0.3,9.4-1.1,16.3c-1.2,12.3-4.1,26.8-5.7,34.4
			c-1.1,5.1-1.1,11.4,0,16.5c1.6,7.5,4.6,22,5.7,34.4c0.8,6.8,0.9,12.7,1.1,16.3c0.1,2,0.1,2.9,0.2,3.4c-0.1,0.5-0.1,1.5-0.2,4.1
			c-0.1,4.3-0.3,11.4-1.1,19.7c-1.2,15-4.1,32.5-5.7,41.6c-1.1,6.1-1.1,13.7,0,19.8c1.6,9.1,4.6,26.7,5.7,41.7
			c0.3,3,0.5,5.9,0.6,8.6h2.7c0.1-2.7,0.3-5.6,0.6-8.6C121.8,371.1,124.7,353.6,126.4,344.5z M118.1,115.2
			c-1.2-12.2-4.1-26.6-5.8-34c-1.1-4.8-1.1-10.8,0-15.7c1.6-7.5,4.6-21.8,5.8-34c0.3-2.3,0.5-4.6,0.6-6.6c0.1,2.1,0.3,4.3,0.6,6.6
			c1.2,12.3,4.1,26.6,5.8,34c0.5,2.4,0.8,5.1,0.8,7.8s-0.3,5.4-0.8,7.8c-1.6,7.5-4.6,21.8-5.8,34c-0.3,2.3-0.5,4.6-0.6,6.6
			C118.5,119.8,118.3,117.6,118.1,115.2z M118.1,239.4c-1.2-12.4-4.1-27-5.8-34.5c-1.1-4.9-1.1-11,0-15.9c1.6-7.6,4.6-22.1,5.8-34.5
			c0.3-2.4,0.5-4.6,0.6-6.7c0.1,2.1,0.3,4.3,0.6,6.7c1.2,12.4,4.1,27,5.8,34.5c0.5,2.4,0.8,5.2,0.8,7.9c0,2.8-0.3,5.5-0.8,7.9
			c-1.6,7.6-4.6,22.1-5.8,34.5c-0.3,2.4-0.5,4.6-0.6,6.7C118.5,244,118.3,241.8,118.1,239.4z M118.1,386c-1.2-15-4.1-32.6-5.8-41.8
			c-1.1-6-1.1-13.4,0-19.3c1.6-9.2,4.6-26.8,5.8-41.8c0.3-2.9,0.5-5.6,0.6-8.1c0.1,2.5,0.3,5.2,0.6,8.1c1.2,15,4.1,32.6,5.8,41.8
			c1.1,5.9,1.1,13.4,0,19.3c-1.6,9.2-4.6,26.8-5.8,41.8c-0.3,2.9-0.5,5.6-0.6,8.1C118.5,391.6,118.3,388.8,118.1,386z"/>
		<path class="st5" d="M101.5,342.7c-0.1-2.4-0.1-3.4-0.2-3.9c0.1-0.5,0.1-1.6,0.2-4.2c0.1-4.4,0.3-11.7,1.1-20.2
			c1.2-15.3,4.1-33.2,5.7-42.6c0.5-3.1,0.8-6.6,0.8-10.1l0,0c0-3.5-0.3-7-0.8-10.1c-1.6-9.3-4.6-27.3-5.7-42.6
			c-0.8-8.5-0.9-15.8-1.1-20.2c-0.1-2.5-0.1-3.6-0.2-4.1c0.1-0.4,0.1-1.1,0.2-2.6c0.1-2.8,0.3-7.4,1.1-12.8c1.2-9.7,4.1-21,5.7-26.9
			c0.6-2,0.8-4.3,0.8-6.5l0,0c0-2.3-0.3-4.5-0.8-6.5c-1.6-5.9-4.5-17.3-5.7-27c-0.8-5.3-0.9-10-1-12.8c-0.1-1.5-0.1-2.3-0.2-2.6
			c0.1-0.5,0.1-1.5,0.2-3.9c0.1-4.2,0.3-11.1,1.1-19.1c1.2-14.5,4.1-31.5,5.7-40.4c0.5-2.9,0.8-6.3,0.8-9.6c0,0,0,0,0,0
			c0-3.4-0.3-6.7-0.8-9.6c-0.4-2.1-0.8-4.6-1.3-7.5h-1.4c0.5,2.9,1,5.6,1.4,7.7c0.5,2.9,0.8,6.1,0.8,9.4c0,0,0,0,0,0
			c0,3.3-0.3,6.5-0.8,9.4c-1.6,8.9-4.6,25.9-5.8,40.5c-0.3,2.8-0.5,5.4-0.6,7.8c-0.1-2.4-0.3-5.1-0.6-7.8
			c-1.2-14.6-4.1-31.6-5.8-40.5c-1.1-5.8-1.1-12.9,0-18.7c0.4-2.1,0.9-4.8,1.4-7.7h-1.4c-0.5,2.8-0.9,5.4-1.3,7.5
			c-1.1,6-1.1,13.3,0,19.2c1.6,8.8,4.6,25.8,5.7,40.4c0.8,8,0.9,15,1.1,19.1c0.1,2.4,0.1,3.4,0.2,3.9c-0.1,0.4-0.1,1.1-0.2,2.6
			c-0.1,2.8-0.3,7.4-1.1,12.8c-1.2,9.7-4.1,21-5.7,26.9c-1.1,4-1.1,9,0,13.1c1.6,5.9,4.5,17.3,5.7,27c0.8,5.3,0.9,10,1,12.7
			c0.1,1.5,0.1,2.3,0.2,2.6c-0.1,0.5-0.1,1.6-0.2,4.1c-0.1,4.4-0.3,11.7-1.1,20.2c-1.2,15.3-4.1,33.2-5.7,42.6
			c-1.1,6.3-1.1,14,0,20.3c1.6,9.3,4.6,27.3,5.7,42.6c0.8,8.5,0.9,15.8,1.1,20.2c0.1,2.6,0.1,3.7,0.2,4.2c-0.1,0.5-0.1,1.5-0.2,3.9
			c-0.1,4.2-0.3,11.1-1.1,19.1c-0.9,11.1-2.8,23.7-4.4,32.9h1.4c1.6-9.3,3.5-21.7,4.4-32.8c0.3-2.8,0.5-5.4,0.6-7.8
			c0.1,2.4,0.3,5.1,0.6,7.8c0.9,11.1,2.8,23.5,4.4,32.8h1.4c-1.6-9.2-3.5-21.8-4.4-32.9C101.8,353.8,101.6,346.8,101.5,342.7z
			 M100,169.1c-1.2-9.8-4.1-21.2-5.8-27.1c-1.1-3.8-1.1-8.5,0-12.3c1.6-5.9,4.6-17.4,5.8-27.1c0.3-1.9,0.5-3.6,0.6-5.3
			c0.1,1.6,0.3,3.4,0.6,5.3c1.2,9.8,4.1,21.2,5.8,27.1c0.5,1.9,0.8,4,0.8,6.2c0,2.2-0.3,4.3-0.8,6.2c-1.6,5.9-4.6,17.4-5.8,27.1
			c-0.3,1.9-0.5,3.6-0.6,5.3C100.4,172.7,100.2,171,100,169.1z M100,314.3c-1.2-15.4-4.1-33.4-5.8-42.7c-1.1-6.1-1.1-13.7,0-19.8
			c1.6-9.4,4.6-27.3,5.8-42.7c0.3-2.9,0.5-5.7,0.6-8.3c0.1,2.6,0.3,5.4,0.6,8.3c1.2,15.4,4.1,33.4,5.8,42.7c0.5,3,0.8,6.4,0.8,9.9
			l0,0c0,3.5-0.3,6.9-0.8,9.9c-1.6,9.4-4.6,27.3-5.8,42.7c-0.3,2.9-0.5,5.7-0.6,8.3C100.4,320,100.2,317.2,100,314.3z"/>
		<path class="st5" d="M90.2,344.5c0.5-3,0.8-6.5,0.8-9.9l0,0c0-3.5-0.3-6.9-0.8-9.9c-1.6-9.1-4.6-26.7-5.7-41.7
			c-0.8-8.3-0.9-15.4-1.1-19.7c-0.1-2.5-0.1-3.6-0.2-4.1c0.1-0.4,0.1-1.3,0.2-3.3c0.1-3.5,0.3-9.4,1.1-16.3
			c1.2-12.3,4.1-26.8,5.7-34.4c0.5-2.5,0.8-5.4,0.8-8.2c0-2.9-0.3-5.7-0.8-8.2c-1.6-7.5-4.6-22-5.7-34.4c-0.8-6.8-0.9-12.7-1.1-16.3
			c-0.1-2-0.1-2.9-0.2-3.3c0.1-0.4,0.1-1.3,0.2-3.3c0.1-3.5,0.3-9.3,1.1-16.1c1.2-12.2,4.1-26.5,5.7-33.9c0.5-2.5,0.8-5.3,0.8-8.1
			c0-2.8-0.3-5.6-0.8-8.1c-1.6-7.4-4.6-21.7-5.7-33.9c-0.8-6.7-0.9-12.6-1.1-16c-0.1-2-0.1-2.9-0.2-3.3c0.1-0.5,0.1-1.5,0.2-4.1
			c0.1-2.7,0.2-6.6,0.4-11.1h-2.7c0.3,4.6,0.4,8.4,0.4,11.1c0.1,2.5,0.1,3.6,0.2,4.1c-0.1,0.4-0.1,1.3-0.2,3.3
			c-0.1,3.5-0.3,9.3-1.1,16.1c-1.2,12.2-4.1,26.5-5.7,33.9c-1.1,5-1.1,11.2,0,16.2c1.6,7.4,4.6,21.7,5.7,33.9
			c0.8,6.7,0.9,12.6,1.1,16c0.1,2,0.1,2.9,0.2,3.3c-0.1,0.5-0.1,1.3-0.2,3.3c-0.1,3.5-0.3,9.4-1.1,16.3c-1.2,12.4-4.1,26.8-5.7,34.4
			c-1.1,5.1-1.1,11.4,0,16.5c1.6,7.5,4.6,22,5.7,34.4c0.8,6.8,0.9,12.7,1.1,16.3c0.1,2,0.1,2.9,0.2,3.4c-0.1,0.5-0.1,1.5-0.2,4.1
			c-0.1,4.3-0.3,11.4-1.1,19.7c-1.2,15-4.1,32.5-5.7,41.6c-1.1,6.1-1.1,13.7,0,19.8c1.6,9.1,4.6,26.7,5.7,41.7
			c0.3,3,0.5,5.9,0.6,8.6h2.7c0.1-2.7,0.3-5.6,0.6-8.6C85.6,371.1,88.6,353.6,90.2,344.5z M81.9,115.2c-1.2-12.3-4.1-26.6-5.8-34
			c-1.1-4.8-1.1-10.8,0-15.7c1.6-7.5,4.6-21.8,5.8-34c0.3-2.3,0.5-4.6,0.6-6.6c0.1,2.1,0.3,4.3,0.6,6.6c1.2,12.3,4.1,26.6,5.8,34
			c0.5,2.4,0.8,5.1,0.8,7.8c0,2.7-0.3,5.4-0.8,7.8c-1.6,7.5-4.6,21.8-5.8,34c-0.3,2.3-0.5,4.6-0.6,6.6
			C82.3,119.8,82.2,117.6,81.9,115.2z M81.9,239.4c-1.2-12.4-4.1-27-5.8-34.5c-1.1-4.9-1.1-11,0-15.9c1.6-7.6,4.6-22.1,5.8-34.5
			c0.3-2.4,0.5-4.6,0.6-6.7c0.1,2.1,0.3,4.3,0.6,6.7c1.2,12.4,4.1,27,5.8,34.5c0.5,2.4,0.8,5.2,0.8,7.9c0,2.8-0.3,5.5-0.8,7.9
			c-1.6,7.6-4.6,22.1-5.8,34.5c-0.3,2.4-0.5,4.6-0.6,6.7C82.3,244,82.2,241.8,81.9,239.4z M81.9,386c-1.2-15-4.1-32.6-5.8-41.8
			c-1.1-6-1.1-13.4,0-19.3c1.6-9.2,4.6-26.8,5.8-41.8c0.3-2.9,0.5-5.6,0.6-8.1c0.1,2.5,0.3,5.2,0.6,8.1c1.2,15,4.1,32.6,5.8,41.8
			c0.5,3,0.8,6.3,0.8,9.7l0,0c0,3.4-0.3,6.7-0.8,9.7c-1.6,9.2-4.6,26.7-5.8,41.8c-0.3,2.9-0.5,5.6-0.6,8.1
			C82.3,391.6,82.2,388.8,81.9,386z"/>
		<path class="st5" d="M65.3,342.7c-0.1-2.4-0.1-3.4-0.2-3.9c0.1-0.5,0.1-1.6,0.2-4.2c0.1-4.4,0.3-11.7,1.1-20.2
			c1.2-15.3,4.1-33.2,5.7-42.6c0.5-3.1,0.8-6.6,0.8-10.1l0,0c0-3.5-0.3-7-0.8-10.1c-1.6-9.3-4.6-27.3-5.7-42.6
			c-0.8-8.5-0.9-15.8-1.1-20.2c-0.1-2.5-0.1-3.6-0.2-4.1c0.1-0.4,0.1-1.1,0.2-2.6c0.1-2.8,0.3-7.4,1.1-12.8c1.2-9.7,4.1-21,5.7-26.9
			c0.6-2,0.8-4.3,0.8-6.5c0-2.3-0.3-4.5-0.8-6.5c-1.6-5.9-4.5-17.3-5.7-27c-0.8-5.3-0.9-10-1.1-12.8c-0.1-1.5-0.1-2.3-0.2-2.6
			c0.1-0.5,0.1-1.5,0.2-3.9c0.1-4.2,0.3-11.1,1.1-19.1c1.2-14.5,4.1-31.5,5.7-40.4c0.5-2.9,0.8-6.3,0.8-9.6l0,0
			c0-3.4-0.3-6.7-0.8-9.6c-0.4-2.1-0.8-4.6-1.3-7.5h-1.4c0.5,2.9,1,5.6,1.4,7.7c1.1,5.7,1.1,13,0,18.7c-1.6,8.9-4.6,25.9-5.8,40.5
			c-0.3,2.8-0.5,5.4-0.6,7.8c-0.1-2.4-0.3-5.1-0.6-7.8c-1.2-14.6-4.1-31.6-5.8-40.5c-1.1-5.8-1.1-12.9,0-18.7
			c0.4-2.1,0.9-4.8,1.4-7.7H58c-0.5,2.8-0.9,5.4-1.3,7.5c-1.1,6-1.1,13.3,0,19.2c1.6,8.8,4.6,25.9,5.7,40.4c0.8,8,0.9,15,1.1,19.1
			c0.1,2.4,0.1,3.4,0.2,3.9c-0.1,0.4-0.1,1.1-0.2,2.6c-0.1,2.8-0.3,7.4-1.1,12.8c-1.2,9.7-4.1,21-5.7,26.9c-1.1,4-1.1,9,0,13.1
			c1.6,5.9,4.5,17.3,5.7,27c0.8,5.3,0.9,10,1,12.7c0.1,1.5,0.1,2.3,0.2,2.6c-0.1,0.5-0.1,1.6-0.2,4.1c-0.1,4.4-0.3,11.7-1.1,20.2
			c-1.2,15.3-4.1,33.2-5.7,42.6c-1.1,6.3-1.1,14,0,20.3c1.6,9.3,4.6,27.3,5.7,42.6c0.8,8.5,0.9,15.8,1.1,20.2
			c0.1,2.6,0.1,3.7,0.2,4.2c-0.1,0.5-0.1,1.5-0.2,3.9c-0.1,4.2-0.3,11.1-1.1,19.1c-0.9,11.1-2.8,23.7-4.4,32.9h1.4
			c1.6-9.3,3.5-21.7,4.4-32.8c0.3-2.8,0.5-5.4,0.6-7.8c0.1,2.4,0.3,5.1,0.6,7.8c0.9,11.1,2.8,23.5,4.4,32.8h1.4
			c-1.6-9.2-3.5-21.8-4.4-32.9C65.6,353.8,65.4,346.8,65.3,342.7z M63.8,169.1c-1.2-9.8-4.1-21.2-5.8-27.1c-1.1-3.8-1.1-8.5,0-12.3
			c1.6-5.9,4.6-17.4,5.8-27.1c0.3-1.9,0.5-3.6,0.6-5.3c0.1,1.6,0.3,3.4,0.6,5.3c1.2,9.8,4.1,21.2,5.8,27.1c1,3.8,1,8.6,0,12.3
			c-1.6,5.9-4.6,17.4-5.8,27.1c-0.3,1.9-0.5,3.6-0.6,5.3C64.3,172.7,64.1,171,63.8,169.1z M63.8,314.3c-1.2-15.4-4.1-33.3-5.8-42.7
			c-1.1-6.1-1.1-13.7,0-19.8c1.6-9.4,4.6-27.4,5.8-42.7c0.3-2.9,0.5-5.7,0.6-8.3c0.1,2.6,0.3,5.4,0.6,8.3
			c1.2,15.4,4.1,33.4,5.8,42.7c1.1,6,1.1,13.8,0,19.8c-1.6,9.4-4.6,27.3-5.8,42.7c-0.3,2.9-0.5,5.7-0.6,8.3
			C64.3,320,64.1,317.2,63.8,314.3z"/>
		<path class="st5" d="M54,344.5c0.5-3,0.8-6.5,0.8-9.9l0,0c0-3.5-0.3-6.9-0.8-9.9c-1.6-9.1-4.6-26.7-5.7-41.7
			c-0.8-8.3-0.9-15.4-1.1-19.7c-0.1-2.5-0.1-3.6-0.2-4.1c0.1-0.4,0.1-1.3,0.2-3.4c0.1-3.5,0.3-9.4,1.1-16.3
			c1.2-12.3,4.1-26.8,5.7-34.4c0.5-2.5,0.8-5.4,0.8-8.2c0-2.9-0.3-5.7-0.8-8.2c-1.6-7.5-4.6-22-5.7-34.4c-0.8-6.8-0.9-12.7-1.1-16.3
			c-0.1-2-0.1-2.9-0.2-3.4c0.1-0.4,0.1-1.3,0.2-3.3c0.1-3.5,0.3-9.3,1.1-16c1.2-12.2,4.1-26.5,5.7-33.9c0.5-2.5,0.8-5.3,0.8-8.1
			c0-2.8-0.3-5.6-0.8-8.1c-1.6-7.4-4.6-21.7-5.7-33.9c-0.8-6.7-0.9-12.6-1.1-16c-0.1-2-0.1-2.9-0.2-3.3c0.1-0.5,0.1-1.5,0.2-4.1
			c0.1-2.7,0.2-6.6,0.4-11.1H45c0.3,4.6,0.4,8.4,0.4,11.1c0.1,2.5,0.1,3.6,0.2,4.1c-0.1,0.4-0.1,1.3-0.2,3.3
			c-0.1,3.5-0.3,9.3-1.1,16.1c-1.2,12.2-4.1,26.5-5.7,33.9c-1.1,5-1.1,11.2,0,16.2c1.6,7.4,4.6,21.7,5.7,33.9
			c0.8,6.7,0.9,12.6,1.1,16c0.1,2,0.1,2.9,0.2,3.3c-0.1,0.5-0.1,1.3-0.2,3.3c-0.1,3.5-0.3,9.4-1.1,16.3c-1.2,12.3-4.1,26.8-5.7,34.4
			c-1.1,5.1-1.1,11.4,0,16.5c1.6,7.5,4.6,22,5.7,34.4c0.8,6.8,0.9,12.7,1.1,16.3c0.1,2,0.1,2.9,0.2,3.4c-0.1,0.5-0.1,1.5-0.2,4.1
			c-0.1,4.3-0.3,11.5-1.1,19.7c-1.2,15-4.1,32.5-5.7,41.6c-1.1,6.1-1.1,13.7,0,19.8c1.6,9.1,4.6,26.7,5.7,41.7
			c0.3,3,0.5,5.9,0.6,8.6h2.7c0.1-2.7,0.3-5.6,0.6-8.6C49.5,371.1,52.4,353.6,54,344.5z M45.7,115.2c-1.2-12.2-4.1-26.6-5.8-34
			c-1.1-4.8-1.1-10.8,0-15.7c1.6-7.5,4.6-21.8,5.8-34c0.3-2.3,0.5-4.6,0.6-6.6c0.1,2.1,0.3,4.3,0.6,6.6c1.2,12.2,4.1,26.6,5.8,34
			c0.5,2.4,0.8,5.1,0.8,7.8c0,2.7-0.3,5.4-0.8,7.8c-1.6,7.5-4.6,21.8-5.8,34c-0.3,2.3-0.5,4.6-0.6,6.6
			C46.2,119.8,46,117.6,45.7,115.2z M45.7,239.4c-1.2-12.4-4.1-27-5.8-34.5c-1.1-4.9-1.1-11,0-15.9c1.6-7.6,4.6-22.1,5.8-34.5
			c0.3-2.4,0.5-4.6,0.6-6.7c0.1,2.1,0.3,4.3,0.6,6.7c1.2,12.4,4.1,27,5.8,34.5c0.5,2.4,0.8,5.2,0.8,7.9c0,2.8-0.3,5.5-0.8,7.9
			c-1.6,7.6-4.6,22.1-5.8,34.5c-0.3,2.4-0.5,4.6-0.6,6.7C46.2,244,46,241.8,45.7,239.4z M45.7,386c-1.2-15-4.1-32.6-5.8-41.8
			c-1.1-6-1.1-13.4,0-19.3c1.6-9.2,4.6-26.8,5.8-41.8c0.3-2.9,0.5-5.6,0.6-8.1c0.1,2.5,0.3,5.2,0.6,8.1c1.2,15,4.1,32.6,5.8,41.8
			c0.5,3,0.8,6.3,0.8,9.7l0,0c0,3.4-0.3,6.7-0.8,9.7c-1.6,9.2-4.6,26.8-5.8,41.8c-0.3,2.9-0.5,5.6-0.6,8.1
			C46.2,391.6,46,388.8,45.7,386z"/>
		<path class="st5" d="M29.2,342.7c-0.1-2.4-0.1-3.5-0.2-3.9c0.1-0.5,0.1-1.6,0.2-4.2c0.1-4.4,0.3-11.7,1.1-20.2
			c1.2-15.3,4.1-33.2,5.7-42.6c0.5-3.1,0.8-6.6,0.8-10.1l0,0c0-3.5-0.3-7-0.8-10.1c-1.6-9.3-4.6-27.3-5.7-42.6
			c-0.8-8.5-0.9-15.8-1.1-20.2c-0.1-2.5-0.1-3.6-0.2-4.1c0.1-0.4,0.1-1.1,0.2-2.6c0.1-2.8,0.3-7.4,1.1-12.8c1.2-9.7,4.1-21,5.7-26.9
			c0.6-2,0.8-4.3,0.8-6.5l0,0c0-2.3-0.3-4.5-0.8-6.5c-1.6-5.9-4.5-17.3-5.7-27c-0.7-5.3-0.9-10-1-12.7c-0.1-1.5-0.1-2.3-0.2-2.6
			c0.1-0.5,0.1-1.5,0.2-3.9c0.1-4.1,0.3-11.1,1.1-19.1c1.2-14.5,4.1-31.5,5.7-40.4c0.5-2.9,0.8-6.3,0.8-9.6c0,0,0,0,0,0
			c0-3.4-0.3-6.7-0.8-9.6c-0.4-2.1-0.8-4.6-1.3-7.5h-1.4c0.5,2.9,1,5.6,1.4,7.7c0.5,2.9,0.8,6.1,0.8,9.4c0,0,0,0,0,0
			c0,3.3-0.3,6.5-0.8,9.4c-1.6,8.9-4.6,25.9-5.8,40.5c-0.3,2.8-0.5,5.4-0.6,7.9c-0.1-2.4-0.3-5.1-0.6-7.8
			c-1.2-14.6-4.1-31.6-5.8-40.5c-1.1-5.8-1.1-12.9,0-18.7c0.4-2.1,0.9-4.8,1.4-7.7h-1.4c-0.5,2.8-0.9,5.4-1.3,7.5
			c-1.1,6-1.1,13.3,0,19.2c1.6,8.8,4.6,25.9,5.7,40.4c0.8,8,0.9,15,1.1,19.1c0.1,2.4,0.1,3.4,0.2,3.9c-0.1,0.4-0.1,1.1-0.2,2.6
			c-0.1,2.8-0.3,7.4-1.1,12.8c-1.2,9.7-4.1,21-5.7,26.9c-1.1,4-1.1,9,0,13.1c1.6,5.9,4.5,17.3,5.7,27c0.8,5.3,0.9,10,1.1,12.7
			c0.1,1.5,0.1,2.3,0.2,2.6c-0.1,0.5-0.1,1.6-0.2,4.1c-0.1,4.4-0.3,11.7-1.1,20.2c-1.2,15.3-4.1,33.2-5.7,42.6
			c-1.1,6.3-1.1,14,0,20.3c1.6,9.3,4.6,27.3,5.7,42.6c0.8,8.5,0.9,15.8,1.1,20.2c0.1,2.6,0.1,3.7,0.2,4.2c-0.1,0.5-0.1,1.5-0.2,3.9
			c-0.1,4.2-0.3,11.1-1.1,19.1c-0.9,11.1-2.8,23.7-4.4,32.9h1.4c1.6-9.3,3.5-21.7,4.4-32.8c0.3-2.8,0.5-5.4,0.6-7.9
			c0.1,2.4,0.3,5.1,0.6,7.8c0.9,11.1,2.8,23.5,4.4,32.8h1.4c-1.6-9.3-3.5-21.8-4.4-32.9C29.5,353.8,29.3,346.8,29.2,342.7z
			 M27.6,169.1c-1.2-9.8-4.1-21.2-5.8-27.1c-1.1-3.8-1.1-8.5,0-12.3c1.6-5.9,4.6-17.4,5.8-27.1c0.3-1.9,0.5-3.6,0.6-5.3
			c0.1,1.6,0.3,3.4,0.6,5.3c1.2,9.8,4.1,21.2,5.8,27.1c0.5,1.9,0.8,4,0.8,6.2c0,2.2-0.3,4.3-0.8,6.2c-1.6,5.9-4.6,17.4-5.8,27.1
			c-0.3,1.9-0.5,3.6-0.6,5.3C28.1,172.7,27.9,171,27.6,169.1z M27.6,314.3c-1.2-15.4-4.1-33.3-5.8-42.7c-1.1-6.1-1.1-13.7,0-19.8
			c1.6-9.4,4.6-27.4,5.7-42.7c0.3-2.9,0.5-5.7,0.6-8.3c0.1,2.6,0.3,5.4,0.6,8.3c1.2,15.4,4.1,33.3,5.8,42.7c0.5,3,0.8,6.4,0.8,9.9
			l0,0c0,3.5-0.3,6.9-0.8,9.9c-1.6,9.4-4.6,27.4-5.8,42.7c-0.3,2.9-0.5,5.7-0.6,8.3C28.1,320,27.9,317.2,27.6,314.3z"/>
		<path class="st5" d="M17.9,344.5c0.5-3,0.8-6.5,0.8-9.9l0,0c0-3.5-0.3-6.9-0.8-9.9c-1.6-9.1-4.6-26.7-5.7-41.7
			c-0.8-8.3-0.9-15.4-1.1-19.7c-0.1-2.5-0.1-3.6-0.2-4.1c0.1-0.4,0.1-1.3,0.2-3.4c0.1-3.5,0.3-9.4,1.1-16.3
			c1.2-12.3,4.1-26.8,5.7-34.4c0.5-2.5,0.8-5.4,0.8-8.2c0-2.9-0.3-5.7-0.8-8.2c-1.6-7.5-4.6-22-5.7-34.4c-0.8-6.8-0.9-12.7-1.1-16.3
			c-0.1-2-0.1-2.9-0.2-3.4c0.1-0.4,0.1-1.3,0.2-3.3c0.1-3.5,0.3-9.3,1.1-16c1.2-12.2,4.1-26.5,5.7-33.9c0.5-2.5,0.8-5.3,0.8-8.1
			c0-2.8-0.3-5.6-0.8-8.1c-1.6-7.4-4.6-21.7-5.7-33.9c-0.8-6.7-0.9-12.6-1.1-16c-0.1-2-0.1-2.9-0.2-3.3c0.1-0.5,0.1-1.5,0.2-4.1
			c0.1-2.7,0.2-6.6,0.4-11.1H8.8C9.1,1.4,9.2,5.2,9.2,7.9c0.1,2.5,0.1,3.6,0.2,4.1c-0.1,0.4-0.1,1.3-0.2,3.3
			c-0.1,3.5-0.3,9.3-1.1,16.1C7,43.5,4.1,57.8,2.4,65.2c-1.1,5-1.1,11.2,0,16.2c1.6,7.4,4.6,21.7,5.7,33.9c0.8,6.7,0.9,12.6,1.1,16
			c0.1,2,0.1,2.9,0.2,3.3c-0.1,0.5-0.1,1.3-0.2,3.3c-0.1,3.5-0.3,9.4-1.1,16.3c-1.2,12.3-4.1,26.8-5.7,34.4
			c-1.1,5.1-1.1,11.4,0,16.5c1.6,7.5,4.6,22,5.7,34.4c0.8,6.8,0.9,12.7,1.1,16.3c0.1,2,0.1,2.9,0.2,3.4c-0.1,0.5-0.1,1.5-0.2,4.1
			c-0.1,4.3-0.3,11.5-1.1,19.7c-1.2,15-4.1,32.5-5.7,41.6c-1.1,6.1-1.1,13.7,0,19.8c1.6,9.1,4.6,26.7,5.7,41.7
			c0.3,3,0.5,5.9,0.6,8.6h2.7c0.1-2.7,0.3-5.6,0.6-8.6C13.3,371.1,16.2,353.6,17.9,344.5z M9.6,115.2c-1.2-12.2-4.1-26.6-5.8-34
			c-1.1-4.8-1.1-10.8,0-15.7c1.6-7.5,4.6-21.8,5.8-34c0.3-2.3,0.5-4.6,0.6-6.6c0.1,2.1,0.3,4.3,0.6,6.6c1.2,12.2,4.1,26.6,5.8,34
			c0.5,2.4,0.8,5.1,0.8,7.8c0,2.7-0.3,5.4-0.8,7.8c-1.6,7.5-4.6,21.8-5.8,34c-0.3,2.3-0.5,4.6-0.6,6.6C10,119.8,9.8,117.6,9.6,115.2
			z M9.6,239.4c-1.2-12.4-4.1-27-5.8-34.5c-1.1-4.9-1.1-11,0-15.9c1.6-7.6,4.6-22.1,5.8-34.5c0.3-2.4,0.5-4.6,0.6-6.7
			c0.1,2.1,0.3,4.3,0.6,6.7c1.2,12.4,4.1,27,5.8,34.5c0.5,2.4,0.8,5.2,0.8,7.9c0,2.8-0.3,5.5-0.8,7.9c-1.6,7.6-4.6,22.1-5.8,34.5
			c-0.3,2.4-0.5,4.6-0.6,6.7C10,244,9.8,241.8,9.6,239.4z M9.6,386c-1.2-15-4.1-32.6-5.8-41.8c-1.1-6-1.1-13.4,0-19.3
			c1.6-9.2,4.6-26.8,5.8-41.8c0.3-2.9,0.5-5.6,0.6-8.1c0.1,2.5,0.3,5.2,0.6,8.1c1.2,15,4.1,32.6,5.8,41.8c0.5,3,0.8,6.3,0.8,9.7l0,0
			c0,3.4-0.3,6.7-0.8,9.7c-1.6,9.2-4.6,26.8-5.8,41.8c-0.3,2.9-0.5,5.6-0.6,8.1C10,391.6,9.8,388.8,9.6,386z"/>
	</g>
	<g>
		<path class="st1" d="M51.4,158c3,0.5,6.5,0.8,9.9,0.8l0,0c3.5,0,6.9-0.3,9.9-0.8c9.1-1.6,26.7-4.6,41.7-5.7
			c8.3-0.8,15.4-0.9,19.7-1.1c2.5-0.1,3.6-0.1,4.1-0.2c0.4,0.1,1.3,0.1,3.3,0.2c3.5,0.1,9.4,0.3,16.3,1.1
			c12.3,1.2,26.8,4.1,34.4,5.7c2.5,0.5,5.4,0.8,8.2,0.8c2.9,0,5.7-0.3,8.2-0.8c7.5-1.6,22-4.6,34.4-5.7c6.8-0.8,12.7-0.9,16.3-1.1
			c2-0.1,2.9-0.1,3.3-0.2c0.4,0.1,1.3,0.1,3.3,0.2c3.5,0.1,9.3,0.3,16.1,1.1c12.2,1.2,26.5,4.1,33.9,5.7c2.5,0.5,5.3,0.8,8.1,0.8
			c2.8,0,5.6-0.3,8.1-0.8c7.4-1.6,21.7-4.6,33.9-5.7c6.7-0.8,12.6-0.9,16-1.1c2-0.1,2.9-0.1,3.3-0.2c0.5,0.1,1.5,0.1,4.1,0.2
			c2.7,0.1,6.6,0.2,11.1,0.4V149c-4.6,0.3-8.4,0.4-11.1,0.4c-2.5,0.1-3.6,0.1-4.1,0.2c-0.4-0.1-1.3-0.1-3.3-0.2
			c-3.5-0.1-9.3-0.3-16.1-1.1c-12.2-1.2-26.5-4.1-33.9-5.7c-5-1.1-11.2-1.1-16.2,0c-7.4,1.6-21.7,4.6-33.9,5.7
			c-6.7,0.8-12.6,0.9-16,1.1c-2,0.1-2.9,0.1-3.3,0.2c-0.5-0.1-1.3-0.1-3.3-0.2c-3.5-0.1-9.4-0.3-16.3-1.1
			c-12.3-1.2-26.8-4.1-34.4-5.7c-5.1-1.1-11.4-1.1-16.5,0c-7.5,1.6-22,4.6-34.4,5.7c-6.8,0.8-12.7,0.9-16.3,1.1
			c-2,0.1-2.9,0.1-3.4,0.2c-0.5-0.1-1.5-0.1-4.1-0.2c-4.3-0.1-11.5-0.3-19.7-1.1c-15-1.2-32.5-4.1-41.6-5.7
			c-6.1-1.1-13.7-1.1-19.8,0c-9.1,1.6-26.7,4.6-41.7,5.7c-3,0.3-5.9,0.5-8.6,0.6v2.7c2.7,0.1,5.6,0.3,8.6,0.6
			C24.7,153.5,42.2,156.4,51.4,158z M280.6,149.7c12.2-1.2,26.6-4.1,34-5.8c4.8-1.1,10.8-1.1,15.7,0c7.5,1.6,21.8,4.6,34,5.8
			c2.3,0.3,4.6,0.5,6.6,0.6c-2.1,0.1-4.3,0.3-6.6,0.6c-12.3,1.2-26.6,4.1-34,5.8c-2.4,0.5-5.1,0.8-7.8,0.8c-2.7,0-5.4-0.3-7.8-0.8
			c-7.5-1.6-21.8-4.6-34-5.8c-2.3-0.3-4.6-0.5-6.6-0.6C276,150.2,278.2,150,280.6,149.7z M156.4,149.7c12.4-1.2,27-4.1,34.5-5.8
			c4.9-1.1,11-1.1,15.9,0c7.6,1.6,22.1,4.6,34.5,5.8c2.4,0.3,4.6,0.5,6.7,0.6c-2.1,0.1-4.3,0.3-6.7,0.6c-12.4,1.2-27,4.1-34.5,5.8
			c-2.4,0.5-5.2,0.8-7.9,0.8c-2.8,0-5.5-0.3-7.9-0.8c-7.6-1.6-22.1-4.6-34.5-5.8c-2.4-0.3-4.6-0.5-6.7-0.6
			C151.8,150.2,154,150,156.4,149.7z M9.8,149.7c15-1.2,32.6-4.1,41.8-5.8c6-1.1,13.4-1.1,19.3,0c9.2,1.6,26.8,4.6,41.8,5.8
			c2.9,0.3,5.6,0.5,8.1,0.6c-2.5,0.1-5.2,0.3-8.1,0.6c-15,1.2-32.6,4.1-41.8,5.8c-5.9,1.1-13.4,1.1-19.3,0
			c-9.2-1.6-26.8-4.6-41.8-5.8c-2.9-0.3-5.6-0.5-8.1-0.6C4.2,150.2,7,150,9.8,149.7z"/>
		<path class="st1" d="M53.1,133.1c2.4-0.1,3.4-0.1,3.9-0.2c0.5,0.1,1.6,0.1,4.2,0.2c4.4,0.1,11.7,0.3,20.2,1.1
			c15.3,1.2,33.2,4.1,42.6,5.7c3.1,0.5,6.6,0.8,10.1,0.8l0,0c3.5,0,7-0.3,10.1-0.8c9.3-1.6,27.3-4.6,42.6-5.7
			c8.5-0.8,15.8-0.9,20.2-1.1c2.5-0.1,3.6-0.1,4.1-0.2c0.4,0.1,1.1,0.1,2.6,0.2c2.8,0.1,7.4,0.3,12.8,1.1c9.7,1.2,21,4.1,26.9,5.7
			c2,0.6,4.3,0.8,6.5,0.8c2.3,0,4.5-0.3,6.5-0.8c5.9-1.6,17.3-4.5,27-5.7c5.3-0.8,10-0.9,12.8-1c1.5-0.1,2.3-0.1,2.6-0.2
			c0.5,0.1,1.5,0.1,3.9,0.2c4.2,0.1,11.1,0.3,19.1,1.1c14.5,1.2,31.5,4.1,40.4,5.7c2.9,0.5,6.3,0.8,9.6,0.8c0,0,0,0,0,0
			c3.4,0,6.7-0.3,9.6-0.8c2.1-0.4,4.6-0.8,7.5-1.3v-1.4c-2.9,0.5-5.6,1-7.7,1.4c-5.7,1.1-13,1.1-18.7,0c-8.9-1.6-25.9-4.6-40.5-5.8
			c-2.8-0.3-5.4-0.5-7.8-0.6c2.4-0.1,5.1-0.3,7.8-0.6c14.6-1.2,31.6-4.1,40.5-5.8c5.8-1.1,12.9-1.1,18.7,0c2.1,0.4,4.8,0.9,7.7,1.4
			v-1.4c-2.8-0.5-5.4-0.9-7.5-1.3c-6-1.1-13.3-1.1-19.2,0c-8.8,1.6-25.9,4.6-40.4,5.7c-8,0.8-15,0.9-19.1,1.1
			c-2.4,0.1-3.4,0.1-3.9,0.2c-0.4-0.1-1.1-0.1-2.6-0.2c-2.8-0.1-7.4-0.3-12.8-1.1c-9.7-1.2-21-4.1-26.9-5.7c-4-1.1-9-1.1-13.1,0
			c-5.9,1.6-17.3,4.5-27,5.7c-5.3,0.8-10,0.9-12.7,1c-1.5,0.1-2.3,0.1-2.6,0.2c-0.5-0.1-1.6-0.1-4.1-0.2c-4.4-0.1-11.7-0.3-20.2-1.1
			c-15.3-1.2-33.2-4.1-42.6-5.7c-6.3-1.1-14-1.1-20.3,0c-9.3,1.6-27.3,4.6-42.6,5.7c-8.5,0.8-15.8,0.9-20.2,1.1
			c-2.6,0.1-3.7,0.1-4.2,0.2c-0.5-0.1-1.5-0.1-3.9-0.2C49,131.2,42,131,34,130.3c-11.1-0.9-23.7-2.8-32.9-4.4v1.4
			c9.3,1.6,21.7,3.5,32.8,4.4c2.8,0.3,5.4,0.5,7.9,0.6c-2.4,0.1-5.1,0.3-7.8,0.6c-11.1,0.9-23.5,2.8-32.8,4.4v1.4
			c9.2-1.6,21.8-3.5,32.9-4.4C42,133.4,49,133.3,53.1,133.1z M226.7,131.6c9.8-1.2,21.2-4.1,27.1-5.8c3.8-1.1,8.5-1.1,12.3,0
			c5.9,1.6,17.4,4.6,27.1,5.8c1.9,0.3,3.6,0.5,5.3,0.6c-1.6,0.1-3.4,0.3-5.3,0.6c-9.8,1.2-21.2,4.1-27.1,5.8c-3.8,1-8.6,1-12.3,0
			c-5.9-1.6-17.4-4.6-27.1-5.8c-1.9-0.3-3.6-0.5-5.3-0.6C223.1,132.1,224.9,131.9,226.7,131.6z M81.5,131.6
			c15.4-1.2,33.4-4.1,42.7-5.8c6.1-1.1,13.7-1.1,19.8,0c9.4,1.6,27.4,4.6,42.7,5.8c2.9,0.3,5.7,0.5,8.3,0.6
			c-2.6,0.1-5.4,0.3-8.3,0.6c-15.4,1.2-33.4,4.1-42.7,5.8c-6,1.1-13.8,1.1-19.8,0c-9.4-1.6-27.3-4.6-42.7-5.8
			c-2.9-0.3-5.7-0.5-8.3-0.6C75.8,132.1,78.6,131.9,81.5,131.6z"/>
		<path class="st1" d="M51.4,121.9c3,0.5,6.5,0.8,9.9,0.8l0,0c3.5,0,6.9-0.3,9.9-0.8c9.1-1.6,26.7-4.6,41.7-5.7
			c8.3-0.8,15.4-0.9,19.7-1.1c2.5-0.1,3.6-0.1,4.1-0.2c0.4,0.1,1.3,0.1,3.3,0.2c3.5,0.1,9.4,0.3,16.3,1.1
			c12.3,1.2,26.8,4.1,34.4,5.7c2.5,0.5,5.4,0.8,8.2,0.8c2.9,0,5.7-0.3,8.2-0.8c7.5-1.6,22-4.6,34.4-5.7c6.8-0.8,12.7-0.9,16.3-1.1
			c2-0.1,2.9-0.1,3.3-0.2c0.4,0.1,1.3,0.1,3.3,0.2c3.5,0.1,9.3,0.3,16.1,1.1c12.2,1.2,26.5,4.1,33.9,5.7c2.5,0.5,5.3,0.8,8.1,0.8
			c2.8,0,5.6-0.3,8.1-0.8c7.4-1.6,21.7-4.6,33.9-5.7c6.7-0.8,12.6-0.9,16-1.1c2-0.1,2.9-0.1,3.3-0.2c0.5,0.1,1.5,0.1,4.1,0.2
			c2.7,0.1,6.6,0.2,11.1,0.4v-2.7c-4.6,0.3-8.4,0.4-11.1,0.4c-2.5,0.1-3.6,0.1-4.1,0.2c-0.4-0.1-1.3-0.1-3.3-0.2
			c-3.5-0.1-9.3-0.3-16.1-1.1c-12.2-1.2-26.5-4.1-33.9-5.7c-5-1.1-11.2-1.1-16.2,0c-7.4,1.6-21.7,4.6-33.9,5.7
			c-6.7,0.8-12.6,0.9-16,1.1c-2,0.1-2.9,0.1-3.3,0.2c-0.5-0.1-1.3-0.1-3.3-0.2c-3.5-0.1-9.4-0.3-16.3-1.1
			c-12.3-1.2-26.8-4.1-34.4-5.7c-5.1-1.1-11.4-1.1-16.5,0c-7.5,1.6-22,4.6-34.4,5.7c-6.8,0.8-12.7,0.9-16.3,1.1
			c-2,0.1-2.9,0.1-3.4,0.2c-0.5-0.1-1.5-0.1-4.1-0.2c-4.3-0.1-11.5-0.3-19.7-1.1c-15-1.2-32.5-4.1-41.6-5.7
			c-6.1-1.1-13.7-1.1-19.8,0c-9.1,1.6-26.7,4.6-41.7,5.7c-3,0.3-5.9,0.5-8.6,0.6v2.7c2.7,0.1,5.6,0.3,8.6,0.6
			C24.7,117.3,42.2,120.2,51.4,121.9z M280.6,113.5c12.2-1.2,26.6-4.1,34-5.8c4.8-1.1,10.8-1.1,15.7,0c7.5,1.6,21.8,4.6,34,5.8
			c2.3,0.3,4.6,0.5,6.6,0.6c-2.1,0.1-4.3,0.3-6.6,0.6c-12.3,1.2-26.6,4.1-34,5.8c-2.4,0.5-5.1,0.8-7.8,0.8c-2.7,0-5.4-0.3-7.8-0.8
			c-7.5-1.6-21.8-4.6-34-5.8c-2.3-0.3-4.6-0.5-6.6-0.6C276,114,278.2,113.8,280.6,113.5z M156.4,113.5c12.4-1.2,27-4.1,34.5-5.8
			c4.9-1.1,11-1.1,15.9,0c7.6,1.6,22.1,4.6,34.5,5.8c2.4,0.3,4.6,0.5,6.7,0.6c-2.1,0.1-4.3,0.3-6.7,0.6c-12.4,1.2-27,4.1-34.5,5.8
			c-2.4,0.5-5.2,0.8-7.9,0.8c-2.8,0-5.5-0.3-7.9-0.8c-7.6-1.6-22.1-4.6-34.5-5.8c-2.4-0.3-4.6-0.5-6.7-0.6
			C151.8,114,154,113.8,156.4,113.5z M9.8,113.5c15-1.2,32.6-4.1,41.8-5.8c6-1.1,13.4-1.1,19.3,0c9.2,1.6,26.8,4.6,41.8,5.8
			c2.9,0.3,5.6,0.5,8.1,0.6c-2.5,0.1-5.2,0.3-8.1,0.6c-15,1.2-32.6,4.1-41.8,5.8c-5.9,1.1-13.4,1.1-19.3,0
			c-9.2-1.6-26.8-4.6-41.8-5.8c-2.9-0.3-5.6-0.5-8.1-0.6C4.2,114,7,113.8,9.8,113.5z"/>
		<path class="st1" d="M53.1,97c2.4-0.1,3.4-0.1,3.9-0.2c0.5,0.1,1.6,0.1,4.2,0.2c4.4,0.1,11.7,0.3,20.2,1.1
			c15.3,1.2,33.2,4.1,42.6,5.7c3.1,0.5,6.6,0.8,10.1,0.8l0,0c3.5,0,7-0.3,10.1-0.8c9.3-1.6,27.3-4.6,42.6-5.7
			c8.5-0.8,15.8-0.9,20.2-1.1c2.5-0.1,3.6-0.1,4.1-0.2c0.4,0.1,1.1,0.1,2.6,0.2c2.8,0.1,7.4,0.3,12.8,1.1c9.7,1.2,21,4.1,26.9,5.7
			c2,0.6,4.3,0.8,6.5,0.8c0,0,0,0,0,0c2.3,0,4.5-0.3,6.5-0.8c5.9-1.6,17.3-4.5,27-5.7c5.3-0.8,10-0.9,12.8-1
			c1.5-0.1,2.3-0.1,2.6-0.2c0.5,0.1,1.5,0.1,3.9,0.2c4.2,0.1,11.1,0.3,19.1,1.1c14.5,1.2,31.5,4.1,40.4,5.7c2.9,0.5,6.3,0.8,9.6,0.8
			h0c3.4,0,6.7-0.3,9.6-0.8c2.1-0.4,4.6-0.8,7.5-1.3V101c-2.9,0.5-5.6,1-7.7,1.4c-2.9,0.5-6.1,0.8-9.4,0.8h0c-3.3,0-6.5-0.3-9.4-0.8
			c-8.9-1.6-25.9-4.6-40.5-5.8c-2.8-0.3-5.4-0.5-7.8-0.6c2.4-0.1,5.1-0.3,7.8-0.6c14.6-1.2,31.6-4.1,40.5-5.8
			c5.8-1.1,12.9-1.1,18.7,0c2.1,0.4,4.8,0.9,7.7,1.4v-1.4c-2.8-0.5-5.4-0.9-7.5-1.3c-6-1.1-13.3-1.1-19.2,0
			c-8.8,1.6-25.8,4.6-40.4,5.7c-8,0.8-15,0.9-19.1,1.1c-2.4,0.1-3.4,0.1-3.9,0.2c-0.4-0.1-1.1-0.1-2.6-0.2c-2.8-0.1-7.4-0.3-12.8-1
			c-9.7-1.2-21-4.1-26.9-5.7c-4-1.1-9-1.1-13.1,0c-5.9,1.6-17.3,4.5-27,5.7c-5.3,0.8-10,0.9-12.7,1c-1.5,0.1-2.3,0.1-2.6,0.2
			c-0.5-0.1-1.6-0.1-4.1-0.2c-4.4-0.1-11.7-0.3-20.2-1.1c-15.3-1.2-33.2-4.1-42.6-5.7c-6.3-1.1-14-1.1-20.3,0
			c-9.3,1.6-27.3,4.6-42.6,5.7c-8.5,0.8-15.8,0.9-20.2,1.1c-2.6,0.1-3.7,0.1-4.2,0.2c-0.5-0.1-1.5-0.1-3.9-0.2
			C49,95,42,94.8,34,94.1c-11.1-0.9-23.7-2.8-32.9-4.4v1.4c9.3,1.6,21.7,3.5,32.8,4.4c2.8,0.3,5.4,0.5,7.9,0.6
			c-2.4,0.1-5.1,0.3-7.8,0.6c-11.1,0.9-23.5,2.8-32.8,4.4v1.4c9.2-1.6,21.8-3.5,32.9-4.4C42,97.3,49,97.1,53.1,97z M226.7,95.5
			c9.8-1.2,21.2-4.1,27.1-5.8c3.8-1.1,8.5-1.1,12.3,0c5.9,1.6,17.4,4.6,27.1,5.8c1.9,0.3,3.6,0.5,5.3,0.6c-1.6,0.1-3.4,0.3-5.3,0.6
			c-9.8,1.2-21.2,4.1-27.1,5.8c-1.9,0.5-4,0.8-6.2,0.8c-2.2,0-4.3-0.3-6.2-0.8c-5.9-1.6-17.4-4.6-27.1-5.8c-1.9-0.3-3.6-0.5-5.3-0.6
			C223.1,95.9,224.9,95.7,226.7,95.5z M81.5,95.5c15.4-1.2,33.4-4.1,42.7-5.8c6.1-1.1,13.7-1.1,19.8,0c9.4,1.6,27.3,4.6,42.7,5.8
			c2.9,0.3,5.7,0.5,8.3,0.6c-2.6,0.1-5.4,0.3-8.3,0.6c-15.4,1.2-33.4,4.1-42.7,5.8c-3,0.5-6.4,0.8-9.9,0.8l0,0
			c-3.5,0-6.9-0.3-9.9-0.8c-9.4-1.6-27.3-4.6-42.7-5.8c-2.9-0.3-5.7-0.5-8.3-0.6C75.8,95.9,78.6,95.7,81.5,95.5z"/>
		<path class="st1" d="M51.4,85.7c3,0.5,6.5,0.8,9.9,0.8c0,0,0,0,0,0c3.5,0,6.9-0.3,9.9-0.8c9.1-1.6,26.7-4.6,41.7-5.7
			c8.3-0.8,15.4-0.9,19.7-1.1c2.5-0.1,3.6-0.1,4.1-0.2c0.4,0.1,1.3,0.1,3.3,0.2c3.5,0.1,9.4,0.3,16.3,1.1
			c12.3,1.2,26.8,4.1,34.4,5.7c2.5,0.5,5.4,0.8,8.2,0.8c2.9,0,5.7-0.3,8.2-0.8c7.5-1.6,22-4.6,34.4-5.7c6.8-0.8,12.7-0.9,16.3-1.1
			c2-0.1,2.9-0.1,3.3-0.2c0.4,0.1,1.3,0.1,3.3,0.2c3.5,0.1,9.3,0.3,16.1,1.1c12.2,1.2,26.5,4.1,33.9,5.7c2.5,0.5,5.3,0.8,8.1,0.8
			c2.8,0,5.6-0.3,8.1-0.8c7.4-1.6,21.7-4.6,33.9-5.7c6.7-0.8,12.6-0.9,16-1.1c2-0.1,2.9-0.1,3.3-0.2c0.5,0.1,1.5,0.1,4.1,0.2
			c2.7,0.1,6.6,0.2,11.1,0.4v-2.7c-4.6,0.3-8.4,0.4-11.1,0.4c-2.5,0.1-3.6,0.1-4.1,0.2c-0.4-0.1-1.3-0.1-3.3-0.2
			c-3.5-0.1-9.3-0.3-16.1-1.1c-12.2-1.2-26.5-4.1-33.9-5.7c-5-1.1-11.2-1.1-16.2,0c-7.4,1.6-21.7,4.6-33.9,5.7
			c-6.7,0.8-12.6,0.9-16,1.1c-2,0.1-2.9,0.1-3.3,0.2c-0.5-0.1-1.3-0.1-3.3-0.2c-3.5-0.1-9.4-0.3-16.3-1.1
			c-12.4-1.2-26.8-4.1-34.4-5.7c-5.1-1.1-11.4-1.1-16.5,0c-7.5,1.6-22,4.6-34.4,5.7c-6.8,0.8-12.7,0.9-16.3,1.1
			c-2,0.1-2.9,0.1-3.4,0.2c-0.5-0.1-1.5-0.1-4.1-0.2c-4.3-0.1-11.5-0.3-19.7-1.1c-15-1.2-32.5-4.1-41.6-5.7
			c-6.1-1.1-13.7-1.1-19.8,0c-9.1,1.6-26.7,4.6-41.7,5.7c-3,0.3-5.9,0.5-8.6,0.6v2.7c2.7,0.1,5.6,0.3,8.6,0.6
			C24.7,81.1,42.2,84,51.4,85.7z M280.6,77.4c12.3-1.2,26.6-4.1,34-5.8c4.8-1.1,10.8-1.1,15.7,0c7.5,1.6,21.8,4.6,34,5.8
			c2.3,0.3,4.6,0.5,6.6,0.6c-2.1,0.1-4.3,0.3-6.6,0.6c-12.3,1.2-26.6,4.1-34,5.8c-2.4,0.5-5.1,0.8-7.8,0.8c-2.7,0-5.4-0.3-7.8-0.8
			c-7.5-1.6-21.8-4.6-34-5.8c-2.3-0.3-4.6-0.5-6.6-0.6C276,77.8,278.2,77.6,280.6,77.4z M156.4,77.4c12.4-1.2,27-4.1,34.5-5.8
			c4.9-1.1,11-1.1,15.9,0c7.6,1.6,22.1,4.6,34.5,5.8c2.4,0.3,4.6,0.5,6.7,0.6c-2.1,0.1-4.3,0.3-6.7,0.6c-12.4,1.2-27,4.1-34.5,5.8
			c-2.4,0.5-5.2,0.8-7.9,0.8c-2.8,0-5.5-0.3-7.9-0.8c-7.6-1.6-22.1-4.6-34.5-5.8c-2.4-0.3-4.6-0.5-6.7-0.6
			C151.8,77.8,154,77.6,156.4,77.4z M9.8,77.4c15-1.2,32.6-4.1,41.8-5.8c6-1.1,13.4-1.1,19.3,0c9.2,1.6,26.8,4.6,41.8,5.8
			c2.9,0.3,5.6,0.5,8.1,0.6c-2.5,0.1-5.2,0.3-8.1,0.6c-15,1.2-32.6,4.1-41.8,5.8c-3,0.5-6.3,0.8-9.7,0.8c0,0,0,0,0,0
			c-3.4,0-6.7-0.3-9.7-0.8c-9.2-1.6-26.7-4.6-41.8-5.8C7,78.3,4.2,78.1,1.7,78C4.2,77.8,7,77.6,9.8,77.4z"/>
		<path class="st1" d="M53.1,60.8c2.4-0.1,3.4-0.1,3.9-0.2c0.5,0.1,1.6,0.1,4.2,0.2c4.4,0.1,11.7,0.3,20.2,1.1
			C96.7,63,114.7,66,124,67.6c3.1,0.5,6.6,0.8,10.1,0.8l0,0c3.5,0,7-0.3,10.1-0.8c9.3-1.6,27.3-4.6,42.6-5.7
			c8.5-0.8,15.8-0.9,20.2-1.1c2.5-0.1,3.6-0.1,4.1-0.2c0.4,0.1,1.1,0.1,2.6,0.2c2.8,0.1,7.4,0.3,12.8,1.1c9.7,1.2,21,4.1,26.9,5.7
			c2,0.6,4.3,0.8,6.5,0.8c2.3,0,4.5-0.3,6.5-0.8c5.9-1.6,17.3-4.5,27-5.7c5.3-0.8,10-0.9,12.8-1c1.5-0.1,2.3-0.1,2.6-0.2
			c0.5,0.1,1.5,0.1,3.9,0.2c4.2,0.1,11.1,0.3,19.1,1.1c14.5,1.2,31.5,4.1,40.4,5.7c2.9,0.5,6.3,0.8,9.6,0.8c0,0,0,0,0,0
			c3.4,0,6.7-0.3,9.6-0.8c2.1-0.4,4.6-0.8,7.5-1.3v-1.4c-2.9,0.5-5.6,1-7.7,1.4c-5.7,1.1-13,1.1-18.7,0c-8.9-1.6-25.9-4.6-40.5-5.8
			c-2.8-0.3-5.4-0.5-7.8-0.6c2.4-0.1,5.1-0.3,7.8-0.6c14.6-1.2,31.6-4.1,40.5-5.8c5.8-1.1,12.9-1.1,18.7,0c2.1,0.4,4.8,0.9,7.7,1.4
			v-1.4c-2.8-0.5-5.4-0.9-7.5-1.3c-6-1.1-13.3-1.1-19.2,0c-8.8,1.6-25.9,4.6-40.4,5.7c-8,0.8-15,0.9-19.1,1.1
			c-2.4,0.1-3.4,0.1-3.9,0.2c-0.4-0.1-1.1-0.1-2.6-0.2c-2.8-0.1-7.4-0.3-12.8-1.1c-9.7-1.2-21-4.1-26.9-5.7c-4-1.1-9-1.1-13.1,0
			c-5.9,1.6-17.3,4.5-27,5.7c-5.3,0.8-10,0.9-12.7,1c-1.5,0.1-2.3,0.1-2.6,0.2c-0.5-0.1-1.6-0.1-4.1-0.2c-4.4-0.1-11.7-0.3-20.2-1.1
			c-15.3-1.2-33.2-4.1-42.6-5.7c-6.3-1.1-14-1.1-20.3,0c-9.3,1.6-27.3,4.6-42.6,5.7c-8.5,0.8-15.8,0.9-20.2,1.1
			c-2.6,0.1-3.7,0.1-4.2,0.2c-0.5-0.1-1.5-0.1-3.9-0.2C49,58.8,42,58.7,34,57.9C22.9,57,10.4,55.1,1.1,53.5v1.4
			c9.3,1.6,21.7,3.5,32.8,4.4c2.8,0.3,5.4,0.5,7.9,0.6c-2.4,0.1-5.1,0.3-7.8,0.6c-11.1,0.9-23.5,2.8-32.8,4.4v1.4
			c9.2-1.6,21.8-3.5,32.9-4.4C42,61.1,49,60.9,53.1,60.8z M226.7,59.3c9.8-1.2,21.2-4.1,27.1-5.8c3.8-1.1,8.5-1.1,12.3,0
			c5.9,1.6,17.4,4.6,27.1,5.8c1.9,0.3,3.6,0.5,5.3,0.6c-1.6,0.1-3.4,0.3-5.3,0.6c-9.8,1.2-21.2,4.1-27.1,5.8c-3.8,1-8.6,1-12.3,0
			c-5.9-1.6-17.4-4.6-27.1-5.8c-1.9-0.3-3.6-0.5-5.3-0.6C223.1,59.7,224.9,59.5,226.7,59.3z M81.5,59.3c15.4-1.2,33.4-4.1,42.7-5.8
			c6.1-1.1,13.7-1.1,19.8,0c9.4,1.6,27.4,4.6,42.7,5.8c2.9,0.3,5.7,0.5,8.3,0.6c-2.6,0.1-5.4,0.3-8.3,0.6
			c-15.4,1.2-33.4,4.1-42.7,5.8c-6,1.1-13.8,1.1-19.8,0c-9.4-1.6-27.3-4.6-42.7-5.8c-2.9-0.3-5.7-0.5-8.3-0.6
			C75.8,59.7,78.6,59.5,81.5,59.3z"/>
		<path class="st1" d="M51.4,49.5c3,0.5,6.5,0.8,9.9,0.8c0,0,0,0,0,0c3.5,0,6.9-0.3,9.9-0.8c9.1-1.6,26.7-4.6,41.7-5.7
			c8.3-0.8,15.4-0.9,19.7-1.1c2.5-0.1,3.6-0.1,4.1-0.2c0.4,0.1,1.3,0.1,3.4,0.2c3.5,0.1,9.4,0.3,16.3,1.1
			c12.3,1.2,26.8,4.1,34.4,5.7c2.5,0.5,5.4,0.8,8.2,0.8c2.9,0,5.7-0.3,8.2-0.8c7.5-1.6,22-4.6,34.4-5.7c6.8-0.8,12.7-0.9,16.3-1.1
			c2-0.1,2.9-0.1,3.4-0.2c0.4,0.1,1.3,0.1,3.3,0.2c3.5,0.1,9.3,0.3,16,1.1c12.2,1.2,26.5,4.1,33.9,5.7c2.5,0.5,5.3,0.8,8.1,0.8
			c2.8,0,5.6-0.3,8.1-0.8c7.4-1.6,21.7-4.6,33.9-5.7c6.7-0.8,12.6-0.9,16-1.1c2-0.1,2.9-0.1,3.3-0.2c0.5,0.1,1.5,0.1,4.1,0.2
			c2.7,0.1,6.6,0.2,11.1,0.4v-2.7c-4.6,0.3-8.4,0.4-11.1,0.4c-2.5,0.1-3.6,0.1-4.1,0.2c-0.4-0.1-1.3-0.1-3.3-0.2
			c-3.5-0.1-9.3-0.3-16.1-1.1c-12.2-1.2-26.5-4.1-33.9-5.7c-5-1.1-11.2-1.1-16.2,0c-7.4,1.6-21.7,4.6-33.9,5.7
			c-6.7,0.8-12.6,0.9-16,1.1c-2,0.1-2.9,0.1-3.3,0.2c-0.5-0.1-1.3-0.1-3.3-0.2c-3.5-0.1-9.4-0.3-16.3-1.1
			c-12.3-1.2-26.8-4.1-34.4-5.7c-5.1-1.1-11.4-1.1-16.5,0c-7.5,1.6-22,4.6-34.4,5.7c-6.8,0.8-12.7,0.9-16.3,1.1
			c-2,0.1-2.9,0.1-3.4,0.2c-0.5-0.1-1.5-0.1-4.1-0.2c-4.3-0.1-11.5-0.3-19.7-1.1c-15-1.2-32.5-4.1-41.6-5.7
			c-6.1-1.1-13.7-1.1-19.8,0c-9.1,1.6-26.7,4.6-41.7,5.7c-3,0.3-5.9,0.5-8.6,0.6v2.7c2.7,0.1,5.6,0.3,8.6,0.6
			C24.7,44.9,42.2,47.9,51.4,49.5z M280.6,41.2c12.2-1.2,26.6-4.1,34-5.8c4.8-1.1,10.8-1.1,15.7,0c7.5,1.6,21.8,4.6,34,5.8
			c2.3,0.3,4.6,0.5,6.6,0.6c-2.1,0.1-4.3,0.3-6.6,0.6c-12.2,1.2-26.6,4.1-34,5.8c-2.4,0.5-5.1,0.8-7.8,0.8c-2.7,0-5.4-0.3-7.8-0.8
			c-7.5-1.6-21.8-4.6-34-5.8c-2.3-0.3-4.6-0.5-6.6-0.6C276,41.7,278.2,41.5,280.6,41.2z M156.4,41.2c12.4-1.2,27-4.1,34.5-5.8
			c4.9-1.1,11-1.1,15.9,0c7.6,1.6,22.1,4.6,34.5,5.8c2.4,0.3,4.6,0.5,6.7,0.6c-2.1,0.1-4.3,0.3-6.7,0.6c-12.4,1.2-27,4.1-34.5,5.8
			c-2.4,0.5-5.2,0.8-7.9,0.8c-2.8,0-5.5-0.3-7.9-0.8c-7.6-1.6-22.1-4.6-34.5-5.8c-2.4-0.3-4.6-0.5-6.7-0.6
			C151.8,41.7,154,41.5,156.4,41.2z M9.8,41.2c15-1.2,32.6-4.1,41.8-5.8c6-1.1,13.4-1.1,19.3,0c9.2,1.6,26.8,4.6,41.8,5.8
			c2.9,0.3,5.6,0.5,8.1,0.6c-2.5,0.1-5.2,0.3-8.1,0.6c-15,1.2-32.6,4.1-41.8,5.8c-3,0.5-6.3,0.8-9.7,0.8c0,0,0,0,0,0
			c-3.4,0-6.7-0.3-9.7-0.8c-9.2-1.6-26.8-4.6-41.8-5.8c-2.9-0.3-5.6-0.5-8.1-0.6C4.2,41.7,7,41.5,9.8,41.2z"/>
		<path class="st1" d="M53.1,24.6c2.4-0.1,3.5-0.1,3.9-0.2c0.5,0.1,1.6,0.1,4.2,0.2c4.4,0.1,11.7,0.3,20.2,1.1
			c15.3,1.2,33.2,4.1,42.6,5.7c3.1,0.5,6.6,0.8,10.1,0.8l0,0c3.5,0,7-0.3,10.1-0.8c9.3-1.6,27.3-4.6,42.6-5.7
			c8.5-0.8,15.8-0.9,20.2-1.1c2.5-0.1,3.6-0.1,4.1-0.2c0.4,0.1,1.1,0.1,2.6,0.2c2.8,0.1,7.4,0.3,12.8,1.1c9.7,1.2,21,4.1,26.9,5.7
			c2,0.6,4.3,0.8,6.5,0.8c0,0,0,0,0,0c2.3,0,4.5-0.3,6.5-0.8c5.9-1.6,17.3-4.5,27-5.7c5.3-0.8,10-0.9,12.7-1
			c1.5-0.1,2.3-0.1,2.6-0.2c0.5,0.1,1.5,0.1,3.9,0.2c4.1,0.1,11.1,0.3,19.1,1.1c14.5,1.2,31.5,4.1,40.4,5.7c2.9,0.5,6.3,0.8,9.6,0.8
			h0c3.4,0,6.7-0.3,9.6-0.8c2.1-0.4,4.6-0.8,7.5-1.3v-1.4c-2.9,0.5-5.6,1-7.7,1.4c-2.9,0.5-6.1,0.8-9.4,0.8h0
			c-3.3,0-6.5-0.3-9.4-0.8c-8.9-1.6-25.9-4.6-40.5-5.8c-2.8-0.3-5.4-0.5-7.9-0.6c2.4-0.1,5.1-0.3,7.8-0.6
			c14.6-1.2,31.6-4.1,40.5-5.8c5.8-1.1,12.9-1.1,18.7,0c2.1,0.4,4.8,0.9,7.7,1.4v-1.4c-2.8-0.5-5.4-0.9-7.5-1.3
			c-6-1.1-13.3-1.1-19.2,0c-8.8,1.6-25.9,4.6-40.4,5.7c-8,0.8-15,0.9-19.1,1.1c-2.4,0.1-3.4,0.1-3.9,0.2c-0.4-0.1-1.1-0.1-2.6-0.2
			c-2.8-0.1-7.4-0.3-12.8-1.1c-9.7-1.2-21-4.1-26.9-5.7c-4-1.1-9-1.1-13.1,0c-5.9,1.6-17.3,4.5-27,5.7c-5.3,0.8-10,0.9-12.7,1.1
			c-1.5,0.1-2.3,0.1-2.6,0.2c-0.5-0.1-1.6-0.1-4.1-0.2c-4.4-0.1-11.7-0.3-20.2-1.1c-15.3-1.2-33.2-4.1-42.6-5.7
			c-6.3-1.1-14-1.1-20.3,0c-9.3,1.6-27.3,4.6-42.6,5.7c-8.5,0.8-15.8,0.9-20.2,1.1c-2.6,0.1-3.7,0.1-4.2,0.2
			c-0.5-0.1-1.5-0.1-3.9-0.2C49,22.7,42,22.5,34,21.7c-11.1-0.9-23.7-2.8-32.9-4.4v1.4c9.3,1.6,21.7,3.5,32.8,4.4
			c2.8,0.3,5.4,0.5,7.9,0.6c-2.4,0.1-5.1,0.3-7.8,0.6c-11.1,0.9-23.5,2.8-32.8,4.4v1.4c9.3-1.6,21.8-3.5,32.9-4.4
			C42,24.9,49,24.7,53.1,24.6z M226.7,23.1c9.8-1.2,21.2-4.1,27.1-5.8c3.8-1.1,8.5-1.1,12.3,0c5.9,1.6,17.4,4.6,27.1,5.8
			c1.9,0.3,3.6,0.5,5.3,0.6c-1.6,0.1-3.4,0.3-5.3,0.6c-9.8,1.2-21.2,4.1-27.1,5.8c-1.9,0.5-4,0.8-6.2,0.8c-2.2,0-4.3-0.3-6.2-0.8
			c-5.9-1.6-17.4-4.6-27.1-5.8c-1.9-0.3-3.6-0.5-5.3-0.6C223.1,23.6,224.9,23.4,226.7,23.1z M81.5,23.1c15.4-1.2,33.4-4.1,42.7-5.8
			c6.1-1.1,13.7-1.1,19.8,0c9.4,1.6,27.4,4.6,42.7,5.8c2.9,0.3,5.7,0.5,8.3,0.6c-2.6,0.1-5.4,0.3-8.3,0.6
			c-15.4,1.2-33.4,4.1-42.7,5.8c-3,0.5-6.4,0.8-9.9,0.8l0,0c-3.5,0-6.9-0.3-9.9-0.8c-9.4-1.6-27.4-4.6-42.7-5.8
			c-2.9-0.3-5.7-0.5-8.3-0.6C75.8,23.6,78.6,23.4,81.5,23.1z"/>
		<path class="st1" d="M51.4,13.3c3,0.5,6.5,0.8,9.9,0.8c0,0,0,0,0,0c3.5,0,6.9-0.3,9.9-0.8c9.1-1.6,26.7-4.6,41.7-5.7
			c8.3-0.8,15.4-0.9,19.7-1.1c2.5-0.1,3.6-0.1,4.1-0.2c0.4,0.1,1.3,0.1,3.4,0.2c3.5,0.1,9.4,0.3,16.3,1.1
			c12.3,1.2,26.8,4.1,34.4,5.7c2.5,0.5,5.4,0.8,8.2,0.8c2.9,0,5.7-0.3,8.2-0.8c7.5-1.6,22-4.6,34.4-5.7c6.8-0.8,12.7-0.9,16.3-1.1
			c2-0.1,2.9-0.1,3.4-0.2c0.4,0.1,1.3,0.1,3.3,0.2c3.5,0.1,9.3,0.3,16,1.1c12.2,1.2,26.5,4.1,33.9,5.7c2.5,0.5,5.3,0.8,8.1,0.8
			c2.8,0,5.6-0.3,8.1-0.8c7.4-1.6,21.7-4.6,33.9-5.7c6.7-0.8,12.6-0.9,16-1.1c2-0.1,2.9-0.1,3.3-0.2c0.5,0.1,1.5,0.1,4.1,0.2
			c2.7,0.1,6.6,0.2,11.1,0.4V4.3c-4.6,0.3-8.4,0.4-11.1,0.4c-2.5,0.1-3.6,0.1-4.1,0.2c-0.4-0.1-1.3-0.1-3.3-0.2
			c-3.5-0.1-9.3-0.3-16.1-1.1c-12.2-1.2-26.5-4.1-33.9-5.7c-5-1.1-11.2-1.1-16.2,0c-7.4,1.6-21.7,4.6-33.9,5.7
			c-6.7,0.8-12.6,0.9-16,1.1c-2,0.1-2.9,0.1-3.3,0.2c-0.5-0.1-1.3-0.1-3.3-0.2c-3.5-0.1-9.4-0.3-16.3-1.1
			c-12.3-1.2-26.8-4.1-34.4-5.7c-5.1-1.1-11.4-1.1-16.5,0c-7.5,1.6-22,4.6-34.4,5.7c-6.8,0.8-12.7,0.9-16.3,1.1
			c-2,0.1-2.9,0.1-3.4,0.2c-0.5-0.1-1.5-0.1-4.1-0.2c-4.3-0.1-11.5-0.3-19.7-1.1c-15-1.2-32.5-4.1-41.6-5.7
			c-6.1-1.1-13.7-1.1-19.8,0C42.2-0.4,24.7,2.5,9.7,3.7c-3,0.3-5.9,0.5-8.6,0.6V7c2.7,0.1,5.6,0.3,8.6,0.6
			C24.7,8.8,42.2,11.7,51.4,13.3z M280.6,5c12.2-1.2,26.6-4.1,34-5.8c4.8-1.1,10.8-1.1,15.7,0c7.5,1.6,21.8,4.6,34,5.8
			c2.3,0.3,4.6,0.5,6.6,0.6c-2.1,0.1-4.3,0.3-6.6,0.6c-12.2,1.2-26.6,4.1-34,5.8c-2.4,0.5-5.1,0.8-7.8,0.8c-2.7,0-5.4-0.3-7.8-0.8
			c-7.5-1.6-21.8-4.6-34-5.8C278.2,6,276,5.8,274,5.6C276,5.5,278.2,5.3,280.6,5z M156.4,5c12.4-1.2,27-4.1,34.5-5.8
			c4.9-1.1,11-1.1,15.9,0c7.6,1.6,22.1,4.6,34.5,5.8c2.4,0.3,4.6,0.5,6.7,0.6c-2.1,0.1-4.3,0.3-6.7,0.6c-12.4,1.2-27,4.1-34.5,5.8
			c-2.4,0.5-5.2,0.8-7.9,0.8c-2.8,0-5.5-0.3-7.9-0.8c-7.6-1.6-22.1-4.6-34.5-5.8c-2.4-0.3-4.6-0.5-6.7-0.6
			C151.8,5.5,154,5.3,156.4,5z M9.8,5c15-1.2,32.6-4.1,41.8-5.8c6-1.1,13.4-1.1,19.3,0c9.2,1.6,26.8,4.6,41.8,5.8
			c2.9,0.3,5.6,0.5,8.1,0.6c-2.5,0.1-5.2,0.3-8.1,0.6C97.7,7.4,80.1,10.3,71,12c-3,0.5-6.3,0.8-9.7,0.8c0,0,0,0,0,0
			c-3.4,0-6.7-0.3-9.7-0.8c-9.2-1.6-26.8-4.6-41.8-5.8C7,6,4.2,5.8,1.7,5.6C4.2,5.5,7,5.3,9.8,5z"/>
	</g>
</g>
</svg>
